<svg width="221" height="40" viewBox="0 0 221 40" fill="none" xmlns="http://www.w3.org/2000/svg">
  <path fill-rule="evenodd" clip-rule="evenodd"
    d="M20 0C8.97333 0 0 8.97333 0 20C0 31.0267 8.97333 40 20 40C31.0267 40 40 31.0267 40 20C40 8.97333 31.0267 0 20 0ZM37.2133 18.5733C36.1911 15.1911 34.4711 12.3733 32.4978 10.0622C34.3689 9.87556 35.6667 9.85333 36.0222 9.85333C37.3067 11.8756 38.2178 14.1511 38.6622 16.5911C38.3911 17.2533 37.8889 17.9156 37.2133 18.5733ZM37.1111 27.0622C36.0444 25.4622 34.7822 23.9244 33.4267 22.48C34.5956 21.8178 35.6889 21.1156 36.6356 20.3911C37.0889 22.4133 37.2756 24.6356 37.1111 27.0622ZM3.36889 20.3911C4.31111 21.12 5.40889 21.8178 6.57333 22.48C5.21778 23.9244 3.95111 25.4622 2.88889 27.0622C2.72444 24.64 2.91111 22.4178 3.36889 20.3911ZM1.33333 16.5867C1.77778 14.1467 2.68889 11.8711 3.97333 9.84889C4.32889 9.84889 5.63111 9.87111 7.49778 10.0578C5.52889 12.3689 3.80444 15.1911 2.78222 18.5733C2.11111 17.9156 1.60889 17.2533 1.33333 16.5867ZM31.5467 28.2756C31.5556 28.2578 31.56 28.2444 31.5689 28.2267C32.2222 26.7067 32.6978 25.1422 33.0044 23.5378C34.3511 25 35.5956 26.5511 36.6044 28.1511C34.7289 28.2444 33.0489 28.2844 31.5467 28.2756ZM3.39556 28.1511C4.40444 26.5556 5.64444 25.0044 6.99556 23.5422C7.30222 25.1467 7.77778 26.7111 8.43111 28.2311C8.44 28.2489 8.44889 28.2622 8.45333 28.28C6.95111 28.2844 5.27111 28.2444 3.39556 28.1511ZM20.5111 6.38222C21.8133 6.55556 25.3289 7.20444 29.3556 9.44889C26.72 9.88 23.5956 10.6044 20.5111 11.84V6.38222ZM19.4889 11.84C16.2889 10.56 13.0533 9.82222 10.3644 9.4C14.84 6.92889 18.6578 6.42222 19.4889 6.33778V11.84ZM18.6133 12.5956C17.4444 13.3556 15.4844 14.6889 13.2578 16.4356C12.0889 14.4978 10.9378 12.4311 9.93333 10.3644C12.4756 10.7467 15.5467 11.4222 18.6133 12.5956ZM19.4889 13.2489V25.7333C18.2889 24.1067 16.0622 20.9956 13.8044 17.3289C16.2578 15.3956 18.3956 13.9556 19.4889 13.2489ZM18.7778 26.4844C16.6489 25.88 12.1689 24.2756 8.24444 22.2356C9.80444 20.6711 11.4444 19.2311 13 17.9689C15.3289 21.7378 17.6044 24.9022 18.7778 26.4844ZM19.4889 34.6044C18.6311 34.6089 16.7111 34.56 14.4 34.1733C16.88 31.9556 18.5511 30.0222 19.4889 28.8222V34.6044ZM20.5111 28.8222C21.4489 30.0222 23.12 31.9556 25.6 34.1733C23.2889 34.56 21.3689 34.6089 20.5111 34.6044V28.8222ZM20.5111 25.7333V13.2489C21.6044 13.9556 23.7422 15.3956 26.1956 17.3289C23.9378 20.9956 21.7111 24.1067 20.5111 25.7333ZM27 17.9689C28.5556 19.2311 30.1956 20.6711 31.7556 22.2356C27.8356 24.2756 23.3511 25.88 21.2222 26.4844C22.3956 24.9022 24.6711 21.7378 27 17.9689ZM21.3867 12.5956C24.4533 11.4222 27.5244 10.7511 30.0667 10.3689C29.0622 12.4356 27.9111 14.4978 26.7422 16.4356C24.5111 14.6844 22.5556 13.3556 21.3867 12.5956ZM20.5111 5.35111V2.54222C22.0222 3.18667 25.8178 5.00889 29.4133 8.32C25.2533 6.08889 21.7467 5.49333 20.5111 5.35111ZM19.4889 5.31111C18.8222 5.36889 15.3867 5.75111 11.1067 7.86222C14.5422 4.84444 18.0533 3.15556 19.4889 2.53778V5.31111ZM12.4533 17.0756C10.9111 18.32 9.28 19.7422 7.71556 21.3022C7.40444 17.9733 7.83111 14.4667 9.00889 10.7956C10.0489 12.9378 11.2444 15.0756 12.4533 17.0756ZM9.36889 27.8267C8.72889 26.3422 8.27556 24.8133 7.98222 23.2444C11.6756 25.1556 15.7644 26.6533 18.1333 27.3467C16.6178 27.7289 13.92 28.1822 9.57778 28.2667C9.50667 28.1156 9.43111 27.9778 9.36889 27.8267ZM18.6133 28.2756C17.6222 29.5244 15.8489 31.56 13.2222 33.8489C12.0844 32.5689 10.9822 31.0489 10.0622 29.2756C14.4133 29.1644 17.1022 28.6756 18.6133 28.2756ZM19.2578 35.6311H19.4889V38.7689C18.4178 38.2978 16.5378 37.1422 14.5733 35.2667C16.6133 35.5733 18.3156 35.6311 19.2578 35.6311ZM20.5111 35.6267H20.7422C21.6844 35.6267 23.3867 35.5733 25.4267 35.2578C23.4622 37.1333 21.5822 38.2889 20.5111 38.76V35.6267ZM21.3867 28.2756C22.8978 28.6756 25.5867 29.1644 29.9378 29.2756C29.0133 31.0489 27.9111 32.5689 26.7778 33.8489C24.1511 31.56 22.3778 29.5244 21.3867 28.2756ZM21.88 27.3422C24.2489 26.6489 28.3333 25.1556 32.0178 23.2444C31.7289 24.8133 31.2711 26.3422 30.6311 27.8267C30.5644 27.9778 30.4933 28.1156 30.4267 28.2622C26.1067 28.1778 23.4044 27.72 21.88 27.3422ZM32.28 21.2978C30.7156 19.7422 29.0844 18.32 27.5422 17.0711C28.7511 15.0711 29.9467 12.9333 30.9867 10.7911C32.1689 14.4667 32.5911 17.9733 32.28 21.2978ZM28.7733 3.17778C29.9733 3.80444 31.0978 4.55556 32.1333 5.41778C31.8356 6.29778 31.4889 7.19556 31.0978 8.10667C30.4578 6.49333 29.6844 4.84889 28.7733 3.17778ZM29.5778 7.10222C25.6667 3.67111 21.6711 1.89778 20.5111 1.43111V1.03111C22.8667 1.09333 25.12 1.58667 27.1867 2.43556C28.1067 4.01778 28.9022 5.57333 29.5778 7.10222ZM19.4889 1.43556C18.3333 1.90222 14.3333 3.67556 10.4222 7.10667C11.0978 5.57778 11.8933 4.02222 12.8089 2.44C14.88 1.59111 17.1289 1.09778 19.4889 1.03556V1.43556ZM8.89778 8.10667C8.51111 7.19556 8.16444 6.29778 7.86222 5.42222C8.89333 4.56 10.0222 3.81333 11.2178 3.18222C10.3111 4.84889 9.54222 6.49333 8.89778 8.10667ZM7.78667 11.3289C6.76444 14.8267 6.4 18.1867 6.69778 21.3911C5.56 20.7333 4.51556 20.0444 3.64 19.3333C4.51556 16.1867 6.02222 13.5378 7.78667 11.3289ZM8.15556 29.3022C8.42222 29.3022 8.68 29.3022 8.93333 29.2978C9.72889 30.9156 10.6622 32.3378 11.6489 33.5733C8.84445 32.8089 5.86667 31.48 3.65333 29.1867C5.29778 29.2667 6.8 29.3022 8.15556 29.3022ZM13.1289 35.2711C14.6578 36.8578 16.1911 38.0222 17.4489 38.8044C15.2222 38.5022 13.1156 37.8178 11.2 36.8089C11.8844 36.2889 12.5289 35.7733 13.1289 35.2711ZM26.8667 35.2711C27.4711 35.7733 28.1156 36.2889 28.8 36.8089C26.8844 37.8178 24.7778 38.5022 22.5511 38.8044C23.8044 38.0222 25.3422 36.8578 26.8667 35.2711ZM31.0667 29.2978C31.32 29.3022 31.5778 29.3022 31.8444 29.3022C33.2 29.3022 34.7022 29.2667 36.3467 29.1867C34.1289 31.48 31.1556 32.8089 28.3511 33.5733C29.3378 32.3378 30.2711 30.9156 31.0667 29.2978ZM33.3022 21.3867C33.6 18.1778 33.2356 14.8133 32.2089 11.3111C33.9733 13.52 35.4844 16.1733 36.36 19.3289C35.4889 20.04 34.44 20.7289 33.3022 21.3867ZM35.3378 8.84444C34.5867 8.87111 33.3422 8.93778 31.7733 9.11111C32.2178 8.11111 32.6133 7.12444 32.96 6.15556C33.8356 6.97333 34.6311 7.87556 35.3378 8.84444ZM7.04 6.15556C7.38222 7.12444 7.78222 8.11556 8.22667 9.11111C6.66222 8.93333 5.41333 8.86667 4.66222 8.84444C5.36889 7.87111 6.16444 6.97333 7.04 6.15556ZM1.10667 18.1956C1.48 18.6933 1.95111 19.1822 2.49333 19.6622C2.05778 21.4311 1.80444 23.3378 1.80889 25.4044C1.29778 23.6889 1.02222 21.8756 1.02222 20C1.02222 19.3911 1.05333 18.7911 1.10667 18.1956ZM5.12 31.7644C7.30667 33.2889 9.80444 34.2178 12.1244 34.7778C11.5289 35.2667 10.8933 35.7644 10.2267 36.2622C8.26667 35.08 6.53778 33.5511 5.12 31.7644ZM29.7733 36.2622C29.1067 35.7644 28.4711 35.2667 27.8756 34.7778C30.1956 34.2133 32.6933 33.2844 34.88 31.76C33.4622 33.5511 31.7333 35.08 29.7733 36.2622ZM38.1911 25.4044C38.1956 23.3378 37.9467 21.4311 37.5067 19.6622C38.0489 19.1822 38.5156 18.6889 38.8933 18.1956C38.9511 18.7911 38.9822 19.3911 38.9822 20C38.9778 21.88 38.7022 23.6933 38.1911 25.4044Z"
    fill="#111827"></path>
  <path fill-rule="evenodd" clip-rule="evenodd"
    d="M49.5752 8.92006C49.5752 7.90102 49.8645 7.59088 50.9105 7.59088H56.1852C60.5473 7.59088 64.1527 9.98341 64.1527 13.9488C64.1527 16.0533 63.0177 17.9142 61.2817 19.0661C63.8411 20.2402 65.5771 22.6328 65.5771 25.4462C65.5771 29.7217 61.6378 32.3358 56.8973 32.3358H50.9105C49.8868 32.3358 49.5752 32.0478 49.5752 31.0066V8.92006ZM60.614 14.3032C60.614 11.9329 58.5888 10.7588 56.1852 10.7588H53.1361V17.8256H56.1852C58.5888 17.8477 60.614 16.6958 60.614 14.3032ZM53.1361 29.1679H56.8973C59.6793 29.1679 62.0384 27.7944 62.0384 25.0917C62.0384 22.4112 59.7016 21.0156 56.8973 21.0156H53.1361V29.1679Z"
    fill="#111827"></path>
  <path fill-rule="evenodd" clip-rule="evenodd"
    d="M72.3875 8.94533C72.3875 7.92629 72.6768 7.61615 73.7228 7.61615H79.1977C83.5598 7.61615 87.1653 10.1859 87.1653 14.5279C87.1653 17.4742 85.4071 19.8446 82.8922 20.8636L86.8314 30.5445C86.9872 30.9211 87.054 31.2312 87.054 31.497C87.054 32.1173 86.5866 32.361 85.5851 32.361C83.9382 32.361 83.4931 32.0509 82.8699 30.5445L79.1977 21.4174H75.9484V30.6109C75.9484 31.9844 75.5478 32.3832 74.1679 32.3832C72.7881 32.3832 72.3875 31.9844 72.3875 30.6109V8.94533ZM75.9261 10.8062V18.2496H79.1754C81.5791 18.2496 83.6043 17.0976 83.6043 14.5279C83.6043 11.9581 81.5791 10.8062 79.1754 10.8062H75.9261Z"
    fill="#111827"></path>
  <path fill-rule="evenodd" clip-rule="evenodd"
    d="M94.1082 9.38839C94.1082 8.0149 94.5088 7.61615 95.8886 7.61615C97.2685 7.61615 97.6691 8.0149 97.6691 9.38839V30.6109C97.6691 31.9844 97.2685 32.3832 95.8886 32.3832C94.5088 32.3832 94.1082 31.9844 94.1082 30.6109V9.38839Z"
    fill="#111827"></path>
  <path fill-rule="evenodd" clip-rule="evenodd"
    d="M106.105 9.38839C106.105 8.0149 106.505 7.61615 107.885 7.61615C109.265 7.61615 109.666 8.0149 109.666 9.38839V29.1931H115.897C117.144 29.1931 117.5 29.5476 117.5 30.7882C117.5 32.0287 117.144 32.3832 115.897 32.3832H107.462C106.439 32.3832 106.127 32.0952 106.127 31.054V9.38839H106.105Z"
    fill="#111827"></path>
  <path fill-rule="evenodd" clip-rule="evenodd"
    d="M123.353 9.38839C123.353 8.0149 123.753 7.61615 125.133 7.61615C126.513 7.61615 126.914 8.0149 126.914 9.38839V29.1931H133.145C134.392 29.1931 134.748 29.5476 134.748 30.7882C134.748 32.0287 134.392 32.3832 133.145 32.3832H124.71C123.687 32.3832 123.375 32.0952 123.375 31.054V9.38839H123.353Z"
    fill="#111827"></path>
  <path fill-rule="evenodd" clip-rule="evenodd"
    d="M140.579 9.38839C140.579 8.0149 140.98 7.61615 142.36 7.61615C143.739 7.61615 144.14 8.0149 144.14 9.38839V30.6109C144.14 31.9844 143.739 32.3832 142.36 32.3832C140.98 32.3832 140.579 31.9844 140.579 30.6109V9.38839Z"
    fill="#111827"></path>
  <path fill-rule="evenodd" clip-rule="evenodd"
    d="M154.733 28.4842L153.754 30.5887C153.064 32.073 152.597 32.361 150.95 32.361C149.993 32.361 149.526 32.1394 149.526 31.5635C149.526 31.2976 149.615 30.9875 149.815 30.5887L160.32 8.10344C160.498 7.70469 160.698 7.50531 160.876 7.50531C161.054 7.50531 161.232 7.70469 161.41 8.12559L170.98 30.633C171.136 31.0096 171.225 31.3198 171.225 31.5635C171.225 32.1394 170.78 32.3831 169.801 32.3831C168.198 32.3831 167.753 32.0951 167.13 30.633L166.217 28.5064H154.733V28.4842ZM156.225 25.3163H164.86L160.743 15.6576L156.225 25.3163Z"
    fill="#111827"></path>
  <path fill-rule="evenodd" clip-rule="evenodd"
    d="M199.267 31.7629C199.267 32.2724 199.156 32.5383 198.933 32.5383C198.778 32.5383 198.555 32.4275 198.31 32.1617L180.439 15.1482V30.611C180.439 31.9845 180.038 32.3832 178.658 32.3832C177.279 32.3832 176.878 31.9845 176.878 30.611V8.23647C176.878 7.72696 176.989 7.46112 177.212 7.46112C177.368 7.46112 177.568 7.57189 177.835 7.83772L195.706 24.8291V9.38843C195.706 8.01494 196.107 7.61619 197.487 7.61619C198.867 7.61619 199.267 8.01494 199.267 9.38843V31.7629Z"
    fill="#111827"></path>
  <path fill-rule="evenodd" clip-rule="evenodd"
    d="M210.996 10.8062H206.367C205.12 10.8062 204.764 10.4517 204.764 9.21116C204.764 7.9706 205.12 7.61615 206.367 7.61615H219.164C220.41 7.61615 220.766 7.9706 220.766 9.21116C220.766 10.4517 220.41 10.8062 219.164 10.8062H214.534V30.6109C214.534 31.9844 214.134 32.3832 212.754 32.3832C211.374 32.3832 210.974 31.9844 210.974 30.6109V10.8062H210.996Z"
    fill="#111827"></path>
</svg>