<svg width="240" height="117" viewBox="0 0 240 117" fill="none" xmlns="http://www.w3.org/2000/svg">
  <path d="M239.8 0H0V80.5H239.8V0Z" fill="white" />
  <path
    d="M12.5 12.2998H40.9C50.2 12.4998 56.8 15.2998 60.7 20.9998C64.5 26.5998 66.3 32.9998 66.3 40.3998C66.4 58.7998 56.8 68.1998 37.6 68.5998H12.6V12.2998H12.5ZM29.8 54.0998H36.6C39.3 54.0998 41.5 53.5998 43.1 52.5998C44.7 51.5998 46 50.3998 46.8 48.9998C47.6 47.4998 48.2 45.9998 48.5 44.3998C48.6 43.5998 48.7 42.7998 48.8 42.0998C48.9 41.3998 48.9 40.6998 48.9 40.0998C48.9 39.0998 48.8 37.8998 48.7 36.3998C48.4 34.8998 47.8 33.4998 46.9 31.9998C46 30.4998 44.6 29.1998 42.8 28.1998C40.9 27.1998 38.4 26.6998 35.3 26.6998H29.8V54.0998Z"
    fill="#111827" />
  <path
    d="M69.1001 40.4004C69.1001 31.6004 71.8001 24.6004 77.1001 19.2004C82.2001 13.8004 89.0001 11.0004 97.6001 10.9004C106.3 11.0004 113.2 13.8004 118.3 19.2004C123.4 24.6004 126 31.6004 126.1 40.4004C126 49.1004 123.5 56.2004 118.3 61.5004C113.2 67.0004 106.3 69.7004 97.6001 69.8004C89.0001 69.8004 82.2001 67.0004 77.1001 61.5004C71.8001 56.2004 69.1001 49.1004 69.1001 40.4004ZM86.4001 40.4004C86.4001 43.5004 86.8001 46.1004 87.6001 48.0004C88.3001 50.0004 89.3001 51.6004 90.4001 52.8004C92.8001 54.9004 95.1001 55.9004 97.6001 55.9004C98.7001 55.9004 99.9001 55.7004 101.3 55.2004C102.6 54.7004 103.8 53.9004 104.9 52.8004C106.1 51.7004 107 50.1004 107.7 48.0004C108.4 46.0004 108.7 43.5004 108.7 40.4004C108.7 37.2004 108.4 34.6004 107.7 32.6004C107 30.5004 106 29.0004 104.9 27.9004C102.4 25.8004 99.9001 24.9004 97.6001 24.9004C96.6001 24.9004 95.4001 25.1004 94.1001 25.4004C92.8001 25.9004 91.6001 26.7004 90.5001 27.8004C90.0001 28.3004 89.5001 28.9004 89.0001 29.7004C88.7001 30.1004 88.5001 30.5004 88.3001 31.0004C88.1001 31.5004 87.9001 31.9004 87.7001 32.5004C86.8001 34.6004 86.4001 37.2004 86.4001 40.4004Z"
    fill="#111827" />
  <path
    d="M155.3 48.3998L150.3 30.9998H150.1L144.7 48.3998H155.3ZM141.7 12.2998H158.6L179.1 68.5998H161.1L158.8 60.5998H140.9L138.4 68.5998H121L141.7 12.2998Z"
    fill="#111827" />
  <path
    d="M211.1 33.2004C211 32.6004 210.9 31.9004 210.6 30.9004C210.3 30.0004 209.8 29.1004 209.2 28.2004C208.6 27.2004 207.7 26.4004 206.5 25.7004C205.4 25.1004 203.9 24.9004 202 24.9004C198.1 25.0004 195.3 26.6004 193.7 29.8004C192.1 32.8004 191.3 36.3004 191.3 40.3004C191.2 44.3004 192 47.8004 193.7 50.8004C195.3 54.0004 198.1 55.7004 202 55.7004C204.9 55.7004 207 54.8004 208.5 53.0004C209.9 51.3004 210.7 49.0004 211.2 46.4004H228.2C228.1 52.3004 225.9 57.6004 221.6 62.3004C217.2 67.1004 210.9 69.6004 202.5 69.8004C193.4 69.7004 186.4 66.8004 181.5 61.2004C176.5 55.7004 174 48.7004 174 40.3004C174.1 31.3004 176.6 24.2004 181.8 18.9004C186.9 13.6004 193.8 10.9004 202.5 10.9004C217.9 11.3004 226.4 18.8004 228 33.2004H211.1Z"
    fill="#111827" />
  <path d="M12.5 94.4002V92.7002H24.9V94.4002H19.7V108.2H17.6V94.4002H12.5Z" fill="#111827" />
  <path
    d="M28.7001 92.7002V99.4002H36.9001V92.7002H39.0001V108.2H36.9001V101.1H28.7001V108.2H26.6001V92.7002H28.7001Z"
    fill="#111827" />
  <path
    d="M53.0998 92.7002V94.4002H44.3998V99.3002H52.4998V101H44.3998V106.4H53.0998V108.1H42.2998V92.7002H53.0998Z"
    fill="#111827" />
  <path
    d="M67.0002 92.7002C69.4002 92.7002 71.2002 93.3002 72.5002 94.5002C73.8002 95.7002 74.4002 97.6002 74.4002 100.1C74.4002 101.4 74.3002 102.6 74.0002 103.6C73.7002 104.6 73.3002 105.5 72.7002 106.1C72.1002 106.8 71.3002 107.3 70.4002 107.7C69.5002 108.1 68.3002 108.2 67.0002 108.2H61.7002V92.7002H67.0002ZM67.2002 106.5C67.4002 106.5 67.7002 106.5 68.1002 106.4C68.4002 106.4 68.8002 106.3 69.2002 106.1C69.6002 106 70.0002 105.8 70.4002 105.5C70.8002 105.2 71.1002 104.9 71.4002 104.4C71.7002 104 72.0002 103.4 72.2002 102.7C72.4002 102 72.5002 101.2 72.5002 100.3C72.5002 99.4002 72.4002 98.5002 72.2002 97.8002C72.0002 97.1002 71.7002 96.4002 71.3002 95.9002C70.9002 95.4002 70.4002 95.0002 69.7002 94.7002C69.0002 94.4002 68.2002 94.3002 67.3002 94.3002H63.8002V106.4H67.2002V106.5Z"
    fill="#111827" />
  <path d="M79.2001 92.7002V108.2H77.1001V92.7002H79.2001Z" fill="#111827" />
  <path
    d="M89.1999 92.7002L95.2999 108.2H92.9999L91.2999 103.5H84.6999L82.9999 108.2H80.8999L86.9999 92.7002H89.1999ZM90.5999 101.8L87.9999 94.6002L85.3999 101.8H90.5999Z"
    fill="#111827" />
  <path
    d="M104.1 92.7002C105.6 92.7002 106.7 93.1002 107.6 93.8002C108.4 94.5002 108.9 95.5002 108.9 96.8002C108.9 97.7002 108.7 98.6002 108.3 99.3002C107.9 100 107.2 100.5 106.2 100.8C106.6 100.9 107 101 107.3 101.2C107.6 101.4 107.8 101.6 108 101.9C108.2 102.2 108.3 102.5 108.4 102.8C108.5 103.1 108.5 103.5 108.6 103.9C108.6 104.3 108.7 104.7 108.7 105.1C108.7 105.5 108.8 105.9 108.8 106.3C108.9 106.7 108.9 107 109.1 107.4C109.3 107.8 109.4 108 109.6 108.3H107C106.9 108.1 106.8 107.9 106.7 107.6C106.6 107.3 106.6 107 106.6 106.7C106.6 106.4 106.6 106 106.6 105.6C106.6 105.2 106.5 104.8 106.5 104.4C106.4 104 106.4 103.7 106.3 103.3C106.2 103 106.1 102.7 105.9 102.4C105.7 102.1 105.5 101.9 105.2 101.8C104.9 101.6 104.5 101.6 104 101.6H98.8998V108.2H96.7998V92.7002H104.1ZM104.5 99.7002C104.9 99.6002 105.3 99.5002 105.6 99.3002C105.9 99.1002 106.2 98.8002 106.4 98.5002C106.6 98.1002 106.7 97.7002 106.7 97.1002C106.7 96.3002 106.5 95.7002 106 95.2002C105.6 94.7002 104.9 94.5002 103.9 94.5002H98.7998V99.9002H103.1C103.6 99.9002 104.1 99.8002 104.5 99.7002Z"
    fill="#111827" />
  <path
    d="M117.3 108.2H115.2V101.8L109.2 92.5996H111.7L116.4 99.9996L120.9 92.5996H123.3L117.4 101.8V108.2H117.3Z"
    fill="#111827" />
  <path
    d="M130.6 97.3998C130.9 96.3998 131.4 95.5998 132 94.7998C132.6 93.9998 133.4 93.3998 134.3 92.9998C135.2 92.5998 136.3 92.2998 137.5 92.2998C138.7 92.2998 139.8 92.4998 140.7 92.9998C141.6 93.4998 142.4 94.0998 143 94.7998C143.6 95.5998 144.1 96.3998 144.4 97.3998C144.7 98.3998 144.9 99.3998 144.9 100.5C144.9 101.6 144.7 102.6 144.4 103.6C144.1 104.6 143.6 105.4 143 106.2C142.4 107 141.6 107.6 140.7 108C139.8 108.4 138.7 108.7 137.5 108.7C136.3 108.7 135.2 108.5 134.3 108C133.4 107.5 132.6 107 132 106.2C131.4 105.4 130.9 104.6 130.6 103.6C130.3 102.6 130.1 101.6 130.1 100.5C130.2 99.3998 130.3 98.3998 130.6 97.3998ZM132.5 102.8C132.7 103.6 133 104.2 133.5 104.9C133.9 105.5 134.5 106 135.2 106.4C135.9 106.8 136.7 107 137.6 107C138.5 107 139.4 106.8 140 106.4C140.7 106 141.2 105.5 141.7 104.9C142.1 104.3 142.5 103.6 142.7 102.8C142.9 102 143 101.3 143 100.5C143 99.6998 142.9 98.8998 142.7 98.1998C142.5 97.3998 142.2 96.7998 141.7 96.0998C141.3 95.4998 140.7 94.9998 140 94.5998C139.3 94.1998 138.5 93.9998 137.6 93.9998C136.7 93.9998 135.8 94.1998 135.2 94.5998C134.5 94.9998 134 95.4998 133.5 96.0998C133.1 96.6998 132.7 97.3998 132.5 98.1998C132.3 98.9998 132.2 99.6998 132.2 100.5C132.2 101.3 132.3 102 132.5 102.8Z"
    fill="#111827" />
  <path d="M157.8 92.7002V94.4002H149.7V99.3002H156.8V101H149.7V108.1H147.6V92.7002H157.8Z"
    fill="#111827" />
  <path
    d="M172.6 92.7002L178.7 108.2H176.4L174.7 103.5H168.1L166.4 108.2H164.3L170.4 92.7002H172.6ZM174.1 101.8L171.5 94.6002L168.9 101.8H174.1Z"
    fill="#111827" />
  <path
    d="M195.7 94.8994C194.9 94.2994 194 94.0994 192.9 94.0994C192 94.0994 191.2 94.2994 190.5 94.5994C189.8 94.8994 189.3 95.3994 188.9 95.9994C188.5 96.5994 188.2 97.2994 188 97.9994C187.8 98.7994 187.7 99.4994 187.7 100.399C187.7 101.299 187.8 102.099 188 102.899C188.2 103.699 188.5 104.399 188.9 104.999C189.3 105.599 189.9 106.099 190.5 106.399C191.2 106.699 192 106.899 192.9 106.899C193.6 106.899 194.2 106.799 194.7 106.599C195.2 106.399 195.7 106.099 196.1 105.699C196.5 105.299 196.8 104.799 197 104.299C197.2 103.699 197.3 103.199 197.4 102.499H199.5C199.3 104.499 198.6 105.999 197.5 107.099C196.4 108.199 194.8 108.699 192.8 108.699C191.6 108.699 190.5 108.499 189.6 108.099C188.7 107.699 188 107.099 187.4 106.399C186.8 105.699 186.4 104.799 186.1 103.799C185.8 102.799 185.7 101.799 185.7 100.599C185.7 99.4994 185.9 98.3994 186.2 97.3994C186.5 96.3994 187 95.4994 187.6 94.7994C188.2 94.0994 189 93.4994 189.9 92.9994C190.8 92.5994 191.9 92.3994 193.1 92.3994C193.9 92.3994 194.7 92.4994 195.4 92.6994C196.1 92.8994 196.8 93.1994 197.3 93.6994C197.9 94.0994 198.3 94.5994 198.7 95.2994C199.1 95.8994 199.3 96.6994 199.4 97.4994H197.3C197 96.2994 196.5 95.3994 195.7 94.8994Z"
    fill="#111827" />
  <path d="M212.7 92.7002V94.4002H204V99.3002H212.1V101H204V106.4H212.7V108.1H202V92.7002H212.7Z"
    fill="#111827" />
  <path
    d="M214.9 97.3998C215.2 96.3998 215.7 95.5998 216.3 94.7998C216.9 93.9998 217.7 93.3998 218.6 92.9998C219.5 92.5998 220.6 92.2998 221.8 92.2998C223 92.2998 224.1 92.4998 225 92.9998C225.9 93.4998 226.7 94.0998 227.3 94.7998C227.9 95.5998 228.4 96.3998 228.7 97.3998C229 98.3998 229.2 99.3998 229.2 100.5C229.2 101.6 229 102.6 228.7 103.6C228.4 104.6 227.9 105.4 227.3 106.2C226.7 107 225.9 107.6 225 108C224.1 108.4 223 108.7 221.8 108.7C220.6 108.7 219.5 108.5 218.6 108C217.7 107.5 216.9 107 216.3 106.2C215.7 105.4 215.2 104.6 214.9 103.6C214.6 102.6 214.4 101.6 214.4 100.5C214.4 99.3998 214.6 98.3998 214.9 97.3998ZM216.8 102.8C217 103.6 217.3 104.2 217.8 104.9C218.2 105.5 218.8 106 219.5 106.4C220.2 106.8 221 107 221.9 107C222.8 107 223.7 106.8 224.3 106.4C224.9 106 225.5 105.5 226 104.9C226.4 104.3 226.8 103.6 227 102.8C227.2 102 227.3 101.3 227.3 100.5C227.3 99.6998 227.2 98.8998 227 98.1998C226.8 97.3998 226.5 96.7998 226 96.0998C225.6 95.4998 225 94.9998 224.3 94.5998C223.6 94.1998 222.8 93.9998 221.9 93.9998C221 93.9998 220.1 94.1998 219.5 94.5998C218.8 94.9998 218.3 95.4998 217.8 96.0998C217.4 96.6998 217 97.3998 216.8 98.1998C216.6 98.9998 216.5 99.6998 216.5 100.5C216.5 101.3 216.6 102 216.8 102.8Z"
    fill="#111827" />
</svg>