<svg width="124" height="24" viewBox="0 0 124 24" fill="none" xmlns="http://www.w3.org/2000/svg">
  <path
    d="M15.6303 0.535999V15.832C15.6303 18.2 14.9583 20.024 13.6143 21.304C12.2916 22.584 10.4996 23.224 8.23825 23.224C5.87025 23.224 3.97158 22.552 2.54225 21.208C1.11292 19.864 0.39825 17.9547 0.39825 15.48H5.83825C5.83825 16.4187 6.03025 17.1333 6.41425 17.624C6.79825 18.0933 7.35292 18.328 8.07825 18.328C8.73958 18.328 9.25158 18.1147 9.61425 17.688C9.97692 17.2613 10.1583 16.6427 10.1583 15.832V0.535999H15.6303ZM41.2343 23.224C39.1223 23.224 37.1809 22.7333 35.4103 21.752C33.6609 20.7707 32.2636 19.4053 31.2183 17.656C30.1943 15.8853 29.6823 13.9013 29.6823 11.704C29.6823 9.50667 30.1943 7.53333 31.2183 5.784C32.2636 4.03467 33.6609 2.66933 35.4103 1.688C37.1809 0.706666 39.1223 0.216 41.2343 0.216C43.3463 0.216 45.2769 0.706666 47.0263 1.688C48.7969 2.66933 50.1836 4.03467 51.1863 5.784C52.2103 7.53333 52.7223 9.50667 52.7223 11.704C52.7223 13.9013 52.2103 15.8853 51.1863 17.656C50.1623 19.4053 48.7756 20.7707 47.0263 21.752C45.2769 22.7333 43.3463 23.224 41.2343 23.224ZM41.2343 18.232C43.0263 18.232 44.4556 17.6347 45.5223 16.44C46.6103 15.2453 47.1543 13.6667 47.1543 11.704C47.1543 9.72 46.6103 8.14133 45.5223 6.968C44.4556 5.77333 43.0263 5.176 41.2343 5.176C39.4209 5.176 37.9703 5.76267 36.8823 6.936C35.8156 8.10933 35.2823 9.69867 35.2823 11.704C35.2823 13.688 35.8156 15.2773 36.8823 16.472C37.9703 17.6453 39.4209 18.232 41.2343 18.232ZM65.3985 11.736C65.3985 9.51733 65.8785 7.544 66.8385 5.816C67.7985 4.06667 69.1318 2.712 70.8385 1.752C72.5665 0.770665 74.5185 0.279999 76.6945 0.279999C79.3612 0.279999 81.6438 0.983999 83.5425 2.392C85.4412 3.8 86.7105 5.72 87.3505 8.152H81.3345C80.8865 7.21333 80.2465 6.49867 79.4145 6.008C78.6038 5.51733 77.6758 5.272 76.6305 5.272C74.9452 5.272 73.5798 5.85867 72.5345 7.032C71.4892 8.20533 70.9665 9.77333 70.9665 11.736C70.9665 13.6987 71.4892 15.2667 72.5345 16.44C73.5798 17.6133 74.9452 18.2 76.6305 18.2C77.6758 18.2 78.6038 17.9547 79.4145 17.464C80.2465 16.9733 80.8865 16.2587 81.3345 15.32H87.3505C86.7105 17.752 85.4412 19.672 83.5425 21.08C81.6438 22.4667 79.3612 23.16 76.6945 23.16C74.5185 23.16 72.5665 22.68 70.8385 21.72C69.1318 20.7387 67.7985 19.384 66.8385 17.656C65.8785 15.928 65.3985 13.9547 65.3985 11.736ZM111.885 23.224C109.773 23.224 107.832 22.7333 106.061 21.752C104.312 20.7707 102.915 19.4053 101.869 17.656C100.845 15.8853 100.333 13.9013 100.333 11.704C100.333 9.50667 100.845 7.53333 101.869 5.784C102.915 4.03467 104.312 2.66933 106.061 1.688C107.832 0.706666 109.773 0.216 111.885 0.216C113.997 0.216 115.928 0.706666 117.677 1.688C119.448 2.66933 120.835 4.03467 121.837 5.784C122.861 7.53333 123.373 9.50667 123.373 11.704C123.373 13.9013 122.861 15.8853 121.837 17.656C120.813 19.4053 119.427 20.7707 117.677 21.752C115.928 22.7333 113.997 23.224 111.885 23.224ZM111.885 18.232C113.677 18.232 115.107 17.6347 116.173 16.44C117.261 15.2453 117.805 13.6667 117.805 11.704C117.805 9.72 117.261 8.14133 116.173 6.968C115.107 5.77333 113.677 5.176 111.885 5.176C110.072 5.176 108.621 5.76267 107.533 6.936C106.467 8.10933 105.933 9.69867 105.933 11.704C105.933 13.688 106.467 15.2773 107.533 16.472C108.621 17.6453 110.072 18.232 111.885 18.232Z"
    fill="#111827" />
</svg>