<svg width="1500" height="489" viewBox="0 0 1500 489" fill="none"
  xmlns="http://www.w3.org/2000/svg">
  <path
    d="M25.4092 393.747H88.9323V294.228H142.292L192.263 393.747H262.562L204.121 279.406C235.035 264.584 254.939 234.093 254.939 195.979C254.939 135.844 211.32 97.3065 146.103 97.3065H25.4092V393.747ZM141.021 150.242C171.089 150.242 190.146 168.029 190.146 195.979C190.146 223.506 171.089 241.292 141.021 241.292H88.9323V150.242H141.021ZM388.86 396.288C446.878 396.288 484.568 362.409 491.344 320.061H432.479C427.398 340.388 410.458 350.975 386.319 350.975C356.252 350.975 336.348 332.342 335.077 301.427V298.463H493.038C494.308 291.687 494.732 284.488 494.732 278.135C493.885 214.189 449.842 173.534 384.625 173.534C317.291 173.534 272.825 217.577 272.825 285.335C272.825 352.669 316.444 396.288 388.86 396.288ZM336.348 259.502C339.736 233.669 359.216 218 385.049 218C412.152 218 430.362 232.822 434.597 259.502H336.348ZM515.546 321.331C518.087 367.915 559.165 396.288 619.723 396.288C678.165 396.288 718.819 368.762 718.819 325.566C718.819 276.441 677.318 265.007 627.346 259.925C596.008 256.114 577.375 254.42 577.375 237.904C577.375 223.929 592.62 215.459 615.912 215.459C640.051 215.459 656.567 226.046 658.261 243.409H715.431C712.467 198.943 672.236 173.111 613.795 173.111C557.894 172.687 520.204 201.061 520.204 244.256C520.204 289.146 559.588 300.58 610.407 306.509C645.556 311.167 660.378 312.438 660.378 330.224C660.378 345.47 645.133 353.516 620.147 353.516C590.926 353.516 574.41 340.388 572.293 321.331H515.546ZM857.839 396.288C915.857 396.288 953.547 362.409 960.323 320.061H901.458C896.376 340.388 879.437 350.975 855.298 350.975C825.23 350.975 805.326 332.342 804.056 301.427V298.463H962.017C963.287 291.687 963.711 284.488 963.711 278.135C962.864 214.189 918.821 173.534 853.604 173.534C786.27 173.534 741.803 217.577 741.803 285.335C741.803 352.669 785.423 396.288 857.839 396.288ZM805.326 259.502C808.714 233.669 828.195 218 854.027 218C881.131 218 899.341 232.822 903.575 259.502H805.326ZM1121.27 173.534C1087.82 173.534 1067.91 186.239 1053.94 203.178L1048.43 176.075H996.342V393.747H1056.05V282.37C1056.05 244.68 1073.84 222.659 1104.75 222.659C1134.82 222.659 1148.8 242.139 1148.8 278.982V393.747H1208.51V273.054C1208.51 198.52 1168.28 173.534 1121.27 173.534ZM1403.27 203.178C1389.29 185.392 1367.69 173.534 1337.63 173.534C1279.61 173.534 1236.84 217.153 1236.84 284.488C1236.84 353.516 1279.61 396.288 1338.05 396.288C1369.39 396.288 1390.56 382.313 1404.96 363.68L1410.89 393.747H1462.98V97.3065H1403.27V203.178ZM1351.18 347.587C1318.57 347.587 1297.82 322.178 1297.82 284.911C1297.82 247.644 1318.57 222.235 1351.18 222.235C1383.79 222.235 1404.11 248.068 1404.11 285.335C1404.11 322.178 1383.79 347.587 1351.18 347.587Z"
    fill="#111827" />
</svg>