<?xml version="1.0" encoding="utf-8"?>
<svg version="1.1" id="Layer_1" xmlns="http://www.w3.org/2000/svg"
	xmlns:xlink="http://www.w3.org/1999/xlink" x="0px" y="0px"
	viewBox="0 0 101 22" style="enable-background:new 0 0 101 22;" xml:space="preserve">
<path fill="#111827" class="st0" d="M78.7,15.7c0.9,0,1.7-0.3,2.4-0.9l1.2,1.3c-0.8,0.8-1.9,1.4-3.5,1.4c-2.9,0-4.7-1.9-4.7-4.5
	c0-2.4,1.9-4.5,4.3-4.5c0,0,0.1,0,0.1,0c2.9,0,4.5,2.2,4.3,5.2H76C76.2,14.9,77.1,15.7,78.7,15.7 M80.7,12.2c-0.2-1.2-0.9-2-2.3-2
	c-1.3,0-2.2,0.7-2.4,2H80.7z M34.4,15.6l5.2-5.3h-5.1V8.6H42v1.7l-5.2,5.3H42v1.7h-7.7L34.4,15.6z M47.9,15.7c0.9,0,1.7-0.3,2.4-0.9
	l1.2,1.3c-0.8,0.8-1.9,1.4-3.5,1.4c-2.9,0-4.7-1.9-4.7-4.5c0-2.4,1.9-4.5,4.3-4.5c0,0,0.1,0,0.1,0c2.9,0,4.5,2.2,4.3,5.2h-6.8
	C45.4,14.9,46.3,15.7,47.9,15.7 M49.9,12.2c-0.2-1.2-0.9-2-2.3-2c-1.3,0-2.2,0.7-2.4,2H49.9z M63.2,12.9c0-2.8,2.1-4.5,4.3-4.5
	c1.1,0,2.2,0.5,2.9,1.3V4.6h1.8v12.6h-1.8V16c-0.7,0.9-1.8,1.4-2.9,1.4C65.3,17.4,63.2,15.7,63.2,12.9 M70.5,12.9
	c-0.1-2.4-3-3.6-4.7-1.8s-0.5,4.6,2,4.6C69.3,15.7,70.5,14.5,70.5,12.9 M84,15.4l1.7-0.9c0.4,0.8,1.3,1.3,2.2,1.3
	c1,0,1.6-0.5,1.6-1.1c0-0.7-1-0.8-2.1-1.1c-1.5-0.3-3-0.8-3-2.6c0-1.4,1.3-2.6,3.3-2.6c1.6,0,2.8,0.6,3.5,1.7L89.6,11
	c-0.4-0.6-1.2-1-1.9-1c-1,0-1.5,0.5-1.5,1c0,0.6,0.8,0.8,2,1.1c1.4,0.3,3,0.8,3,2.6c0,1.2-1,2.8-3.5,2.8
	C85.9,17.4,84.7,16.7,84,15.4 M96.2,13.4L94.8,15v2.2h-1.8V4.6h1.8v8.2l3.9-4.3h2.2l-3.4,3.7l3.5,4.9h-2.1L96.2,13.4z M57.6,8.4
	c-2.2,0-4,1.4-4,3.8v5h1.9v-4.8c0-1.4,0.8-2.3,2.2-2.3s2.1,0.8,2.1,2.3v4.8h1.9v-5C61.6,9.8,59.8,8.4,57.6,8.4 M13.4,5.8V22H0
	L13.4,5.8z M13.4,0c0,3.7-3,6.7-6.7,6.7C3,6.7,0,3.7,0,0H13.4z M15.6,22c0-3.7,3-6.7,6.7-6.7c3.7,0,6.7,3,6.7,6.7H15.6z M15.6,16.2
	V0h13.4L15.6,16.2z"/>
</svg>