<svg fill="none" height="96" viewBox="0 0 87 96" width="87" xmlns="http://www.w3.org/2000/svg" xmlns:xlink="http://www.w3.org/1999/xlink"><clipPath id="a"><path d="m0 0h87v96h-87z"/></clipPath><g clip-path="url(#a)"><path d="m77.0011 1.2832h-67.16185c-1.89006 0-3.42226 1.5322-3.42226 3.42226v68.72024c0 1.2767.71067 2.4473 1.84339 3.0363l33.99032 17.6749c.9999.52 2.1916.5143 3.1865-.0152l33.1716-17.6527c1.1167-.5942 1.8145-1.7561 1.8145-3.0211v-68.74244c0-1.89006-1.5322-3.42226-3.4222-3.42226z" fill="#fff"/><path d="m79.1401 4.7056c0-1.18128-.9576-2.13891-2.1389-2.13891h-67.16181c-1.18129 0-2.13891.95763-2.13891 2.13891v68.72l.00502.1492c.05144.7391.4835 1.4036 1.14715 1.7487l33.99035 17.6748.1182.0573c.599.2662 1.2902.2437 1.8732-.0664l33.1715-17.6527.1278-.074c.623-.3887 1.0064-1.0731 1.0064-1.8143zm2.5667 68.7426c0 1.685-.9005 3.237-2.3528 4.0752l-.142.0786-33.1715 17.6526c-1.3252.7053-2.9046.7348-4.252.0861l-.1299-.0652-33.99028-17.6748c-1.5088-.7846-2.47287-2.3197-2.53161-4.0109l-.00292-.1642v-68.72c0-2.59883 2.10677-4.7056 4.7056-4.7056h67.16181c2.5988 0 4.7056 2.10677 4.7056 4.7056z" fill="#16171b"/><path d="m52.6173 2.56689h-18.3946v14.02301l9.3036 4.7994 9.091-4.7994z" fill="#16171b"/><path d="m46.0934 7.8185-.3357-.23007-2.3371-1.59966-5.3483 3.65946v2.09157l5.3476 3.6602 5.3469-3.6602v-2.09157l-2.6741-1.82973zm-2.6728-.9081 1.6644 1.13952-.8547.58465-.0761.05211-.7329-.50142-2.1392 1.46365.7329.50209.6727.4608.7329.5021 2.1385-1.46431-.7322-.50142.0761-.0521.8547-.58465 1.6637 1.13884-.8547.58534-3.1461 2.1532-1.6644-1.1396-.6727-.4601-.8098-.5535-.8547-.58534z" fill="#fff"/><path d="m2.69315 51.4219-2.538329 5.8625c-.0983541.2271-.0935026.4858.013301.7091l2.515638 5.2598c.14215.2972.44235.4864.77182.4864h80.35642c.3295 0 .6297-.1892.7718-.4864l2.5157-5.2598c.1068-.2233.1116-.482.0133-.7091l-2.5384-5.8625c-.1355-.313-.444-.5157-.7851-.5157h-80.31102c-.3411 0-.64961.2027-.78513.5157z" fill="#0a715c"/><path d="m22.0764 43.8432c-1.2463 0-2.3154-.2034-3.2075-.61-.879-.4067-1.5677-.9774-2.0662-1.712-.4854-.7478-.7609-1.6267-.8265-2.6369l3.424-.1574c.0656.4985.2099.9249.4329 1.2791s.5182.6231.8855.8068c.3805.1836.8462.2755 1.3972.2755.446 0 .8199-.0525 1.1216-.1575.3149-.1049.551-.2623.7084-.4722.1706-.2099.2558-.4723.2558-.7872 0-.2886-.0721-.5378-.2164-.7477-.1312-.223-.4001-.4198-.8068-.5904-.3936-.1836-.9905-.3607-1.7907-.5313-1.2332-.2623-2.2302-.5641-2.9911-.9052-.7477-.3542-1.2987-.7936-1.6529-1.3184-.3411-.5378-.5117-1.22-.5117-2.0465 0-.8527.2165-1.6005.6494-2.2433s1.0561-1.1413 1.8694-1.4955c.8134-.3673 1.7842-.551 2.9124-.551 1.2069 0 2.217.2099 3.0304.6297.8265.4067 1.4693.9708 1.9284 1.6923.4592.7215.7347 1.5546.8265 2.4991l-3.3846.1574c-.0394-.4591-.164-.8527-.3739-1.1806-.1968-.328-.4723-.5838-.8265-.7675-.3411-.1836-.7543-.2755-1.2397-.2755-.6034 0-1.0823.1312-1.4365.3936-.3411.2624-.5116.6034-.5116 1.0232 0 .328.0787.5969.2361.8068.1706.2099.4461.3936.8265.551.3804.1443.9118.2821 1.5939.4133 1.3381.2492 2.3942.5772 3.1682.9839.774.4066 1.325.8855 1.6529 1.4364.328.551.492 1.1873.492 1.9088 0 .8921-.223 1.6661-.6691 2.322-.446.6428-1.0888 1.1413-1.9284 1.4955-.8265.3411-1.8169.5117-2.9714.5117zm13.151 0c-1.443 0-2.6893-.2952-3.7388-.8855-1.0363-.5904-1.83-1.43-2.381-2.5188-.551-1.0889-.8265-2.3811-.8265-3.8766s.2755-2.7877.8265-3.8765c.551-1.102 1.3447-1.9482 2.381-2.5385 1.0495-.6035 2.2958-.9052 3.7388-.9052 1.4562 0 2.6959.3017 3.7192.9052 1.0364.5903 1.83 1.4365 2.381 2.5385.5641 1.0888.8462 2.381.8462 3.8765s-.2821 2.7877-.8462 3.8766c-.551 1.0888-1.3446 1.9284-2.381 2.5188-1.0233.5903-2.263.8855-3.7192.8855zm0-2.7943c.7216 0 1.3316-.1771 1.8301-.5313.5116-.3542.9052-.8658 1.1807-1.5349.2755-.669.4132-1.4758.4132-2.4204 0-.9445-.1377-1.7513-.4132-2.4204-.2755-.6821-.6691-1.2003-1.1807-1.5545-.5116-.3674-1.1282-.551-1.8497-.551-.7084 0-1.3185.1836-1.8301.551-.5116.3542-.9052.8724-1.1807 1.5545-.2623.6691-.3935 1.4759-.3935 2.4204 0 .9446.1312 1.7514.3935 2.4204.2755.6691.6691 1.1807 1.1807 1.5349s1.1282.5313 1.8497.5313zm14.0321 2.7943c-1.2856 0-2.4335-.2886-3.4436-.8659-.997-.5772-1.7841-1.4037-2.3614-2.4794-.5641-1.0888-.8461-2.4007-.8461-3.9356 0-1.4824.2689-2.768.8068-3.8569.551-1.1019 1.3315-1.9546 2.3417-2.5581 1.0101-.6035 2.1973-.9052 3.5617-.9052 1.8759 0 3.3321.4592 4.3685 1.3775 1.0495.9183 1.7251 2.2367 2.0268 3.9552l-3.5617.1378c-.1443-.8396-.4591-1.4955-.9445-1.9678s-1.1151-.7084-1.8891-.7084c-.6822 0-1.266.1902-1.7514.5706-.4722.3805-.833.9118-1.0823 1.594-.2361.6821-.3542 1.4692-.3542 2.3613 0 .9183.1247 1.712.3739 2.3811.2624.669.6297 1.1872 1.102 1.5545s1.0364.551 1.6923.551c.8527 0 1.5086-.2493 1.9678-.7478.4723-.5116.774-1.2134.9052-2.1055l3.5814.1377c-.1968 1.1676-.5707 2.1646-1.1217 2.9911-.551.8133-1.2725 1.4365-2.1645 1.8694-.8921.4329-1.9613.6494-3.2076.6494zm10.3274-.3149c0-1.2725.1575-2.3548.4723-3.2468.328-.9052.8462-1.6989 1.5546-2.3811.7215-.6953 1.6529-1.3381 2.7943-1.9284.6296-.3411 1.1282-.6297 1.4955-.8659.3673-.2361.6297-.4722.7871-.7084.1574-.2492.2361-.5313.2361-.8461 0-.2886-.0656-.5444-.1967-.7675-.1312-.2361-.328-.4198-.5904-.5509-.2492-.1312-.5575-.1968-.9248-.1968-.6166 0-1.1086.1968-1.4759.5903-.3542.3805-.5707.938-.6494 1.6726l-3.5027-.1967c.105-1.5349.6429-2.7287 1.6136-3.5814.9839-.8527 2.3089-1.2791 3.975-1.2791 1.102 0 2.0465.1771 2.8336.5313s1.384.8527 1.7907 1.4955c.4198.6429.6297 1.3906.6297 2.2433 0 .7347-.1246 1.3512-.3739 1.8498-.2492.4985-.6428.9511-1.1806 1.3577-.5248.4067-1.2135.8396-2.0662 1.2988-1.0758.5772-1.8629 1.0954-2.3614 1.5545-.4985.4461-.7674.8331-.8068 1.161h6.7889v2.7943z" fill="#16171b"/><path d="m18.5368 74.0176v-4.2522h1.3775l.9941 2.8987.9882-2.8987h1.3775v4.2522h-1.0421v-2.5753l-.9283 2.5633h-.8025l-.9223-2.5633v2.5753zm7.7027.0958c-.4392 0-.8185-.0898-1.1379-.2695-.3154-.1797-.5569-.4352-.7246-.7666s-.2516-.7247-.2516-1.1798c0-.4552.0839-.8484.2516-1.1798.1677-.3354.4092-.5929.7246-.7726.3194-.1837.6987-.2755 1.1379-.2755.4432 0 .8205.0918 1.1319.2755.3155.1797.557.4372.7247.7726.1717.3314.2575.7246.2575 1.1798 0 .4551-.0858.8484-.2575 1.1798-.1677.3314-.4092.5869-.7247.7666-.3114.1797-.6887.2695-1.1319.2695zm0-.8504c.2196 0 .4053-.0539.557-.1617.1557-.1078.2755-.2635.3593-.4672.0839-.2036.1258-.4491.1258-.7366s-.0419-.533-.1258-.7367c-.0838-.2076-.2036-.3653-.3593-.4731-.1557-.1118-.3434-.1677-.563-.1677-.2156 0-.4012.0559-.5569.1677-.1557.1078-.2755.2655-.3594.4731-.0798.2037-.1197.4492-.1197.7367s.0399.533.1197.7366c.0839.2037.2037.3594.3594.4672s.3433.1617.5629.1617zm2.9675.7546v-4.2522h1.0959l1.5572 2.6651v-2.6651h1.042v4.2522h-1.1019l-1.5512-2.5513v2.5513zm4.7385 0v-4.2522h1.0421v4.2522zm2.9175 0v-3.4017h-1.2576v-.8505h3.5634v.8505h-1.2577v3.4017zm4.7864.0958c-.4392 0-.8185-.0898-1.1379-.2695-.3154-.1797-.557-.4352-.7247-.7666s-.2515-.7247-.2515-1.1798c0-.4552.0838-.8484.2515-1.1798.1677-.3354.4093-.5929.7247-.7726.3194-.1837.6987-.2755 1.1379-.2755.4432 0 .8205.0918 1.1319.2755.3154.1797.557.4372.7247.7726.1716.3314.2575.7246.2575 1.1798 0 .4551-.0859.8484-.2575 1.1798-.1677.3314-.4093.5869-.7247.7666-.3114.1797-.6887.2695-1.1319.2695zm0-.8504c.2196 0 .4052-.0539.557-.1617.1557-.1078.2754-.2635.3593-.4672.0838-.2036.1258-.4491.1258-.7366s-.042-.533-.1258-.7367c-.0839-.2076-.2036-.3653-.3593-.4731-.1558-.1118-.3434-.1677-.563-.1677-.2156 0-.4013.0559-.557.1677-.1557.1078-.2755.2655-.3593.4731-.0799.2037-.1198.4492-.1198.7367s.0399.533.1198.7366c.0838.2037.2036.3594.3593.4672s.3434.1617.563.1617zm2.9674.7546v-4.2522h1.9464c.3154 0 .5889.0519.8205.1557.2356.1038.4172.2516.545.4432.1278.1877.1917.4093.1917.6648 0 .1996-.04.3753-.1198.527-.0799.1517-.1917.2775-.3354.3773-.1397.0958-.3074.1597-.5031.1917l-.0179-.0599c.2914 0 .511.0619.6587.1856.1518.1238.2356.3095.2516.557l.1018 1.2098h-1.066l-.0659-1.0361c-.012-.1597-.0599-.2775-.1438-.3534-.0798-.0758-.2216-.1137-.4252-.1137h-.7965v1.5032zm1.0421-2.3537h.7426c.2116 0 .3733-.0459.4851-.1377.1118-.0919.1677-.2216.1677-.3893 0-.1717-.0579-.3015-.1737-.3893-.1118-.0878-.2755-.1317-.4911-.1317h-.7306zm3.4859 2.3537v-4.2522h3.0544v.8505h-2.0123v.8444h1.9404v.8504h-1.9404v.8564h2.0602v.8505zm4.0601 0v-4.2522h1.5152c.7027 0 1.2417.1857 1.617.557.3793.3673.569.8923.569 1.5751 0 .6787-.1857 1.2018-.557 1.5691s-.9024.551-1.5931.551zm1.0421-.8505h.4731c.3833 0 .6648-.1038.8444-.3114.1797-.2076.2695-.529.2695-.9642s-.0898-.7566-.2695-.9642c-.1796-.2076-.4611-.3114-.8444-.3114h-.4731zm5.2299.8505v-4.2522h1.7188c.535 0 .9463.0938 1.2338.2815.2914.1837.4371.4751.4371.8744 0 .1757-.0359.3274-.1078.4552-.0678.1277-.1696.2295-.3054.3054-.1317.0719-.2954.1178-.4911.1377.3554.028.6249.1318.8085.3115.1837.1756.2755.4132.2755.7126 0 .3993-.1437.6948-.4312.8864-.2875.1917-.6967.2875-1.2277.2875zm1.0421-.8205h.8085c.1956 0 .3553-.0399.4791-.1198.1278-.0798.1916-.2016.1916-.3653 0-.1677-.0618-.2915-.1856-.3713-.1238-.0839-.2855-.1258-.4851-.1258h-.8085zm0-1.7009h.6408c.1956 0 .3533-.0379.4731-.1138.1238-.0758.1857-.1896.1857-.3413 0-.1597-.0599-.2755-.1797-.3474s-.2795-.1078-.4791-.1078h-.6408zm4.194 2.5214v-1.623l-1.4733-2.6292h1.1379l.8624 1.623.8445-1.623h1.1379l-1.4613 2.6292v1.623zm-31.8667 6.0958c-.3912 0-.7406-.0878-1.048-.2635-.3035-.1757-.543-.4272-.7187-.7546-.1717-.3314-.2575-.7307-.2575-1.1978 0-.4512.0818-.8425.2455-1.1738.1677-.3354.4053-.5949.7127-.7786s.6688-.2755 1.084-.2755c.5709 0 1.0141.1397 1.3295.4192.3195.2795.5251.6808.6169 1.2038l-1.084.0419c-.0439-.2555-.1397-.4551-.2875-.5989-.1477-.1437-.3393-.2156-.5749-.2156-.2076 0-.3853.0579-.533.1737-.1438.1158-.2536.2775-.3294.4851-.0719.2076-.1078.4472-.1078.7187 0 .2795.0379.521.1138.7247.0798.2036.1916.3613.3354.4731.1437.1118.3154.1677.515.1677.2595 0 .4592-.0759.5989-.2276.1437-.1557.2356-.3693.2755-.6408l1.09.0419c-.0599.3553-.1737.6588-.3414.9103-.1677.2476-.3873.4372-.6588.569-.2715.1317-.5969.1976-.9762.1976zm4.8518 0c-.4392 0-.8185-.0898-1.1379-.2695-.3154-.1797-.557-.4352-.7247-.7666s-.2515-.7247-.2515-1.1798c0-.4552.0838-.8484.2515-1.1798.1677-.3354.4093-.5929.7247-.7726.3194-.1837.6987-.2755 1.1379-.2755.4432 0 .8205.0918 1.1319.2755.3154.1797.557.4372.7247.7726.1716.3314.2575.7246.2575 1.1798 0 .4551-.0859.8484-.2575 1.1798-.1677.3314-.4093.5869-.7247.7666-.3114.1797-.6887.2695-1.1319.2695zm0-.8504c.2196 0 .4052-.0539.557-.1617.1557-.1078.2754-.2635.3593-.4672.0838-.2036.1258-.4491.1258-.7366s-.042-.533-.1258-.7367c-.0839-.2076-.2036-.3653-.3593-.4731-.1558-.1118-.3434-.1677-.563-.1677-.2156 0-.4013.0559-.557.1677-.1557.1078-.2755.2655-.3593.4731-.0799.2037-.1198.4492-.1198.7367s.0399.533.1198.7366c.0838.2037.2036.3594.3593.4672s.3434.1617.563.1617zm2.9674.7546v-4.2522h1.3775l.9941 2.8987.9882-2.8987h1.3775v4.2522h-1.0421v-2.5753l-.9283 2.5633h-.8025l-.9223-2.5633v2.5753zm5.7796 0v-4.2522h1.7607c.5231 0 .9323.1278 1.2278.3833.2994.2516.4491.5969.4491 1.0361 0 .2915-.0678.545-.2036.7606-.1317.2116-.3234.3753-.5749.4911-.2516.1158-.551.1737-.8984.1737h-.7186v1.4074zm1.0421-2.2638h.6468c.2116 0 .3773-.048.4971-.1438.1237-.0958.1856-.2375.1856-.4252 0-.1837-.0599-.3234-.1797-.4192-.1197-.0998-.2874-.1497-.503-.1497h-.6468zm2.4963 2.2638 1.5331-4.2522h1.2098l1.5332 4.2522h-1.072l-.2755-.8025h-1.5811l-.2815.8025zm1.629-1.629h1.0181l-.5031-1.4973zm3.2978 1.629v-4.2522h1.0421v4.2522z" fill="#16171b"/><path d="m21.4252 60.0373c-.5533 0-1.0467-.1255-1.4802-.3765-.4278-.2509-.7643-.6131-1.0095-1.0865-.2396-.4734-.3594-1.041-.3594-1.7026 0-.6445.1169-1.2035.3508-1.6769.2339-.4791.5675-.8499 1.001-1.1122.4335-.2624.9411-.3936 1.5229-.3936.7928 0 1.4088.1968 1.848.5903.4449.3879.7301.944.8556 1.6684l-1.3518.0513c-.0684-.3821-.2167-.6787-.4449-.8898-.2281-.2167-.5304-.3251-.9069-.3251-.3251 0-.6017.0856-.8299.2567-.2281.1711-.4021.4135-.5219.7272s-.1796.6816-.1796 1.1037c0 .4278.0598.7985.1796 1.1122.1255.308.3023.5447.5305.7101.2281.1655.4991.2482.8128.2482.4106 0 .7272-.1141.9496-.3423.2282-.2338.3708-.5561.4278-.9668l1.3604.0514c-.0799.4962-.2367.9183-.4706 1.2662-.2338.3479-.5418.616-.924.8042-.3764.1883-.8299.2824-1.3603.2824zm4.4631-.1369v-6.0745h4.2264v1.0951h-2.926v1.3946h2.8234v1.078h-2.8234v1.4117h2.9945v1.0951zm6.1527 0v-6.0745h2.6608c.4449 0 .8299.0741 1.155.2224.3308.1483.5846.3594.7614.6331.1769.2681.2653.5875.2653.9583 0 .2795-.0599.5276-.1797.7443-.1141.2168-.2738.3936-.4791.5305-.1997.1369-.4307.2224-.693.2566l-.0257-.077c.405 0 .713.0884.924.2653.2111.1711.3308.4363.3594.7956l.154 1.7454h-1.3262l-.1112-1.54c-.0171-.2339-.0913-.405-.2224-.5134-.1255-.114-.3423-.1711-.6503-.1711h-1.2919v2.2245zm1.3004-3.311h1.2149c.3137 0 .5561-.0713.7273-.2139.1768-.1483.2652-.3565.2652-.6246 0-.2738-.0884-.4791-.2652-.616-.1769-.1426-.4335-.2139-.77-.2139h-1.1722zm6.6451 3.311v-4.9794h-1.8138v-1.0951h4.9452v1.0951h-1.8224v4.9794zm4.5437 0v-6.0745h1.3005v6.0745zm3.3036 0v-6.0745h4.1923v1.0951h-3.6105l.7187-.7443v2.7805l-.7187-.5646h3.4565v1.078h-3.4565l.7187-.5647v2.9945zm5.9021 0v-6.0745h1.3004v6.0745zm3.3036 0v-6.0745h4.2265v1.0951h-2.9261v1.3946h2.8234v1.078h-2.8234v1.4117h2.9945v1.0951zm6.1527 0v-6.0745h2.0961c.9868 0 1.7454.2652 2.2758.7957.5305.5247.7957 1.2747.7957 2.2501 0 .9696-.2624 1.7168-.7871 2.2416-.519.5247-1.2634.7871-2.233.7871zm1.3005-1.0951h.7956c.5875 0 1.021-.1569 1.3005-.4706.2852-.3194.4278-.8099.4278-1.4716 0-.6616-.1426-1.1493-.4278-1.463-.2795-.3194-.713-.4791-1.3005-.4791h-.7956z" fill="#fff"/><g fill="#16171b" stroke="#16171b" stroke-width=".427782"><path d="m32.5114 2.35261-1.3903-.10273v-.53894h4.7056v3.77257h-1.2383c0 .17964-.152.08926-.152-1.41977s-1.182-1.71113-1.925-1.71113z"/><path d="m54.6488 2.35261 1.3903-.10273v-.53894h-4.7056v3.77256l.8555.07748c0 .17964.2139-.21389.2139-1.49724 0-1.50903 1.5029-1.71113 2.2459-1.71113z"/></g></g></svg>