<svg fill="none" height="32" viewBox="0 0 72 32" width="72" xmlns="http://www.w3.org/2000/svg" xmlns:xlink="http://www.w3.org/1999/xlink"><clipPath id="a"><path d="m0 0h72v32h-72z"/></clipPath><g clip-path="url(#a)" fill="#606060"><path d="m61.6792.511963h.548l.324 2.727997c.2035 1.71177.9769 3.30533 2.1958 4.52425s2.8125 1.99232 4.5243 2.19575l2.7279.32404v.549l-2.7279.324c-1.7118.2034-3.3054.9768-4.5243 2.1957s-1.9923 2.8125-2.1958 4.5243l-.324 2.728h-.549l-.324-2.729c-.2034-1.7118-.9768-3.3054-2.1957-4.5243s-2.8125-1.9923-4.5243-2.1957l-2.728-.323v-.55l2.7291-.32304c1.7117-.20343 3.3053-.97683 4.5242-2.19575s1.9923-2.81248 2.1957-4.52425z"/><path d="m60.267 29.954v.066c-.653.816-1.86 1.403-3.264 1.403-2.024 0-3.133-1.142-3.33-2.872 0-.13-.065-1.045-.065-1.338-.391 2.252-2.643 4.177-5.385 4.177-2.579 0-4.7-1.305-4.7-4.047 0-3.558 3.655-4.341 7.572-5.06l2.48-.456v-2.285c0-2.154-.978-4.048-3.394-4.048-2.154 0-3.003 1.175-3.003 2.612 0 1.11.555 1.828 1.502 1.828.1627 0 .326-.0327.49-.098-.294 1.044-1.208 1.6-2.35 1.6-1.47 0-2.612-.948-2.612-2.514 0-2.22 2.448-4.048 6.038-4.048 4.57 0 7.181 1.632 7.181 5.582 0 2.611-.065 4.733-.065 6.822 0 1.893.555 2.905 1.991 2.905.327 0 .653-.098.914-.229zm-6.691-7.507-1.926.359c-2.905.587-4.243 1.763-4.243 4.047 0 1.991 1.044 2.84 2.48 2.84 1.894 0 3.59-1.632 3.624-4.341zm-11.328 3.329.294.033c-.294 3.133-1.6 5.68-4.831 5.68-2.71 0-4.472-1.633-4.472-4.995v-10.444h-2.122v-.26c2.938-.588 4.93-2.971 5.615-6.20301h.293v5.61501h5.027l-.163.848h-4.864v10.413c0 1.99.751 3.035 2.155 3.035 1.566 0 2.644-1.338 3.068-3.72m-13.202-19.06401v20.89001c0 2.154.229 2.774 1.763 3.492v.066h-7.312v-.066c1.534-.718 1.763-1.338 1.763-3.492v-17.3c0-1.99001-.457-2.84001-1.991-3.52501v-.065zm-19.058 6.62601-4.145 9.596h8.519zm-4.668 17.757v.065h-5.32v-.065c1.273-.686 2.122-2.09 3.068-4.211l8.422-18.90001h.13l9.042 19.52001c.979 2.09 1.403 2.905 2.643 3.59v.066h-7.865v-.065c.947-.425 1.469-.98 1.469-1.763 0-.555-.196-1.175-.522-1.926l-1.632-3.59h-9.305l-1.24 2.905c-.294.653-.523 1.37-.523 2.121 0 .98.653 1.828 1.632 2.253"/></g></svg>