<svg fill="none" height="420" viewBox="0 0 1978 420" width="1978" xmlns="http://www.w3.org/2000/svg"><path d="m543.803 118.321c89.375 0 154.412 62.098 149.797 174.965h-217.652c8.128 31.368 29.843 58.322 73.309 58.322 24.337 0 46.576-6.713 63.36-27.692h75.109l-1.259 6.713c-13.008 57.483-78.466 89.371-137.21 89.371-93.151 0-155.672-62.938-155.672-150.63s62.521-151.049 150.218-151.049zm629.817 0c89.8 0 154.42 62.098 150.22 174.965h-217.71c8.03 31.368 29.59 58.322 73.37 58.322 24.34 0 46.57-6.713 62.94-27.692h75.53l-1.26 6.713c-13.01 57.482-78.47 89.371-137.21 89.371-93.15 0-155.67-62.937-155.67-150.63 0-87.692 62.52-151.049 149.79-151.049zm804.38 293.288h-81.4l4.19-40.699c-11.33 24.336-47.83 48.252-93.57 48.252-75.53 0-136.79-57.902-136.79-149.371s60.42-149.371 136.79-149.371c41.54 0 67.14 13.427 89.8 36.504v-156.924h80.98zm-1124.53-294.965c66.297 0 124.621 23.915 141.405 82.657l1.679 6.294h-82.662c-17.624-21.818-41.121-24.756-60.422-24.756-18.043 0-46.576 4.616-46.576 22.238 0 16.364 18.882 21.818 35.247 23.916l47.834 5.035c75.947 6.714 109.516 36.504 109.516 94.826 0 67.132-66.717 92.307-132.595 92.307-65.877 0-134.272-29.371-147.28-88.951l-1.259-6.294h84.76c11.749 33.567 65.877 31.049 63.779 31.049 31.89 0 51.612-9.65 51.612-25.175 0-10.07-3.358-21.818-36.086-26.014l-49.933-5.035c-65.877-4.615-105.739-39.441-105.739-91.469 0-63.776 60.423-90.628 126.72-90.628zm-601.709-116.644c79.724 0 127.139 47.4126 127.139 110.35 0 62.937-47.415 110.35-127.139 110.35h-40.282l200.15 190.909h-141.405l-152.316-144.755c-10.909-10.07-15.945-21.818-15.945-31.888 0-14.266 10.071-26.853 29.372-32.308l78.466-20.979c29.791-7.972 50.352-31.049 50.352-61.259 0-36.9232-30.212-58.3223-67.556-58.3223h-192.597v-62.0977zm1268.869 118.74c71.34 0 121.27 52.028 121.27 126.294v166.574h-81.4v-152.728c0-41.958-22.24-67.133-61.69-67.133-39.44 0-65.03 26.014-65.03 67.133v152.728h-79.73v-286.994h80.99l-3.78 45.735c11.75-23.077 48.25-51.609 89.37-51.609zm305.89 73.009c-49.09 0-75.1 36.503-75.1 78.042 0 44.475 29.37 78.461 75.1 78.461 44.06 0 72.59-34.405 72.59-78.461s-27.69-78.042-72.59-78.042zm-1282.717-8.394c-39.665 0-62.328 23.686-69.361 55.385h137.286c-.835-3.65-1.91-7.552-3.307-11.748-10.071-28.531-33.568-43.636-64.618-43.637zm629.817 0c-39.32.001-61.92 23.686-68.94 55.385h137.29c-.84-3.65-1.91-7.552-3.31-11.748-10.07-28.531-33.57-43.637-65.04-43.637z" fill="#606060"/></svg>