<svg fill="none" height="26" viewBox="0 0 67 26" width="67" xmlns="http://www.w3.org/2000/svg"><path d="m38.073.496082c-1.3301.704928-1.8089 1.868738-1.8089 5.087488 0 0 .6717-.64508 1.6593-1.00752.6088-.22072 1.1823-.52875 1.7025-.91442 1.1239-.82131 1.2801-1.86874 1.2801-3.6443668 0 0-1.8388-.0532054-2.833.4788188zm-7.8108.761458c-1.064.951-1.3899 2.45729-1.3899 2.45729l-3.5845 13.76947-2.9561-11.2889c-.2893-1.18043-.818-2.68673-1.6459-3.68095-1.0308-1.25691-3.139-1.33339-3.3751-1.33339-.2261 0-2.3575.07649-3.4116 1.35334-.8179 1.00753-1.35 2.49719-1.6393 3.68427l-2.95602 11.28893-3.54461-13.78944s-.30592-1.52625-1.38992-2.45729c-1.759-1.546197-4.36925-1.2203308-4.36925-1.2203308l6.80991 25.8164608s2.25113.1729 3.37499-.4189c1.4664-.7449 2.1913-1.3334 3.0891-4.8647.8014-3.1257 3.0326-12.31641 3.2387-12.98476.0964-.32587.2328-1.10396.8014-1.10396.5952 0 .7116.76146.8013 1.10396.2128.6484 2.4241 9.85906 3.2454 12.98476.8911 3.508 1.5994 4.0799 3.0891 4.8647 1.1239.5918 3.375.4189 3.375.4189l6.8099-25.7998378c-.0067 0-2.6236-.3291902-4.3726 1.2003778zm10.6438 2.99264s-.4289.64841-1.3965 1.22033c-.6252.34582-1.2204.59188-1.8688.90112-1.074.51207-1.3766 1.10395-1.3766 1.97847v17.5103s1.7358.2094 2.8397-.3459c1.4498-.7381 1.7723-1.4464 1.7989-4.6685zm16.9982 8.75182 8.6421-12.884983s-3.6444-.628454-5.4566 1.027473c-1.1638 1.04742-2.4539 2.94276-2.4539 2.94276l-3.1656 4.60866c-.1762.22944-.3458.49877-.665.49877-.3292 0-.5354-.24938-.6717-.49877l-3.1988-4.59536s-1.2802-1.88869-2.4606-2.93943c-1.7956-1.659256-5.4566-1.030803-5.4566-1.030803l8.6554 12.851683-8.6554 12.8285s3.8106.4954 5.6129-1.1638c1.1638-1.0475 2.2877-2.7832 2.2877-2.7832l3.1589-4.5987c.1762-.2261.3458-.4888.665-.4888.3325 0 .5354.2494.6717.4888l3.1655 4.5987s1.1805 1.6958 2.3276 2.7832c1.789 1.6592 5.5431 1.1638 5.5431 1.1638z" fill="#606060"/></svg>