<svg fill="none" height="26" viewBox="0 0 112 26" width="112" xmlns="http://www.w3.org/2000/svg"><path d="m87.2713 18.5545c.998 0 1.8851-.3545 2.6614-1.0636l1.3307 1.5364c-.8872.9454-2.107 1.6545-3.8812 1.6545-3.2159 0-5.2119-2.2454-5.2119-5.3182 0-2.8363 2.1069-5.3181 4.7683-5.3181h.1109c3.2159 0 4.9901 2.6 4.7683 6.1454h-7.5406c.2218 1.4182 1.2198 2.3636 2.9941 2.3636zm2.2178-4.1363c-.2218-1.4182-.998-2.3637-2.5505-2.3637-1.4416 0-2.4396.8273-2.6614 2.3637zm-51.3426 4.0182 5.7664-6.2637h-5.6555v-2.0091h8.3169v2.0091l-5.7664 6.2637h5.7664v2.0091h-8.5387zm14.9703.1181c.9981 0 1.8852-.3545 2.6614-1.0636l1.3307 1.5364c-.8871.9454-2.1069 1.6545-3.8812 1.6545-3.2158 0-5.2119-2.2454-5.2119-5.3182 0-2.8363 2.107-5.3181 4.7684-5.3181h.1109c3.2158 0 4.9901 2.6 4.7683 6.1454h-7.5406c.2218 1.4182 1.2198 2.3636 2.994 2.3636zm2.2179-4.1363c-.2218-1.4182-.9981-2.3637-2.5505-2.3637-1.4416 0-2.4396.8273-2.6614 2.3637zm14.7485.8273c0-3.3091 2.3287-5.31823 4.7683-5.31823 1.2198 0 2.4396.59093 3.2158 1.53633v-6.02724h1.9961v14.89094h-1.9961v-1.4182c-.7762 1.0636-1.996 1.6545-3.2158 1.6545-2.4396 0-4.7683-2.0091-4.7683-5.3181zm8.095 0c-.1109-2.8364-3.3267-4.2546-5.2119-2.1273-1.8851 2.1273-.5544 5.4363 2.2179 5.4363 1.6633 0 2.994-1.4181 2.994-3.309zm14.9703 2.9545 1.8852-1.0636c.4435.9454 1.4416 1.5363 2.4396 1.5363 1.1089 0 1.7742-.5909 1.7742-1.3 0-.8272-1.1089-.9454-2.3287-1.3-1.6634-.3545-3.3267-.9454-3.3267-3.0727 0-1.6545 1.4416-3.07273 3.6594-3.07273 1.7742 0 3.1045.70913 3.8815 2.00913l-1.7746 1.0636c-.4435-.7091-1.3307-1.1818-2.1069-1.1818-1.1089 0-1.6634.5909-1.6634 1.1818 0 .7091.8872.9455 2.2178 1.3 1.5525.3545 3.3271.9455 3.3271 3.0727 0 1.4182-1.109 3.3091-3.8815 3.3091-1.9961-.1182-3.3267-.9454-4.103-2.4818zm13.5285-2.3636-1.552 1.8909v2.6h-1.996v-14.89094h1.996v9.69094l4.325-5.0818h2.439l-3.77 4.3727 3.881 5.7909h-2.329zm-42.8037-5.90913c-2.4396 0-4.4357 1.65453-4.4357 4.49093v5.9091h2.107v-5.6728c0-1.6545.8871-2.7181 2.4396-2.7181 1.5524 0 2.3287.9454 2.3287 2.7181v5.6728h2.1069v-5.9091c-.1109-2.8364-2.1069-4.49093-4.5465-4.49093zm-49.0139-3.07272v19.14545h-14.8594zm0-6.85455c0 4.37273-3.3267 7.91818-7.4297 7.91818-4.10297 0-7.4297-3.54545-7.4297-7.91818zm2.4396 26c0-4.3727 3.3267-7.9182 7.4297-7.9182s7.4297 3.5455 7.4297 7.9182zm0-6.8545v-19.1455h14.8594z" fill="#606060"/></svg>