<svg width="960" height="960" viewBox="0 0 960 960" fill="none" xmlns="http://www.w3.org/2000/svg">
<path d="M845.832 243.6C846.257 242.067 846.502 240.49 846.563 238.9C845.915 231.946 839.403 226.552 832.491 225.476C827.529 225.19 822.564 225.981 817.936 227.794C813.388 229.608 809.177 232.173 805.478 235.382C794.51 244.694 786.357 258.918 780.052 271.017C775.071 271.248 770.111 271.819 765.207 272.728L765.152 272.438C763.62 247.177 765.041 233.864 790.385 222.703C815.798 211.003 839.665 187.012 861.146 219.103C883.73 244.309 852.62 253.29 832.257 269.639L830.357 266.617C829.957 265.445 829.57 264.286 829.17 263.117C836.478 257.538 843.569 251.9 845.832 243.6Z" fill="url(#paint0_linear_36_3137)"/>
<path d="M569.37 807.966C546.262 824.507 516.793 833.42 489.711 822.466C464.105 812.685 449.785 784.058 457.938 757.9C465.844 724.155 496.913 697.142 531.927 696.59C543.709 696.038 557.299 699.666 563.827 709.931C584.88 678.724 618.791 645.392 659.352 654.897C687.11 662.665 712.026 685.98 715.862 715.008L716.317 714.939C736.611 690.092 775.817 685.511 801.288 705.019C805.965 708.468 810.407 713.049 811.194 718.802V719.009C840.869 718.25 853.217 757.955 842.111 782.568C825.887 829.668 773.558 853.149 733.949 817.183C718.869 847.548 692.187 872.933 657.462 876.272C615.574 883.679 565.783 853.866 569.37 807.966Z" fill="url(#paint1_linear_36_3137)"/>
<path d="M830.354 266.615L832.254 269.637C826.707 274.079 821.975 279.087 819.327 285.102L819.271 285.144C817.083 282.525 814.538 280.227 811.711 278.315L813.146 278.204C816.926 272.258 823.121 267.704 829.163 263.111C829.567 264.284 829.954 265.443 830.354 266.615Z" fill="url(#paint2_linear_36_3137)"/>
<path d="M590.41 409.158C641.966 371.922 639.11 273.941 630.35 218.08C628.142 206.795 625.55 194.089 632.05 184.597C634.847 181.35 638.242 178.67 642.05 176.705C647.153 174.122 652.683 172.486 658.371 171.877C671.091 170.332 684.942 172.746 695.786 176.623C696.007 176.705 696.228 176.788 696.448 176.885C698.956 177.832 701.379 178.99 703.691 180.348C722.206 191.26 730.291 213.1 729.391 234.581C741.091 340.343 675.544 433.743 609.691 510.616C675.181 464.081 729.414 373.922 743.114 296.916C746.853 287.134 753.268 277.891 762.65 273.228C763.505 273.048 764.36 272.897 765.202 272.728C770.105 271.819 775.065 271.247 780.047 271.017C793.622 270.424 804.011 273.117 811.709 278.317C814.536 280.229 817.081 282.527 819.269 285.146C853.498 326.328 800.92 445.127 770.389 482.087C722.378 543.587 658.589 603.977 581.712 624.519C575.021 626.313 568.224 627.794 561.321 628.962C562.687 625.296 563.654 621.494 564.205 617.621C570.565 572.466 523.492 548.047 530.776 500.146C530.5 482.546 544.835 472.623 556.851 462.083C566.668 452.148 572.374 438.874 572.827 424.915C572.961 422.827 572.906 420.73 572.662 418.652C578.979 416.302 584.949 413.108 590.41 409.158Z" fill="#171717"/>
<path d="M687.08 117.948C684.828 119.465 682.845 121.349 681.216 123.522C679.975 125.191 678.761 126.902 677.602 128.64C668.695 141.669 662.165 156.172 658.315 171.478L658.37 171.878C652.682 172.486 647.152 174.122 642.049 176.706L641.787 175.685C632.187 141.774 652.948 120.514 677.905 101.379C694.116 81.7607 718.052 86.8927 736.857 99.6267C775.21 126.327 710.078 152.604 704.008 179.797L703.69 180.349C701.378 178.991 698.955 177.832 696.447 176.886L696.53 176.693C696.558 166.014 703.13 157.24 709.154 148.3C712.202 144.068 714.779 139.515 716.838 134.724C717.418 133.258 717.898 131.755 718.273 130.224C721.322 109.657 699.952 109.022 687.08 117.948Z" fill="url(#paint3_linear_36_3137)"/>
<path d="M511.206 676.061C494.485 676.889 476.853 675.992 460.806 675.137C463.306 658.967 474.478 646.703 484.632 634.631C510.652 608.115 488.026 577.749 477.692 550.046C463.565 520.37 515.37 498.434 496.028 470.539L495.986 470.483C510.845 457.464 524.495 443.126 536.768 427.646L537.347 428.101C553.006 455.528 521.813 480.292 512.693 504.353C495.779 551.853 538.993 581.446 537.293 618.738C533.982 639.377 509.066 653.159 511.163 675.275L511.206 676.061Z" fill="url(#paint4_linear_36_3137)"/>
<path d="M511.164 675.274C509.064 653.158 533.983 639.374 537.294 618.737C538.994 581.445 495.781 551.852 512.694 504.352C521.814 480.291 553.007 455.527 537.348 428.1L536.769 427.645C548.848 412.446 559.794 396.381 569.521 379.579C575.992 370.86 581.303 372.253 585.056 377.799L584.956 377.868C563.765 367.342 571.156 401.736 572.664 418.65C572.908 420.729 572.963 422.825 572.829 424.913C572.376 438.872 566.67 452.146 556.853 462.08C544.837 472.621 530.502 482.54 530.778 500.144C523.494 548.044 570.567 572.464 564.207 617.619C563.655 621.492 562.688 625.294 561.323 628.96C557.46 639.376 550.493 648.605 541.043 654.345C524.487 663.423 535.869 672.652 548.161 669.934C537.261 673.673 524.515 675.411 511.201 676.06L511.164 675.274Z" fill="url(#paint5_linear_36_3137)"/>
<path d="M453.648 501.125C468.684 492.251 482.859 481.992 495.988 470.483L496.03 470.539C515.372 498.434 463.567 520.37 477.695 550.046C488.028 577.746 510.654 608.115 484.634 634.631C474.48 646.703 463.305 658.967 460.808 675.137C446.819 674.392 434.043 673.688 424.124 674.185C358.854 746.546 263.094 760.314 185.118 698.659C166.2 689.443 108.011 631.501 80.0322 585.737L80.1842 585.637C98.8007 579.542 116.087 569.96 131.12 557.401L132.609 557.125C169.238 630.562 266.861 709.311 328.723 650.291L328.571 649.739V649.725C332.131 648.801 335.731 647.67 339.371 646.331C356.878 638.343 365.418 620.504 362.741 604.666L362.797 604.653C444.112 636.536 458.97 556.49 391.451 555.453L390.72 555.398C399.536 541.798 402.309 519.598 395.149 508.27C393.826 505.476 392.3 502.783 390.582 500.213L390.651 500.172C407.883 420.112 410.269 365.562 391.024 293.822L391.286 293.753C410.752 281.953 436.717 266.726 458.708 280.591L459.398 280.563C462.298 354.07 456.776 427.576 453.576 501.013L453.648 501.125Z" fill="url(#paint6_linear_36_3137)"/>
<path d="M459.4 280.564L458.71 280.592C436.719 266.727 410.754 281.958 391.288 293.754L391.026 293.823C389.632 288.594 388.11 283.264 386.459 277.833L386.542 277.805C403.566 259.042 433.794 247.136 457.648 259.939L458.348 259.898C458.793 266.796 459.143 273.684 459.4 280.564Z" fill="url(#paint7_linear_36_3137)"/>
<path d="M425.379 224.233C428.452 224.287 431.513 224.62 434.526 225.227C450.475 225.127 458.614 238.237 457.926 253.233C458.077 255.454 458.226 257.675 458.353 259.897L457.653 259.938C433.799 247.138 403.571 259.038 386.547 277.804L386.464 277.832C384.905 272.644 383.236 267.351 381.456 261.952C381.273 257.346 382.048 252.753 383.732 248.461C385.415 244.17 387.971 240.275 391.237 237.022C399.7 228.483 412.59 224 425.379 224.233Z" fill="url(#paint8_linear_36_3137)"/>
<path d="M114.812 272.81L113.557 273.045C87.3852 284.081 45.3902 254.2 65.8362 226.551C73.0792 216.411 83.9502 210.161 96.0912 210.934C84.2122 182.141 118.234 161.309 142.474 187.508L142.598 187.563C160.698 147.126 235.985 146.505 245.145 190.405C266.791 181.879 296.053 196.627 305.545 216.894C318.745 261.373 258.928 307.394 225.003 268.616C206.792 329.168 121.821 335.514 114.812 272.81Z" fill="url(#paint9_linear_36_3137)"/>
<path d="M300.868 512.823C288.134 533.186 310.484 554.584 304.593 575.596C305.159 576.368 306.483 576.296 307.504 576.096C318.859 573.917 330.958 574.344 341.498 579.076C351.583 583.27 357.985 590.334 361.047 598.446C361.82 600.457 362.385 602.542 362.731 604.668H362.744C365.421 620.506 356.881 638.345 339.374 646.333C335.731 647.671 332.131 648.802 328.574 649.727V649.741C251.591 670.09 197.882 599.674 248.239 529.162C273.265 496.754 263.346 483.496 253.357 448.288C244.183 372.368 345.657 391.613 319.482 285.162C357.96 303.511 413.807 362.517 392.671 408.169C384.821 424.738 367.038 437.32 366.486 455.628C365.976 472.901 380.848 485.51 390.586 500.217C392.304 502.787 393.83 505.48 395.153 508.274C402.313 519.601 399.54 541.799 390.724 555.402C387.468 560.424 383.384 564.287 378.68 566.002C373.741 567.809 368.112 567.257 362.014 563.228L361.614 563.035C359.848 533.125 326.006 520.86 301.449 513.203L300.868 512.823Z" fill="#171717"/>
<path d="M132.609 557.124L131.119 557.4C116.087 569.96 98.8007 579.544 80.1842 585.64L80.0322 585.74C76.9799 580.806 74.1848 575.718 71.6582 570.495L72.4582 570.205C90.9926 562.625 108.768 553.308 125.546 542.378L125.987 542.213C127.891 547.121 130.1 552.116 132.609 557.124Z" fill="url(#paint10_linear_36_3137)"/>
<path d="M114.867 516.742C115.983 515.502 116.892 514.091 117.558 512.562L118.468 512.631C119.653 522.78 122.181 532.727 125.987 542.21L125.546 542.375C108.768 553.304 90.9925 562.621 72.4581 570.201L71.6581 570.491C67.3261 561.386 64.7731 553.191 64.7041 546.499H64.9531C68.4981 545.244 72.1821 543.947 75.8791 542.54C90.9451 536.857 106.328 529.517 114.867 516.742Z" fill="url(#paint11_linear_36_3137)"/>
<path d="M453.579 501.013C456.779 427.576 462.298 354.07 459.401 280.563C459.139 273.679 458.789 266.791 458.352 259.897C458.228 257.675 458.076 255.454 457.925 253.233C458.614 238.233 450.475 225.133 434.525 225.227C431.512 224.62 428.451 224.287 425.378 224.233C412.589 223.999 399.703 228.483 391.233 237.023C387.967 240.276 385.411 244.171 383.727 248.462C382.043 252.753 381.268 257.346 381.451 261.952C383.231 267.36 384.9 272.654 386.459 277.832C388.115 283.268 389.637 288.598 391.026 293.822C410.271 365.562 407.885 420.112 390.653 500.172" stroke="#171717" stroke-width="4.139" stroke-linecap="round" stroke-linejoin="round"/>
<path d="M362.012 563.221C368.112 567.249 373.739 567.801 378.678 565.994C383.378 564.283 387.466 560.42 390.722 555.394C399.538 541.794 402.311 519.594 395.151 508.266C393.828 505.472 392.302 502.779 390.584 500.209C380.844 485.502 365.972 472.893 366.484 455.62C367.036 437.312 384.819 424.73 392.669 408.161C413.805 362.509 357.958 303.503 319.48 285.154C345.652 391.605 244.18 372.36 253.355 448.28C263.343 483.488 273.263 496.746 248.237 529.154C197.88 599.666 251.589 670.082 328.572 649.733V649.719C332.131 648.795 335.731 647.664 339.372 646.325C356.879 638.337 365.419 620.499 362.742 604.66H362.729C362.383 602.534 361.818 600.449 361.045 598.438C357.983 590.326 351.581 583.262 341.496 579.068C330.956 574.336 318.856 573.909 307.502 576.088C306.481 576.295 305.157 576.364 304.591 575.588C304.525 575.516 304.474 575.432 304.439 575.34" stroke="#171717" stroke-width="4.139" stroke-linecap="round" stroke-linejoin="round"/>
<path d="M300.992 583.349C302.591 580.969 303.806 578.353 304.592 575.596C310.483 554.584 288.133 533.186 300.867 512.823C301.441 511.877 302.076 510.969 302.767 510.105C305.658 503.863 306.83 496.961 306.161 490.114" stroke="#171717" stroke-width="4.139" stroke-linecap="round" stroke-linejoin="round"/>
<path d="M301.448 513.2C326.005 520.857 359.848 533.122 361.613 563.032" stroke="#171717" stroke-width="4.139" stroke-linecap="round" stroke-linejoin="round"/>
<path d="M425.352 224.358C425.365 224.316 425.365 224.275 425.379 224.233C432.222 195.733 418.55 117.433 411.997 196.933C411.969 197.209 411.955 197.471 411.928 197.747" stroke="#171717" stroke-width="4.139" stroke-linecap="round" stroke-linejoin="round"/>
<path d="M391.4 237.119C391.345 237.092 391.29 237.05 391.235 237.019C382.612 231.819 361.352 220.133 360.386 210.144C367.386 205.026 378.97 210.917 386.323 216.463C387.565 217.387 388.682 218.312 389.634 219.163" stroke="#171717" stroke-width="4.139" stroke-linecap="round" stroke-linejoin="round"/>
<path d="M412.107 197.427C412.066 197.262 412.038 197.096 411.997 196.927C397.925 133.505 386.405 170.41 399.07 206.874C399.332 207.619 399.608 208.364 399.884 209.109" stroke="#171717" stroke-width="4.139" stroke-linecap="round" stroke-linejoin="round"/>
<path d="M399.456 208.341C399.346 207.982 399.18 207.486 398.987 206.906C395.387 196.256 378.458 151.556 370.539 170.167C370.912 185.784 381.7 203.913 387.067 216.095" stroke="#171717" stroke-width="4.139" stroke-linecap="round" stroke-linejoin="round"/>
<path d="M386.543 277.801C403.567 259.038 433.795 247.132 457.649 259.935" stroke="#171717" stroke-width="4.139" stroke-linecap="round" stroke-linejoin="round"/>
<path d="M391.289 293.754C410.755 281.954 436.72 266.727 458.711 280.592" stroke="#171717" stroke-width="4.139" stroke-linecap="round" stroke-linejoin="round"/>
<path d="M453.454 501.248C453.523 501.207 453.579 501.165 453.648 501.124C468.684 492.25 482.859 481.992 495.988 470.482C510.847 457.464 524.497 443.126 536.77 427.645C548.849 412.446 559.796 396.381 569.522 379.579C575.993 370.86 581.304 372.253 585.057 377.799C590.357 385.599 592.52 401.653 590.41 409.158C590.31 409.475 590.216 409.765 590.12 410.058" stroke="#171717" stroke-width="4.139" stroke-linecap="round" stroke-linejoin="round"/>
<path d="M424.124 674.184C434.043 673.684 446.819 674.391 460.808 675.136C476.853 675.991 494.485 676.888 511.208 676.06C524.521 675.412 537.269 673.673 548.168 669.934C567.827 663.216 581.541 650.026 581.899 625.166" stroke="#171717" stroke-width="4.139" stroke-linecap="round" stroke-linejoin="round"/>
<path d="M552.649 668.375C551.218 669.062 549.714 669.585 548.166 669.934C535.873 672.652 524.491 663.423 541.047 654.345C550.497 648.605 557.464 639.376 561.327 628.96C562.693 625.294 563.659 621.492 564.211 617.619C570.571 572.464 523.498 548.045 530.782 500.144C530.507 482.544 544.841 472.621 556.857 462.08C566.674 452.146 572.38 438.872 572.833 424.913C572.967 422.825 572.912 420.729 572.668 418.65C571.168 401.736 563.768 367.342 584.96 377.868" stroke="#171717" stroke-width="4.139" stroke-linecap="round" stroke-linejoin="round"/>
<path d="M572.626 418.664C572.64 418.664 572.654 418.65 572.668 418.65C578.983 416.3 584.951 413.107 590.41 409.158C641.966 371.922 639.11 273.941 630.35 218.08C628.142 206.795 625.55 194.089 632.05 184.597C634.847 181.35 638.242 178.67 642.05 176.705C647.153 174.122 652.683 172.486 658.371 171.877C671.091 170.332 684.943 172.746 695.786 176.623C696.007 176.705 696.228 176.788 696.449 176.885C698.957 177.832 701.38 178.991 703.692 180.348C722.206 191.26 730.292 213.1 729.392 234.581C741.092 340.343 675.545 433.743 609.692 510.616" stroke="#171717" stroke-width="4.139" stroke-linecap="round" stroke-linejoin="round"/>
<path d="M561.327 628.96C568.225 627.802 575.022 626.321 581.718 624.517C658.591 603.975 722.385 543.589 770.395 482.085C800.926 445.125 853.504 326.326 819.275 285.144C817.087 282.525 814.542 280.226 811.715 278.315C804.015 273.115 793.628 270.423 780.053 271.015C775.071 271.246 770.112 271.817 765.208 272.726C764.366 272.892 763.508 273.043 762.656 273.226C753.274 277.889 746.856 287.132 743.12 296.914C729.42 373.924 675.188 464.083 609.697 510.614" stroke="#171717" stroke-width="4.139" stroke-linecap="round" stroke-linejoin="round"/>
<path d="M765.152 272.437C763.62 247.177 765.041 233.863 790.385 222.702C815.798 211.002 839.665 187.011 861.146 219.102C883.73 244.308 852.62 253.289 832.257 269.638C826.71 274.08 821.978 279.088 819.329 285.103" stroke="#171717" stroke-width="4.139" stroke-linecap="round" stroke-linejoin="round"/>
<path d="M780.011 271.085C780.025 271.058 780.039 271.044 780.053 271.016C786.353 258.916 794.511 244.693 805.479 235.381C809.177 232.172 813.388 229.606 817.937 227.793C822.565 225.98 827.53 225.189 832.492 225.475C839.404 226.551 845.916 231.946 846.564 238.899C846.503 240.489 846.257 242.066 845.833 243.599C843.571 251.891 836.479 257.534 829.167 263.107C823.125 267.701 816.93 272.254 813.15 278.2" stroke="#171717" stroke-width="4.139" stroke-linecap="round" stroke-linejoin="round"/>
<path d="M641.787 175.685C632.187 141.774 652.948 120.514 677.905 101.379C694.116 81.7607 718.052 86.8927 736.857 99.6267C775.21 126.327 710.078 152.604 704.008 179.797" stroke="#171717" stroke-width="4.139" stroke-linecap="round" stroke-linejoin="round"/>
<path d="M658.314 171.477C662.164 156.172 668.693 141.669 677.599 128.639C678.758 126.901 679.972 125.19 681.213 123.521C682.843 121.349 684.825 119.465 687.077 117.947C699.949 109.021 721.319 109.656 718.27 130.226C717.895 131.757 717.416 133.261 716.835 134.726C714.776 139.518 712.2 144.071 709.151 148.302C703.122 157.242 696.551 166.016 696.527 176.695" stroke="#171717" stroke-width="4.139" stroke-linecap="round" stroke-linejoin="round"/>
<path d="M332.3 573.03C339.695 573.899 343.682 567.318 345.31 561.041" stroke="#171717" stroke-width="4.139" stroke-linecap="round" stroke-linejoin="round"/>
<path d="M322.528 550.295C327.578 541.079 335.248 548.777 329.564 555.716" stroke="#171717" stroke-width="4.139" stroke-linecap="round" stroke-linejoin="round"/>
<path d="M319.479 531.476C316.417 532.622 316.099 537.05 316.968 539.782" stroke="#171717" stroke-width="4.139" stroke-linecap="round" stroke-linejoin="round"/>
<path d="M310.331 555.771C309.195 556.751 308.271 557.953 307.616 559.303C306.961 560.653 306.59 562.122 306.524 563.621" stroke="#171717" stroke-width="4.139" stroke-linecap="round" stroke-linejoin="round"/>
<path d="M307.779 525.791C304.316 529.254 301.64 536.718 303.254 541.229" stroke="#171717" stroke-width="4.139" stroke-linecap="round" stroke-linejoin="round"/>
<path d="M361.351 598.318C377.658 599.27 391.261 579.032 378.679 565.995C378.679 565.981 378.651 565.952 378.638 565.938" stroke="#171717" stroke-width="4.139" stroke-linecap="round" stroke-linejoin="round"/>
<path d="M391.454 555.453C458.973 556.488 444.114 636.534 362.8 604.653" stroke="#171717" stroke-width="4.139" stroke-linecap="round" stroke-linejoin="round"/>
<path d="M383.107 586.274C385.617 597.932 402.063 591.793 398.655 581.156C394.916 574.658 381.23 577.444 383.107 586.274Z" stroke="#171717" stroke-width="4.139" stroke-linecap="round" stroke-linejoin="round"/>
<path d="M72.3611 531.738C66.9671 534.814 64.6491 539.933 64.7041 546.5C64.7731 553.191 67.3261 561.386 71.6581 570.491C74.1844 575.714 76.9795 580.803 80.0321 585.736C108.011 631.5 166.2 689.442 185.118 698.658C263.094 760.313 358.854 746.545 424.124 674.184" stroke="#171717" stroke-width="4.139" stroke-linecap="round" stroke-linejoin="round"/>
<path d="M64.9531 546.501C68.4981 545.245 72.1821 543.948 75.8791 542.541C90.9451 536.857 106.328 529.517 114.867 516.741C115.983 515.502 116.892 514.09 117.558 512.561C122.524 502.407 128.112 479.491 121.848 477.67C112.867 483.27 112.067 497.261 105.348 505.414C104.879 481.878 106.493 456.438 100.795 433.881C86.1951 434.019 90.3651 491.135 91.0141 502.724C88.2411 482.899 82.3081 463.681 76.4041 444.559C76.0591 443.442 75.3411 442.076 74.1821 442.269C60.8971 459.763 73.8931 485.355 76.3071 505.125C70.7443 491.654 64.4578 478.493 57.4751 465.701C56.7751 464.401 55.7371 462.914 54.2471 463.011C45.0001 469.048 65.1731 509.513 72.9001 531.545C74.2143 534.936 75.1532 538.462 75.7001 542.058" stroke="#171717" stroke-width="4.139" stroke-linecap="round" stroke-linejoin="round"/>
<path d="M118.468 512.631C119.652 522.78 122.181 532.727 125.987 542.21C127.887 547.121 130.099 552.116 132.609 557.124C169.238 630.561 266.861 709.31 328.723 650.29" stroke="#171717" stroke-width="4.139" stroke-linecap="round" stroke-linejoin="round"/>
<path d="M72.458 570.2C90.9924 562.62 108.768 553.303 125.546 542.373" stroke="#171717" stroke-width="4.139" stroke-linecap="round" stroke-linejoin="round"/>
<path d="M80.1836 585.639C98.8001 579.544 116.086 569.96 131.119 557.399" stroke="#171717" stroke-width="4.139" stroke-linecap="round" stroke-linejoin="round"/>
<path d="M460.794 675.232C460.794 675.205 460.808 675.163 460.808 675.132C463.308 658.962 474.48 646.698 484.634 634.626C510.654 608.11 488.028 577.744 477.694 550.041C463.567 520.365 515.372 498.429 496.03 470.534" stroke="#171717" stroke-width="4.139" stroke-linecap="round" stroke-linejoin="round"/>
<path d="M511.164 675.275C509.064 653.159 533.983 639.375 537.294 618.738C538.994 581.446 495.781 551.853 512.694 504.353C521.814 480.292 553.007 455.528 537.348 428.101" stroke="#171717" stroke-width="4.139" stroke-linecap="round" stroke-linejoin="round"/>
<path d="M565.411 712.882C564.948 711.864 564.418 710.877 563.824 709.93C557.299 699.665 543.709 696.037 531.924 696.589C496.91 697.141 465.84 724.154 457.935 757.899C449.782 784.057 464.102 812.684 489.708 822.465C516.79 833.42 546.259 824.507 569.367 807.965C574.86 804.037 580.024 799.667 584.808 794.9" stroke="#171717" stroke-width="4.139" stroke-linecap="round" stroke-linejoin="round"/>
<path d="M569.384 807.745C569.384 807.814 569.37 807.897 569.37 807.966C565.783 853.866 615.57 883.679 657.459 876.266C692.184 872.927 718.866 847.542 733.946 817.176C734.76 815.562 735.532 813.921 736.277 812.276" stroke="#171717" stroke-width="4.139" stroke-linecap="round" stroke-linejoin="round"/>
<path d="M563.135 710.978C563.369 710.633 563.604 710.288 563.824 709.93C584.877 678.723 618.789 645.391 659.349 654.896C687.107 662.664 712.023 685.979 715.859 715.007C716.242 717.924 716.409 720.866 716.359 723.807" stroke="#171717" stroke-width="4.139" stroke-linecap="round" stroke-linejoin="round"/>
<path d="M811.19 718.801C810.403 713.048 805.961 708.467 801.284 705.018C775.816 685.51 736.607 690.091 716.313 714.938" stroke="#171717" stroke-width="4.139" stroke-linecap="round" stroke-linejoin="round"/>
<path d="M806 719.533C807.714 719.234 809.448 719.058 811.188 719.009C840.863 718.25 853.211 757.955 842.105 782.568C825.881 829.668 773.552 853.149 733.943 817.183C733.832 817.083 733.736 816.989 733.625 816.893" stroke="#171717" stroke-width="4.139" stroke-linecap="round" stroke-linejoin="round"/>
<path d="M898.714 555.633C900.76 556.476 902.99 556.77 905.184 556.488C916.677 555.026 925.299 538.07 919.795 527.957C907.13 514.382 895.637 519.1 887.374 526.233C886.256 527.199 885.208 528.206 884.214 529.213" stroke="#171717" stroke-width="4.139" stroke-linecap="round" stroke-linejoin="round"/>
<path d="M887.76 526.951C887.636 526.703 887.511 526.468 887.373 526.234C880.448 513.169 865.879 512.81 857.698 525.158C855.587 527.144 854.732 529.021 854.676 530.842C854.538 534.815 858.167 538.513 860.871 542.307" stroke="#171717" stroke-width="4.139" stroke-linecap="round" stroke-linejoin="round"/>
<path d="M854.042 530.813C827.788 520.659 813.053 557.881 840.853 565.456C844.605 566.132 852.193 564.956 856.253 561.689C857.19 561.051 857.935 560.169 858.406 559.138C858.878 558.107 859.059 556.967 858.93 555.84" stroke="#171717" stroke-width="4.139" stroke-linecap="round" stroke-linejoin="round"/>
<path d="M856.193 561.056C856.207 561.263 856.221 561.483 856.248 561.69C859.325 594.373 909.06 589.09 905.183 556.49C905.17 556.297 905.142 556.09 905.114 555.883" stroke="#171717" stroke-width="4.139" stroke-linecap="round" stroke-linejoin="round"/>
<path d="M363.682 792.528C359.956 798.212 356.195 803.879 352.397 809.528C348.01 816.039 343.577 822.514 339.097 828.953" stroke="url(#paint12_linear_36_3137)" stroke-width="4.139" stroke-linecap="round" stroke-linejoin="round"/>
<path d="M363.227 822.01C359.723 817.761 356.113 813.599 352.397 809.525C348.189 804.875 343.852 800.35 339.387 795.949" stroke="url(#paint13_linear_36_3137)" stroke-width="4.139" stroke-linecap="round" stroke-linejoin="round"/>
<path d="M96.5175 357.271C92.7655 354.085 89.1645 350.691 85.4945 347.38C80.676 342.812 75.4548 338.688 69.8945 335.06" stroke="url(#paint14_linear_36_3137)" stroke-width="4.139" stroke-linecap="round" stroke-linejoin="round"/>
<path d="M94.7936 331.168C91.7169 336.576 88.6169 341.98 85.4936 347.379C83.0269 351.697 80.5346 356.001 78.0166 360.292" stroke="url(#paint15_linear_36_3137)" stroke-width="4.139" stroke-linecap="round" stroke-linejoin="round"/>
<path d="M264.984 124.557C261.273 121.259 257.516 118.025 253.713 114.857C249.063 110.939 244.344 107.103 239.558 103.351" stroke="#171717" stroke-width="4.139" stroke-linecap="round" stroke-linejoin="round"/>
<path d="M243.172 129.923C246.801 124.971 250.315 119.949 253.713 114.858C257.203 109.658 260.57 104.374 263.813 99.0059" stroke="#171717" stroke-width="4.139" stroke-linecap="round" stroke-linejoin="round"/>
<path d="M890.366 440.214C886.89 436.476 883.501 432.663 880.199 428.777C876.446 424.403 872.804 419.943 869.272 415.395" stroke="#171717" stroke-width="4.139" stroke-linecap="round" stroke-linejoin="round"/>
<path d="M870.335 440.586C873.688 436.695 876.976 432.758 880.2 428.776C883.58 424.596 886.886 420.361 890.119 416.07" stroke="#171717" stroke-width="4.139" stroke-linecap="round" stroke-linejoin="round"/>
<path d="M523.553 102.482C523.108 101.262 522.582 100.073 521.98 98.9224C510.516 77.5524 472.58 77.0554 461.001 98.9224C441.438 130.861 468.327 158.991 495.588 141.722C498.638 139.766 501.456 137.471 503.988 134.879" stroke="url(#paint16_linear_36_3137)" stroke-width="4.139" stroke-linecap="round" stroke-linejoin="round"/>
<path d="M557.587 105.9C559.468 104.359 561.589 103.138 563.865 102.286C578.806 96.739 597.721 108.315 599.9 124.525C600.08 155.208 567.259 164.603 549.268 147.425C545.085 143.347 541.98 138.293 540.232 132.718" stroke="url(#paint17_linear_36_3137)" stroke-width="4.139" stroke-linecap="round" stroke-linejoin="round"/>
<path d="M521.829 99.2262C521.868 99.121 521.919 99.0204 521.98 98.9262C530.065 81.0462 558.058 82.8672 563.686 101.768" stroke="url(#paint18_linear_36_3137)" stroke-width="4.139" stroke-linecap="round" stroke-linejoin="round"/>
<path d="M495.726 141.939C495.85 152.59 506.901 161.93 516.558 164.661C529.941 167.503 541.658 157.432 549.269 147.43C549.297 147.402 549.311 147.375 549.338 147.347" stroke="url(#paint19_linear_36_3137)" stroke-width="4.139" stroke-linecap="round" stroke-linejoin="round"/>
<path d="M100.947 793.48C100.394 791.675 99.6973 789.917 98.8638 788.223C84.8638 760.189 40.9888 780.623 41.5128 810.173C40.8368 835.779 63.4768 839.918 78.4448 827.915C81.6316 825.367 84.3091 822.24 86.3368 818.699" stroke="#171717" stroke-width="4.139" stroke-linecap="round" stroke-linejoin="round"/>
<path d="M145.426 828.329C147.282 829.861 149.327 831.15 151.51 832.164C174.039 842.553 200.61 815.65 194.016 791.564C185.973 769.573 156.146 770.607 141.977 785.852C141.812 786.032 141.632 786.225 141.477 786.418C138.547 789.679 136.433 793.59 135.31 797.827" stroke="#171717" stroke-width="4.139" stroke-linecap="round" stroke-linejoin="round"/>
<path d="M98.7529 788.844C98.7949 788.637 98.8219 788.43 98.8639 788.223C102.934 766.963 132.14 770.55 141.48 786.416C141.563 786.554 141.646 786.692 141.729 786.844L141.977 785.85C142.032 785.616 142.087 785.381 142.156 785.15" stroke="#171717" stroke-width="4.139" stroke-linecap="round" stroke-linejoin="round"/>
<path d="M78.3066 827.309C78.3486 827.516 78.3896 827.709 78.4446 827.916C87.9646 870.933 133.713 871.443 151.386 832.469" stroke="#171717" stroke-width="4.139" stroke-linecap="round" stroke-linejoin="round"/>
<path d="M139.839 195.882C140.477 193.024 141.401 190.237 142.598 187.563C160.698 147.126 235.985 146.505 245.145 190.405C246.156 195.493 246.337 200.711 245.683 205.857" stroke="#171717" stroke-width="4.139" stroke-linecap="round" stroke-linejoin="round"/>
<path d="M114.385 266.601C114.44 268.739 114.592 270.808 114.812 272.809C121.821 335.509 206.792 329.167 225.003 268.615C225.838 265.802 226.52 262.947 227.045 260.061" stroke="#171717" stroke-width="4.139" stroke-linecap="round" stroke-linejoin="round"/>
<path d="M142.474 187.508C118.234 161.308 84.2117 182.141 96.0907 210.934C97.5883 214.51 99.5505 217.872 101.927 220.934" stroke="#171717" stroke-width="4.139" stroke-linecap="round" stroke-linejoin="round"/>
<path d="M224.685 268.257C224.796 268.381 224.892 268.505 225.003 268.616C258.928 307.397 318.748 261.373 305.545 216.894C296.053 196.627 266.792 181.879 245.145 190.405C244.98 190.46 244.814 190.529 244.645 190.598" stroke="#171717" stroke-width="4.139" stroke-linecap="round" stroke-linejoin="round"/>
<path d="M113.557 273.044C87.3852 284.081 45.3902 254.2 65.8362 226.551C73.0792 216.411 83.9502 210.161 96.0912 210.934H96.1322" stroke="#171717" stroke-width="4.139" stroke-linecap="round" stroke-linejoin="round"/>
<path d="M713.112 154.038C711.802 152.121 710.483 150.208 709.154 148.299C705.22 142.643 701.229 137.037 697.179 131.481C693.854 126.929 690.487 122.418 687.078 117.947C685.812 116.264 684.529 114.585 683.229 112.912" stroke="#171717" stroke-width="4.139" stroke-linecap="round" stroke-linejoin="round"/>
<path d="M667.82 127.343C671.087 127.757 674.348 128.19 677.602 128.643C684.141 129.513 690.667 130.46 697.179 131.485C703.747 132.492 710.3 133.573 716.838 134.727C721.032 135.46 725.227 136.219 729.421 137.004" stroke="#171717" stroke-width="4.139" stroke-linecap="round" stroke-linejoin="round"/>
<path d="M830.354 266.616C829.954 265.444 829.567 264.285 829.167 263.116C826.449 255.039 823.827 246.939 821.3 238.817C820.155 235.147 819.033 231.472 817.934 227.794C817.201 225.338 816.474 222.882 815.754 220.427" stroke="#171717" stroke-width="4.139" stroke-linecap="round" stroke-linejoin="round"/>
<path d="M796.994 233.437C799.823 234.099 802.651 234.747 805.479 235.382C810.746 236.568 816.02 237.713 821.303 238.817C829.457 240.514 837.634 242.11 845.833 243.604C847.833 243.977 849.848 244.336 851.862 244.694" stroke="#171717" stroke-width="4.139" stroke-linecap="round" stroke-linejoin="round"/>
<path d="M587.889 349.416C589.32 326.546 591.88 303.784 595.57 281.131" stroke="#171717" stroke-width="4.139" stroke-linecap="round" stroke-linejoin="round"/>
<path d="M514.308 382.758C515.219 376.013 515.762 369.223 515.936 362.418C517.591 327.709 521.398 293.136 527.336 258.898" stroke="#171717" stroke-width="4.139" stroke-linecap="round" stroke-linejoin="round"/>
<path d="M335.933 271.354C340.825 226.384 344.804 181.326 347.871 136.181" stroke="#171717" stroke-width="4.139" stroke-linecap="round" stroke-linejoin="round"/>
<path d="M137.824 452.667C136.999 442.821 138.436 432.947 139.405 423.114C141.309 403.799 141.417 384.349 139.727 365.014" stroke="#171717" stroke-width="4.139" stroke-linecap="round" stroke-linejoin="round"/>
<path d="M618.405 445.313C615.178 446.129 611.791 445.467 608.49 445.057C603.762 444.469 598.983 444.408 594.241 444.875L594.741 443.519" stroke="url(#paint20_linear_36_3137)" stroke-width="4.139" stroke-linecap="round" stroke-linejoin="round"/>
<path d="M608.5 437.055C606.927 443.326 605.92 449.727 605.492 456.179" stroke="url(#paint21_linear_36_3137)" stroke-width="4.139" stroke-linecap="round" stroke-linejoin="round"/>
<path d="M629.759 571.091C629.871 564.459 630.388 557.841 631.307 551.272" stroke="url(#paint22_linear_36_3137)" stroke-width="4.139" stroke-linecap="round" stroke-linejoin="round"/>
<path d="M617.156 562.76L643.456 559.538" stroke="url(#paint23_linear_36_3137)" stroke-width="4.139" stroke-linecap="round" stroke-linejoin="round"/>
<path d="M752.215 461.04C750.537 453.044 748.861 445.047 747.187 437.051" stroke="url(#paint24_linear_36_3137)" stroke-width="4.139" stroke-linecap="round" stroke-linejoin="round"/>
<path d="M738.832 453.8L763.247 443.907" stroke="url(#paint25_linear_36_3137)" stroke-width="4.139" stroke-linecap="round" stroke-linejoin="round"/>
<path d="M762.638 354.234C761.344 348.064 760.052 341.894 758.761 335.726" stroke="url(#paint26_linear_36_3137)" stroke-width="4.139" stroke-linecap="round" stroke-linejoin="round"/>
<path d="M751.519 348.046C758.436 344.868 765.611 342.283 772.967 340.318" stroke="url(#paint27_linear_36_3137)" stroke-width="4.139" stroke-linecap="round" stroke-linejoin="round"/>
<path d="M702.13 277.239C700.33 270.843 698.332 264.51 696.136 258.239" stroke="url(#paint28_linear_36_3137)" stroke-width="4.139" stroke-linecap="round" stroke-linejoin="round"/>
<path d="M689.613 273.55C696.755 269.225 703.842 264.809 710.874 260.303" stroke="url(#paint29_linear_36_3137)" stroke-width="4.139" stroke-linecap="round" stroke-linejoin="round"/>
<path d="M668.223 221.188C667.053 223.238 666.478 225.574 666.562 227.933C666.499 228.679 666.566 229.43 666.762 230.153C667.055 230.942 667.545 231.643 668.186 232.189C670.014 233.712 672.37 234.449 674.74 234.24C677.11 234.03 679.301 232.891 680.833 231.071C687.492 222.486 674.891 211.259 668.223 221.188Z" stroke="url(#paint30_linear_36_3137)" stroke-width="4.139" stroke-linecap="round" stroke-linejoin="round"/>
<path d="M642.7 407.743C641.853 411.063 643.577 415.027 646.817 416.143C648.103 416.518 649.449 416.646 650.784 416.519C652.862 416.419 655.108 416.081 656.559 414.593C657.3 413.737 657.869 412.747 658.234 411.675C659.043 409.683 659.775 407.431 658.976 405.435C656.11 398.266 644.338 401.32 642.7 407.743Z" stroke="url(#paint31_linear_36_3137)" stroke-width="4.139" stroke-linecap="round" stroke-linejoin="round"/>
<path d="M776.6 383.454C775.16 384.493 774.042 385.916 773.371 387.56C772.701 389.204 772.505 391.004 772.807 392.754C772.993 393.87 773.565 394.886 774.424 395.623C775.671 396.384 777.141 396.698 778.59 396.513C780.578 396.457 782.69 396.253 784.263 395.036C785.158 394.289 785.868 393.345 786.337 392.278C787.444 390.21 787.695 387.791 787.037 385.54C785.437 380.976 779.977 380.964 776.6 383.454Z" stroke="url(#paint32_linear_36_3137)" stroke-width="4.139" stroke-linecap="round" stroke-linejoin="round"/>
<path d="M690.2 521.1C696.911 513.498 702.959 505.335 708.277 496.7C708.44 496.535 708.562 496.333 708.633 496.112C708.705 495.891 708.724 495.656 708.689 495.427C708.654 495.197 708.566 494.978 708.432 494.789C708.297 494.599 708.121 494.443 707.916 494.333C700.34 487.586 691.792 482.016 682.559 477.812C682.202 477.608 681.794 477.511 681.384 477.533C680.837 477.699 680.377 478.073 680.104 478.575L658.43 508.638L683.222 524.56" stroke="url(#paint33_linear_36_3137)" stroke-width="4.139" stroke-linecap="round" stroke-linejoin="round"/>
<path d="M683.06 354C683.329 354.029 683.601 353.988 683.85 353.88C684.098 353.772 684.313 353.601 684.475 353.384C684.637 353.167 684.74 352.912 684.773 352.643C684.807 352.375 684.77 352.102 684.665 351.852C683.49 341.007 682.316 330.162 681.142 319.318C671.931 321.498 662.635 323.265 653.253 324.618C652.865 324.565 652.469 324.609 652.101 324.746C651.734 324.883 651.406 325.109 651.147 325.403C650.888 325.698 650.706 326.052 650.617 326.434C650.528 326.817 650.536 327.215 650.638 327.593C650.956 334.872 647.962 348.838 653.87 354.663C656.909 357.663 661.145 356.828 664.97 356.336C670.999 355.562 677.029 354.783 683.06 354Z" stroke="url(#paint34_linear_36_3137)" stroke-width="4.139" stroke-linecap="round" stroke-linejoin="round"/>
<path d="M672.779 365.3C673.688 358.908 670.828 352.45 671.587 346.039C671.617 346.394 671.649 346.747 671.679 347.101" stroke="url(#paint35_linear_36_3137)" stroke-width="4.139" stroke-linecap="round" stroke-linejoin="round"/>
<path d="M662.193 365.925C662.011 359.655 661.83 353.384 661.648 347.112" stroke="url(#paint36_linear_36_3137)" stroke-width="4.139" stroke-linecap="round" stroke-linejoin="round"/>
<path d="M676.57 332.3L689.196 330.152" stroke="url(#paint37_linear_36_3137)" stroke-width="4.139" stroke-linecap="round" stroke-linejoin="round"/>
<path d="M668.758 326.654C668.668 322.195 668.238 317.749 667.473 313.354C667.441 313.42 667.424 313.491 667.421 313.563C667.419 313.635 667.432 313.707 667.459 313.774C667.486 313.841 667.527 313.902 667.579 313.952C667.631 314.003 667.693 314.042 667.761 314.066" stroke="url(#paint38_linear_36_3137)" stroke-width="4.139" stroke-linecap="round" stroke-linejoin="round"/>
<path d="M661.344 327.625C660.991 323.515 660.637 319.405 660.283 315.296" stroke="url(#paint39_linear_36_3137)" stroke-width="4.139" stroke-linecap="round" stroke-linejoin="round"/>
<path d="M692.345 491.369C695.139 486.846 697.818 482.253 700.381 477.59C700.444 478.026 700.506 478.462 700.57 478.898" stroke="url(#paint40_linear_36_3137)" stroke-width="4.139" stroke-linecap="round" stroke-linejoin="round"/>
<path d="M697.633 502.965C700.775 504.155 703.769 505.705 706.555 507.583" stroke="url(#paint41_linear_36_3137)" stroke-width="4.139" stroke-linecap="round" stroke-linejoin="round"/>
<path d="M691.531 511.859C694.973 513.001 698.143 514.841 700.84 517.264" stroke="url(#paint42_linear_36_3137)" stroke-width="4.139" stroke-linecap="round" stroke-linejoin="round"/>
<path d="M673.513 512.267C670.83 516.707 667.834 520.951 664.549 524.967C664.762 524.761 664.974 524.554 665.187 524.349" stroke="url(#paint43_linear_36_3137)" stroke-width="4.139" stroke-linecap="round" stroke-linejoin="round"/>
<path d="M673.448 494.394C669.422 491.353 665.351 488.374 661.233 485.458L661.939 485.717" stroke="url(#paint44_linear_36_3137)" stroke-width="4.139" stroke-linecap="round" stroke-linejoin="round"/>
<g opacity="0.1">
<path d="M91.9119 208.004C81.4119 208.039 72.3209 213.661 66.4419 222.204C61.0139 230.089 57.4019 242.104 60.3529 251.533C66.9989 272.775 96.2129 281.111 113.644 267.933L99.2099 259.646C101.21 285.852 119.637 308.432 144.058 317.483C168.479 326.534 196.231 317.247 212.607 297.568C222.295 285.927 228.138 271.935 228.491 256.697L211.537 263.72C225.109 278.354 246.959 285.542 266.365 279.858C275.565 277.158 284.709 272.106 290.647 264.493C295.826 257.855 301.489 249.122 299.402 240.41C298.925 238.418 296.15 237.073 294.376 238.365C288.776 242.442 285.499 248.584 279.705 252.519C274.147 256.294 268.619 259.798 261.997 261.306C255.44 262.718 248.628 262.387 242.238 260.347C235.849 258.306 230.106 254.627 225.582 249.675C219.547 243.142 208.837 248.42 208.629 256.697C208.056 279.459 188.012 300.254 165.103 301.113C141.931 301.983 120.244 282.778 118.396 259.646C117.887 253.281 110.296 246.538 103.961 251.363C95.5709 257.755 81.6119 256.369 74.9679 246.645C70.9369 240.745 70.5389 234.486 74.2039 228.232C77.9259 221.878 84.4509 217.076 91.9119 216.532C97.3249 216.14 97.4679 207.982 91.9119 208V208.004Z" fill="#171717"/>
</g>
<g opacity="0.1">
<path d="M49.4972 784.336C48.2252 786.29 46.2132 787.546 44.8972 789.536C43.8269 791.189 42.9037 792.932 42.1382 794.746C40.3978 798.465 39.1364 802.391 38.3842 806.427C37.3352 813.042 38.3942 820.609 42.0552 826.327C52.6552 842.881 75.0782 836.162 85.5872 823.091L69.0722 818.73C74.9952 836.472 84.0092 855.172 104.055 859.792C125.198 864.665 146.774 851.298 151.255 829.959L138.8 837.03C152.211 840.666 166.877 839.209 178.265 830.859C182.922 827.444 188.288 822.73 190.299 817.159C191.115 814.899 191.411 812.515 192.106 810.243C193.077 807.064 192.897 805.237 192.906 801.97C192.906 799.906 189.962 798.344 188.506 800.147C185.974 803.254 182.966 805.939 179.593 808.103C175.973 810.371 172.985 813.26 169.105 815.185C161.365 818.989 152.496 819.815 144.186 817.506C139.165 816.08 132.851 819.242 131.731 824.577C129.308 836.118 117.943 844.098 106.262 839.333C96.2172 835.233 90.1512 823.554 88.1312 813.478C86.9312 807.492 78.6542 804.11 73.6162 807.578C67.9322 811.484 61.2622 820.188 54.7082 813.337C52.0932 810.603 51.3622 806.974 51.5082 803.225C51.6182 800.33 52.5372 797.661 53.2522 794.877C53.9462 792.171 53.7672 789.107 54.6452 786.515C55.7052 783.382 51.1782 781.774 49.5042 784.348L49.4972 784.336Z" fill="#171717"/>
</g>
<g opacity="0.1">
<path d="M480.602 720.687C474.99 724.117 469.796 727.855 465.809 733.13C461.835 738.491 458.818 744.499 456.892 750.888C452.529 764.888 455.177 780.423 462.217 793.123C477.517 820.715 512.159 832.123 541.773 824.623C558.458 820.394 575.606 810.357 586.402 796.78L567.271 785.643C559.9 818.122 574.735 853.352 605.071 868.258C638.399 884.632 677.531 876.558 705.411 853.416C719.886 841.401 731.166 825.379 738.783 808.258L720.546 810.608C742.887 833.92 780.2 840.469 808.48 824.287C834.039 809.663 850.1 775.557 838.85 747.296C837.462 743.81 832.138 744.064 832.036 748.218C831.464 771.575 820.211 795.339 798.493 805.806C778.193 815.592 752.206 810.236 736.967 794.187C732.231 789.2 721.802 789.716 718.731 796.537C707.852 820.694 689.052 842.896 662.88 850.703C637.907 858.153 608.821 851.729 594.885 828.884C591.351 823.328 588.807 817.201 587.367 810.776C585.93 804.125 587.004 798.216 589.346 791.724C593.332 780.677 577.875 772.824 570.214 780.587C559.452 791.497 547.852 799.827 532.532 802.904C525.913 804.181 519.107 804.137 512.506 802.775C505.904 801.412 499.637 798.759 494.065 794.966C483.731 788.115 476.117 776.635 475.332 764.34C474.511 751.498 476.432 737.37 486.283 728.049C490.138 724.4 485.158 717.902 480.602 720.687V720.687Z" fill="#171717"/>
</g>
<g opacity="0.1">
<path d="M834.036 532.52C830.036 534.82 826.67 537.839 825.661 542.492C824.751 547.565 825.487 552.796 827.761 557.421C833.714 568.999 851.679 567.811 859.255 558.795L845.341 557.002C852.068 570.991 862.568 586.596 880.114 586.223C896.38 585.877 906.361 570.495 905.97 555.347L899.378 564.006C913.656 560.322 924.216 544.445 919.471 529.768C918.287 526.107 912.862 525.855 911.787 529.768C909.397 538.461 903.458 544.477 894.603 546.687C892.717 547.227 891.057 548.362 889.869 549.923C888.681 551.483 888.029 553.386 888.01 555.347C888.11 561.123 885.219 569.579 877.987 568.341C868.611 566.735 864.247 555.568 860.641 548.059C858.296 543.178 850.227 542.101 846.726 546.266C844.226 549.235 840.859 549.812 837.268 548.19C833.148 546.329 833.768 538.717 836.481 535.69C836.811 535.339 837.005 534.882 837.028 534.401C837.052 533.92 836.903 533.447 836.609 533.065C836.315 532.684 835.894 532.42 835.423 532.321C834.952 532.222 834.461 532.294 834.038 532.524L834.036 532.52Z" fill="#171717"/>
</g>
<g opacity="0.1">
<path d="M60.36 550.507C62.949 586.837 87.56 616.785 112.254 641.555C138.954 668.345 167.584 695.206 199.922 715.073C233.47 735.683 272.562 747.198 311.908 740.348C330.66 737.084 348.721 729.657 365.249 720.348C381.796 711.025 395.991 698.41 412.179 688.6C429.245 678.257 448.021 674.144 467.842 673.566C478.362 673.26 489.178 673.496 499.662 674.076C504.81 674.36 510.039 674.185 515.152 674.529C517.762 674.704 519.952 675.215 522.569 674.79C525.469 674.319 528.275 673.604 531.208 673.214C533.008 672.974 534.178 670.514 532.225 669.457C528.553 667.466 524.958 664.557 520.969 663.307C516.636 661.951 512.121 660.707 507.704 659.56C498.845 657.232 489.818 655.602 480.704 654.687C462.588 652.903 444.427 653.41 426.761 658.155C417.605 660.513 408.812 664.102 400.621 668.824C392.808 673.435 385.645 679.041 378.349 684.407C364.103 694.886 348.793 704.517 332.214 710.86C315.528 717.244 298.182 720.56 280.297 719.413C262.681 718.282 245.208 712.842 229.377 705.175C195.777 688.9 168.065 663.213 141.168 637.823C127.822 625.223 114.448 612.194 103.531 597.379C92.4248 582.51 84.0152 565.807 78.685 548.03C75.791 538.33 59.585 539.647 60.362 550.51L60.36 550.507Z" fill="#171717"/>
</g>
<defs>
<linearGradient id="paint0_linear_36_3137" x1="816.877" y1="203.052" x2="816.877" y2="272.728" gradientUnits="userSpaceOnUse">
<stop stop-color="#FFB800"/>
<stop offset="1" stop-color="#FF7F0A"/>
</linearGradient>
<linearGradient id="paint1_linear_36_3137" x1="650.894" y1="653.248" x2="650.894" y2="877.4" gradientUnits="userSpaceOnUse">
<stop stop-color="#FFB800"/>
<stop offset="1" stop-color="#FF7F0A"/>
</linearGradient>
<linearGradient id="paint2_linear_36_3137" x1="821.982" y1="263.111" x2="821.982" y2="285.144" gradientUnits="userSpaceOnUse">
<stop stop-color="#FFB800"/>
<stop offset="1" stop-color="#FF7F0A"/>
</linearGradient>
<linearGradient id="paint3_linear_36_3137" x1="694.137" y1="88.3379" x2="694.137" y2="180.349" gradientUnits="userSpaceOnUse">
<stop stop-color="#FFB800"/>
<stop offset="1" stop-color="#FF7F0A"/>
</linearGradient>
<linearGradient id="paint4_linear_36_3137" x1="501.24" y1="427.646" x2="501.24" y2="676.389" gradientUnits="userSpaceOnUse">
<stop stop-color="#FFB800"/>
<stop offset="1" stop-color="#FF7F0A"/>
</linearGradient>
<linearGradient id="paint5_linear_36_3137" x1="546.908" y1="373.339" x2="546.908" y2="676.06" gradientUnits="userSpaceOnUse">
<stop stop-color="#FFB800"/>
<stop offset="1" stop-color="#FF7F0A"/>
</linearGradient>
<linearGradient id="paint6_linear_36_3137" x1="290.222" y1="275.072" x2="290.222" y2="737.695" gradientUnits="userSpaceOnUse">
<stop stop-color="#FFB800"/>
<stop offset="1" stop-color="#FF7F0A"/>
</linearGradient>
<linearGradient id="paint7_linear_36_3137" x1="422.929" y1="254.599" x2="422.929" y2="293.823" gradientUnits="userSpaceOnUse">
<stop stop-color="#FFB800"/>
<stop offset="1" stop-color="#FF7F0A"/>
</linearGradient>
<linearGradient id="paint8_linear_36_3137" x1="419.891" y1="224.225" x2="419.891" y2="277.832" gradientUnits="userSpaceOnUse">
<stop stop-color="#FFB800"/>
<stop offset="1" stop-color="#FF7F0A"/>
</linearGradient>
<linearGradient id="paint9_linear_36_3137" x1="183.91" y1="157.353" x2="183.91" y2="317.019" gradientUnits="userSpaceOnUse">
<stop stop-color="#FFB800"/>
<stop offset="1" stop-color="#FF7F0A"/>
</linearGradient>
<linearGradient id="paint10_linear_36_3137" x1="102.134" y1="542.213" x2="102.134" y2="585.74" gradientUnits="userSpaceOnUse">
<stop stop-color="#FFB800"/>
<stop offset="1" stop-color="#FF7F0A"/>
</linearGradient>
<linearGradient id="paint11_linear_36_3137" x1="95.3456" y1="512.562" x2="95.3456" y2="570.491" gradientUnits="userSpaceOnUse">
<stop stop-color="#FFB800"/>
<stop offset="1" stop-color="#FF7F0A"/>
</linearGradient>
<linearGradient id="paint12_linear_36_3137" x1="351.389" y1="792.528" x2="351.389" y2="828.953" gradientUnits="userSpaceOnUse">
<stop stop-color="#FFB800"/>
<stop offset="1" stop-color="#FF7F0A"/>
</linearGradient>
<linearGradient id="paint13_linear_36_3137" x1="351.307" y1="795.949" x2="351.307" y2="822.01" gradientUnits="userSpaceOnUse">
<stop stop-color="#FFB800"/>
<stop offset="1" stop-color="#FF7F0A"/>
</linearGradient>
<linearGradient id="paint14_linear_36_3137" x1="83.206" y1="335.06" x2="83.206" y2="357.271" gradientUnits="userSpaceOnUse">
<stop stop-color="#FFB800"/>
<stop offset="1" stop-color="#FF7F0A"/>
</linearGradient>
<linearGradient id="paint15_linear_36_3137" x1="86.4051" y1="331.168" x2="86.4051" y2="360.292" gradientUnits="userSpaceOnUse">
<stop stop-color="#FFB800"/>
<stop offset="1" stop-color="#FF7F0A"/>
</linearGradient>
<linearGradient id="paint16_linear_36_3137" x1="488.929" y1="82.708" x2="488.929" y2="146.981" gradientUnits="userSpaceOnUse">
<stop stop-color="#FFB800"/>
<stop offset="1" stop-color="#FF7F0A"/>
</linearGradient>
<linearGradient id="paint17_linear_36_3137" x1="570.067" y1="100.88" x2="570.067" y2="155.941" gradientUnits="userSpaceOnUse">
<stop stop-color="#FFB800"/>
<stop offset="1" stop-color="#FF7F0A"/>
</linearGradient>
<linearGradient id="paint18_linear_36_3137" x1="542.758" y1="86.499" x2="542.758" y2="101.768" gradientUnits="userSpaceOnUse">
<stop stop-color="#FFB800"/>
<stop offset="1" stop-color="#FF7F0A"/>
</linearGradient>
<linearGradient id="paint19_linear_36_3137" x1="522.532" y1="141.939" x2="522.532" y2="165.149" gradientUnits="userSpaceOnUse">
<stop stop-color="#FFB800"/>
<stop offset="1" stop-color="#FF7F0A"/>
</linearGradient>
<linearGradient id="paint20_linear_36_3137" x1="606.323" y1="443.519" x2="606.323" y2="445.7" gradientUnits="userSpaceOnUse">
<stop stop-color="#FFB800"/>
<stop offset="1" stop-color="#FF7F0A"/>
</linearGradient>
<linearGradient id="paint21_linear_36_3137" x1="606.996" y1="437.055" x2="606.996" y2="456.179" gradientUnits="userSpaceOnUse">
<stop stop-color="#FFB800"/>
<stop offset="1" stop-color="#FF7F0A"/>
</linearGradient>
<linearGradient id="paint22_linear_36_3137" x1="630.533" y1="551.272" x2="630.533" y2="571.091" gradientUnits="userSpaceOnUse">
<stop stop-color="#FFB800"/>
<stop offset="1" stop-color="#FF7F0A"/>
</linearGradient>
<linearGradient id="paint23_linear_36_3137" x1="630.306" y1="559.538" x2="630.306" y2="562.76" gradientUnits="userSpaceOnUse">
<stop stop-color="#FFB800"/>
<stop offset="1" stop-color="#FF7F0A"/>
</linearGradient>
<linearGradient id="paint24_linear_36_3137" x1="749.701" y1="437.051" x2="749.701" y2="461.04" gradientUnits="userSpaceOnUse">
<stop stop-color="#FFB800"/>
<stop offset="1" stop-color="#FF7F0A"/>
</linearGradient>
<linearGradient id="paint25_linear_36_3137" x1="751.04" y1="443.907" x2="751.04" y2="453.8" gradientUnits="userSpaceOnUse">
<stop stop-color="#FFB800"/>
<stop offset="1" stop-color="#FF7F0A"/>
</linearGradient>
<linearGradient id="paint26_linear_36_3137" x1="760.699" y1="335.726" x2="760.699" y2="354.234" gradientUnits="userSpaceOnUse">
<stop stop-color="#FFB800"/>
<stop offset="1" stop-color="#FF7F0A"/>
</linearGradient>
<linearGradient id="paint27_linear_36_3137" x1="762.243" y1="340.318" x2="762.243" y2="348.046" gradientUnits="userSpaceOnUse">
<stop stop-color="#FFB800"/>
<stop offset="1" stop-color="#FF7F0A"/>
</linearGradient>
<linearGradient id="paint28_linear_36_3137" x1="699.133" y1="258.239" x2="699.133" y2="277.239" gradientUnits="userSpaceOnUse">
<stop stop-color="#FFB800"/>
<stop offset="1" stop-color="#FF7F0A"/>
</linearGradient>
<linearGradient id="paint29_linear_36_3137" x1="700.244" y1="260.303" x2="700.244" y2="273.55" gradientUnits="userSpaceOnUse">
<stop stop-color="#FFB800"/>
<stop offset="1" stop-color="#FF7F0A"/>
</linearGradient>
<linearGradient id="paint30_linear_36_3137" x1="674.629" y1="217.301" x2="674.629" y2="234.275" gradientUnits="userSpaceOnUse">
<stop stop-color="#FFB800"/>
<stop offset="1" stop-color="#FF7F0A"/>
</linearGradient>
<linearGradient id="paint31_linear_36_3137" x1="650.903" y1="401.3" x2="650.903" y2="416.567" gradientUnits="userSpaceOnUse">
<stop stop-color="#FFB800"/>
<stop offset="1" stop-color="#FF7F0A"/>
</linearGradient>
<linearGradient id="paint32_linear_36_3137" x1="780.033" y1="381.792" x2="780.033" y2="396.565" gradientUnits="userSpaceOnUse">
<stop stop-color="#FFB800"/>
<stop offset="1" stop-color="#FF7F0A"/>
</linearGradient>
<linearGradient id="paint33_linear_36_3137" x1="683.568" y1="477.53" x2="683.568" y2="524.56" gradientUnits="userSpaceOnUse">
<stop stop-color="#FFB800"/>
<stop offset="1" stop-color="#FF7F0A"/>
</linearGradient>
<linearGradient id="paint34_linear_36_3137" x1="667.471" y1="319.318" x2="667.471" y2="356.829" gradientUnits="userSpaceOnUse">
<stop stop-color="#FFB800"/>
<stop offset="1" stop-color="#FF7F0A"/>
</linearGradient>
<linearGradient id="paint35_linear_36_3137" x1="672.208" y1="346.039" x2="672.208" y2="365.3" gradientUnits="userSpaceOnUse">
<stop stop-color="#FFB800"/>
<stop offset="1" stop-color="#FF7F0A"/>
</linearGradient>
<linearGradient id="paint36_linear_36_3137" x1="661.921" y1="347.112" x2="661.921" y2="365.925" gradientUnits="userSpaceOnUse">
<stop stop-color="#FFB800"/>
<stop offset="1" stop-color="#FF7F0A"/>
</linearGradient>
<linearGradient id="paint37_linear_36_3137" x1="682.883" y1="330.152" x2="682.883" y2="332.3" gradientUnits="userSpaceOnUse">
<stop stop-color="#FFB800"/>
<stop offset="1" stop-color="#FF7F0A"/>
</linearGradient>
<linearGradient id="paint38_linear_36_3137" x1="668.089" y1="313.354" x2="668.089" y2="326.654" gradientUnits="userSpaceOnUse">
<stop stop-color="#FFB800"/>
<stop offset="1" stop-color="#FF7F0A"/>
</linearGradient>
<linearGradient id="paint39_linear_36_3137" x1="660.814" y1="315.296" x2="660.814" y2="327.625" gradientUnits="userSpaceOnUse">
<stop stop-color="#FFB800"/>
<stop offset="1" stop-color="#FF7F0A"/>
</linearGradient>
<linearGradient id="paint40_linear_36_3137" x1="696.457" y1="477.59" x2="696.457" y2="491.369" gradientUnits="userSpaceOnUse">
<stop stop-color="#FFB800"/>
<stop offset="1" stop-color="#FF7F0A"/>
</linearGradient>
<linearGradient id="paint41_linear_36_3137" x1="702.094" y1="502.965" x2="702.094" y2="507.583" gradientUnits="userSpaceOnUse">
<stop stop-color="#FFB800"/>
<stop offset="1" stop-color="#FF7F0A"/>
</linearGradient>
<linearGradient id="paint42_linear_36_3137" x1="696.186" y1="511.859" x2="696.186" y2="517.264" gradientUnits="userSpaceOnUse">
<stop stop-color="#FFB800"/>
<stop offset="1" stop-color="#FF7F0A"/>
</linearGradient>
<linearGradient id="paint43_linear_36_3137" x1="669.031" y1="512.267" x2="669.031" y2="524.967" gradientUnits="userSpaceOnUse">
<stop stop-color="#FFB800"/>
<stop offset="1" stop-color="#FF7F0A"/>
</linearGradient>
<linearGradient id="paint44_linear_36_3137" x1="667.341" y1="485.458" x2="667.341" y2="494.394" gradientUnits="userSpaceOnUse">
<stop stop-color="#FFB800"/>
<stop offset="1" stop-color="#FF7F0A"/>
</linearGradient>
</defs>
</svg>
