<svg version="1.1" id="Layer_1" xmlns:x="ns_extend;" xmlns:i="ns_ai;" xmlns:graph="ns_graphs;" xmlns="http://www.w3.org/2000/svg" xmlns:xlink="http://www.w3.org/1999/xlink" x="0px" y="0px" viewBox="0 0 128.3 128.3" style="enable-background:new 0 0 128.3 128.3;" xml:space="preserve">
 <style type="text/css">
  .st0{fill-rule:evenodd;clip-rule:evenodd;fill:url(#Oval_1_);}
	.st1{fill-rule:evenodd;clip-rule:evenodd;fill:#FFFFFF;}
 </style>
 <metadata>
  <sfw xmlns="ns_sfw;">
   <slices>
   </slices>
   <sliceSourceBounds bottomLeftOrigin="true" height="128.3" width="128.3" x="135.8" y="-237.7">
   </sliceSourceBounds>
  </sfw>
 </metadata>
 <g>
  <g id="Artboard">
   <linearGradient id="Oval_1_" gradientUnits="userSpaceOnUse" x1="0" y1="64.1535" x2="128.3071" y2="64.1535">
    <stop offset="0" style="stop-color:#2AABEE">
    </stop>
    <stop offset="1" style="stop-color:#229ED9">
    </stop>
   </linearGradient>
   <circle id="Oval" class="st0" cx="64.2" cy="64.2" r="64.2">
   </circle>
   <path id="Path-3" class="st1" d="M29,63.5C47.7,55.3,60.2,50,66.5,47.4C84.3,40,88,38.7,90.4,38.6c0.5,0,1.7,0.1,2.5,0.7
			c0.6,0.5,0.8,1.2,0.9,1.7s0.2,1.6,0.1,2.5c-1,10.1-5.1,34.8-7.3,46.1c-0.9,4.8-2.7,6.4-4.4,6.6c-3.7,0.3-6.6-2.5-10.2-4.8
			c-5.6-3.7-8.8-6-14.3-9.6c-6.3-4.2-2.2-6.5,1.4-10.2c0.9-1,17.4-15.9,17.7-17.3c0-0.2,0.1-0.8-0.3-1.1c-0.4-0.3-0.9-0.2-1.3-0.1
			c-0.6,0.1-9.6,6.1-27.1,17.9c-2.6,1.8-4.9,2.6-7,2.6c-2.3,0-6.7-1.3-10-2.4c-4-1.3-7.2-2-6.9-4.2C24.4,65.9,26,64.7,29,63.5z">
   </path>
  </g>
 </g>
</svg>