<svg width="359" height="90" viewBox="0 0 359 90" fill="none" xmlns="http://www.w3.org/2000/svg">
<g clip-path="url(#clip0_760_4)">
<path d="M3.2 71V26.2H12.16V71H3.2ZM19.855 71V26.2H26.639L48.463 52.12C49.487 53.272 50.511 54.488 51.407 55.832C51.151 53.912 51.087 51.16 51.087 48.536V26.2H59.279V71H53.455L30.799 44.056C29.775 42.904 28.751 41.688 27.855 40.344C28.111 42.264 28.175 45.016 28.175 47.64V71H19.855ZM66.9475 71V26.2H82.0515C91.7795 26.2 97.0275 31 97.0275 37.976C97.0275 42.264 95.2995 45.336 89.7955 47.384C97.0915 49.112 99.5235 53.08 99.5235 58.648C99.5235 66.136 93.3795 71 83.6515 71H66.9475ZM75.9075 62.936H82.8195C87.6835 62.936 90.4355 61.144 90.4355 57.24C90.4355 53.976 87.6835 51.992 82.8195 51.992H75.9075V62.936ZM75.9075 44.696H81.2195C86.0835 44.696 87.9395 42.968 87.9395 39.384C87.9395 36.312 86.0835 34.2 81.2195 34.2H75.9075V44.696ZM126.112 71.832C112.8 71.832 102.752 61.464 102.752 48.664C102.752 35.8 112.8 25.368 126.112 25.368C139.36 25.368 149.344 35.8 149.344 48.664C149.344 61.464 139.36 71.832 126.112 71.832ZM112.032 48.664C112.032 56.792 117.408 63.512 126.112 63.512C134.752 63.512 140.064 56.792 140.064 48.664C140.064 40.536 134.752 33.688 126.112 33.688C117.408 33.688 112.032 40.536 112.032 48.664ZM148.417 71L163.137 48.536L149.121 26.2H159.809L168.641 41.048L177.665 26.2H188.097L174.081 48.728L188.801 71H177.985L168.641 56.088L159.041 71H148.417ZM201.695 71V70.04L222.047 36.12C222.495 35.416 222.943 34.776 223.519 34.072H202.911V26.2H237.791V27.16L217.439 61.08C216.991 61.784 216.543 62.424 215.967 63.128H237.791V71H201.695ZM243.16 71V26.2H269.4V34.264H252.12V44.312H269.08V52.12H252.12V62.936H269.528V71H243.16ZM276.502 71V26.2L290.966 26.136C301.014 26.072 307.158 31 307.158 39.768C307.158 46.872 303.19 51.224 296.406 52.696L308.95 71H298.39L288.854 56.792C288.214 55.832 287.702 54.872 287.126 53.528H285.462V71H276.502ZM285.462 45.464H290.454C295.318 45.464 298.07 43.48 298.07 39.832C298.07 36.248 295.318 34.264 290.454 34.264H285.462V45.464ZM334.042 71.832C320.73 71.832 310.682 61.464 310.682 48.664C310.682 35.8 320.73 25.368 334.042 25.368C347.29 25.368 357.274 35.8 357.274 48.664C357.274 61.464 347.29 71.832 334.042 71.832ZM319.962 48.664C319.962 56.792 325.338 63.512 334.042 63.512C342.682 63.512 347.994 56.792 347.994 48.664C347.994 40.536 342.682 33.688 334.042 33.688C325.338 33.688 319.962 40.536 319.962 48.664Z" fill="black"/>
</g>
<defs>
<clipPath id="clip0_760_4">
<rect width="359" height="90" fill="white"/>
</clipPath>
</defs>
</svg>
