<svg width="960" height="960" viewBox="0 0 960 960" fill="none" xmlns="http://www.w3.org/2000/svg">
  <g clip-path="url(#clip0_36_3262)">
    <path
      d="M906.701 481.661L876.593 488.434L871.182 518.814L864.408 488.706L834.029 483.281L864.137 476.522L869.561 446.128L876.322 476.25L906.701 481.661Z"
      fill="url(#paint0_linear_36_3262)" />
    <path
      d="M738.933 434.4C739.427 426.4 739.907 418.403 740.374 410.408V410.369C740.786 410.385 741.199 410.336 741.596 410.223C743.416 409.655 744.441 407.76 745.126 405.966C747.279 400.266 747.826 394.097 748.033 387.99C748.164 383.822 748.147 379.552 746.821 375.602C745.321 371.102 738.885 362.534 734.437 369.302C733.45 371.1 732.87 373.093 732.737 375.139C732.344 378.153 732.017 381.217 731.861 384.292C731.474 379.307 730.623 374.264 728.038 370.013C726.438 367.374 723.575 364.92 720.559 365.593C719.645 365.858 718.803 366.327 718.096 366.964C717.389 367.6 716.835 368.389 716.476 369.27C715.787 371.041 715.38 372.909 715.268 374.805C715.029 377.116 714.819 379.453 714.685 381.805L713.933 381.77C711.79 379.832 710.065 377.478 708.861 374.851C707.658 372.225 707.002 369.381 706.933 366.492C706.874 363.251 706.827 359.998 706.768 356.757H707.019C721.362 332.715 736.204 308.991 751.544 285.585L688.877 249.462L867.111 149.034L878.511 368.328L815.726 326.936L741.415 460.068L741.151 460.06C741.229 458.213 741.305 456.354 741.357 454.493C741.581 447.978 741.726 441.464 741.857 434.951L738.914 434.793C738.925 434.661 738.935 434.53 738.933 434.4Z"
      fill="url(#paint1_linear_36_3262)" />
    <path
      d="M866.883 810.822C869.132 830.739 864.783 850.854 858.527 869.891L858.519 870.115C810.478 868.155 762.442 866.204 714.409 864.261L714.444 863.47C716.533 859.654 717.506 855.328 717.253 850.985C717 846.642 715.531 842.458 713.013 838.91C707.913 831.934 700.133 828.088 691.698 829.831C692.537 827.848 693.274 825.832 693.909 823.784C697.409 812.676 698.328 800.939 698.794 789.305C699.469 772.262 698.52 753.385 686.779 741.005C678.115 731.881 665.084 727.914 652.516 727.47C647.642 727.323 642.763 727.515 637.916 728.045L637.832 727.204L645.985 664.316C667.885 649.252 693.622 642.194 719.955 645.798C746.327 649.398 771.283 665.12 783.891 688.575C796.238 711.547 795.707 740.948 782.53 763.475C796.953 749.552 821.318 749.365 838.152 760.232C854.986 771.099 864.634 790.907 866.883 810.822Z"
      fill="url(#paint2_linear_36_3262)" />
    <path
      d="M798.152 621.497L791.556 626.521L791.952 634.788L785.138 630.077L777.402 633.018L779.781 625.083L774.59 618.622L782.875 618.424L787.413 611.496L790.157 619.316L798.152 621.497Z"
      fill="url(#paint3_linear_36_3262)" />
    <path
      d="M742.862 125.224C750.046 129.399 751.344 140.903 745.262 146.572C741.286 150.272 713.431 145.832 707.445 145.69C694.47 145.385 681.491 145.081 668.507 144.778C655.928 144.492 640.777 146.478 628.507 143.852C620.72 142.18 614.876 134.258 625.264 128.478C631.031 125.266 638.164 126.648 644.578 128.219C642.786 118.757 649.714 108.519 659.148 106.662C668.582 104.805 678.881 111.612 680.848 121.044C678.701 110.97 678.359 99.0255 685.873 92.0005C694.898 83.5755 710.889 87.9234 717.967 98.0324C725.045 108.141 725.187 121.579 723.138 133.75C725.026 125.648 735.666 121.062 742.862 125.224Z"
      fill="url(#paint4_linear_36_3262)" />
    <path
      d="M691.277 381.729C691.201 383.616 691.111 385.516 691.035 387.402C690.201 387.842 689.368 388.295 688.548 388.761C687.598 389.296 686.662 389.844 685.738 390.419C687.377 387.396 689.228 384.492 691.277 381.729V381.729Z"
      fill="#171717" />
    <path
      d="M684.393 430.62L684.372 430.884C684.184 438.967 683.957 447.129 683.467 455.284C682.091 477.547 678.63 499.607 667.858 518.878C659.38 534.053 646.825 546.554 631.614 554.967C616.403 563.381 599.141 567.371 581.78 566.488C582.127 565.623 582.32 564.705 582.351 563.774C582.551 561.502 582.751 559.244 582.951 556.974C583.088 555.455 583.151 553.741 582.151 552.59C581.029 551.324 579.079 551.302 577.393 551.378L566.693 551.893V551.88C566.891 546.953 568.243 542.142 570.64 537.833C573.037 533.525 576.412 529.839 580.493 527.073L580.573 527.151C580.393 527.326 580.225 527.501 580.045 527.663C589.901 520.512 601.102 509.81 606.807 498.508C609.699 499.867 612.58 501.222 615.45 502.573C621.721 491.811 628.102 482.443 635.77 471.729C648.444 449.041 662.493 428.96 675.202 407.314L675.674 407.214C676.489 410.32 677.892 413.242 679.806 415.82C683.353 421.082 687.331 426.041 691.699 430.644L691.67 431.119C689.237 430.96 686.821 430.79 684.393 430.62Z"
      fill="url(#paint5_linear_36_3262)" />
    <path
      d="M691.7 829.832C690.497 832.727 689.074 835.525 687.445 838.204C684.178 843.682 679.848 848.451 674.711 852.233C673.739 852.941 672.739 853.595 671.724 854.198C665.144 858.179 657.695 860.374 649.974 861.654C644.19 862.558 638.36 863.137 632.511 863.388C595.628 865.369 555.294 863.936 513.692 861.767L513.617 861.36C516.479 860.875 519.081 859.946 520.132 858.038C521.019 856.438 520.442 853.63 519.812 851.35C519.567 850.42 519.312 849.569 519.152 848.927C517.926 844.158 514.339 839.942 509.792 836.998C507.421 835.491 504.892 834.248 502.25 833.292L502.35 833.026C518.221 812.508 529.092 780.557 547.289 762.069C549.841 759.481 554.589 756.252 560.868 752.819C574.131 745.769 588.048 740.026 602.422 735.669C613.98 731.994 625.866 729.442 637.914 728.051C642.761 727.52 647.64 727.327 652.514 727.475C665.083 727.919 678.114 731.886 686.777 741.011C698.519 753.388 699.467 772.265 698.792 789.311C698.327 800.945 697.402 812.682 693.907 823.791C693.271 825.83 692.538 827.85 691.7 829.832Z"
      fill="#171717" />
    <path
      d="M604.248 455.31C612.595 466.142 613.448 481.529 608.648 494.328C608.113 495.755 607.497 497.15 606.803 498.507C601.098 509.807 589.898 520.507 580.041 527.662C580.222 527.5 580.389 527.325 580.569 527.15C588.156 519.863 592.206 509.415 593.33 498.939C594.488 488.211 592.783 477.39 590.348 466.888L590.335 466.862C590.649 466.736 590.962 466.597 591.275 466.462C596.561 464.13 602.156 460.369 603.926 455.202L604.248 455.31Z"
      fill="#171717" />
    <path
      d="M542.8 472.601L542.613 473.659C545.399 498.149 541.913 530.318 511.496 537.44C512.082 543.086 512.384 548.757 512.402 554.434C512.392 558.227 511.981 562.008 511.178 565.716C510.244 569.965 508.596 574.026 506.306 577.726C498.661 590.114 485.652 599.47 471.177 601.072C462.921 601.994 454.361 600.484 445.953 599.327C435.946 597.969 426.136 597.107 417.243 601.443C408.782 605.573 403.188 613.552 398.458 621.868C397.458 623.63 396.494 625.418 395.544 627.178C386.586 643.852 377.619 660.53 368.644 677.212L368.631 677.198C362.714 663.05 359.692 647.861 359.745 632.526C359.797 617.191 362.923 602.023 368.936 587.916C374.95 573.81 383.731 561.052 394.758 550.396C405.786 539.74 418.838 531.403 433.142 525.877C437.923 523.988 442.829 522.434 447.825 521.227C449.502 520.808 451.194 520.441 452.887 520.113C457.913 519.144 463.26 518.392 467.275 515.206C472.493 511.057 474.048 503.931 475.616 497.44C479.454 481.592 485.498 466.025 495.449 453.085C496.755 451.385 498.143 449.717 499.596 448.117C509.153 437.597 521.64 429.61 535.564 426.993C553.636 423.599 572.11 429.354 589.134 436.303C596.276 439.215 604.46 443.961 604.514 451.683C604.526 452.88 604.33 454.071 603.933 455.201C602.163 460.367 596.568 464.129 591.282 466.461C590.968 466.599 590.656 466.739 590.342 466.861C575.345 473.186 558.873 475.174 542.8 472.601V472.601Z"
      fill="#171717" />
    <path
      d="M482.024 743.65C489.524 747.41 495.535 750.861 501.366 753.499C515.439 759.88 528.484 761.619 559.028 751.923L560.542 751.875L560.866 752.818C554.59 756.252 549.839 759.482 547.287 762.068C529.087 780.555 518.219 812.506 502.347 833.025L502.247 833.291C502.02 833.204 501.795 833.117 501.57 833.042C496.627 831.376 491.545 830.153 486.385 829.387C479.156 828.026 471.798 827.47 464.445 827.728C457.045 828.143 449.561 829.878 443.408 833.495C437.255 837.112 432.583 842.695 431.718 848.795L430.131 848.581C400.631 835.505 402.354 834.597 377.963 813.462C370.129 806.662 362.817 799.093 357.663 790.087C354.072 783.945 351.793 777.126 350.97 770.059C350.607 766.799 350.653 763.507 351.107 760.259C352.55 751.274 356.865 742.998 363.407 736.672C367.833 732.245 373.032 728.667 378.748 726.115C386.4 722.804 394.614 720.984 402.948 720.753C407.453 720.586 411.964 720.763 416.442 721.282C418.886 721.571 421.332 721.937 423.742 722.398C434.842 724.498 445.542 728.225 456.082 732.379C457.491 732.94 458.914 733.502 460.323 734.064C462.61 735.001 464.897 735.926 467.173 736.864C472.79 739.177 477.652 741.468 482.024 743.65Z"
      fill="#171717" />
    <path d="M501.367 753.501L559.029 751.925C528.485 761.619 515.438 759.881 501.367 753.501Z"
      fill="url(#paint6_linear_36_3262)" />
    <path
      d="M499.443 447.987L499.591 448.116C498.138 449.716 496.752 451.383 495.445 453.085C485.493 466.025 479.445 481.592 475.611 497.44C474.043 503.933 472.489 511.057 467.27 515.206C463.255 518.393 457.908 519.144 452.882 520.112C451.189 520.44 449.497 520.807 447.82 521.227L447.704 520.727L417.386 506.286L417.286 506.381C396.273 481.929 373.213 459.591 347.943 440.425L348.643 439.513C354.499 429.63 360.35 419.752 366.196 409.879C369.474 404.363 372.75 398.838 376.026 393.305C376.548 392.423 377.069 391.542 377.589 390.661C418.244 409.364 459.518 428.212 499.443 447.987Z"
      fill="url(#paint7_linear_36_3262)" />
    <path
      d="M402.939 720.65V720.755C394.604 720.986 386.391 722.806 378.739 726.118C373.024 728.669 367.825 732.247 363.4 736.674L362.741 735.49C350.259 720.586 337.668 705.786 324.969 691.09C326.334 680.214 327.695 669.342 329.052 658.474C353.542 683.348 380.262 705.473 402.939 720.65Z"
      fill="url(#paint8_linear_36_3262)" />
    <path
      d="M381.807 320.797L372.013 330.78L374.692 344.505L362.165 338.275L349.927 345.059L351.992 331.227L341.762 321.689L355.549 319.365L361.46 306.688L367.93 319.09L381.807 320.797Z"
      fill="#171717" />
    <path
      d="M362.743 735.489L363.402 736.673C356.86 742.999 352.544 751.275 351.102 760.26C350.648 763.507 350.602 766.797 350.965 770.055L349.465 770.22C327.065 770.35 303.878 764.304 285.075 757.343C274.758 753.558 264.718 749.057 255.029 743.872L253.961 743.211L284.599 693.37L284.934 693.57C298.266 692.745 311.597 691.908 324.934 691.321C324.946 691.242 324.956 691.163 324.968 691.082C337.673 705.788 350.264 720.59 362.743 735.489Z"
      fill="url(#paint9_linear_36_3262)" />
    <path
      d="M345.7 216.7C347.189 223.757 342.141 230.881 335.731 234.187C329.321 237.493 321.856 237.857 314.654 238.162L211.967 242.468C202.302 242.868 178.921 248.081 170.549 240.874C159.436 231.303 179.611 227.624 187.078 227.959C192.803 228.213 198.823 228.632 203.986 226.159C196.809 212.259 203.497 192.985 217.731 186.5C231.965 180.015 250.902 187.645 256.669 202.185C252.08 188.485 258.815 171.931 271.676 165.344C284.537 158.757 301.908 162.957 310.34 174.683C318.772 186.409 317.219 204.222 306.888 214.31C313.194 209.846 320.138 205.62 327.849 205.132C335.56 204.644 344.1 209.128 345.7 216.7Z"
      fill="#171717" />
    <path
      d="M324.39 299.093L298.741 304.87L294.112 330.751L288.348 305.102L262.465 300.472L288.116 294.709L292.731 268.828L298.509 294.477L324.39 299.093Z"
      fill="url(#paint10_linear_36_3262)" />
    <path
      d="M329.054 658.472C327.689 669.335 326.328 680.207 324.971 691.088C317.451 682.4 309.9 673.752 302.318 665.143L302.064 664.99L314.87 644.158L315.22 643.833C319.718 648.795 324.33 653.675 329.054 658.472Z"
      fill="url(#paint11_linear_36_3262)" />
    <path
      d="M324.971 691.088C324.959 691.167 324.948 691.246 324.938 691.327C311.599 691.914 298.269 692.751 284.938 693.576L284.604 693.376L302.066 664.994L302.32 665.147C309.906 673.751 317.457 682.398 324.971 691.088Z"
      fill="url(#paint12_linear_36_3262)" />
    <path
      d="M249.686 606.826C252.479 602.086 255.259 597.349 258.026 592.617C260.934 587.651 263.835 582.692 266.727 577.742L267.406 577.41C278.437 599.252 295.619 622.221 315.225 643.833L314.874 644.158L302.064 664.99L284.6 693.371L253.962 743.212L185.822 854.025V854.17C157.86 854.319 129.982 854.488 102.188 854.677V854.493C132.899 802.305 164.6 749.661 196.07 697.059C214.085 666.938 232.037 636.833 249.686 606.826Z"
      fill="url(#paint13_linear_36_3262)" />
    <path
      d="M285.079 757.346L284.779 758.146C272.289 759.967 260.983 766.536 253.214 776.484C245.445 786.432 241.812 798.994 243.071 811.553C237.6 810.454 231.933 810.877 226.685 812.776C221.438 814.675 216.813 817.977 213.312 822.323C209.812 826.668 207.57 831.891 206.832 837.423C206.095 842.954 206.888 848.581 209.127 853.693L209.134 854.049L185.824 854.173V854.028L253.966 743.215L255.035 743.877C264.724 749.061 274.763 753.561 285.079 757.346Z"
      fill="#171717" />
    <path
      d="M258.028 592.619C255.26 597.347 252.48 602.083 249.686 606.828C232.036 636.834 214.164 666.911 196.069 697.06L195.628 696.793C188.636 689.032 182.367 680.649 176.899 671.748C132.14 600.078 113.515 479.339 112.526 462.214C148.543 470.797 183.856 482.103 218.159 496.036C227.349 499.769 236.464 503.696 245.503 507.815C248.938 527.122 254.287 546.04 261.47 564.288C263.173 568.599 265.151 572.974 267.403 577.413L266.724 577.745C263.841 582.697 260.942 587.655 258.028 592.619Z"
      fill="url(#paint14_linear_36_3262)" />
    <path
      d="M195.629 696.792L196.07 697.059C164.6 749.659 132.9 802.3 102.187 854.493V854.677C91.0906 854.754 80.0219 854.834 68.9806 854.917C61.4976 854.979 53.3476 854.804 47.5626 850.057C40.7836 844.502 39.6386 834.511 40.8946 825.824C42.1854 816.915 45.4228 808.4 50.3768 800.883C55.3308 793.367 61.8797 787.034 69.558 782.335C77.2363 777.636 85.8554 774.686 94.8028 773.695C103.75 772.704 112.806 773.695 121.327 776.6C117.682 766.14 116.227 755.041 117.054 743.995C117.88 732.948 120.97 722.19 126.13 712.388C131.291 702.587 138.413 693.951 147.052 687.018C155.692 680.086 165.666 675.005 176.353 672.09L176.898 671.749C182.366 680.649 188.636 689.032 195.629 696.792V696.792Z"
      fill="#171717" />
    <path
      d="M531.5 469.968C535.202 471.1 538.978 471.975 542.8 472.589V472.602C558.872 475.176 575.343 473.188 590.34 466.864C590.654 466.739 590.967 466.599 591.28 466.464C596.566 464.132 602.161 460.37 603.931 455.204C604.327 454.074 604.524 452.883 604.512 451.686C604.458 443.964 596.274 439.218 589.132 436.306C572.108 429.358 553.632 423.606 535.562 426.996C521.638 429.613 509.15 437.596 499.594 448.119C498.141 449.719 496.755 451.385 495.448 453.088C485.496 466.028 479.448 481.595 475.614 497.442C474.046 503.935 472.492 511.059 467.273 515.208C463.258 518.396 457.911 519.147 452.885 520.115C451.192 520.443 449.5 520.809 447.823 521.23C442.827 522.438 437.921 523.992 433.14 525.88C418.836 531.406 405.784 539.743 394.756 550.399C383.728 561.054 374.947 573.812 368.933 587.919C362.919 602.025 359.793 617.194 359.741 632.529C359.688 647.864 362.71 663.054 368.627 677.201"
      stroke="#171717" stroke-width="3.953" stroke-linecap="round" stroke-linejoin="round" />
    <path
      d="M604.248 455.311C612.595 466.143 613.448 481.53 608.648 494.329C608.113 495.756 607.497 497.151 606.803 498.508C601.098 509.808 589.898 520.508 580.041 527.663"
      stroke="#171717" stroke-width="3.953" stroke-linecap="round" stroke-linejoin="round" />
    <path
      d="M367.969 678.466C368.197 678.052 368.425 677.625 368.64 677.211C377.611 660.524 386.578 643.846 395.54 627.178C396.489 625.418 397.451 623.63 398.454 621.868C403.184 613.552 408.778 605.568 417.24 601.443C426.13 597.107 435.94 597.969 445.949 599.327C454.357 600.484 462.917 601.993 471.173 601.072C485.648 599.472 498.657 590.113 506.302 577.726C508.591 574.026 510.238 569.965 511.174 565.716C511.978 562.009 512.388 558.227 512.398 554.434C512.38 548.758 512.077 543.086 511.492 537.44C541.908 530.317 545.392 498.148 542.609 473.659"
      stroke="#171717" stroke-width="3.953" stroke-linecap="round" stroke-linejoin="round" />
    <path
      d="M580.043 527.663C580.224 527.501 580.391 527.326 580.571 527.151C588.158 519.864 592.208 509.416 593.332 498.94C594.49 488.212 592.785 477.391 590.35 466.889"
      stroke="#171717" stroke-width="3.953" stroke-linecap="round" stroke-linejoin="round" />
    <path
      d="M584.19 486.636C583.761 485.765 583.108 485.024 582.298 484.488C581.488 483.952 580.55 483.642 579.581 483.588C578.611 483.535 577.645 483.74 576.781 484.183C575.917 484.626 575.186 485.291 574.664 486.11"
      stroke="#171717" stroke-width="2.635" stroke-linecap="round" stroke-linejoin="round" />
    <path
      d="M557.755 486.672C557.443 485.887 556.911 485.21 556.221 484.722C555.532 484.235 554.716 483.958 553.872 483.925C553.005 483.842 552.133 483.997 551.347 484.372C550.561 484.747 549.892 485.329 549.412 486.055"
      stroke="#171717" stroke-width="2.635" stroke-linecap="round" stroke-linejoin="round" />
    <path
      d="M568.9 499.867C568.988 500.137 569.133 500.385 569.327 500.592C569.521 500.799 569.758 500.962 570.021 501.067C570.54 501.319 571.097 501.439 571.621 501.69C572.188 501.962 572.68 502.368 573.054 502.873C573.428 503.378 573.672 503.968 573.766 504.589C573.859 505.211 573.799 505.846 573.59 506.439C573.382 507.032 573.031 507.565 572.569 507.991C572.107 508.417 571.548 508.724 570.94 508.884C570.332 509.044 569.695 509.053 569.082 508.91C568.47 508.766 567.903 508.476 567.429 508.062C566.955 507.649 566.59 507.126 566.365 506.539"
      stroke="#171717" stroke-width="2.635" stroke-linecap="round" stroke-linejoin="round" />
    <path
      d="M558.889 522.283C558.457 522.853 557.875 523.29 557.207 523.545C556.54 523.8 555.814 523.862 555.113 523.725C553.703 523.423 552.463 522.592 551.648 521.403C550.846 520.225 550.288 518.899 550.006 517.503"
      stroke="#171717" stroke-width="2.635" stroke-linecap="round" stroke-linejoin="round" />
    <path
      d="M580.493 527.073C576.412 529.84 573.037 533.525 570.641 537.834C568.244 542.143 566.892 546.954 566.693 551.88"
      stroke="#171717" stroke-width="3.953" stroke-linecap="round" stroke-linejoin="round" />
    <path
      d="M513.665 554.446C531.331 553.604 549.007 552.753 566.693 551.892L577.393 551.377C579.078 551.299 581.03 551.322 582.151 552.589C583.151 553.739 583.085 555.455 582.951 556.973C582.751 559.244 582.551 561.503 582.351 563.773C582.319 564.704 582.126 565.623 581.779 566.487C581.618 566.85 581.388 567.177 581.102 567.451C580.044 568.463 578.402 568.461 576.932 568.401C555.208 567.555 533.483 566.704 511.758 565.848"
      stroke="#171717" stroke-width="3.953" stroke-linecap="round" stroke-linejoin="round" />
    <path
      d="M581.094 566.452C581.318 566.46 581.557 566.481 581.781 566.489C599.141 567.372 616.403 563.381 631.614 554.968C646.826 546.555 659.38 534.054 667.859 518.879C678.631 499.608 682.094 477.548 683.468 455.285C683.958 447.129 684.185 438.967 684.373 430.885"
      stroke="#171717" stroke-width="3.953" stroke-linecap="round" stroke-linejoin="round" />
    <path
      d="M650.799 627.378C668.899 627.054 683.415 616.055 695.73 602.786C715.95 581.025 727.875 552.609 734.121 523.568C738.598 502.711 740.321 481.415 741.152 460.06C741.23 458.213 741.306 456.354 741.358 454.494C741.582 447.978 741.727 441.464 741.858 434.951"
      stroke="#171717" stroke-width="3.953" stroke-linecap="round" stroke-linejoin="round" />
    <path
      d="M684.248 430.609C684.301 430.609 684.34 430.619 684.393 430.619C686.821 430.789 689.238 430.959 691.666 431.119C707.413 432.219 723.168 433.313 738.932 434.401C739.869 434.459 740.794 434.531 741.732 434.589"
      stroke="#171717" stroke-width="3.953" stroke-linecap="round" stroke-linejoin="round" />
    <path
      d="M447.846 597.981C447.209 598.417 446.574 598.866 445.951 599.327C429.727 611.089 416.729 627.527 409.9 646.327C409.3 647.947 408.756 649.581 408.27 651.227C401.843 672.708 405.454 701.686 416.435 721.289C416.49 721.389 416.546 721.497 416.6 721.601"
      stroke="#171717" stroke-width="3.953" stroke-linecap="round" stroke-linejoin="round" />
    <path
      d="M691.699 430.64C687.332 426.037 683.355 421.078 679.81 415.815C677.896 413.236 676.493 410.315 675.678 407.209C675.505 406.334 675.423 405.444 675.435 404.552C675.657 400.935 677.221 397.53 679.821 395.005C681.591 393.231 683.581 391.689 685.742 390.419C686.664 389.844 687.601 389.296 688.552 388.761C689.372 388.295 690.206 387.842 691.039 387.402C694.488 385.453 698.19 383.986 702.039 383.044C704.03 382.503 706.127 382.488 708.126 383.001C709.12 383.275 710.017 383.822 710.716 384.58C711.415 385.337 711.889 386.276 712.083 387.288C712.1 387.446 712.116 387.588 712.12 387.748C712.172 390.107 710.346 392.148 708.591 393.797C705.502 396.715 702.245 399.45 698.837 401.988C697.101 403.293 695.122 404.988 695.437 407.139C695.779 408.401 696.504 409.526 697.512 410.36C701.171 414.168 704.176 418.554 706.407 423.341"
      stroke="#171717" stroke-width="3.953" stroke-linecap="round" stroke-linejoin="round" />
    <path
      d="M691.035 387.428V387.4C691.111 385.513 691.201 383.613 691.277 381.727C691.925 366.439 692.568 351.15 693.207 335.862C693.191 334.088 693.431 332.32 693.92 330.614C694.17 329.761 694.597 328.97 695.172 328.292C695.747 327.614 696.458 327.064 697.259 326.678C700.067 325.508 703.404 327.411 704.873 330.078C706.342 332.745 706.427 335.935 706.482 338.978C706.574 344.908 706.671 350.831 706.773 356.749C706.832 359.99 706.879 363.249 706.938 366.485C707.006 369.373 707.662 372.218 708.866 374.844C710.069 377.471 711.795 379.825 713.938 381.762"
      stroke="#171717" stroke-width="3.953" stroke-linecap="round" stroke-linejoin="round" />
    <path
      d="M740.376 410.368C740.788 410.384 741.201 410.335 741.599 410.222C743.418 409.654 744.443 407.759 745.128 405.965C747.281 400.265 747.828 394.096 748.035 387.989C748.167 383.821 748.15 379.551 746.823 375.601C745.323 371.101 738.886 362.533 734.438 369.301C733.451 371.099 732.871 373.091 732.738 375.138C732.344 378.152 732.018 381.216 731.863 384.291C731.678 387.655 731.757 391.029 732.1 394.381C732.501 398.113 733.439 401.768 734.886 405.232C735.426 406.671 736.269 407.978 737.357 409.064C738.191 409.82 739.253 410.278 740.376 410.368V410.368Z"
      stroke="#171717" stroke-width="3.953" stroke-linecap="round" stroke-linejoin="round" />
    <path
      d="M732.099 394.381C732.199 391.645 732.159 388.905 731.982 386.172C731.942 385.554 731.901 384.922 731.861 384.291C731.473 379.305 730.622 374.263 728.037 370.011C726.437 367.372 723.574 364.919 720.559 365.592C719.645 365.857 718.803 366.325 718.096 366.962C717.388 367.599 716.834 368.387 716.475 369.268C715.787 371.039 715.38 372.907 715.267 374.803C715.029 377.114 714.818 379.451 714.685 381.803C714.57 383.782 714.51 385.761 714.553 387.736C714.5 393.073 715.417 398.375 717.261 403.384C718.035 405.694 719.372 407.775 721.151 409.439C722.71 410.761 725.972 412.31 727.795 410.674C729.332 409.296 730.136 405.759 730.674 403.863C731.526 400.771 732.004 397.587 732.099 394.381V394.381Z"
      stroke="#171717" stroke-width="3.953" stroke-linecap="round" stroke-linejoin="round" />
    <path
      d="M740.375 410.406C739.908 418.406 739.428 426.404 738.934 434.398C738.934 434.53 738.926 434.661 738.916 434.793"
      stroke="#171717" stroke-width="3.953" stroke-linecap="round" stroke-linejoin="round" />
    <path
      d="M559.604 751.738C559.404 751.795 559.224 751.865 559.028 751.923C528.484 761.623 515.437 759.881 501.366 753.5C495.534 750.862 489.527 747.411 482.024 743.651C477.652 741.469 472.792 739.177 467.164 736.864C464.89 735.926 462.603 735.004 460.314 734.065C458.904 733.503 457.481 732.941 456.073 732.378C445.53 728.225 434.838 724.497 423.733 722.398C421.325 721.938 418.878 721.57 416.433 721.282C411.956 720.764 407.445 720.587 402.94 720.752C394.606 720.983 386.392 722.804 378.74 726.115C373.024 728.667 367.824 732.245 363.399 736.672C356.857 742.999 352.542 751.274 351.099 760.259C350.645 763.506 350.599 766.797 350.962 770.055C351.785 777.121 354.064 783.941 357.655 790.082C362.811 799.088 370.123 806.66 377.955 813.457C402.346 834.593 400.626 835.502 430.123 848.576"
      stroke="#171717" stroke-width="3.953" stroke-linecap="round" stroke-linejoin="round" />
    <path
      d="M519.811 851.349C519.566 850.419 519.311 849.568 519.151 848.926C517.925 844.157 514.338 839.94 509.791 836.997C507.42 835.49 504.891 834.247 502.249 833.291C502.023 833.204 501.798 833.117 501.572 833.042C496.629 831.376 491.547 830.153 486.387 829.387C479.158 828.027 471.799 827.47 464.447 827.728C457.047 828.143 449.564 829.878 443.411 833.495C437.258 837.112 432.586 842.695 431.72 848.795C431.535 850.054 431.541 851.334 431.738 852.59C432.089 855.041 433.376 857.261 435.329 858.782C438.158 860.947 442.229 861.62 446.116 862.008C453.169 862.721 460.316 862.808 467.446 862.902C480.088 863.082 492.797 863.246 505.462 862.095C507.526 861.904 510.702 861.859 513.616 861.36C516.478 860.875 519.08 859.946 520.132 858.038C521.018 856.436 520.441 853.629 519.811 851.349Z"
      stroke="#171717" stroke-width="3.953" stroke-linecap="round" stroke-linejoin="round" />
    <path
      d="M502.348 833.025C518.22 812.508 529.091 780.557 547.288 762.069C549.84 759.481 554.588 756.252 560.867 752.818C574.13 745.769 588.046 740.026 602.42 735.669C613.978 731.994 625.864 729.443 637.913 728.051C642.76 727.52 647.639 727.327 652.513 727.475C665.082 727.919 678.113 731.886 686.776 741.01C698.518 753.388 699.465 772.265 698.791 789.31C698.326 800.944 697.401 812.681 693.905 823.79C693.265 825.833 692.532 827.853 691.694 829.836C690.491 832.731 689.069 835.529 687.44 838.208C684.172 843.686 679.843 848.456 674.706 852.237C673.733 852.945 672.733 853.6 671.719 854.202C665.139 858.184 657.689 860.379 649.968 861.658C644.184 862.562 638.354 863.141 632.505 863.392C595.623 865.374 555.289 863.94 513.687 861.771"
      stroke="#171717" stroke-width="3.953" stroke-linecap="round" stroke-linejoin="round" />
    <path d="M460.365 733.947L485.387 607.807" stroke="#171717" stroke-width="3.953"
      stroke-linecap="round" stroke-linejoin="round" />
    <path d="M654.235 600.629L485.387 607.807" stroke="#171717" stroke-width="3.953"
      stroke-linecap="round" stroke-linejoin="round" />
    <path d="M637.828 727.209L645.981 664.323L650.771 627.381L654.234 600.629" stroke="#171717"
      stroke-width="3.953" stroke-linecap="round" stroke-linejoin="round" />
    <path d="M480.971 743.727L482.024 743.651L602.348 735.433" stroke="#171717" stroke-width="3.953"
      stroke-linecap="round" stroke-linejoin="round" />
    <path d="M501.037 753.505L501.367 753.499L559.029 751.923L560.544 751.875" stroke="#171717"
      stroke-width="3.953" stroke-linecap="round" stroke-linejoin="round" />
    <path d="M654.234 600.628L645.463 596.791" stroke="#171717" stroke-width="3.953"
      stroke-linecap="round" stroke-linejoin="round" />
    <path d="M485.386 607.807L481.287 604.8" stroke="#171717" stroke-width="3.953"
      stroke-linecap="round" stroke-linejoin="round" />
    <path d="M645.463 596.791L481.287 604.799" stroke="#171717" stroke-width="3.953"
      stroke-linecap="round" stroke-linejoin="round" />
    <path d="M456.148 732.183L481.287 604.8" stroke="#171717" stroke-width="3.953"
      stroke-linecap="round" stroke-linejoin="round" />
    <path
      d="M645.877 664.39C645.916 664.362 645.941 664.349 645.977 664.321C667.877 649.258 693.613 642.199 719.946 645.803C746.319 649.403 771.275 665.125 783.883 688.58C796.23 711.552 795.699 740.954 782.522 763.48C796.945 749.557 821.31 749.37 838.144 760.238C854.978 771.106 864.633 790.908 866.882 810.823C869.131 830.738 864.782 850.855 858.526 869.892"
      stroke="#171717" stroke-width="3.953" stroke-linecap="round" stroke-linejoin="round" />
    <path
      d="M402.938 720.65C380.261 705.473 353.538 683.349 329.054 658.47C324.334 653.686 319.723 648.808 315.221 643.834C295.616 622.224 278.432 599.253 267.401 577.41C265.155 572.98 263.178 568.605 261.468 564.285C254.284 546.037 248.935 527.12 245.499 507.813C238.349 467.881 239.386 426.913 248.548 387.395C284.953 399.445 318.006 417.7 347.941 440.425C373.21 459.591 396.269 481.925 417.282 506.382C422.667 512.64 427.91 519.029 433.01 525.55"
      stroke="#171717" stroke-width="3.953" stroke-linecap="round" stroke-linejoin="round" />
    <path
      d="M195.628 696.793C188.636 689.032 182.367 680.649 176.899 671.748C132.14 600.078 113.515 479.339 112.526 462.214C148.543 470.797 183.856 482.103 218.159 496.036C227.349 499.769 236.464 503.696 245.503 507.815C245.942 508.004 246.382 508.204 246.821 508.405"
      stroke="#171717" stroke-width="3.953" stroke-linecap="round" stroke-linejoin="round" />
    <path
      d="M349.468 770.221C327.068 770.352 303.882 764.305 285.079 757.345C274.763 753.559 264.723 749.058 255.033 743.874"
      stroke="#171717" stroke-width="3.953" stroke-linecap="round" stroke-linejoin="round" />
    <path
      d="M348.646 439.514C354.502 429.631 360.353 419.752 366.199 409.879C369.477 404.364 372.753 398.839 376.029 393.306C376.551 392.424 377.072 391.542 377.592 390.661"
      stroke="#171717" stroke-width="3.953" stroke-linecap="round" stroke-linejoin="round" />
    <path
      d="M102.187 854.492C132.9 802.3 164.6 749.659 196.07 697.058C214.086 666.938 231.959 636.861 249.687 606.826C252.479 602.086 255.26 597.349 258.029 592.617C260.937 587.651 263.837 582.692 266.729 577.742"
      stroke="#171717" stroke-width="3.953" stroke-linecap="round" stroke-linejoin="round" />
    <path d="M185.822 854.024L253.964 743.212L284.602 693.371L302.064 664.99L314.87 644.159"
      stroke="#171717" stroke-width="3.953" stroke-linecap="round" stroke-linejoin="round" />
    <path
      d="M675.199 407.313C662.49 428.959 648.44 449.041 635.767 471.727C628.098 482.442 621.717 491.808 615.447 502.572"
      stroke="#171717" stroke-width="3.953" stroke-linecap="round" stroke-linejoin="round" />
    <path
      d="M691.339 381.637C691.313 381.663 691.301 381.704 691.276 381.73C689.227 384.493 687.377 387.396 685.737 390.42C685.637 390.594 685.547 390.78 685.459 390.953"
      stroke="#171717" stroke-width="3.953" stroke-linecap="round" stroke-linejoin="round" />
    <path d="M751.549 285.576C736.177 308.955 721.335 332.679 707.023 356.747" stroke="#171717"
      stroke-width="3.953" stroke-linecap="round" stroke-linejoin="round" />
    <path d="M606.805 498.508C609.695 499.866 612.577 501.221 615.449 502.573" stroke="#171717"
      stroke-width="3.953" stroke-linecap="round" stroke-linejoin="round" />
    <path d="M377.592 390.66C418.244 409.36 459.52 428.212 499.445 447.987" stroke="#171717"
      stroke-width="3.953" stroke-linecap="round" stroke-linejoin="round" />
    <path d="M417.387 506.288L447.705 520.729" stroke="#171717" stroke-width="3.953"
      stroke-linecap="round" stroke-linejoin="round" />
    <path d="M741.416 460.068L815.729 326.938" stroke="#171717" stroke-width="3.953"
      stroke-linecap="round" stroke-linejoin="round" />
    <path d="M751.548 285.576L688.881 249.453" stroke="#171717" stroke-width="3.953"
      stroke-linecap="round" stroke-linejoin="round" />
    <path d="M815.729 326.938L878.513 368.33" stroke="#171717" stroke-width="3.953"
      stroke-linecap="round" stroke-linejoin="round" />
    <path d="M867.115 149.036L688.881 249.453" stroke="#171717" stroke-width="3.953"
      stroke-linecap="round" stroke-linejoin="round" />
    <path d="M878.513 368.33L867.115 149.036" stroke="#171717" stroke-width="3.953"
      stroke-linecap="round" stroke-linejoin="round" />
    <path
      d="M510.166 174.001C490.666 180.313 473.817 194.013 462.935 211.375C456.584 221.519 452.128 233.256 452.635 245.225C453.112 256.574 458.046 267.43 465.045 276.38C481.609 297.598 510.463 308.46 536.906 303.428C563.349 298.396 586.206 277.728 593.824 251.894C600.343 229.846 595.907 198.157 578.024 181.95C561.944 167.384 529.347 167.795 510.166 174.001Z"
      stroke="#171717" stroke-width="3.953" stroke-linecap="round" stroke-linejoin="round" />
    <path
      d="M571.648 209.564C566.835 210.543 562.538 213.227 559.547 217.122C556.723 221.086 555.857 226.561 557.984 230.928C560.111 235.295 565.508 238.009 570.141 236.521C574.774 235.033 577.512 229.003 575.085 224.787"
      stroke="#171717" stroke-width="3.953" stroke-linecap="round" stroke-linejoin="round" />
    <path
      d="M525.669 205.542C526.991 204.325 528.668 203.565 530.455 203.373C532.241 203.181 534.041 203.568 535.591 204.476C537.142 205.384 538.359 206.765 539.066 208.417C539.772 210.069 539.93 211.904 539.516 213.652C539.101 215.4 538.137 216.969 536.764 218.127C535.391 219.286 533.683 219.974 531.89 220.09C530.098 220.205 528.315 219.742 526.805 218.769C525.295 217.796 524.137 216.364 523.502 214.684"
      stroke="#171717" stroke-width="3.953" stroke-linecap="round" stroke-linejoin="round" />
    <path
      d="M497.85 239.927C506.967 240.95 513.431 251.876 509.956 260.348C506.481 268.82 494.191 272.06 486.999 266.381C479.799 260.717 480.065 248.02 487.485 242.648"
      stroke="#171717" stroke-width="3.953" stroke-linecap="round" stroke-linejoin="round" />
    <path
      d="M551.795 274.913C555.888 275.213 558.909 280.105 557.359 283.896C555.809 287.687 550.213 289.063 547.084 286.405C543.955 283.747 544.392 278.005 547.89 275.856"
      stroke="#171717" stroke-width="3.953" stroke-linecap="round" stroke-linejoin="round" />
    <path
      d="M745.26 146.575C751.34 140.904 750.042 129.401 742.86 125.226C735.678 121.051 725.025 125.65 723.137 133.757C725.186 121.587 725.057 108.148 717.966 98.0386C710.875 87.9296 694.899 83.5826 685.871 92.0076C678.357 99.0276 678.703 110.974 680.838 121.048C678.875 111.616 668.589 104.795 659.138 106.666C649.687 108.537 642.775 118.759 644.568 128.222C638.154 126.652 631.02 125.27 625.254 128.482C614.866 134.262 620.71 142.182 628.497 143.855C640.772 146.481 655.923 144.496 668.497 144.781C681.471 145.086 694.451 145.39 707.435 145.693C713.43 145.834 741.283 150.274 745.26 146.575Z"
      stroke="#171717" stroke-width="3.953" stroke-linecap="round" stroke-linejoin="round" />
    <path
      d="M314.65 238.159C321.85 237.859 329.316 237.49 335.727 234.184C342.138 230.878 347.185 223.754 345.696 216.697C344.104 209.128 335.569 204.64 327.844 205.129C320.119 205.618 313.189 209.845 306.883 214.307C317.214 204.219 318.767 186.407 310.335 174.68C301.903 162.953 284.535 158.755 271.671 165.341C258.807 171.927 252.076 188.486 256.664 202.182C250.897 187.642 231.973 180.011 217.726 186.497C203.479 192.983 196.805 212.254 203.981 226.156C198.817 228.631 192.799 228.212 187.072 227.956C179.606 227.621 159.431 231.3 170.544 240.871C178.914 248.078 202.297 242.864 211.961 242.465L314.65 238.159Z"
      stroke="#171717" stroke-width="3.953" stroke-linecap="round" stroke-linejoin="round" />
    <path
      d="M176.349 672.09C165.662 675.004 155.689 680.086 147.049 687.018C138.409 693.951 131.288 702.587 126.127 712.388C120.966 722.19 117.876 732.949 117.05 743.995C116.224 755.042 117.678 766.14 121.323 776.601C112.803 773.698 103.748 772.707 94.8022 773.699C85.856 774.691 77.238 777.641 69.5608 782.34C61.8835 787.039 55.3355 793.371 50.3819 800.886C45.4283 808.402 42.1908 816.916 40.8995 825.824C39.6435 834.51 40.7885 844.5 47.5675 850.056C53.3535 854.804 61.5025 854.978 68.9865 854.917C80.0285 854.829 91.0968 854.749 102.191 854.677C129.968 854.477 157.846 854.308 185.826 854.17L209.137 854.046C283.18 853.66 357.463 853.323 430.686 852.757"
      stroke="#171717" stroke-width="3.953" stroke-linecap="round" stroke-linejoin="round" />
    <path
      d="M649.523 861.638C649.668 861.648 649.823 861.644 649.971 861.654C671.447 862.532 692.926 863.401 714.408 864.262C762.45 866.223 810.487 868.174 858.519 870.116C879.163 870.948 899.807 871.784 920.45 872.624"
      stroke="#171717" stroke-width="3.953" stroke-linecap="round" stroke-linejoin="round" />
    <path
      d="M361.46 306.688L367.93 319.09L381.807 320.797L372.013 330.78L374.692 344.505L362.165 338.275L349.927 345.059L351.992 331.227L341.762 321.689L355.549 319.365L361.46 306.688Z"
      stroke="#171717" stroke-width="3.953" stroke-linecap="round" stroke-linejoin="round" />
    <path
      d="M588.69 289.444L592.615 296.974L601.031 297.999L595.091 304.063L596.714 312.395L589.117 308.61L581.684 312.73L582.932 304.333L576.729 298.541L585.093 297.141L588.69 289.444Z"
      stroke="url(#paint15_linear_36_3262)" stroke-width="3.953" stroke-linecap="round"
      stroke-linejoin="round" />
    <path
      d="M678.105 238.992L685.61 272.378L719.298 278.389L685.912 285.893L679.901 319.581L672.396 286.194L638.709 280.184L672.096 272.679L678.105 238.992Z"
      stroke="#171717" stroke-width="3.953" stroke-linecap="round" stroke-linejoin="round" />
    <path
      d="M292.731 268.828L298.509 294.477L324.39 299.093L298.741 304.87L294.112 330.751L288.348 305.102L262.465 300.472L288.116 294.709L292.731 268.828Z"
      stroke="#171717" stroke-width="3.953" stroke-linecap="round" stroke-linejoin="round" />
    <path
      d="M620.413 391.771C617.687 389.443 615.177 386.874 612.913 384.096C611.102 381.909 609.451 379.593 607.975 377.168"
      stroke="url(#paint16_linear_36_3262)" stroke-width="3.953" stroke-linecap="round"
      stroke-linejoin="round" />
    <path
      d="M607.436 392.52C609.109 389.616 610.938 386.803 612.916 384.096C614.386 382.047 615.95 380.075 617.593 378.154"
      stroke="url(#paint17_linear_36_3262)" stroke-width="3.953" stroke-linecap="round"
      stroke-linejoin="round" />
    <path
      d="M418.56 245.544C416.669 242.657 414.492 239.968 412.06 237.519C410.231 235.645 408.259 233.917 406.16 232.352"
      stroke="url(#paint18_linear_36_3262)" stroke-width="3.953" stroke-linecap="round"
      stroke-linejoin="round" />
    <path d="M405.865 244.8C410.586 240.12 414.439 234.64 417.246 228.614"
      stroke="url(#paint19_linear_36_3262)" stroke-width="3.953" stroke-linecap="round"
      stroke-linejoin="round" />
    <path
      d="M206.417 428.821C202.727 425.821 199.041 422.823 195.358 419.828C192.726 417.686 190.11 415.543 187.479 413.414"
      stroke="#171717" stroke-width="3.953" stroke-linecap="round" stroke-linejoin="round" />
    <path
      d="M188.53 431.038C190.806 427.298 193.082 423.562 195.358 419.828C198.231 415.114 201.104 410.402 203.978 405.693"
      stroke="#171717" stroke-width="3.953" stroke-linecap="round" stroke-linejoin="round" />
    <path
      d="M815.616 592.061C812.744 587.947 809.872 583.842 807 579.746C804.114 575.606 801.218 571.467 798.314 567.328"
      stroke="#171717" stroke-width="3.953" stroke-linecap="round" stroke-linejoin="round" />
    <path
      d="M797.111 590.76C800.417 587.088 803.713 583.417 807.001 579.747C810.305 576.075 813.602 572.408 816.89 568.747"
      stroke="#171717" stroke-width="3.953" stroke-linecap="round" stroke-linejoin="round" />
    <path
      d="M847.599 733.695C846.112 731.449 844.612 729.202 843.139 726.955C840.766 723.396 838.402 719.833 836.047 716.266"
      stroke="#171717" stroke-width="3.953" stroke-linecap="round" stroke-linejoin="round" />
    <path d="M835.547 735.822L843.138 726.955C845.745 723.904 848.352 720.854 850.96 717.805"
      stroke="#171717" stroke-width="3.953" stroke-linecap="round" stroke-linejoin="round" />
    <path
      d="M123.667 642.848C120.822 638.952 117.566 635.375 113.954 632.178C111.632 630.102 109.163 628.197 106.565 626.478"
      stroke="url(#paint20_linear_36_3262)" stroke-width="3.953" stroke-linecap="round"
      stroke-linejoin="round" />
    <path
      d="M106.605 643.623C109.051 639.813 111.5 635.998 113.954 632.178C115.597 629.625 117.227 627.085 118.871 624.53"
      stroke="url(#paint21_linear_36_3262)" stroke-width="3.953" stroke-linecap="round"
      stroke-linejoin="round" />
    <path
      d="M503.808 418.541C501.391 415.932 498.982 413.319 496.583 410.702C494.219 408.145 491.857 405.602 489.506 403.045"
      stroke="#171717" stroke-width="3.953" stroke-linecap="round" stroke-linejoin="round" />
    <path
      d="M489.818 416.994C492.293 415.145 494.561 413.035 496.584 410.701C498.923 408.006 500.911 405.026 502.501 401.832"
      stroke="#171717" stroke-width="3.953" stroke-linecap="round" stroke-linejoin="round" />
    <path
      d="M562.335 661.415C560.363 663.527 558.944 666.094 558.206 668.887C556.727 673.493 556.026 678.741 558.348 682.972C561.701 689.143 570.848 690.561 576.709 686.687C579.313 684.894 581.303 682.344 582.411 679.382C583.519 676.421 583.69 673.19 582.903 670.128C580.768 662.414 569.354 654.7 562.335 661.415Z"
      stroke="url(#paint22_linear_36_3262)" stroke-width="3.953" stroke-linecap="round"
      stroke-linejoin="round" />
    <path
      d="M691.592 829.848C691.626 829.836 691.662 829.83 691.698 829.832C700.133 828.089 707.916 831.932 713.013 838.911C715.53 842.459 716.999 846.643 717.252 850.985C717.505 855.328 716.532 859.655 714.444 863.471"
      stroke="#171717" stroke-width="3.953" stroke-linecap="round" stroke-linejoin="round" />
    <path d="M492.512 852.354C494.531 845.994 493.984 839.097 490.99 833.134" stroke="#171717"
      stroke-width="3.953" stroke-linecap="round" stroke-linejoin="round" />
    <path
      d="M477.153 853.249C477.201 853.118 477.241 852.985 477.275 852.849C479.478 846.166 479.094 838.9 476.201 832.485"
      stroke="#171717" stroke-width="3.953" stroke-linecap="round" stroke-linejoin="round" />
    <path d="M461.029 852.371C462.863 846.147 462.538 839.486 460.107 833.471" stroke="#171717"
      stroke-width="3.953" stroke-linecap="round" stroke-linejoin="round" />
    <path
      d="M501.499 833.268C497.996 833.405 494.487 833.343 490.991 833.081C486.267 832.781 481.209 832.31 476.233 832.026C470.809 831.594 465.355 831.694 459.951 832.326C459.084 832.451 458.23 832.601 457.404 832.778C453.929 833.379 450.752 835.113 448.368 837.711C446.135 840.396 445.328 844.448 447.057 847.48C449.443 851.643 455.098 852.269 459.885 852.413C460.267 852.431 460.65 852.435 461.033 852.44C466.453 852.609 471.874 852.766 477.278 852.855C482.368 852.955 487.455 852.997 492.528 852.937C501.408 852.845 510.269 852.463 519.091 851.537"
      stroke="#171717" stroke-width="3.953" stroke-linecap="round" stroke-linejoin="round" />
    <path
      d="M687.248 838.313C687.31 838.271 687.375 838.235 687.443 838.204C689.463 837.212 691.771 836.973 693.952 837.532C694.779 837.708 695.576 838.006 696.317 838.414C697.566 839.139 698.601 840.182 699.317 841.437C700.033 842.691 700.403 844.113 700.391 845.558C700.265 848.025 699.205 850.352 697.427 852.068C695.657 853.766 693.521 855.035 691.184 855.778C687.567 857.01 683.711 857.377 679.927 856.847C677.053 856.476 674.273 855.577 671.727 854.196C671.68 854.18 671.635 854.159 671.594 854.133"
      stroke="#171717" stroke-width="3.953" stroke-linecap="round" stroke-linejoin="round" />
    <path
      d="M679.76 857.101C679.811 857.013 679.866 856.929 679.926 856.847C684.065 850.343 688.739 844.195 693.9 838.468"
      stroke="#171717" stroke-width="3.953" stroke-linecap="round" stroke-linejoin="round" />
    <path
      d="M249.74 606.892C249.727 606.866 249.699 606.854 249.686 606.828C240.408 596.755 230.942 586.581 221.425 576.461C210.91 565.282 200.317 554.145 189.834 543.268"
      stroke="#171717" stroke-width="3.953" stroke-linecap="round" stroke-linejoin="round" />
    <path
      d="M362.743 735.49C350.26 720.584 337.669 705.784 324.971 691.09C317.451 682.402 309.9 673.753 302.318 665.145"
      stroke="#171717" stroke-width="3.953" stroke-linecap="round" stroke-linejoin="round" />
    <path
      d="M375.4 573.463C369.862 562.729 364.137 552.081 358.227 541.517C348.206 523.554 337.677 505.887 326.641 488.517C321.613 480.589 316.478 472.726 311.236 464.927C304.624 455.085 297.857 445.351 290.936 435.727"
      stroke="#171717" stroke-width="3.953" stroke-linecap="round" stroke-linejoin="round" />
    <path d="M409.621 646.224C406.199 638.168 402.673 630.159 399.043 622.196" stroke="#171717"
      stroke-width="3.953" stroke-linecap="round" stroke-linejoin="round" />
    <path
      d="M326.637 488.555C326.637 488.542 326.637 488.529 326.637 488.516C326.687 474.254 326.734 459.998 326.778 445.748"
      stroke="#171717" stroke-width="3.953" stroke-linecap="round" stroke-linejoin="round" />
    <path
      d="M358.199 542.401C358.206 542.112 358.212 541.808 358.219 541.519C358.671 521.543 359.122 501.571 359.572 481.603"
      stroke="#171717" stroke-width="3.953" stroke-linecap="round" stroke-linejoin="round" />
    <path d="M397.656 547.609C398.366 540.424 398.979 533.228 399.494 526.021" stroke="#171717"
      stroke-width="3.953" stroke-linecap="round" stroke-linejoin="round" />
    <path d="M362.37 605.79C349.237 607.123 336.1 608.453 322.961 609.778" stroke="#171717"
      stroke-width="3.953" stroke-linecap="round" stroke-linejoin="round" />
    <path d="M357.932 541.576C339.347 540.843 320.18 539.425 301.584 539.406" stroke="#171717"
      stroke-width="3.953" stroke-linecap="round" stroke-linejoin="round" />
    <path d="M326.391 488.206C305.33 482.806 283.423 476.763 262.361 471.368" stroke="#171717"
      stroke-width="3.953" stroke-linecap="round" stroke-linejoin="round" />
    <path d="M221.9 577.016C200.759 569.449 179.202 563.1 157.334 558" stroke="#171717"
      stroke-width="3.953" stroke-linecap="round" stroke-linejoin="round" />
    <path
      d="M221.428 576.553C221.428 576.526 221.428 576.487 221.428 576.461C219.781 558.543 219.226 540.541 219.766 522.556"
      stroke="#171717" stroke-width="3.953" stroke-linecap="round" stroke-linejoin="round" />
    <path d="M240.978 621.161C226.152 621.821 211.319 622.064 196.478 621.889" stroke="#171717"
      stroke-width="3.953" stroke-linecap="round" stroke-linejoin="round" />
    <path d="M324.938 691.325C311.599 691.913 298.269 692.75 284.938 693.574" stroke="#171717"
      stroke-width="3.953" stroke-linecap="round" stroke-linejoin="round" />
    <path
      d="M324.938 691.326C324.948 691.247 324.959 691.167 324.971 691.087C326.337 680.211 327.698 669.338 329.055 658.47C329.076 658.22 329.11 657.982 329.145 657.73"
      stroke="#171717" stroke-width="3.953" stroke-linecap="round" stroke-linejoin="round" />
    <path d="M258.028 592.646V592.619C257.561 582.919 256.817 573.208 255.785 563.556"
      stroke="#171717" stroke-width="3.953" stroke-linecap="round" stroke-linejoin="round" />
    <path
      d="M284.782 758.143C272.292 759.964 260.985 766.533 253.216 776.481C245.447 786.429 241.814 798.99 243.074 811.55C237.603 810.451 231.935 810.874 226.688 812.773C221.441 814.672 216.815 817.974 213.315 822.319C209.814 826.665 207.573 831.888 206.835 837.419C206.097 842.951 206.891 848.578 209.13 853.69"
      stroke="#171717" stroke-width="3.953" stroke-linecap="round" stroke-linejoin="round" />
    <path d="M683.705 455.306C702.611 455.016 721.521 454.735 740.434 454.463" stroke="#171717"
      stroke-width="3.953" stroke-linecap="round" stroke-linejoin="round" />
    <g opacity="0.1">
      <path
        d="M240.749 391.037C233.757 416.927 235.07 445.919 237.965 472.345C246.156 549.926 281.505 622.115 337.765 676.158C347.62 685.667 358.154 694.445 369.284 702.423C374.824 706.559 380.713 710.206 386.884 713.323C393.23 716.357 398.92 720.81 405.863 722.341C407.31 722.696 408.832 722.573 410.203 721.99C411.574 721.408 412.72 720.398 413.469 719.111C414.218 717.824 414.531 716.329 414.36 714.849C414.19 713.37 413.545 711.985 412.522 710.902C408.582 706.488 403.375 704.061 398.905 700.302C394.465 696.571 390.024 692.861 385.505 689.219C376.405 681.886 367.44 674.311 358.881 666.344C342.35 651.025 327.475 634.009 314.503 615.578C286.043 574.919 267.931 528.191 260.564 479.146C258.558 465.435 257.482 451.603 257.344 437.746C257.144 422.955 258.463 408.191 258.344 393.411C258.263 383.386 243.422 381.165 240.757 391.031L240.749 391.037Z"
        fill="#171717" />
    </g>
    <g opacity="0.1">
      <path
        d="M451.077 593.468C439.741 597.443 430.618 609.078 423.999 618.698C416.939 629.284 411.87 641.068 409.04 653.473C402.671 680.799 406.544 709.511 419.925 734.173C426.601 746.495 445.293 735.546 438.705 723.196C428.176 703.455 424.305 680.144 429.067 658.174C432.801 643.062 439.444 628.823 448.624 616.251C451.976 611.933 455.983 607.971 458.489 603.108C460.914 598.402 456.824 591.452 451.077 593.468Z"
        fill="#171717" />
    </g>
    <g opacity="0.1">
      <path
        d="M653.898 628.913C666.485 626.913 678.361 618.199 687.835 610.078C697.75 601.436 706.332 591.375 713.304 580.223C729.379 554.923 736.725 525.341 739.223 495.723C740.747 477.645 740.449 459.412 739.603 441.305C739.166 431.953 724.392 432.005 725.072 441.305C727.794 478.524 726.911 517.687 712.2 552.599C706.244 566.942 697.798 580.119 687.254 591.521C682.073 597.125 676.299 602.15 670.033 606.508C663.447 611.017 656.219 614.308 649.564 618.633C643.979 622.264 647.724 629.896 653.898 628.914V628.913Z"
        fill="#171717" />
    </g>
    <g opacity="0.1">
      <path
        d="M514.573 552.342C516.865 549.416 518.584 546.369 521.322 543.783C523.814 541.429 526.577 539.397 529.195 537.191C534.965 532.409 539.733 526.533 543.225 519.903C550.086 506.611 552.434 490.385 547.857 475.983C545.588 468.845 535.021 471.76 536.647 479.074C539.685 492.74 537.792 506.467 530.147 518.335C526.447 524.078 521.44 528.191 516.488 532.78C511.938 536.997 506.637 542.464 506.682 549.08C506.706 552.718 511.982 555.648 514.565 552.345L514.573 552.342Z"
        fill="#171717" />
    </g>
    <g opacity="0.1">
      <path
        d="M212.859 852.25C212.551 843.707 215.839 836.5 223.291 831.928C229.698 827.997 236.429 826.152 243.671 828.835C249.92 831.15 256.012 825.235 256.171 819.31C256.494 807.61 260.007 798.01 266.223 788.147C271.996 778.992 281.751 775.147 289.109 767.765C292.958 763.902 289.85 758.143 284.942 757.704C271.891 756.535 258.608 767.788 250.556 777.023C240.799 788.214 235.736 804.534 236.415 819.31L248.915 809.784C236.268 807.262 221.728 809.32 212.863 819.616C205.325 828.37 203.145 842.116 206.59 853.097C207.631 856.417 212.99 855.971 212.851 852.25H212.859Z"
        fill="#171717" />
    </g>
    <g opacity="0.1">
      <path
        d="M520.71 169.066C507.46 172.477 494.936 178.255 483.741 186.122C471.385 194.822 461.083 205.022 454.888 219.09C448.065 234.584 447.162 250.572 454.204 266.128C460.24 279.463 471.977 287.962 484.584 294.575C492.29 298.616 501.97 300.593 510.498 302.256C518.882 303.891 527.642 304.571 536.098 303.202C539.498 302.651 538.525 298.246 536.098 297.235C532.218 295.62 528.111 295.06 524.423 293.244C520.945 291.532 516.689 291.1 512.999 289.929C504.574 287.256 497.738 283.053 490.46 278.167C485.008 274.506 480.791 268.291 477.393 262.759C474.083 257.369 471.421 252.008 470.849 245.642C469.349 228.908 478.957 215.625 486.924 201.915C494.753 188.445 508.45 179.323 522.447 173.179C524.842 172.127 523.102 168.468 520.713 169.066H520.71Z"
        fill="#171717" />
    </g>
  </g>
  <defs>
    <linearGradient id="paint0_linear_36_3262" x1="870.365" y1="446.128" x2="870.365" y2="518.814"
      gradientUnits="userSpaceOnUse">
      <stop stop-color="#FFB800" />
      <stop offset="1" stop-color="#FF7F0A" />
    </linearGradient>
    <linearGradient id="paint1_linear_36_3262" x1="783.694" y1="149.034" x2="783.694" y2="460.068"
      gradientUnits="userSpaceOnUse">
      <stop stop-color="#FFB800" />
      <stop offset="1" stop-color="#FF7F0A" />
    </linearGradient>
    <linearGradient id="paint2_linear_36_3262" x1="752.658" y1="644.871" x2="752.658" y2="870.115"
      gradientUnits="userSpaceOnUse">
      <stop stop-color="#FFB800" />
      <stop offset="1" stop-color="#FF7F0A" />
    </linearGradient>
    <linearGradient id="paint3_linear_36_3262" x1="786.371" y1="611.496" x2="786.371" y2="634.788"
      gradientUnits="userSpaceOnUse">
      <stop stop-color="#FFB800" />
      <stop offset="1" stop-color="#FF7F0A" />
    </linearGradient>
    <linearGradient id="paint4_linear_36_3262" x1="684.4" y1="87.5391" x2="684.4" y2="148.041"
      gradientUnits="userSpaceOnUse">
      <stop stop-color="#FFB800" />
      <stop offset="1" stop-color="#FF7F0A" />
    </linearGradient>
    <linearGradient id="paint5_linear_36_3262" x1="629.196" y1="407.214" x2="629.196" y2="566.608"
      gradientUnits="userSpaceOnUse">
      <stop stop-color="#FFB800" />
      <stop offset="1" stop-color="#FF7F0A" />
    </linearGradient>
    <linearGradient id="paint6_linear_36_3262" x1="530.198" y1="751.925" x2="530.198" y2="758.741"
      gradientUnits="userSpaceOnUse">
      <stop stop-color="#FFB800" />
      <stop offset="1" stop-color="#FF7F0A" />
    </linearGradient>
    <linearGradient id="paint7_linear_36_3262" x1="423.767" y1="390.661" x2="423.767" y2="521.227"
      gradientUnits="userSpaceOnUse">
      <stop stop-color="#FFB800" />
      <stop offset="1" stop-color="#FF7F0A" />
    </linearGradient>
    <linearGradient id="paint8_linear_36_3262" x1="363.954" y1="658.474" x2="363.954" y2="736.674"
      gradientUnits="userSpaceOnUse">
      <stop stop-color="#FFB800" />
      <stop offset="1" stop-color="#FF7F0A" />
    </linearGradient>
    <linearGradient id="paint9_linear_36_3262" x1="308.681" y1="691.082" x2="308.681" y2="770.222"
      gradientUnits="userSpaceOnUse">
      <stop stop-color="#FFB800" />
      <stop offset="1" stop-color="#FF7F0A" />
    </linearGradient>
    <linearGradient id="paint10_linear_36_3262" x1="293.427" y1="268.828" x2="293.427" y2="330.751"
      gradientUnits="userSpaceOnUse">
      <stop stop-color="#FFB800" />
      <stop offset="1" stop-color="#FF7F0A" />
    </linearGradient>
    <linearGradient id="paint11_linear_36_3262" x1="315.559" y1="643.833" x2="315.559" y2="691.088"
      gradientUnits="userSpaceOnUse">
      <stop stop-color="#FFB800" />
      <stop offset="1" stop-color="#FF7F0A" />
    </linearGradient>
    <linearGradient id="paint12_linear_36_3262" x1="304.788" y1="664.994" x2="304.788" y2="693.576"
      gradientUnits="userSpaceOnUse">
      <stop stop-color="#FFB800" />
      <stop offset="1" stop-color="#FF7F0A" />
    </linearGradient>
    <linearGradient id="paint13_linear_36_3262" x1="208.706" y1="577.41" x2="208.706" y2="854.677"
      gradientUnits="userSpaceOnUse">
      <stop stop-color="#FFB800" />
      <stop offset="1" stop-color="#FF7F0A" />
    </linearGradient>
    <linearGradient id="paint14_linear_36_3262" x1="189.965" y1="462.214" x2="189.965" y2="697.06"
      gradientUnits="userSpaceOnUse">
      <stop stop-color="#FFB800" />
      <stop offset="1" stop-color="#FF7F0A" />
    </linearGradient>
    <linearGradient id="paint15_linear_36_3262" x1="588.88" y1="289.444" x2="588.88" y2="312.73"
      gradientUnits="userSpaceOnUse">
      <stop stop-color="#FFB800" />
      <stop offset="1" stop-color="#FF7F0A" />
    </linearGradient>
    <linearGradient id="paint16_linear_36_3262" x1="614.194" y1="377.168" x2="614.194" y2="391.771"
      gradientUnits="userSpaceOnUse">
      <stop stop-color="#FFB800" />
      <stop offset="1" stop-color="#FF7F0A" />
    </linearGradient>
    <linearGradient id="paint17_linear_36_3262" x1="612.514" y1="378.154" x2="612.514" y2="392.52"
      gradientUnits="userSpaceOnUse">
      <stop stop-color="#FFB800" />
      <stop offset="1" stop-color="#FF7F0A" />
    </linearGradient>
    <linearGradient id="paint18_linear_36_3262" x1="412.36" y1="232.352" x2="412.36" y2="245.544"
      gradientUnits="userSpaceOnUse">
      <stop stop-color="#FFB800" />
      <stop offset="1" stop-color="#FF7F0A" />
    </linearGradient>
    <linearGradient id="paint19_linear_36_3262" x1="411.556" y1="228.614" x2="411.556" y2="244.8"
      gradientUnits="userSpaceOnUse">
      <stop stop-color="#FFB800" />
      <stop offset="1" stop-color="#FF7F0A" />
    </linearGradient>
    <linearGradient id="paint20_linear_36_3262" x1="115.116" y1="626.478" x2="115.116" y2="642.848"
      gradientUnits="userSpaceOnUse">
      <stop stop-color="#FFB800" />
      <stop offset="1" stop-color="#FF7F0A" />
    </linearGradient>
    <linearGradient id="paint21_linear_36_3262" x1="112.738" y1="624.53" x2="112.738" y2="643.623"
      gradientUnits="userSpaceOnUse">
      <stop stop-color="#FFB800" />
      <stop offset="1" stop-color="#FF7F0A" />
    </linearGradient>
    <linearGradient id="paint22_linear_36_3262" x1="570.117" y1="658.848" x2="570.117" y2="688.841"
      gradientUnits="userSpaceOnUse">
      <stop stop-color="#FFB800" />
      <stop offset="1" stop-color="#FF7F0A" />
    </linearGradient>
    <clipPath id="clip0_36_3262">
      <rect width="885" height="790" fill="white" transform="translate(38 85)" />
    </clipPath>
  </defs>
</svg>