<svg width="960" height="960" viewBox="0 0 960 960" fill="none" xmlns="http://www.w3.org/2000/svg">
<g clip-path="url(#clip0_46_113)">
<g clip-path="url(#clip1_46_113)">
<path fill-rule="evenodd" clip-rule="evenodd" d="M346.351 781.767C341.072 749.09 340.118 715.628 339.2 682.444C348.176 677.286 355.146 668.564 357.162 658.37C362.908 661.969 369.535 663.918 376.315 664.001C383.095 664.084 389.768 662.299 395.601 658.841C405.99 652.487 411.547 640.347 411.547 628.17C417.609 644.309 423.7 660.605 426.309 677.638C428.942 694.731 427.851 712.864 420.051 728.29C415.157 738.001 407.9 746.159 400.639 754.323C397.593 757.747 394.548 761.171 391.675 764.712C387.523 769.734 383.942 775.2 380.996 781.012L381.286 781.145C386.053 780.194 390.888 779.62 395.746 779.43C418.13 778.52 440.158 785.251 458.212 798.517C467.317 805.335 475.147 813.706 481.345 823.245L481.611 823.064C499.647 796.15 499.985 766.3 488.328 736.064C486.497 731.325 484.308 726.707 482.121 722.093C478.144 713.704 474.174 705.328 472.382 696.264C470.634 687.421 471.055 678.396 471.477 669.352C471.77 663.077 472.063 656.792 471.633 650.553C469.229 615.955 442.821 585.018 409.71 574.666C376.599 564.314 338.727 573.724 312.429 596.35C286.131 618.976 271.332 653.561 270.209 688.243C270.131 690.672 270.113 693.118 270.095 695.567C270.03 704.477 269.965 713.426 267.009 721.765C264.57 728.631 260.333 734.598 256.091 740.572C254.154 743.3 252.215 746.03 250.447 748.848C232.653 777.2 233.39 816.075 252.247 843.726C259.13 832.35 268.025 822.32 278.497 814.126C294.201 801.735 312.514 793.194 331.456 786.526C336.131 784.871 340.855 783.338 345.578 781.887L346.351 781.767ZM426.873 590.327C426.076 589.722 424.939 589.878 424.334 590.675C423.729 591.472 423.885 592.609 424.682 593.214C435.018 601.06 443.402 611.188 449.179 622.808C454.956 634.428 457.971 647.226 457.987 660.203C457.989 661.204 458.801 662.014 459.802 662.012C460.802 662.011 461.613 661.199 461.611 660.198C461.594 646.663 458.45 633.315 452.424 621.195C446.398 609.075 437.654 598.511 426.873 590.327Z" fill="#171717"/>
<path fill-rule="evenodd" clip-rule="evenodd" d="M773.94 565.776C773.833 564.492 773.725 563.195 773.48 561.956C773.325 561.103 773.072 560.27 772.725 559.475C770.019 553.338 761.873 552.372 755.173 552.299C753.486 552.276 751.803 552.259 750.119 552.241C748.861 552.228 747.603 552.215 746.342 552.199C729.566 552.026 712.795 551.849 696.028 551.668L682.559 551.523C678.27 551.475 673.897 551.439 669.778 552.659C666.103 553.622 662.911 555.906 660.815 559.074C660.546 559.533 660.308 560.009 660.102 560.499C659.577 561.755 659.289 563.105 659.002 564.45C658.594 566.365 658.188 568.269 657.102 569.873C655.721 571.771 653.677 573.082 651.376 573.545C649.102 574.054 646.761 574.197 644.442 573.968C641.741 573.751 639.061 573.33 636.383 572.909C632.951 572.369 629.523 571.83 626.056 571.721C619.883 571.528 613.263 572.965 609.035 577.459C605.206 581.518 603.961 587.328 603.297 592.873C602.115 602.765 602.245 612.769 603.684 622.626L603.068 623.58C634.165 643.49 670.374 653.942 707.298 653.667C744.221 653.393 780.27 642.403 811.068 622.033C813.737 613.927 812.457 594.635 807.637 587.677C805.31 584.382 802.296 581.63 798.803 579.611C795.31 577.592 791.42 576.355 787.403 575.983C786.956 575.945 786.497 575.91 786.05 575.897C785.541 575.88 785.022 575.874 784.5 575.867C781.757 575.835 778.92 575.802 776.85 574.097C774.469 572.121 774.208 568.986 773.94 565.776ZM791.774 584.732C790.9 584.245 789.796 584.56 789.309 585.434C788.823 586.308 789.137 587.412 790.011 587.899C798.828 592.808 803.091 604.722 799.392 614.11C799.025 615.041 799.482 616.093 800.413 616.46C801.344 616.827 802.397 616.37 802.763 615.439C807.128 604.361 802.178 590.525 791.774 584.732Z" fill="url(#paint0_linear_46_113)"/>
<path fill-rule="evenodd" clip-rule="evenodd" d="M479.487 387.109L478.351 386.288C441.533 363.697 398.637 353.025 355.526 355.733C355.368 357.434 354.755 359.062 353.75 360.444C350.948 364.14 345.657 364.599 341.018 364.732C307.346 365.73 273.671 366.725 239.992 367.716C236.38 367.825 232.393 367.813 229.627 365.469C228.84 364.798 228.188 363.983 227.706 363.069L225.706 364.084C193.004 371.045 162.84 386.848 138.5 409.771C161.157 433.072 188.606 451.173 218.948 462.821C249.29 474.468 281.801 479.385 314.23 477.229C346.659 475.074 378.233 465.899 406.767 450.338C435.301 434.778 460.113 413.204 479.487 387.109ZM365.952 368.113C396.402 367.844 426.497 374.663 453.858 388.029C454.757 388.468 455.842 388.095 456.282 387.196C456.721 386.297 456.348 385.212 455.449 384.773C427.583 371.16 396.932 364.216 365.92 364.489C364.919 364.498 364.115 365.316 364.124 366.317C364.132 367.317 364.951 368.121 365.952 368.113Z" fill="url(#paint1_linear_46_113)"/>
<path d="M787.456 575.501L787.408 575.983C786.961 575.947 786.502 575.911 786.055 575.898C782.866 575.789 779.314 576.127 776.85 574.098C773.516 571.332 774.337 566.298 773.48 561.957C776.344 561.764 779.21 561.575 782.08 561.389C784.774 561.208 787.794 561.135 789.787 562.959C791.623 564.65 791.949 567.525 791.225 569.918C790.501 572.311 788.999 573.542 787.456 575.501Z" fill="url(#paint2_linear_46_113)"/>
<path d="M769.893 446.47C782.408 450.843 789.463 466.67 784.365 478.905C779.267 491.14 763.032 497.255 751.121 491.42L749.2 491.408C749.381 473.748 748.962 456.095 747.944 438.449C747.57 431.914 746.978 425.004 743.144 419.689C739.194 414.217 732.526 411.475 726.075 409.481C704.163 402.75 680.924 401.559 658.439 406.014C658.475 411.014 658.511 416.011 658.548 421.005C650.793 422.926 642.24 422.43 635.248 418.541C628.205 414.627 623.048 407.029 623.107 398.971C623.166 390.913 629.107 382.989 637.047 381.612C632.916 372.54 631.176 361.873 634.764 352.571C638.352 343.269 648.27 336.071 658.091 337.771C667.513 339.414 673.928 347.971 679.34 355.842C678.591 346.057 686.516 336.647 696.168 334.859C705.82 333.071 716.124 338.448 721.005 346.975C725.886 355.502 725.511 366.534 720.92 375.219C727.685 370.785 735.742 367.91 743.8 368.587C751.858 369.264 759.794 373.939 763.092 381.319C766.39 388.699 763.998 398.557 756.979 402.579C768.262 399.874 781.018 407.254 784.292 418.392C787.566 429.53 780.837 442.641 769.893 446.47Z" fill="#171717"/>
<path d="M660.109 560.494C658.841 563.538 658.961 567.138 657.109 569.868C655.728 571.766 653.684 573.077 651.383 573.54L651.298 573.226C649.571 572.826 645.098 572.296 643.555 571.414C642.761 571.008 642.063 570.439 641.505 569.744C640.947 569.048 640.542 568.242 640.318 567.379C639.811 564.879 641.518 562.33 643.749 561.109C646.073 560.028 648.636 559.566 651.19 559.768C653.734 559.963 656.292 559.865 658.813 559.478L660.813 559.067C660.548 559.527 660.313 560.004 660.109 560.494V560.494Z" fill="url(#paint3_linear_46_113)"/>
<path d="M310.728 118.412C312.021 110.572 313.567 102.466 318.447 96.2207C323.496 89.7697 333.342 86.2667 340.119 90.8817C344.819 94.0817 346.751 100.292 346.232 105.958C345.713 111.624 343.14 116.866 340.409 121.858C345.374 115.878 350.532 109.758 357.43 106.158C364.328 102.558 373.46 102.111 379.367 107.173C386.18 113.032 386.132 124.109 381.723 131.937C377.314 139.765 369.623 145.092 362.202 150.154L363.845 151.422C368.061 152.437 372.422 150.89 376.71 150.19C380.998 149.49 386.181 150.045 388.452 153.754C390.723 157.438 388.742 162.56 385.263 165.133C381.784 167.706 377.278 168.358 372.963 168.833C368.163 169.352 363.371 169.727 358.551 170.005C327.143 171.817 295.42 169.405 264.23 173.714C256.438 174.789 247.886 176.782 243.43 183.257C239.697 188.657 239.83 195.736 240.12 202.295C241.014 223.242 241.912 244.185 242.814 265.124L241.703 265.172C238.055 274.063 224.863 277.107 217.676 270.717C211.032 264.817 211.781 252.899 218.546 247.427C219.198 247.103 219.804 246.693 220.346 246.207C219.711 246.56 219.109 246.968 218.546 247.427C212.276 250.737 203.059 246.727 200.846 239.684C198.539 232.291 203.105 223.932 210.015 220.384C210.355 220.249 210.686 220.091 211.006 219.913C210.668 220.058 210.342 220.213 210.015 220.384C204.7 222.584 197.923 219.744 195.06 214.658C192.028 209.246 192.934 202.215 196.22 196.936C199.506 191.657 204.82 187.948 210.426 185.279C204.326 182.742 201.571 174.951 203.371 168.596C205.171 162.241 210.583 157.41 216.611 154.696C222.639 151.982 229.283 151.084 235.83 150.202C234.115 142.664 234.042 134.534 237.062 127.407C240.082 120.28 246.562 114.385 254.228 113.382C260.836 112.512 267.987 115.931 271.068 121.693C271.366 122.706 271.75 123.692 272.216 124.641C271.955 123.615 271.569 122.625 271.068 121.693C270.159 118.776 269.917 115.692 270.36 112.669C270.803 109.646 271.92 106.761 273.628 104.228C275.337 101.695 277.592 99.5785 280.229 98.0345C282.865 96.4905 285.815 95.5588 288.86 95.3083C291.905 95.0577 294.967 95.4947 297.82 96.587C300.673 97.6793 303.245 99.399 305.344 101.619C307.443 103.839 309.017 106.502 309.948 109.412C310.879 112.322 311.145 115.403 310.725 118.43L310.728 118.412Z" fill="#171717"/>
<path d="M355.533 355.736C355.376 357.438 354.763 359.065 353.757 360.447C350.957 364.147 345.663 364.603 341.025 364.735C307.359 365.726 273.683 366.721 239.999 367.719C236.387 367.828 232.399 367.819 229.634 365.472C228.848 364.801 228.196 363.987 227.713 363.072C226.263 360.366 226.094 356.863 226.07 353.686C226.022 348.733 226.142 343.309 229.344 339.528C232.992 335.24 239.262 334.599 244.879 334.285H245.737C260.112 334.225 274.753 332.727 289.008 331.085C297.367 330.233 305.774 329.951 314.171 330.239C321.649 330.396 329.126 330.722 336.471 330.758C340.288 330.782 344.335 330.867 347.571 332.884C352.488 335.94 353.937 342.306 354.964 347.996C355.518 350.537 355.71 353.142 355.533 355.736V355.736Z" fill="url(#paint4_linear_46_113)"/>
<path d="M331.578 786.851C331.34 800.965 334.223 814.957 340.022 827.827C342.897 834.157 346.522 840.257 351.546 845.077C356.57 849.897 363.107 853.34 370.053 853.714C380.116 854.27 389.816 848.157 395.276 839.689C400.736 831.221 402.391 820.747 401.799 810.689C401.207 800.631 398.489 790.829 395.807 781.117L395.747 779.437C418.132 778.527 440.16 785.258 458.213 798.524C467.318 805.342 475.149 813.713 481.346 823.252C490.006 836.445 495.352 851.534 496.929 867.236L498.173 868.625C463.174 900.33 418.065 918.594 370.867 920.168C323.669 921.743 277.442 906.526 240.408 877.225L240.908 876.608C242.303 864.964 246.17 853.753 252.251 843.726C259.135 832.35 268.03 822.32 278.501 814.126C294.201 801.732 312.519 793.191 331.46 786.526L331.578 786.851Z" fill="url(#paint5_linear_46_113)"/>
<path d="M297.3 252.561C301.984 253.243 306.763 252.422 310.951 250.217C307.713 234.065 304.476 217.914 301.239 201.764C300.454 197.886 299.739 193.61 301.71 190.179C304.09 186.036 309.441 184.767 314.225 184.465C323.455 183.893 332.694 185.422 341.248 188.935" stroke="#171717" stroke-width="3.624" stroke-linecap="round" stroke-linejoin="round"/>
<path d="M316.031 206.1C318.884 204.681 322.027 203.943 325.214 203.945C328.4 203.947 331.542 204.689 334.393 206.112" stroke="#171717" stroke-width="3.624" stroke-linecap="round" stroke-linejoin="round"/>
<path d="M288.138 208.033C286.651 206.594 284.886 205.473 282.95 204.739C281.015 204.006 278.95 203.675 276.883 203.768C274.815 203.861 272.788 204.375 270.926 205.279C269.064 206.183 267.407 207.457 266.055 209.024" stroke="#171717" stroke-width="3.624" stroke-linecap="round" stroke-linejoin="round"/>
<path d="M286.966 280.526C285.132 281.249 283.173 281.597 281.202 281.551C279.232 281.505 277.29 281.066 275.492 280.259C273.694 279.452 272.076 278.293 270.732 276.852C269.388 275.41 268.345 273.714 267.666 271.864" stroke="#171717" stroke-width="3.624" stroke-linecap="round" stroke-linejoin="round"/>
<path d="M314.2 328.69C313.33 323.979 312.46 319.207 312.811 314.435C313.162 309.663 314.853 304.807 318.392 301.594C324.082 296.424 332.973 296.605 339.315 292.256C347.529 286.627 349.148 275.38 350.042 265.462C352.881 233.74 355.724 202.021 358.571 170.307" stroke="#171717" stroke-width="3.624" stroke-linecap="round" stroke-linejoin="round"/>
<path d="M245.737 333.231C244.759 310.532 243.784 287.826 242.814 265.111C241.92 244.164 241.022 223.221 240.12 202.282C239.83 195.723 239.697 188.644 243.43 183.244C247.888 176.769 256.44 174.776 264.23 173.701C295.421 169.388 327.143 171.801 358.551 169.992C363.371 169.714 368.167 169.34 372.963 168.82C377.276 168.349 381.769 167.697 385.263 165.12C388.757 162.543 390.723 157.425 388.452 153.741C386.181 150.032 380.999 149.477 376.71 150.177C372.421 150.877 368.061 152.424 363.845 151.409" stroke="#171717" stroke-width="3.624" stroke-linecap="round" stroke-linejoin="round"/>
<path d="M218.545 247.414C211.78 252.886 211.031 264.814 217.675 270.704C224.863 277.094 238.054 274.05 241.702 265.159" stroke="#171717" stroke-width="3.624" stroke-linecap="round" stroke-linejoin="round"/>
<path d="M218.545 247.414C219.197 247.091 219.803 246.681 220.345 246.194C219.71 246.547 219.108 246.955 218.545 247.414V247.414Z" stroke="#171717" stroke-width="3.624" stroke-linecap="round" stroke-linejoin="round"/>
<path d="M210.015 220.367C203.105 223.919 198.539 232.278 200.846 239.667C203.057 246.71 212.274 250.72 218.546 247.41" stroke="#171717" stroke-width="3.624" stroke-linecap="round" stroke-linejoin="round"/>
<path d="M210.016 220.367C210.356 220.232 210.687 220.075 211.007 219.896C210.668 220.041 210.342 220.2 210.016 220.367Z" stroke="#171717" stroke-width="3.624" stroke-linecap="round" stroke-linejoin="round"/>
<path d="M271.069 121.672C267.989 115.91 260.837 112.491 254.229 113.361C246.558 114.361 240.083 120.271 237.063 127.386C234.043 134.501 234.115 142.643 235.831 150.186C229.284 151.068 222.631 151.962 216.612 154.68C210.593 157.398 205.172 162.23 203.372 168.58C201.572 174.93 204.326 182.726 210.427 185.263C204.827 187.933 199.507 191.653 196.221 196.92C192.935 202.187 192.029 209.23 195.061 214.642C197.924 219.728 204.701 222.567 210.016 220.368" stroke="#171717" stroke-width="3.624" stroke-linecap="round" stroke-linejoin="round"/>
<path d="M271.068 121.672C271.366 122.685 271.75 123.672 272.216 124.62C271.955 123.594 271.569 122.604 271.068 121.672Z" stroke="#171717" stroke-width="3.624" stroke-linecap="round" stroke-linejoin="round"/>
<path d="M310.728 118.411C311.15 115.384 310.887 112.3 309.956 109.388C309.026 106.476 307.453 103.81 305.354 101.588C303.254 99.3665 300.682 97.6451 297.827 96.5515C294.972 95.4579 291.908 95.0202 288.862 95.2707C285.815 95.5213 282.863 96.4536 280.226 97.9988C277.588 99.544 275.332 101.662 273.623 104.197C271.915 106.733 270.798 109.619 270.356 112.644C269.914 115.669 270.158 118.754 271.069 121.672" stroke="#171717" stroke-width="3.624" stroke-linecap="round" stroke-linejoin="round"/>
<path d="M362.2 150.146C369.617 145.084 377.3 139.746 381.721 131.929C386.142 124.112 386.179 113.029 379.365 107.165C373.458 102.103 364.313 102.55 357.428 106.15C350.543 109.75 345.372 115.874 340.407 121.85C343.137 116.861 345.707 111.606 346.23 105.95C346.753 100.294 344.817 94.0746 340.117 90.8736C333.34 86.2586 323.495 89.7626 318.445 96.2126C313.565 102.458 312.018 110.564 310.726 118.404C310.678 118.682 310.641 118.96 310.593 119.238" stroke="#171717" stroke-width="3.624" stroke-linecap="round" stroke-linejoin="round"/>
<path d="M245.737 334.283H244.879C239.262 334.597 232.992 335.237 229.344 339.526C226.144 343.307 226.022 348.731 226.07 353.684C226.094 356.861 226.263 360.364 227.713 363.07C228.195 363.984 228.847 364.799 229.634 365.47C232.4 367.814 236.387 367.826 239.999 367.717C273.678 366.725 307.353 365.731 341.025 364.733C345.664 364.6 350.955 364.141 353.757 360.445C354.762 359.063 355.376 357.435 355.533 355.734C355.711 353.139 355.52 350.532 354.965 347.991C353.938 342.301 352.489 335.935 347.572 332.879C344.335 330.862 340.288 330.779 336.472 330.753C329.127 330.716 321.65 330.391 314.172 330.233C305.775 329.943 297.368 330.226 289.009 331.08C274.753 332.725 260.112 334.223 245.737 334.283Z" stroke="#171717" stroke-width="3.624" stroke-linecap="round" stroke-linejoin="round"/>
<path d="M138.079 410.169C138.224 410.036 138.357 409.903 138.502 409.769C162.842 386.846 193.006 371.043 225.708 364.082" stroke="#171717" stroke-width="3.624" stroke-linecap="round" stroke-linejoin="round"/>
<path d="M354.784 355.785C355.038 355.773 355.284 355.749 355.533 355.737C398.642 353.029 441.535 363.698 478.351 386.288" stroke="#171717" stroke-width="3.624" stroke-linecap="round" stroke-linejoin="round"/>
<path d="M669.107 417.261C679.799 418.251 690.49 419.246 701.18 420.245C697.955 434.717 694.734 449.183 691.516 463.645C690.67 467.438 690.199 472.245 693.425 474.396C696.747 476.607 701.857 474.287 704.925 476.848" stroke="#171717" stroke-width="3.624" stroke-linecap="round" stroke-linejoin="round"/>
<path d="M712.56 498.185C711.908 498.173 711.243 498.149 710.591 498.137C712.572 498.968 714.699 499.399 716.847 499.405C718.996 499.412 721.125 498.994 723.111 498.176C725.098 497.357 726.904 496.155 728.424 494.637C729.945 493.119 731.151 491.315 731.973 489.33" stroke="#171717" stroke-width="3.624" stroke-linecap="round" stroke-linejoin="round"/>
<path d="M718.104 436.794C718.528 434.234 718.955 431.673 719.385 429.111" stroke="#171717" stroke-width="3.624" stroke-linecap="round" stroke-linejoin="round"/>
<path d="M682.782 438.486C682.545 435.619 683.155 432.746 684.534 430.223" stroke="#171717" stroke-width="3.624" stroke-linecap="round" stroke-linejoin="round"/>
<path d="M696.046 550.07C697.822 542.87 699.598 535.55 699.356 528.145C699.114 520.74 696.578 513.069 690.972 508.201C684.147 502.27 673.951 501.339 667.307 495.201C659.539 488.025 658.935 476.163 658.863 465.593C658.754 450.734 658.649 435.871 658.549 421.005C658.513 416.005 658.477 411.008 658.44 406.014C680.926 401.558 704.165 402.749 726.076 409.481C732.527 411.474 739.195 414.216 743.145 419.689C746.974 425.004 747.566 431.914 747.945 438.449C748.961 456.085 749.379 473.738 749.201 491.408C749.021 511.401 748.074 531.365 746.362 551.301" stroke="#171717" stroke-width="3.624" stroke-linecap="round" stroke-linejoin="round"/>
<path d="M658.719 420.969L658.55 421.005C650.795 422.926 642.242 422.43 635.25 418.541C628.207 414.627 623.05 407.029 623.109 398.971C623.168 390.913 629.109 382.989 637.049 381.612C632.918 372.54 631.178 361.873 634.766 352.571C638.354 343.269 648.272 336.071 658.093 337.771C667.515 339.414 673.93 347.971 679.342 355.843C678.593 346.058 686.518 336.643 696.17 334.86C705.822 333.077 716.126 338.448 721.007 346.976C725.888 355.504 725.513 366.534 720.922 375.219C727.687 370.786 735.744 367.911 743.802 368.587C751.86 369.263 759.796 373.939 763.094 381.319C766.392 388.699 764 398.557 756.981 402.58C768.264 399.874 781.02 407.255 784.294 418.393C787.568 429.531 780.839 442.638 769.894 446.467C782.409 450.84 789.464 466.667 784.366 478.902C779.268 491.137 763.033 497.252 751.122 491.417" stroke="#171717" stroke-width="3.624" stroke-linecap="round" stroke-linejoin="round"/>
<path d="M603.7 622.623C602.261 612.765 602.131 602.761 603.313 592.87C603.977 587.325 605.222 581.515 609.051 577.456C613.279 572.962 619.899 571.524 626.072 571.717C632.245 571.91 638.297 573.469 644.458 573.964C646.777 574.193 649.117 574.05 651.392 573.542C653.693 573.078 655.736 571.767 657.118 569.87C658.966 567.14 658.845 563.539 660.118 560.495C660.323 560.005 660.562 559.529 660.831 559.071C662.927 555.902 666.118 553.618 669.794 552.656C673.913 551.436 678.286 551.471 682.575 551.519L696.044 551.665C712.811 551.846 729.582 552.023 746.358 552.196C749.306 552.232 752.241 552.255 755.189 552.295C761.889 552.368 770.035 553.335 772.741 559.472C773.084 560.27 773.335 561.105 773.49 561.961C774.348 566.298 773.526 571.335 776.86 574.102C779.324 576.131 782.876 575.793 786.065 575.902C786.512 575.914 786.971 575.95 787.418 575.987C791.435 576.358 795.324 577.595 798.817 579.614C802.31 581.633 805.324 584.385 807.652 587.68C812.472 594.638 813.752 613.931 811.083 622.037C811.071 622.061 811.071 622.096 811.059 622.121" stroke="#171717" stroke-width="3.624" stroke-linecap="round" stroke-linejoin="round"/>
<path d="M651.3 573.227C649.573 572.827 645.1 572.297 643.557 571.415C642.763 571.01 642.064 570.44 641.507 569.745C640.949 569.049 640.544 568.243 640.32 567.38C639.813 564.88 641.52 562.331 643.751 561.11C646.074 560.029 648.638 559.567 651.192 559.769C653.736 559.964 656.294 559.867 658.815 559.479" stroke="#171717" stroke-width="3.624" stroke-linecap="round" stroke-linejoin="round"/>
<path d="M773.082 561.981C773.215 561.969 773.348 561.969 773.482 561.957C776.345 561.764 779.212 561.575 782.082 561.389C784.776 561.208 787.796 561.135 789.789 562.959C791.625 564.65 791.951 567.525 791.227 569.917C790.503 572.309 789 573.541 787.458 575.501" stroke="#171717" stroke-width="3.624" stroke-linecap="round" stroke-linejoin="round"/>
<path d="M252.32 843.834L252.248 843.725C233.391 816.074 232.654 777.2 250.448 748.848C256.089 739.86 263.458 731.767 267.01 721.764C270.779 711.134 269.849 699.512 270.21 688.242C271.333 653.56 286.132 618.975 312.43 596.349C338.728 573.723 376.6 564.313 409.711 574.665C442.822 585.017 469.23 615.955 471.634 650.552C472.685 665.785 469.423 681.284 472.383 696.263C475.161 710.312 483.171 722.706 488.329 736.063C499.986 766.299 499.648 796.149 481.612 823.063" stroke="#171717" stroke-width="3.624" stroke-linecap="round" stroke-linejoin="round"/>
<path d="M316.525 687.106C324.392 688.128 332.375 686.487 339.199 682.443C348.175 677.284 355.145 668.563 357.162 658.378C362.909 661.978 369.535 663.926 376.316 664.009C383.096 664.093 389.768 662.308 395.601 658.85C405.99 652.495 411.547 640.35 411.547 628.178C411.547 626.837 411.475 625.496 411.347 624.167" stroke="#171717" stroke-width="3.624" stroke-linecap="round" stroke-linejoin="round"/>
<path d="M411.499 628.046C411.511 628.094 411.535 628.131 411.547 628.179C417.611 644.318 423.7 660.614 426.309 677.647C428.942 694.74 427.855 712.873 420.051 728.299C413.105 742.082 401.399 752.737 391.675 764.721C387.525 769.742 383.945 775.207 380.999 781.017C380.899 781.217 380.806 781.417 380.709 781.617C376.88 789.617 374.814 798.203 376.155 806.889" stroke="#171717" stroke-width="3.624" stroke-linecap="round" stroke-linejoin="round"/>
<path d="M339.2 682.358V682.443C340.118 715.627 341.072 749.089 346.351 781.766C348.168 793.272 350.616 804.668 353.684 815.904C355.532 822.604 357.803 829.53 362.756 834.404C367.709 839.278 376.165 841.29 381.686 837.074C385.793 833.945 387.207 828.437 387.799 823.315C389.454 809 387.582 794.504 380.925 781.723" stroke="#171717" stroke-width="3.624" stroke-linecap="round" stroke-linejoin="round"/>
<path d="M387.292 697.193C390.276 697.145 393.924 696.686 395.092 693.93C395.877 692.107 395.177 690.016 394.476 688.157C392.338 682.443 390.2 676.733 388.061 671.027" stroke="#171717" stroke-width="3.624" stroke-linecap="round" stroke-linejoin="round"/>
<path d="M371.648 673.214C369.831 671.744 367.514 671.039 365.186 671.248C362.859 671.458 360.705 672.566 359.181 674.337" stroke="#171717" stroke-width="3.624" stroke-linecap="round" stroke-linejoin="round"/>
<path d="M412.792 669.614C412.018 668.938 411.116 668.423 410.141 668.099C409.165 667.775 408.135 667.648 407.109 667.725C406.084 667.803 405.085 668.084 404.169 668.551C403.253 669.019 402.44 669.664 401.775 670.448" stroke="#171717" stroke-width="3.624" stroke-linecap="round" stroke-linejoin="round"/>
<path d="M385.153 722.984C383.458 723.55 381.665 723.764 379.884 723.612C378.103 723.46 376.372 722.946 374.797 722.101C373.222 721.256 371.837 720.097 370.726 718.697C369.615 717.297 368.802 715.685 368.337 713.959" stroke="#171717" stroke-width="3.624" stroke-linecap="round" stroke-linejoin="round"/>
<path d="M345.579 781.887C340.856 783.337 336.132 784.871 331.457 786.525C312.515 793.194 294.202 801.734 278.498 814.125C268.027 822.319 259.132 832.349 252.248 843.725C246.167 853.752 242.299 864.963 240.905 876.607" stroke="#171717" stroke-width="3.624" stroke-linecap="round" stroke-linejoin="round"/>
<path d="M381.288 781.149C386.056 780.198 390.891 779.625 395.748 779.433C418.133 778.523 440.161 785.254 458.214 798.52C467.319 805.338 475.15 813.709 481.347 823.248C490.007 836.441 495.353 851.53 496.93 867.232" stroke="#171717" stroke-width="3.624" stroke-linecap="round" stroke-linejoin="round"/>
<path d="M331.578 786.851C331.34 800.965 334.223 814.957 340.022 827.827C342.897 834.157 346.522 840.257 351.546 845.077C356.57 849.897 363.107 853.34 370.053 853.714C380.116 854.27 389.816 848.157 395.276 839.689C400.736 831.221 402.391 820.747 401.799 810.689C401.207 800.631 398.489 790.829 395.807 781.117" stroke="#171717" stroke-width="3.624" stroke-linecap="round" stroke-linejoin="round"/>
<path d="M138.5 409.771C99.2414 369.403 77.2817 315.311 77.292 259C77.292 138.2 176.747 40.2783 299.421 40.2783C422.095 40.2783 521.55 138.2 521.55 259C521.589 305.103 506.846 350.003 479.487 387.109C460.113 413.204 435.3 434.778 406.767 450.338C378.233 465.899 346.659 475.074 314.23 477.229C281.801 479.385 249.29 474.468 218.948 462.821C188.606 451.173 161.157 433.073 138.5 409.771V409.771Z" stroke="#171717" stroke-width="3.624" stroke-linecap="round" stroke-linejoin="round"/>
<path d="M240.41 877.222C216.78 858.562 197.69 834.786 184.575 807.683C171.46 780.581 164.662 750.857 164.692 720.748C164.692 610.541 254.023 521.209 364.23 521.209C474.437 521.209 563.758 610.541 563.758 720.748C563.755 758.242 553.189 794.976 533.27 826.742C513.351 858.507 484.885 884.017 451.136 900.35C417.386 916.682 379.717 923.175 342.447 919.084C305.177 914.994 269.814 900.485 240.41 877.222V877.222Z" stroke="#171717" stroke-width="3.624" stroke-linecap="round" stroke-linejoin="round"/>
<path d="M603.078 623.577C576.149 606.344 553.994 582.608 538.654 554.558C523.314 526.508 515.284 495.047 515.304 463.077C515.304 357.823 600.626 272.501 705.88 272.501C811.134 272.501 896.468 357.823 896.468 463.077C896.466 497.277 887.263 530.847 869.823 560.266C852.382 589.686 827.347 613.87 797.343 630.284C767.339 646.698 733.471 654.736 699.291 653.556C665.111 652.376 631.878 642.021 603.078 623.577Z" stroke="#171717" stroke-width="3.624" stroke-linecap="round" stroke-linejoin="round"/>
<path d="M333.894 806.732L348.229 800.238" stroke="#171717" stroke-width="3.624" stroke-linecap="round" stroke-linejoin="round"/>
<path d="M339.91 826.888C343.803 823.864 348.031 821.298 352.51 819.24" stroke="#171717" stroke-width="3.624" stroke-linecap="round" stroke-linejoin="round"/>
<path d="M353.053 846.435L362.543 836.521" stroke="#171717" stroke-width="3.624" stroke-linecap="round" stroke-linejoin="round"/>
<path d="M374.36 852.918C374.446 848.866 374.53 844.814 374.614 840.762" stroke="#171717" stroke-width="3.624" stroke-linecap="round" stroke-linejoin="round"/>
<path d="M385.059 834.117C388.541 835.317 392.135 836.167 395.786 836.655" stroke="#171717" stroke-width="3.624" stroke-linecap="round" stroke-linejoin="round"/>
<path d="M388.784 819.311C392.595 817.342 396.671 815.934 400.884 815.129" stroke="#171717" stroke-width="3.624" stroke-linecap="round" stroke-linejoin="round"/>
<path d="M387.7 798.853L397.909 796.615" stroke="#171717" stroke-width="3.624" stroke-linecap="round" stroke-linejoin="round"/>
<path d="M374.189 853.366C376.133 874.848 377.633 896.364 378.689 917.915" stroke="#171717" stroke-width="3.624" stroke-linecap="round" stroke-linejoin="round"/>
<path d="M324.608 856.101L320.33 848.221" stroke="#171717" stroke-width="3.624" stroke-linecap="round" stroke-linejoin="round"/>
<path d="M317.514 856.711L327.542 849.903" stroke="#171717" stroke-width="3.624" stroke-linecap="round" stroke-linejoin="round"/>
<path d="M451.084 865.866C448.368 863.835 445.762 861.66 443.277 859.353" stroke="#171717" stroke-width="3.624" stroke-linecap="round" stroke-linejoin="round"/>
<path d="M444.392 867.877L443.97 867.909L450.302 857.787" stroke="#171717" stroke-width="3.624" stroke-linecap="round" stroke-linejoin="round"/>
<path d="M434.782 819.456C432.1 817.248 429.611 814.816 427.341 812.187" stroke="#171717" stroke-width="3.624" stroke-linecap="round" stroke-linejoin="round"/>
<path d="M428.125 820.69L434.718 809.939" stroke="#171717" stroke-width="3.624" stroke-linecap="round" stroke-linejoin="round"/>
<path d="M412.941 894.838C410.109 892.716 407.482 890.333 405.095 887.721" stroke="#171717" stroke-width="3.624" stroke-linecap="round" stroke-linejoin="round"/>
<path d="M412.824 886.101L405.899 895.901" stroke="#171717" stroke-width="3.624" stroke-linecap="round" stroke-linejoin="round"/>
<path d="M345.259 904.935C349.239 901.023 352.77 896.678 355.785 891.981" stroke="#171717" stroke-width="3.624" stroke-linecap="round" stroke-linejoin="round"/>
<path d="M354.943 904.21C351.937 900.664 348.931 897.119 345.926 893.573" stroke="#171717" stroke-width="3.624" stroke-linecap="round" stroke-linejoin="round"/>
<path d="M274.066 867.419C275.709 864.665 277.601 862.067 279.718 859.657" stroke="#171717" stroke-width="3.624" stroke-linecap="round" stroke-linejoin="round"/>
<path d="M279.686 866.701C277.239 864.566 275.132 862.071 273.438 859.301" stroke="#171717" stroke-width="3.624" stroke-linecap="round" stroke-linejoin="round"/>
<path d="M758.737 572.375C758.603 568.751 758.473 565.127 758.345 561.502" stroke="#171717" stroke-width="3.624" stroke-linecap="round" stroke-linejoin="round"/>
<path d="M742.277 572.169C742.704 568.702 742.704 565.196 742.277 561.729" stroke="#171717" stroke-width="3.624" stroke-linecap="round" stroke-linejoin="round"/>
<path d="M725.274 571.113C725.759 567.791 725.906 564.429 725.714 561.077" stroke="#171717" stroke-width="3.624" stroke-linecap="round" stroke-linejoin="round"/>
<path d="M708.454 570.033C708.544 566.833 708.634 563.633 708.723 560.433" stroke="#171717" stroke-width="3.624" stroke-linecap="round" stroke-linejoin="round"/>
<path d="M691.147 569.426C691.94 566.938 692.179 564.308 691.847 561.719" stroke="#171717" stroke-width="3.624" stroke-linecap="round" stroke-linejoin="round"/>
<path d="M673.817 570.243L674.225 561.289" stroke="#171717" stroke-width="3.624" stroke-linecap="round" stroke-linejoin="round"/>
<path d="M703.463 580.315C702.833 580.042 702.122 580.022 701.477 580.259C700.833 580.496 700.304 580.972 700.001 581.588C699.699 582.205 699.645 582.914 699.851 583.569C700.057 584.224 700.507 584.774 701.109 585.106C701.71 585.438 702.416 585.525 703.08 585.351C703.744 585.176 704.315 584.752 704.675 584.167C705.035 583.583 705.156 582.882 705.013 582.21C704.87 581.538 704.474 580.948 703.907 580.56" stroke="#171717" stroke-width="3.624" stroke-linecap="round" stroke-linejoin="round"/>
<path d="M739.7 580.316C739.07 580.042 738.358 580.021 737.713 580.257C737.067 580.494 736.538 580.969 736.234 581.586C735.931 582.202 735.876 582.912 736.082 583.568C736.287 584.224 736.737 584.775 737.339 585.108C737.94 585.44 738.647 585.529 739.311 585.354C739.976 585.18 740.548 584.756 740.909 584.171C741.27 583.586 741.391 582.885 741.249 582.213C741.106 581.54 740.71 580.949 740.143 580.561" stroke="#171717" stroke-width="3.624" stroke-linecap="round" stroke-linejoin="round"/>
<path d="M701.969 582.395C698.932 585.919 698.269 590.98 698.958 595.58C699.647 600.18 701.527 604.501 703.073 608.888C704.619 613.275 705.857 617.936 705.198 622.541C704.539 627.146 701.573 631.684 697.098 632.955" stroke="#171717" stroke-width="3.624" stroke-linecap="round" stroke-linejoin="round"/>
<path d="M738.287 583.176C741.764 586.305 744.408 590.251 745.979 594.658C747.551 599.064 748 603.792 747.287 608.416C746.749 611.678 745.629 614.827 745.187 618.103C744.745 621.379 745.087 624.965 747.144 627.549" stroke="#171717" stroke-width="3.624" stroke-linecap="round" stroke-linejoin="round"/>
<path d="M337.865 364.308C337.616 353.508 337.367 342.708 337.119 331.908" stroke="#171717" stroke-width="3.624" stroke-linecap="round" stroke-linejoin="round"/>
<path d="M317.473 365.168C317.904 353.986 318.335 342.804 318.767 331.623" stroke="#171717" stroke-width="3.624" stroke-linecap="round" stroke-linejoin="round"/>
<path d="M296.637 365.446C296.3 354.454 295.963 343.462 295.625 332.471" stroke="#171717" stroke-width="3.624" stroke-linecap="round" stroke-linejoin="round"/>
<path d="M272.732 366.014C272.175 355.128 271.927 344.232 271.987 333.326" stroke="#171717" stroke-width="3.624" stroke-linecap="round" stroke-linejoin="round"/>
<path d="M251.273 366.585L251.117 336.171" stroke="#171717" stroke-width="3.624" stroke-linecap="round" stroke-linejoin="round"/>
<path d="M237.42 366.3C237.138 356.446 236.854 346.593 236.57 336.739" stroke="#171717" stroke-width="3.624" stroke-linecap="round" stroke-linejoin="round"/>
<path d="M418.69 403.494C419.002 402.492 419.112 401.438 419.012 400.394C418.913 399.349 418.606 398.335 418.111 397.41C417.615 396.485 416.94 395.668 416.126 395.007C415.311 394.345 414.373 393.852 413.366 393.557C410.655 392.891 407.837 393.757 405.118 394.388C402.399 395.019 399.34 395.38 396.988 393.875C394.406 392.223 393.543 388.913 392.946 385.906" stroke="#171717" stroke-width="3.624" stroke-linecap="round" stroke-linejoin="round"/>
<path d="M370.677 450.054C371.671 448.68 372.144 446.997 372.011 445.306C371.878 443.616 371.149 442.027 369.953 440.825C368.539 439.488 366.622 438.802 365.139 437.542C363.656 436.282 362.694 433.942 363.896 432.416" stroke="#171717" stroke-width="3.624" stroke-linecap="round" stroke-linejoin="round"/>
<path d="M312.121 426.143C311.111 424.231 310.371 422.189 309.921 420.074C309.702 419.014 309.703 417.92 309.925 416.86C310.146 415.801 310.584 414.798 311.209 413.915C312.3 412.535 313.946 411.722 315.254 410.545C316.502 409.393 317.418 407.928 317.909 406.303C318.4 404.678 318.448 402.951 318.047 401.301" stroke="#171717" stroke-width="3.624" stroke-linecap="round" stroke-linejoin="round"/>
<path d="M255.107 449.005C254.545 446.477 252.949 444.326 251.755 442.028C250.561 439.73 249.764 436.928 250.882 434.591C251.853 432.561 254 431.418 255.627 429.862C256.986 428.536 257.997 426.895 258.57 425.084C259.144 423.274 259.261 421.349 258.913 419.482" stroke="#171717" stroke-width="3.624" stroke-linecap="round" stroke-linejoin="round"/>
<path d="M218.715 411.522C218.197 409.465 218.034 407.334 218.232 405.222C218.343 404.167 218.718 403.157 219.322 402.284C219.926 401.412 220.74 400.705 221.688 400.23C222.908 399.721 224.288 399.752 225.546 399.352C226.673 398.918 227.686 398.232 228.507 397.347C229.329 396.462 229.938 395.401 230.287 394.245C230.967 391.93 231.285 389.524 231.231 387.112" stroke="#171717" stroke-width="3.624" stroke-linecap="round" stroke-linejoin="round"/>
<path d="M173.73 417.408C173.462 415.682 173.431 413.928 173.638 412.194C173.746 411.326 174.029 410.49 174.47 409.735C174.91 408.98 175.499 408.322 176.2 407.801C177.502 407.134 178.878 406.622 180.3 406.276C181.782 405.715 183.11 404.81 184.174 403.635C185.237 402.46 186.006 401.049 186.417 399.519" stroke="#171717" stroke-width="3.624" stroke-linecap="round" stroke-linejoin="round"/>
<path d="M394.856 183.437L414.637 161.917" stroke="#171717" stroke-width="3.624" stroke-linecap="round" stroke-linejoin="round"/>
<path d="M397.857 199.408C417.062 196.387 435.915 191.451 454.135 184.673" stroke="#171717" stroke-width="3.624" stroke-linecap="round" stroke-linejoin="round"/>
<path d="M392.5 217.511C397.54 222.505 403.581 226.375 410.224 228.866" stroke="#171717" stroke-width="3.624" stroke-linecap="round" stroke-linejoin="round"/>
<path d="M206.029 122.98C208.441 118.856 210.852 114.732 213.263 110.607" stroke="#171717" stroke-width="3.624" stroke-linecap="round" stroke-linejoin="round"/>
<path d="M214.775 122.86C211.737 118.302 207.861 114.364 203.353 111.255" stroke="#171717" stroke-width="3.624" stroke-linecap="round" stroke-linejoin="round"/>
<path d="M183.132 168.987L175.394 153.243" stroke="#171717" stroke-width="3.624" stroke-linecap="round" stroke-linejoin="round"/>
<path d="M171.043 168.146C175.344 163.436 180.236 159.301 185.597 155.846" stroke="#171717" stroke-width="3.624" stroke-linecap="round" stroke-linejoin="round"/>
<path d="M611.573 430.8C610.183 427.068 608.13 423.618 605.513 420.617" stroke="#171717" stroke-width="3.624" stroke-linecap="round" stroke-linejoin="round"/>
<path d="M603.763 430.324L612.663 420.892" stroke="#171717" stroke-width="3.624" stroke-linecap="round" stroke-linejoin="round"/>
<path d="M616.892 481.893C611.59 479.283 606.655 475.986 602.214 472.087" stroke="#171717" stroke-width="3.624" stroke-linecap="round" stroke-linejoin="round"/>
<path d="M603.425 486.254L615.159 464.631" stroke="#171717" stroke-width="3.624" stroke-linecap="round" stroke-linejoin="round"/>
<path d="M503.138 797.029C508.852 783.262 509.466 767.908 504.871 753.729" stroke="#171717" stroke-width="3.624" stroke-linecap="round" stroke-linejoin="round"/>
<path d="M228.056 778.337C229.581 766.659 234.169 755.592 241.356 746.262" stroke="#171717" stroke-width="3.624" stroke-linecap="round" stroke-linejoin="round"/>
<path d="M274.266 607.76C276.717 604.024 279.91 600.831 283.646 598.38" stroke="#171717" stroke-width="3.624" stroke-linecap="round" stroke-linejoin="round"/>
<path d="M281.647 610.244L273.547 595.744" stroke="#171717" stroke-width="3.624" stroke-linecap="round" stroke-linejoin="round"/>
<path d="M243.477 632.485C243.725 626.799 243.972 621.112 244.22 615.426" stroke="#171717" stroke-width="3.624" stroke-linecap="round" stroke-linejoin="round"/>
<path d="M233.755 625.147L252.526 623.571" stroke="#171717" stroke-width="3.624" stroke-linecap="round" stroke-linejoin="round"/>
<path d="M154.663 764.138C150.128 754.261 147.652 743.563 147.387 732.697C147.122 721.831 149.074 711.025 153.123 700.938" stroke="#171717" stroke-width="3.624" stroke-linecap="round" stroke-linejoin="round"/>
<path d="M852.6 611.328C873.999 592.367 889.858 567.958 898.488 540.7" stroke="#171717" stroke-width="3.624" stroke-linecap="round" stroke-linejoin="round"/>
<path d="M86.4228 375.269C71.5493 354.272 62.9912 329.459 61.7578 303.758" stroke="#171717" stroke-width="3.624" stroke-linecap="round" stroke-linejoin="round"/>
<path d="M604.136 134.368C593.151 144.855 586.275 158.921 584.745 174.03C583.71 184.655 586.473 197.079 595.939 202.014C604.629 206.544 616.81 201.729 620.054 192.482C621.237 189.111 621.129 184.882 618.447 182.52C615.147 179.611 609.853 181.048 606.295 183.64C602.513 186.489 599.632 190.367 597.995 194.809C596.358 199.252 596.034 204.072 597.063 208.693C598.863 216.218 604.12 222.364 609.197 228.203C614.274 234.042 619.509 240.213 621.258 247.75C623.007 255.287 619.971 264.541 612.683 267.142" stroke="#171717" stroke-width="3.624" stroke-linecap="round" stroke-linejoin="round"/>
<path d="M141.938 473.322C156.432 476.629 167.557 491.034 167.094 505.893C166.631 520.752 154.629 534.436 139.958 536.833C134.042 537.8 127.389 536.856 123.195 532.573C119.001 528.29 118.752 520.146 123.757 516.846C129.343 513.163 137.057 517.469 140.6 523.146C146.842 533.123 145.585 546.261 140.983 557.093C136.381 567.925 128.859 577.2 122.539 587.129C116.219 597.058 110.927 608.349 111.676 620.094" stroke="#171717" stroke-width="3.624" stroke-linecap="round" stroke-linejoin="round"/>
<path d="M617.8 794.254C630.075 771.203 649.844 753.028 673.843 742.729C680.582 739.863 689.656 738.198 694.174 743.961C696.89 747.426 696.711 752.49 694.885 756.495C693.059 760.5 689.86 763.689 686.727 766.782C683.881 769.592 680.88 772.498 677.06 773.682C673.24 774.866 668.37 773.703 666.678 770.082C664.431 765.268 668.766 760.061 672.908 756.734C690.913 742.315 712.358 732.825 735.138 729.195" stroke="#171717" stroke-width="3.624" stroke-linecap="round" stroke-linejoin="round"/>
<path d="M563.762 134.931C562.909 130.664 562.057 126.4 561.204 122.14" stroke="#171717" stroke-width="3.624" stroke-linecap="round" stroke-linejoin="round"/>
<path d="M553.494 131.408L572.244 125.408" stroke="#171717" stroke-width="3.624" stroke-linecap="round" stroke-linejoin="round"/>
<path d="M101.7 508.389C100.052 502.483 98.4035 496.577 96.7549 490.672" stroke="#171717" stroke-width="3.624" stroke-linecap="round" stroke-linejoin="round"/>
<path d="M89.0566 505.46L106 495.881" stroke="#171717" stroke-width="3.624" stroke-linecap="round" stroke-linejoin="round"/>
<path d="M719.855 782.183C724.012 777.575 726.922 771.981 728.309 765.933" stroke="#171717" stroke-width="3.624" stroke-linecap="round" stroke-linejoin="round"/>
<path d="M716.426 773.534L733.439 779.617" stroke="#171717" stroke-width="3.624" stroke-linecap="round" stroke-linejoin="round"/>
<path d="M673.762 712.218C673.955 706.567 675.412 701.031 678.026 696.018" stroke="#171717" stroke-width="3.624" stroke-linecap="round" stroke-linejoin="round"/>
<path d="M665.23 704.791L682.28 705.062" stroke="#171717" stroke-width="3.624" stroke-linecap="round" stroke-linejoin="round"/>
<g opacity="0.1">
<path d="M320.259 171.334C315.082 170.502 309.842 170.134 304.6 170.234C300.026 170.442 295.479 170.915 290.9 170.971C281.671 171.083 271.971 171.256 262.836 172.533C255.647 173.539 248.456 177.479 244.325 183.581C240.072 189.862 240.033 198.53 240.198 205.847C241.082 244.969 244.389 284.103 246.764 323.16C247.548 336.048 267.709 336.137 266.92 323.16C264.766 287.737 263.509 252.119 260.232 216.783C259.601 209.973 258.009 202.383 258.932 195.538C259.174 193.731 259.599 190.719 260.68 189.297C262.28 187.197 267.274 186.425 269.688 185.804C286.688 181.429 304.176 179.852 320.5 173.081C320.697 173.013 320.865 172.88 320.974 172.702C321.084 172.525 321.128 172.315 321.1 172.108C321.072 171.902 320.973 171.711 320.821 171.57C320.668 171.428 320.471 171.343 320.263 171.331L320.259 171.334Z" fill="#171717"/>
</g>
<g opacity="0.1">
<path d="M229.38 338.208C227.588 343.539 227.18 349.14 226.699 354.716C226.445 357.662 226.336 360.656 225.936 363.585C225.928 364.377 225.789 365.162 225.525 365.908C225.794 365.414 226.563 365.078 225.606 365.473C221.616 367.119 216.492 367.195 212.271 368.186C207.433 369.322 202.633 370.666 197.924 372.256C188.771 375.337 179.933 379.285 171.532 384.046C163.058 388.865 155.8 395.058 147.791 400.518C142.712 403.98 140.94 410.541 144.898 415.671C148.388 420.193 156.226 421.487 160.288 416.714C166.796 409.069 176.071 403.314 184.74 398.429C193.662 393.351 203.16 389.359 213.032 386.539C222.37 383.915 235.332 384.265 240.832 374.853C243.871 369.653 243.314 363.461 243.313 357.673C243.313 351.116 243.462 344.622 241.901 338.208C240.308 331.665 231.326 332.419 229.38 338.208V338.208Z" fill="#171717"/>
</g>
<g opacity="0.1">
<path d="M354.883 663.336C354.936 668.836 351.645 671.271 348.352 675.062C345.381 678.413 342.782 682.076 340.599 685.987C335.21 695.855 337.125 707.577 337.532 718.415C338.412 741.861 340.483 765.262 342.178 788.662L349.508 779.034C326.164 783.728 304.214 793.731 285.355 808.269C275.942 815.376 267.353 823.514 259.749 832.532C255.677 837.408 251.892 842.516 248.412 847.832C245.062 852.987 241.091 858.732 239.99 864.86C239.196 869.276 240.516 873.76 244.578 876.135C248.22 878.266 253.791 877.88 256.678 874.574C260.57 870.118 262.829 864.794 265.851 859.751C268.438 855.385 271.282 851.178 274.368 847.151C281.072 838.488 288.817 830.685 297.428 823.917C314.203 810.857 333.895 802.064 354.816 798.291C358.823 797.553 362.447 792.724 362.146 788.663C360.409 765.242 359.046 741.763 356.495 718.416C355.905 713.005 355.315 707.594 354.689 702.188C354.15 697.537 352.689 691.718 353.663 687.158C354.52 683.13 357.217 679.299 358.763 675.472C360.394 671.435 361.858 667.772 361.446 663.337C361.062 659.209 354.846 659.037 354.883 663.337V663.336Z" fill="#171717"/>
</g>
<g opacity="0.1">
<path d="M661.077 407.05C658.613 413.688 659.339 421.965 658.715 428.991C658.033 436.672 657.315 444.364 656.761 452.055C655.946 463.355 658.136 476.84 663.487 486.933C666.235 492.117 670.451 497.149 675.618 500.039C680.649 502.853 686.258 504.515 691.278 507.416C704.504 515.057 699.545 531.995 693.055 542.804C688.175 550.931 702.547 557.076 704.964 547.825C708.464 534.425 714.182 521.025 706.807 507.662C704.024 502.62 699.707 498.552 695.177 495.112C690.464 491.64 686.071 487.754 682.049 483.499C678.163 479.305 674.849 474.749 673.209 469.242C671.656 463.623 670.642 457.868 670.181 452.056C669.416 444.356 670.141 436.696 670.287 428.992C670.425 421.726 671.112 412.611 667.075 406.267C666.737 405.727 666.251 405.296 665.674 405.024C665.098 404.752 664.455 404.652 663.823 404.734C663.192 404.817 662.597 405.079 662.109 405.49C661.622 405.901 661.263 406.443 661.075 407.051L661.077 407.05Z" fill="#171717"/>
</g>
<g opacity="0.1">
<path d="M674.989 553.819C667.708 550.713 661.238 559.877 658.979 565.576C657.094 570.332 655.613 574.876 649.756 574.736C644.162 574.603 638.681 572.136 633.2 571.181C623.057 569.413 610.326 572.564 605.443 582.508C600.143 593.308 603.918 604.36 601.875 615.616C599.657 627.848 616.475 632.694 620.588 620.775C623.888 611.204 619.888 601.381 621.765 591.747C622.173 589.942 622.824 588.202 623.7 586.573C624.374 585.245 624.417 585.931 624.044 586.134C625.034 585.669 626.091 585.365 627.175 585.234C631.936 584.44 636.537 585.795 641.175 586.652C649.991 588.281 659.48 587.617 664.521 579.079C666.633 575.501 667.431 571.404 668.405 567.423C668.802 565.272 669.347 563.152 670.036 561.077C671.127 558.339 672.707 557.319 674.985 555.767C675.599 555.348 675.828 554.184 674.985 553.824L674.989 553.819Z" fill="#171717"/>
</g>
</g>
</g>
<defs>
<linearGradient id="paint0_linear_46_113" x1="707.468" y1="551.506" x2="707.468" y2="653.673" gradientUnits="userSpaceOnUse">
<stop stop-color="#FFB800"/>
<stop offset="1" stop-color="#FF7F0A"/>
</linearGradient>
<linearGradient id="paint1_linear_46_113" x1="308.994" y1="355.32" x2="308.994" y2="477.723" gradientUnits="userSpaceOnUse">
<stop stop-color="#FFB800"/>
<stop offset="1" stop-color="#FF7F0A"/>
</linearGradient>
<linearGradient id="paint2_linear_46_113" x1="782.532" y1="561.301" x2="782.532" y2="575.983" gradientUnits="userSpaceOnUse">
<stop stop-color="#FFB800"/>
<stop offset="1" stop-color="#FF7F0A"/>
</linearGradient>
<linearGradient id="paint3_linear_46_113" x1="650.521" y1="559.067" x2="650.521" y2="573.54" gradientUnits="userSpaceOnUse">
<stop stop-color="#FFB800"/>
<stop offset="1" stop-color="#FF7F0A"/>
</linearGradient>
<linearGradient id="paint4_linear_46_113" x1="290.83" y1="330.13" x2="290.83" y2="367.754" gradientUnits="userSpaceOnUse">
<stop stop-color="#FFB800"/>
<stop offset="1" stop-color="#FF7F0A"/>
</linearGradient>
<linearGradient id="paint5_linear_46_113" x1="369.291" y1="779.355" x2="369.291" y2="920.279" gradientUnits="userSpaceOnUse">
<stop stop-color="#FFB800"/>
<stop offset="1" stop-color="#FF7F0A"/>
</linearGradient>
<clipPath id="clip0_46_113">
<rect width="960" height="960" fill="white"/>
</clipPath>
<clipPath id="clip1_46_113">
<rect width="842" height="885" fill="white" transform="translate(59 38)"/>
</clipPath>
</defs>
</svg>
