<svg width="960" height="960" viewBox="0 0 960 960" fill="none" xmlns="http://www.w3.org/2000/svg">
<g clip-path="url(#clip0_510_1403)">
<path fill-rule="evenodd" clip-rule="evenodd" d="M599.243 585.6C620.905 572.508 656.232 552.843 677.679 549.754C680.764 549.221 683.915 549.19 687.01 549.664C714.188 554.67 736.942 563.518 744.849 593.23C750.607 614.901 746.954 634.046 738.294 646.252C735.317 650.574 731.398 654.165 726.832 656.752C710.713 665.599 674.052 675.082 620.95 676.032C619.944 676.048 619.201 676.067 618.326 676.09L618.325 676.09C617.76 676.105 617.139 676.122 616.356 676.139L615.774 676.3C610.616 657.62 601.84 638.063 590.924 617.18C587.53 610.447 583.653 603.968 579.324 597.793L580.399 597.435C580.399 597.435 585.781 593.862 594.225 588.659C595.792 587.692 597.467 586.671 599.231 585.596L599.243 585.6ZM689 560.257L688.758 558.777C687.94 558.911 687.386 559.682 687.52 560.499C687.653 561.316 688.424 561.871 689.241 561.738L689.242 561.738L689.248 561.737L689.29 561.73C689.33 561.724 689.393 561.716 689.478 561.705C689.648 561.683 689.906 561.653 690.243 561.622C690.916 561.561 691.9 561.499 693.118 561.5C695.559 561.501 698.918 561.752 702.591 562.748C709.896 564.727 718.48 569.65 723.622 581.593C723.95 582.354 724.832 582.705 725.593 582.378C726.354 582.05 726.705 581.168 726.378 580.407C720.809 567.473 711.393 562.025 703.376 559.852C699.388 558.771 695.755 558.501 693.12 558.5C691.8 558.499 690.724 558.566 689.972 558.634C689.596 558.668 689.3 558.703 689.095 558.729C688.992 558.742 688.912 558.754 688.855 558.762C688.827 558.766 688.805 558.77 688.788 558.772L688.769 558.775L688.762 558.776L688.76 558.777C688.759 558.777 688.758 558.777 689 560.257ZM624.185 598.568L624.181 598.569L624.18 598.569C623.358 598.665 622.613 598.077 622.516 597.254C622.419 596.432 623.008 595.686 623.83 595.589L624.006 597.079C623.83 595.589 623.831 595.589 623.832 595.589L623.833 595.589L623.838 595.588L623.851 595.587L623.896 595.582C623.934 595.578 623.988 595.573 624.056 595.566C624.193 595.554 624.389 595.537 624.638 595.521C625.136 595.489 625.847 595.457 626.719 595.457C628.46 595.458 630.862 595.586 633.503 596.101C638.758 597.127 645.168 599.733 649.003 606.148C649.428 606.86 649.197 607.781 648.486 608.206C647.774 608.631 646.853 608.399 646.428 607.688C643.209 602.303 637.765 599.99 632.928 599.046C630.523 598.576 628.321 598.458 626.718 598.457C625.919 598.457 625.273 598.486 624.833 598.515C624.613 598.529 624.444 598.543 624.333 598.553C624.278 598.559 624.237 598.563 624.211 598.565L624.185 598.568Z" fill="url(#paint0_linear_510_1403)"/>
<path fill-rule="evenodd" clip-rule="evenodd" d="M646.554 497.015L647.001 496.97C648.401 509.561 654.154 538.046 677.672 549.66L677.681 549.75C680.766 549.217 683.917 549.186 687.012 549.66C714.19 554.666 736.944 563.514 744.851 593.226C750.609 614.897 746.956 634.042 738.296 646.248L738.843 646.633C738.843 646.633 770.883 612.658 773.928 585.319C777.49 553.314 752.093 538.349 737.131 529.533C732.199 526.627 728.401 524.389 727.147 522.429C725.501 519.857 724.641 515.143 723.594 509.4C721.423 497.49 718.444 481.15 705.969 470.276C697.113 462.547 678.156 452.885 646.554 465.216C614.952 477.547 618.623 510.125 618.623 510.125C627.399 503.749 637.33 497.83 646.554 497.015ZM687.357 465.138C686.555 464.929 685.736 465.41 685.527 466.212L686.6 468.041L686.604 468.042L686.643 468.053C686.679 468.063 686.738 468.08 686.818 468.104C686.977 468.153 687.22 468.229 687.534 468.339C688.164 468.559 689.082 468.911 690.203 469.432C692.447 470.473 695.494 472.184 698.671 474.85C705 480.161 711.911 489.314 713.965 504.714C714.074 505.535 714.829 506.112 715.65 506.003C716.471 505.893 717.048 505.139 716.938 504.318C714.778 488.113 707.452 478.303 700.599 472.552C697.184 469.687 693.903 467.842 691.466 466.711C690.247 466.145 689.237 465.756 688.524 465.507C688.167 465.382 687.884 465.293 687.686 465.233C687.587 465.203 687.509 465.18 687.454 465.165C687.426 465.157 687.404 465.151 687.388 465.147L687.368 465.141L687.361 465.139L687.359 465.139C687.358 465.139 687.357 465.138 686.979 466.59L687.357 465.138Z" fill="#171717"/>
<path d="M594.148 588.515L594.228 588.658C585.784 593.858 580.402 597.434 580.402 597.434L579.327 597.792C578.88 597.183 578.441 596.601 578.011 596.055C578.011 596.055 577.877 580.93 572.711 575.955C576.337 575.767 579.087 575.655 580.403 575.731C587.79 576.157 594.148 588.515 594.148 588.515Z" fill="#171717"/>
<path d="M435.853 610.399C450.53 621.906 463.631 630.628 474.412 631.354C480.528 631.766 488.024 630.888 495.931 629.285C501.259 628.211 506.775 626.805 512.193 625.255C518.846 623.339 525.347 621.199 531.159 619.155C531.616 618.994 532.073 618.833 532.52 618.672C544.636 614.355 553.439 610.572 553.77 610.433C555.169 613.33 556.813 616.101 558.686 618.716C565.358 628.116 574.519 655.109 581.235 676.798L580.402 677.057C496.28 679.493 338.522 685.057 338.522 685.057C338.522 685.057 296.998 682.357 283.722 664.013C270.446 645.669 266.919 617.899 268.601 603.899C274.037 582.542 285.714 562.51 309.212 553.399C353.35 536.277 399.405 581.839 435.812 610.369C435.827 610.377 435.841 610.387 435.853 610.399V610.399Z" fill="url(#paint1_linear_510_1403)"/>
<path d="M571.625 551.952C572.977 552.599 574.227 553.441 575.333 554.452C582.496 561.195 579.971 563.935 579.971 563.935L580.271 564.735C579.622 565 578.958 565.228 578.283 565.416C578.283 565.416 574.844 565.326 569.65 565.316C569.713 564.339 570.089 555.994 565.75 549.816C567.776 550.326 569.745 551.041 571.625 551.952V551.952Z" fill="#171717"/>
<path d="M572.709 575.961C577.876 580.931 578.009 596.061 578.009 596.061C573.576 590.356 569.896 587.625 566.43 586.434C566.43 586.434 568.186 584.034 562.383 576.512C566.208 576.319 569.754 576.113 572.709 575.961Z" fill="url(#paint2_linear_510_1403)"/>
<path d="M569.656 565.315C566.683 565.306 563.128 565.332 559.312 565.415V565.401C559.312 565.401 561.213 558.667 553.312 547.975C557.509 548.17 561.676 548.785 565.75 549.811C570.094 555.993 569.719 564.338 569.656 565.315Z" fill="url(#paint3_linear_510_1403)"/>
<path d="M557.425 585.846C553.574 586.276 551.125 589.025 550.342 593.261L550.136 593.225C550.526 590.409 550.296 587.542 549.462 584.824C548.628 582.106 547.211 579.604 545.309 577.491V577.079C551.004 577.034 556.977 576.779 562.386 576.506C568.186 584.028 566.433 586.428 566.433 586.428C563.515 585.54 560.432 585.34 557.425 585.846V585.846Z" fill="#171717"/>
<path d="M529.743 576.461C534.913 576.994 540.112 577.2 545.307 577.079V577.491C547.209 579.604 548.627 582.106 549.461 584.824C550.294 587.542 550.524 590.409 550.134 593.225L550.34 593.261C549.525 597.693 550.563 603.738 553.769 610.436C553.438 610.579 544.635 614.358 532.519 618.675C532.519 618.675 540.041 592.41 529.609 577.491L529.743 576.461Z" fill="url(#paint4_linear_510_1403)"/>
<path d="M541.474 566.254V566.263C535.268 566.773 529.627 567.552 525.839 568.743C525.839 568.743 524.657 560.559 516.705 553.243C521.696 551.584 526.794 550.268 531.964 549.303L532.036 549.661C536.665 551.613 541.474 566.254 541.474 566.254Z" fill="url(#paint5_linear_510_1403)"/>
<path d="M532.564 549.186C533.54 549.007 534.543 548.846 535.555 548.711C541.436 547.891 547.384 547.645 553.313 547.977C561.213 558.669 559.313 565.403 559.313 565.403V565.412C553.591 565.528 547.287 565.77 541.475 566.263V566.254C541.475 566.254 536.666 551.613 532.037 549.66L531.965 549.302C532.161 549.257 532.367 549.222 532.564 549.186Z" fill="#171717"/>
<path d="M529.609 577.492C540.041 592.411 532.519 618.676 532.519 618.676C532.072 618.837 531.619 618.998 531.158 619.159C525.346 621.201 518.845 623.341 512.192 625.259V625.25C512.192 625.25 521.684 586.494 500.049 559.996C505.454 557.4 511.017 555.144 516.705 553.244C524.657 560.561 525.839 568.744 525.839 568.744C522.848 569.676 521.012 570.867 520.976 572.362C520.923 574.556 524.415 575.801 529.743 576.462L529.609 577.492Z" fill="#171717"/>
<path d="M500.049 559.994C521.684 586.494 512.192 625.248 512.192 625.248V625.257C506.774 626.807 501.258 628.213 495.93 629.287C495.93 629.287 512.174 598.142 490.396 564.866C493.36 563.3 496.574 561.642 500.049 559.994Z" fill="url(#paint6_linear_510_1403)"/>
<path d="M490.401 564.865C512.179 598.141 495.935 629.286 495.935 629.286C488.028 630.886 480.535 631.767 474.416 631.355C463.635 630.629 450.534 621.907 435.857 610.4C437.164 611.224 469.885 631.605 479.735 607.445C489.245 584.127 461.118 573.103 458.047 571.984C462.047 573.363 467.172 574.42 472.097 573.417C473.053 573.21 473.993 572.935 474.909 572.593C478.952 571.106 484.101 568.199 490.401 564.865Z" fill="#171717"/>
<path d="M452.069 546.866L440.469 561.632C420.616 545.032 408.321 517.064 371.869 504.061L371.86 504.052L352.41 488.077L363.577 477.752L368.251 481.405L378.851 489.68V489.689L383.104 493.011H383.113L394.602 501.984L397.96 504.607L410.211 514.18L414.957 517.888L427.583 527.747L431.532 530.827L443.487 540.167L452.069 546.866Z" fill="#171717"/>
<path d="M371.377 327.311L363.873 472.075L363.578 477.753H346.035H343.77L352.411 325.422L371.377 327.311Z" fill="#171717"/>
<path d="M458.043 571.985C462.043 573.364 467.168 574.421 472.093 573.418C473.049 573.211 473.989 572.936 474.905 572.594C478.952 571.107 484.105 568.194 490.397 564.866C493.361 563.299 496.575 561.642 500.05 559.994C505.455 557.398 511.018 555.142 516.706 553.242C521.697 551.583 526.795 550.267 531.965 549.302C532.165 549.257 532.365 549.222 532.565 549.186C533.541 549.007 534.544 548.846 535.556 548.711C541.437 547.891 547.385 547.645 553.314 547.977C557.511 548.172 561.678 548.787 565.752 549.813C567.778 550.324 569.746 551.041 571.626 551.953C572.978 552.6 574.228 553.442 575.334 554.453C582.497 561.196 579.972 563.936 579.972 563.936" stroke="#171717" stroke-width="3" stroke-linecap="round" stroke-linejoin="round"/>
<path d="M371.869 504.062C408.324 517.062 420.619 545.031 440.469 561.633C443.598 564.288 446.992 566.614 450.597 568.573C452.874 569.909 455.277 571.019 457.77 571.886" stroke="#171717" stroke-width="3" stroke-linecap="round" stroke-linejoin="round"/>
<path d="M226.201 682.355C226.201 682.355 226.201 682.095 226.21 681.602C226.691 663.13 228.33 644.706 231.117 626.44C239.275 572.64 260.937 499.14 318.49 497.14C340.868 496.361 358.09 499.14 371.861 504.053" stroke="#171717" stroke-width="3" stroke-linecap="round" stroke-linejoin="round"/>
<path d="M435.854 610.4C450.531 621.907 463.632 630.629 474.413 631.355C480.529 631.767 488.025 630.889 495.932 629.286C501.26 628.212 506.776 626.806 512.194 625.256C518.847 623.34 525.348 621.2 531.16 619.156C531.617 618.995 532.074 618.834 532.521 618.673C544.637 614.356 553.44 610.573 553.771 610.434H553.78" stroke="#171717" stroke-width="3" stroke-linecap="round" stroke-linejoin="round"/>
<path d="M267.5 677.293C267.5 677.293 259.709 638.823 268.6 603.899C274.036 582.542 285.713 562.51 309.211 553.399C353.349 536.277 399.404 581.839 435.811 610.369" stroke="#171717" stroke-width="3" stroke-linecap="round" stroke-linejoin="round"/>
<path d="M453.341 443.831L453.323 443.849V443.858C453.223 443.958 452.777 444.44 452.159 445.192C449.419 448.492 443.259 457.003 448.282 461.248C454.604 466.585 468.475 443.204 468.717 426.342C469.138 397.06 491.717 389.242 510.232 392C549.105 397.794 535.556 548.7 535.556 548.7" stroke="#171717" stroke-width="3" stroke-linecap="round" stroke-linejoin="round"/>
<path d="M442.559 434.168C438.887 438.44 431.643 447.977 436.478 451.836C441.511 455.866 449.23 448.398 452.158 445.192C452.812 444.476 453.224 443.974 453.322 443.858" stroke="#171717" stroke-width="3" stroke-linecap="round" stroke-linejoin="round"/>
<path d="M444.333 432.207C444.055 432.485 443.433 433.157 442.633 434.088" stroke="#171717" stroke-width="3" stroke-linecap="round" stroke-linejoin="round"/>
<path d="M442.631 434.088C443.482 433.157 444.073 432.503 444.331 432.207C444.38 432.16 444.425 432.109 444.465 432.055L444.483 432.037" stroke="#171717" stroke-width="3" stroke-linecap="round" stroke-linejoin="round"/>
<path d="M442.632 434.088C442.605 434.115 442.588 434.142 442.561 434.168" stroke="#171717" stroke-width="3" stroke-linecap="round" stroke-linejoin="round"/>
<path d="M571.626 551.962V551.953C571.564 550.5 564.391 381 519.501 371.772C474.413 362.504 448.701 408.433 448.701 408.433C448.701 408.433 425.946 383.574 418.362 391.58C410.778 399.586 440.167 416.967 440.167 416.967C440.167 416.967 400.953 450.073 409.505 457.9C415.183 463.085 436.074 441.226 442.558 434.169" stroke="#171717" stroke-width="3" stroke-linecap="round" stroke-linejoin="round"/>
<path d="M618.621 510.125C618.621 510.125 614.95 477.547 646.552 465.216C678.154 452.885 697.111 462.547 705.967 470.276C724.459 486.394 722.086 514.522 727.145 522.429C732.204 530.336 778.663 542.765 773.926 585.319C770.881 612.658 738.841 646.633 738.841 646.633" stroke="#171717" stroke-width="3" stroke-linecap="round" stroke-linejoin="round"/>
<path d="M580.401 677.061C496.279 679.497 338.521 685.061 338.521 685.061C338.521 685.061 296.997 682.361 283.721 664.017C270.445 645.673 266.919 617.9 268.601 603.9" stroke="#171717" stroke-width="3" stroke-linecap="round" stroke-linejoin="round"/>
<path d="M599.242 585.6C620.904 572.508 656.231 552.843 677.678 549.754C680.763 549.221 683.914 549.19 687.009 549.664C714.187 554.67 736.941 563.518 744.848 593.23C750.606 614.901 746.953 634.046 738.293 646.252C735.316 650.574 731.397 654.165 726.831 656.752C710.712 665.599 674.051 675.082 620.949 676.032C619.292 676.058 618.349 676.094 616.355 676.139" stroke="#171717" stroke-width="3" stroke-linecap="round" stroke-linejoin="round"/>
<path d="M580.4 597.435C580.4 597.435 585.782 593.862 594.226 588.659C595.793 587.692 597.468 586.671 599.232 585.596" stroke="#171717" stroke-width="3" stroke-linecap="round" stroke-linejoin="round"/>
<path d="M646.551 490.818C646.551 490.818 646.577 493.173 646.998 496.97C648.404 509.561 654.153 538.046 677.669 549.66" stroke="#171717" stroke-width="3" stroke-linecap="round" stroke-linejoin="round"/>
<path d="M636.862 510.42C636.862 510.42 629.062 521.793 642.97 521.587" stroke="#171717" stroke-width="3" stroke-linecap="round" stroke-linejoin="round"/>
<path d="M652.873 534.857C652.873 534.857 645.494 541.806 655.819 546.445" stroke="#171717" stroke-width="3" stroke-linecap="round" stroke-linejoin="round"/>
<path d="M632.224 531.213C632.224 531.213 623.582 527.9 621.693 529.593C619.804 531.286 624.218 539.703 624.218 539.703" stroke="#171717" stroke-width="3" stroke-linecap="round" stroke-linejoin="round"/>
<path d="M610.525 553.072C610.525 553.072 617.42 569.621 626.716 563.514" stroke="#171717" stroke-width="3" stroke-linecap="round" stroke-linejoin="round"/>
<path d="M594.148 588.516C594.148 588.516 587.79 576.158 580.402 575.737C579.086 575.665 576.336 575.773 572.71 575.961C569.755 576.113 566.21 576.319 562.385 576.507C556.976 576.785 551.003 577.035 545.308 577.08C540.112 577.201 534.914 576.994 529.744 576.462C524.416 575.8 520.924 574.555 520.977 572.362C521.013 570.862 522.849 569.676 525.84 568.744C529.628 567.553 535.269 566.774 541.475 566.264C547.287 565.771 553.591 565.529 559.313 565.413C563.128 565.332 566.683 565.306 569.656 565.313C574.85 565.321 578.289 565.413 578.289 565.413C578.964 565.224 579.628 564.997 580.277 564.732C583.377 563.515 589.33 560.479 592.509 554.345C596.933 545.811 590.609 531.277 601.043 523.692C605.61 520.361 611.771 515.105 618.621 510.126C627.397 503.75 637.328 497.826 646.552 497.016" stroke="#171717" stroke-width="3" stroke-linecap="round" stroke-linejoin="round"/>
<path d="M590.081 707C590.081 707 590.036 706.83 589.947 706.5C589.231 703.9 585.801 691.59 581.234 676.806C574.518 655.117 565.357 628.127 558.685 618.724C556.812 616.108 555.168 613.337 553.769 610.441C550.563 603.741 549.525 597.698 550.34 593.266C551.119 589.03 553.572 586.281 557.423 585.851C560.43 585.345 563.514 585.545 566.431 586.433C569.897 587.624 573.577 590.355 578.01 596.06C578.44 596.606 578.879 597.188 579.326 597.797C583.654 603.971 587.531 610.45 590.926 617.184C601.842 638.067 610.618 657.624 615.776 676.304C618.354 685.361 619.983 694.661 620.638 704.055" stroke="#171717" stroke-width="3" stroke-linecap="round" stroke-linejoin="round"/>
<path d="M378.854 489.68L368.251 481.405L363.577 477.752L352.41 488.077L371.86 504.052L371.869 504.061" stroke="#171717" stroke-width="3" stroke-linecap="round" stroke-linejoin="round"/>
<path d="M394.606 501.985L383.117 493.012" stroke="#171717" stroke-width="3" stroke-linecap="round" stroke-linejoin="round"/>
<path d="M410.214 514.18L397.963 504.607" stroke="#171717" stroke-width="3" stroke-linecap="round" stroke-linejoin="round"/>
<path d="M427.587 527.748L414.961 517.889" stroke="#171717" stroke-width="3" stroke-linecap="round" stroke-linejoin="round"/>
<path d="M440.472 561.633L452.069 546.867L443.49 540.168L431.535 530.828" stroke="#171717" stroke-width="3" stroke-linecap="round" stroke-linejoin="round"/>
<path d="M346.035 477.753H343.77L352.411 325.422L371.377 327.311L363.873 472.075L363.578 477.753H346.035Z" stroke="#171717" stroke-width="3" stroke-linecap="round" stroke-linejoin="round"/>
<path d="M443.491 540.167L444.592 533.962L436.058 529.108L431.536 530.827L427.587 527.747V522.428L418.99 515.998L414.961 517.888L410.215 514.18V507.885L403.302 501.984L397.964 504.607L394.606 501.984V496.091L388.651 490.817L383.117 493.011H383.108L378.855 489.689V489.68L380.01 483.653L371.377 479.023L368.252 481.405" stroke="#171717" stroke-width="3" stroke-linecap="round" stroke-linejoin="round"/>
<path d="M346.035 478.271C328.349 486.271 318.49 497.139 318.49 497.139" stroke="#171717" stroke-width="3" stroke-linecap="round" stroke-linejoin="round"/>
<path d="M474.901 572.586C474.901 572.586 450.601 479.446 400.029 471.226C388.247 469.259 376.198 469.56 364.529 472.112" stroke="#171717" stroke-width="3" stroke-linecap="round" stroke-linejoin="round"/>
<path d="M577.652 706.998L589.947 706.497L620.68 705.252L639.915 704.473" stroke="#171717" stroke-width="3" stroke-linecap="round" stroke-linejoin="round"/>
<path d="M217.354 682.353L226.21 681.6L267.573 678.099L277.083 677.293" stroke="#171717" stroke-width="3" stroke-linecap="round" stroke-linejoin="round"/>
<path d="M211.981 662.125C211.981 662.125 187.006 660.226 186.381 677.295" stroke="#171717" stroke-width="3" stroke-linecap="round" stroke-linejoin="round"/>
<path d="M200.602 682.354C200.602 682.354 203.45 707.947 256.857 700.362" stroke="#171717" stroke-width="3" stroke-linecap="round" stroke-linejoin="round"/>
<path d="M195.539 703.209C195.539 703.209 198.7 713.954 210.395 712.369" stroke="#171717" stroke-width="3" stroke-linecap="round" stroke-linejoin="round"/>
<path d="M294.785 695.938C294.785 695.938 302.685 712.532 337.133 707.875" stroke="#171717" stroke-width="3" stroke-linecap="round" stroke-linejoin="round"/>
<path d="M572.808 700.47C572.808 700.47 552.785 702.57 554.684 711.431C556.583 720.292 610.311 718.595 610.311 718.595C610.311 718.595 654.772 719.222 655.399 708.27C656.026 697.318 639.916 696.682 639.916 696.682" stroke="#171717" stroke-width="3" stroke-linecap="round" stroke-linejoin="round"/>
<path d="M546.678 724.064C546.678 724.064 550.678 735.864 570.068 732.07" stroke="#171717" stroke-width="3" stroke-linecap="round" stroke-linejoin="round"/>
<path d="M641.707 731.444C641.707 731.444 672.261 731.444 677.732 713.955" stroke="#171717" stroke-width="3" stroke-linecap="round" stroke-linejoin="round"/>
<path d="M641.707 685.058C641.707 685.058 654.136 684.243 653.716 689.724" stroke="#171717" stroke-width="3" stroke-linecap="round" stroke-linejoin="round"/>
<path d="M712.709 677.294C712.709 677.294 754.009 681.503 754.645 657.486" stroke="#171717" stroke-width="3" stroke-linecap="round" stroke-linejoin="round"/>
<path d="M765.602 686.141C765.602 686.141 782.034 682.98 782.034 670.756" stroke="#171717" stroke-width="3" stroke-linecap="round" stroke-linejoin="round"/>
<path d="M770.371 602.62C779.218 601.554 788.245 604.894 795.802 612.586L799.143 615.986C811.724 628.786 828.407 629.553 841.526 617.938L851.018 609.538C863.788 598.246 879.96 598.649 892.443 610.558L920.257 637.083" stroke="#171717" stroke-width="3" stroke-linecap="round" stroke-linejoin="round"/>
<path d="M40.2617 637.086L62.9357 614.009C76.4357 600.281 94.5357 600.487 107.88 614.529C114.623 621.629 122.611 625.203 130.608 625.203C137.888 625.203 145.186 622.239 151.58 616.266L157.661 610.566C170.376 598.674 186.773 598.639 199.516 610.466L207.351 617.737C214.542 624.427 222.906 627.328 231.117 626.432L231.95 626.325" stroke="#171717" stroke-width="3" stroke-linecap="round" stroke-linejoin="round"/>
<path d="M396.694 579.186C396.694 579.186 339.562 553.324 339.141 585.597" stroke="#171717" stroke-width="3" stroke-linecap="round" stroke-linejoin="round"/>
<path d="M444.591 617.188C444.591 617.188 382.122 606.406 385.068 637.005" stroke="#171717" stroke-width="3" stroke-linecap="round" stroke-linejoin="round"/>
<path d="M489.958 630.371C489.958 630.371 460.501 648.513 472.301 662.062" stroke="#171717" stroke-width="3" stroke-linecap="round" stroke-linejoin="round"/>
<path d="M531.158 619.158C531.158 619.158 564.166 627.146 546.677 643.158" stroke="#171717" stroke-width="3" stroke-linecap="round" stroke-linejoin="round"/>
<path d="M599.234 585.6H599.243C600.085 585.582 655.843 584.32 659.724 603.976" stroke="#171717" stroke-width="3" stroke-linecap="round" stroke-linejoin="round"/>
<path d="M435.816 610.374C435.83 610.381 435.842 610.39 435.852 610.401C437.159 611.225 469.88 631.606 479.73 607.446C489.24 584.128 461.113 573.104 458.042 571.985C457.863 571.922 457.773 571.885 457.773 571.885" stroke="#171717" stroke-width="3" stroke-linecap="round" stroke-linejoin="round"/>
<path d="M495.93 629.286C495.93 629.286 512.174 598.141 490.396 564.865" stroke="#171717" stroke-width="3" stroke-linecap="round" stroke-linejoin="round"/>
<path d="M512.192 625.248C512.192 625.248 521.684 586.492 500.049 559.994" stroke="#171717" stroke-width="3" stroke-linecap="round" stroke-linejoin="round"/>
<path d="M532.519 618.676C532.519 618.676 540.041 592.411 529.609 577.492" stroke="#171717" stroke-width="3" stroke-linecap="round" stroke-linejoin="round"/>
<path d="M550.082 593.539C550.105 593.436 550.123 593.331 550.136 593.226C550.526 590.41 550.296 587.543 549.462 584.825C548.628 582.108 547.211 579.605 545.309 577.492" stroke="#171717" stroke-width="3" stroke-linecap="round" stroke-linejoin="round"/>
<path d="M525.839 568.742C525.839 568.742 524.657 560.558 516.705 553.242" stroke="#171717" stroke-width="3" stroke-linecap="round" stroke-linejoin="round"/>
<path d="M541.475 566.254C541.475 566.254 536.666 551.613 532.037 549.66" stroke="#171717" stroke-width="3" stroke-linecap="round" stroke-linejoin="round"/>
<path d="M559.312 565.401C559.312 565.401 561.213 558.667 553.312 547.975" stroke="#171717" stroke-width="3" stroke-linecap="round" stroke-linejoin="round"/>
<path d="M569.647 565.4C569.648 565.37 569.651 565.341 569.656 565.311C569.719 564.334 570.095 555.989 565.756 549.811C565.72 549.757 565.684 549.711 565.648 549.658" stroke="#171717" stroke-width="3" stroke-linecap="round" stroke-linejoin="round"/>
<path d="M566.432 586.428C566.432 586.428 568.188 584.028 562.385 576.506" stroke="#171717" stroke-width="3" stroke-linecap="round" stroke-linejoin="round"/>
<path d="M578.011 596.055C578.011 596.055 577.877 580.93 572.711 575.955" stroke="#171717" stroke-width="3" stroke-linecap="round" stroke-linejoin="round"/>
<path d="M657.932 283.487C657.933 288.863 656.34 294.119 653.354 298.59C650.368 303.06 646.123 306.545 641.156 308.604C636.19 310.662 630.724 311.201 625.451 310.153C620.178 309.105 615.334 306.517 611.531 302.716C607.729 298.915 605.139 294.072 604.09 288.799C603.04 283.526 603.577 278.06 605.634 273.093C607.691 268.126 611.174 263.88 615.644 260.892C620.114 257.904 625.369 256.309 630.745 256.309C637.955 256.308 644.869 259.171 649.967 264.267C655.066 269.364 657.931 276.277 657.932 283.487V283.487Z" stroke="#171717" stroke-width="3" stroke-linecap="round" stroke-linejoin="round"/>
<path d="M611.152 355.546L621.584 325.207" stroke="#171717" stroke-width="3" stroke-linecap="round" stroke-linejoin="round"/>
<path d="M595.349 263.893L548.891 243.664" stroke="#171717" stroke-width="3" stroke-linecap="round" stroke-linejoin="round"/>
<path d="M675 283.486L716.399 291.071" stroke="#171717" stroke-width="3" stroke-linecap="round" stroke-linejoin="round"/>
<path d="M662.357 248.41L673.73 238.926" stroke="#171717" stroke-width="3" stroke-linecap="round" stroke-linejoin="round"/>
<path d="M619.687 243.664L616.365 226.596" stroke="#171717" stroke-width="3" stroke-linecap="round" stroke-linejoin="round"/>
<path d="M595.347 297.715L583.025 303.715" stroke="#171717" stroke-width="3" stroke-linecap="round" stroke-linejoin="round"/>
<path d="M655.086 310.672L662.357 320.782" stroke="#171717" stroke-width="3" stroke-linecap="round" stroke-linejoin="round"/>
<path d="M375.023 304.742L387.055 261.992" stroke="#171717" stroke-width="3" stroke-linecap="round" stroke-linejoin="round"/>
<path d="M343.455 305.613L336.818 296.131" stroke="#171717" stroke-width="3" stroke-linecap="round" stroke-linejoin="round"/>
<path d="M396.158 323.109C399.854 321.652 403.044 319.147 405.336 315.902" stroke="#171717" stroke-width="3" stroke-linecap="round" stroke-linejoin="round"/>
<path d="M326.401 336.347L300.848 316.906" stroke="#171717" stroke-width="3" stroke-linecap="round" stroke-linejoin="round"/>
<path d="M391.186 351.078L416.416 353.531" stroke="#171717" stroke-width="3" stroke-linecap="round" stroke-linejoin="round"/>
<path d="M559.506 390.304C559.726 381.027 556.556 371.988 550.589 364.881C544.622 357.774 536.267 353.087 527.092 351.699" stroke="#171717" stroke-width="3" stroke-linecap="round" stroke-linejoin="round"/>
<path d="M686.979 402.314L693.3 387.143" stroke="#171717" stroke-width="3" stroke-linecap="round" stroke-linejoin="round"/>
<path d="M681.99 393.166C687.557 393.909 692.801 396.206 697.121 399.794" stroke="#171717" stroke-width="3" stroke-linecap="round" stroke-linejoin="round"/>
<path d="M743.215 495.856L747.615 485.732" stroke="#171717" stroke-width="3" stroke-linecap="round" stroke-linejoin="round"/>
<path d="M748.953 493.348L740.104 488.291" stroke="#171717" stroke-width="3" stroke-linecap="round" stroke-linejoin="round"/>
<path d="M234.426 553.4C238.188 536.648 247.281 521.568 260.34 510.422" stroke="#171717" stroke-width="3" stroke-linecap="round" stroke-linejoin="round"/>
<path d="M621.375 440.87L617.6 446.519C617.487 446.692 617.324 446.825 617.132 446.901C616.941 446.977 616.731 446.993 616.53 446.945C616.33 446.897 616.149 446.788 616.013 446.633C615.877 446.479 615.791 446.286 615.769 446.081L614.963 439.336C614.94 439.139 614.858 438.954 614.73 438.803C614.601 438.652 614.43 438.544 614.239 438.49L607.7 436.648C607.501 436.594 607.324 436.48 607.193 436.322C607.062 436.163 606.982 435.968 606.966 435.763C606.95 435.557 606.997 435.352 607.102 435.175C607.207 434.998 607.363 434.857 607.551 434.772L613.717 431.92C613.897 431.837 614.048 431.703 614.152 431.534C614.255 431.364 614.306 431.168 614.298 430.97L614.03 424.183C614.02 423.978 614.074 423.774 614.184 423.6C614.294 423.426 614.455 423.29 614.645 423.211C614.835 423.132 615.045 423.114 615.246 423.159C615.447 423.203 615.629 423.309 615.768 423.461L620.385 428.444C620.519 428.59 620.694 428.692 620.887 428.738C621.08 428.785 621.282 428.772 621.468 428.703L627.841 426.35C628.033 426.277 628.244 426.266 628.443 426.317C628.642 426.368 628.821 426.479 628.955 426.636C629.089 426.792 629.171 426.986 629.19 427.191C629.21 427.396 629.166 427.601 629.064 427.78L625.752 433.711C625.655 433.884 625.611 434.082 625.627 434.28C625.643 434.477 625.717 434.666 625.84 434.821L630.047 440.155C630.176 440.316 630.252 440.512 630.265 440.717C630.278 440.923 630.227 441.127 630.12 441.303C630.012 441.478 629.853 441.616 629.665 441.698C629.476 441.78 629.266 441.802 629.065 441.76L622.401 440.443C622.207 440.405 622.006 440.425 621.823 440.501C621.641 440.577 621.485 440.706 621.375 440.87V440.87Z" fill="#171717"/>
<path d="M784.97 582.054C785.561 572.96 783.52 563.888 779.09 555.924" stroke="#171717" stroke-width="3" stroke-linecap="round" stroke-linejoin="round"/>
<path d="M327.331 359.871L316.584 360.478" stroke="#171717" stroke-width="3" stroke-linecap="round" stroke-linejoin="round"/>
<g opacity="0.1">
<path d="M266.022 674.728C268.199 651.44 264.867 628.219 270.743 605.207C275.353 587.153 285.466 569.976 301.294 559.558C318.173 548.447 337.494 549.518 355.272 558.143C375.867 568.137 394.222 583.203 412.857 596.343C423.51 603.852 434.798 612.173 446.669 617.643C456.069 621.971 470.791 624.127 476.375 613.068C476.723 612.43 476.878 611.705 476.821 610.98C476.764 610.255 476.498 609.563 476.055 608.986C475.612 608.41 475.011 607.975 474.326 607.734C473.64 607.493 472.899 607.456 472.193 607.628C467.603 608.689 462.458 609.765 457.793 608.728C452.013 607.441 447.093 603.728 442.467 600.228C432.174 592.45 421.94 584.687 411.392 577.253C392.263 563.769 373.161 548.274 350.681 540.753C331.162 534.222 310.081 536.453 293.129 548.404C277.035 559.75 265.929 576.977 260.242 595.693C256.373 608.439 254.848 621.874 254.52 635.155C254.184 648.785 254.867 662.527 257.826 675.842C258.911 680.729 265.608 679.142 266.02 674.733L266.022 674.728Z" fill="#171717"/>
</g>
<g opacity="0.1">
<path d="M598.855 585.45C606.069 584.111 612.376 579.857 618.741 576.413C625.432 572.792 632.241 569.413 639.087 566.113C645.787 562.881 652.543 559.758 659.406 556.879C665.189 554.452 674.536 552.568 677.661 546.71C677.889 546.299 678.023 545.841 678.051 545.371C678.079 544.902 678.002 544.431 677.824 543.995C677.647 543.559 677.374 543.169 677.026 542.852C676.678 542.535 676.263 542.301 675.812 542.165C669.475 539.665 660.712 544.906 654.895 547.324C647.736 550.3 640.62 553.414 633.648 556.809C626.548 560.266 619.595 564.041 612.742 567.96C606.381 571.599 599.984 575.167 595.52 581.115C593.812 583.391 596.62 585.868 598.855 585.454V585.45Z" fill="#171717"/>
</g>
<g opacity="0.1">
<path d="M272.393 636.799C273.348 653.513 286.779 666.73 300.701 674.585C318.533 684.645 339.522 686.458 359.611 686.45C405.865 686.431 452.229 683.475 498.442 681.685L578.3 678.59C587.923 678.217 587.967 663.2 578.3 663.59L446.528 668.908C424.228 669.808 401.934 670.74 379.643 671.865C359.184 672.899 337.957 675.137 317.943 669.565C299.417 664.41 286.721 652.257 278.681 635.091C277.261 632.06 272.207 633.549 272.392 636.791L272.393 636.799Z" fill="#171717"/>
</g>
<g opacity="0.1">
<path d="M613.754 672.288C618.076 676.903 625.922 676.235 631.754 676.432C638.161 676.647 644.615 676.488 651.019 676.254C664.372 675.923 677.662 674.292 690.7 671.384C701.54 668.827 712.532 664.884 721.813 658.608C726.252 655.468 730.445 651.995 734.357 648.218C738.357 644.518 742.294 641.606 744.445 636.469C745.272 634.494 742.688 633.148 741.14 633.928C736.397 636.317 733.067 640.535 728.46 643.141C724 645.588 719.402 647.773 714.688 649.685C705.058 653.782 695.075 656.995 684.864 659.285C673.089 661.71 661.115 663.042 649.096 663.265C642.673 663.465 636.249 663.365 629.826 663.518C624.37 663.652 617.94 662.984 613.757 667.118C613.087 667.812 612.713 668.739 612.713 669.703C612.713 670.667 613.087 671.594 613.757 672.288H613.754Z" fill="#171717"/>
</g>
</g>
<defs>
<linearGradient id="paint0_linear_510_1403" x1="663.479" y1="549.33" x2="663.479" y2="676.3" gradientUnits="userSpaceOnUse">
<stop stop-color="#FFB800"/>
<stop offset="1" stop-color="#FF7F0A"/>
</linearGradient>
<linearGradient id="paint1_linear_510_1403" x1="424.723" y1="549.656" x2="424.723" y2="685.057" gradientUnits="userSpaceOnUse">
<stop stop-color="#FFB800"/>
<stop offset="1" stop-color="#FF7F0A"/>
</linearGradient>
<linearGradient id="paint2_linear_510_1403" x1="570.196" y1="575.961" x2="570.196" y2="596.061" gradientUnits="userSpaceOnUse">
<stop stop-color="#FFB800"/>
<stop offset="1" stop-color="#FF7F0A"/>
</linearGradient>
<linearGradient id="paint3_linear_510_1403" x1="561.502" y1="547.975" x2="561.502" y2="565.415" gradientUnits="userSpaceOnUse">
<stop stop-color="#FFB800"/>
<stop offset="1" stop-color="#FF7F0A"/>
</linearGradient>
<linearGradient id="paint4_linear_510_1403" x1="541.689" y1="576.461" x2="541.689" y2="618.675" gradientUnits="userSpaceOnUse">
<stop stop-color="#FFB800"/>
<stop offset="1" stop-color="#FF7F0A"/>
</linearGradient>
<linearGradient id="paint5_linear_510_1403" x1="529.09" y1="549.303" x2="529.09" y2="568.743" gradientUnits="userSpaceOnUse">
<stop stop-color="#FFB800"/>
<stop offset="1" stop-color="#FF7F0A"/>
</linearGradient>
<linearGradient id="paint6_linear_510_1403" x1="502.331" y1="559.994" x2="502.331" y2="629.287" gradientUnits="userSpaceOnUse">
<stop stop-color="#FFB800"/>
<stop offset="1" stop-color="#FF7F0A"/>
</linearGradient>
<clipPath id="clip0_510_1403">
<rect width="884" height="510" fill="white" transform="translate(38 225)"/>
</clipPath>
</defs>
</svg>
