<svg width="330" height="198" viewBox="0 0 330 198" fill="none" xmlns="http://www.w3.org/2000/svg">
<g filter="url(#filter0_d_381_2041)">
<g clip-path="url(#clip0_381_2041)">
<path d="M6.57812 28.5762C6.57812 14.463 18.0192 3.02197 32.1324 3.02197H327.024C341.137 3.02197 352.578 14.463 352.578 28.5762V176.468C352.578 190.581 341.137 202.022 327.024 202.022H6.57812V28.5762Z" fill="white" style="fill:white;fill-opacity:1;"/>
<rect width="346" height="37.9995" transform="translate(6.57812 3.02197)" fill="#F2F6FC" fill-opacity="0.46" style="fill:#F2F6FC;fill:color(display-p3 0.9490 0.9647 0.9882);fill-opacity:0.46;"/>
<path d="M25.4588 28.022H24.4367V20.0668H25.6811L29.5475 26.2554H29.592L29.5475 24.7221V20.0668H30.5697V28.022H29.5031L25.4588 21.5334H25.4144L25.4588 23.0667V28.022ZM34.3996 28.1997C33.5996 28.1997 32.9404 27.9257 32.4219 27.3776C31.9034 26.8294 31.6442 26.1369 31.6442 25.2999C31.6442 24.4703 31.896 23.7814 32.3997 23.2333C32.9034 22.6778 33.5478 22.4 34.3329 22.4C35.1403 22.4 35.781 22.663 36.255 23.1889C36.7365 23.7074 36.9772 24.437 36.9772 25.3777L36.9661 25.4888H32.6886C32.7034 26.0221 32.8811 26.4517 33.2219 26.7776C33.5626 27.1035 33.97 27.2665 34.444 27.2665C35.0958 27.2665 35.6069 26.9405 35.9773 26.2887L36.8884 26.7331C36.6439 27.1924 36.3032 27.5516 35.8662 27.8109C35.4366 28.0701 34.9477 28.1997 34.3996 28.1997ZM32.7663 24.6444H35.8884C35.8588 24.2666 35.7032 23.9555 35.4218 23.7111C35.1477 23.4592 34.7773 23.3333 34.3107 23.3333C33.9255 23.3333 33.5922 23.4518 33.3108 23.6889C33.0367 23.9259 32.8552 24.2444 32.7663 24.6444ZM45.4744 22.5778L43.7189 28.022H42.6746L41.3191 23.8444L39.9747 28.022H38.9414L37.1859 22.5778H38.2526L39.4636 26.6887H39.4747L40.8191 22.5778H41.8746L43.219 26.6887H43.2301L44.43 22.5778H45.4744ZM49.7016 28.022H48.6795V20.0668H49.7016L52.4682 24.911H52.5126L55.2791 20.0668H56.3013V28.022H55.2791V23.3L55.3236 21.9667H55.2791L52.7904 26.3332H52.1904L49.7016 21.9667H49.6572L49.7016 23.3V28.022ZM60.1288 28.1997C59.3289 28.1997 58.6696 27.9257 58.1512 27.3776C57.6327 26.8294 57.3734 26.1369 57.3734 25.2999C57.3734 24.4703 57.6253 23.7814 58.1289 23.2333C58.6326 22.6778 59.277 22.4 60.0622 22.4C60.8695 22.4 61.5102 22.663 61.9843 23.1889C62.4658 23.7074 62.7065 24.437 62.7065 25.3777L62.6954 25.4888H58.4178C58.4326 26.0221 58.6104 26.4517 58.9511 26.7776C59.2918 27.1035 59.6992 27.2665 60.1733 27.2665C60.8251 27.2665 61.3362 26.9405 61.7065 26.2887L62.6176 26.7331C62.3732 27.1924 62.0324 27.5516 61.5954 27.8109C61.1658 28.0701 60.677 28.1997 60.1288 28.1997ZM58.4956 24.6444H61.6176C61.588 24.2666 61.4325 23.9555 61.151 23.7111C60.8769 23.4592 60.5066 23.3333 60.0399 23.3333C59.6548 23.3333 59.3215 23.4518 59.04 23.6889C58.7659 23.9259 58.5845 24.2444 58.4956 24.6444ZM67.8221 26.5109C67.8221 26.985 67.6148 27.385 67.2 27.7109C66.7852 28.0368 66.263 28.1997 65.6334 28.1997C65.0852 28.1997 64.6038 28.059 64.189 27.7775C63.7742 27.4887 63.4779 27.1109 63.3002 26.6443L64.2112 26.2554C64.3445 26.5813 64.5371 26.8368 64.789 27.022C65.0482 27.1998 65.3297 27.2887 65.6334 27.2887C65.9593 27.2887 66.2296 27.2183 66.4444 27.0776C66.6667 26.9368 66.7778 26.7702 66.7778 26.5776C66.7778 26.2295 66.5111 25.9739 65.9778 25.811L65.0445 25.5777C63.9853 25.311 63.4557 24.7999 63.4557 24.0444C63.4557 23.5481 63.6557 23.1518 64.0557 22.8556C64.4631 22.5519 64.9816 22.4 65.6111 22.4C66.0926 22.4 66.5259 22.5148 66.9111 22.7445C67.3037 22.9741 67.5777 23.2815 67.7333 23.6666L66.8222 24.0444C66.7185 23.8148 66.5481 23.637 66.3111 23.5111C66.0815 23.3778 65.8222 23.3111 65.5334 23.3111C65.2667 23.3111 65.026 23.3778 64.8112 23.5111C64.6038 23.6444 64.5001 23.8074 64.5001 24C64.5001 24.311 64.7927 24.5333 65.3778 24.6666L66.2 24.8777C67.2814 25.1443 67.8221 25.6888 67.8221 26.5109ZM72.8385 26.5109C72.8385 26.985 72.6311 27.385 72.2163 27.7109C71.8015 28.0368 71.2793 28.1997 70.6497 28.1997C70.1016 28.1997 69.6202 28.059 69.2054 27.7775C68.7906 27.4887 68.4943 27.1109 68.3165 26.6443L69.2276 26.2554C69.3609 26.5813 69.5535 26.8368 69.8053 27.022C70.0646 27.1998 70.3461 27.2887 70.6497 27.2887C70.9756 27.2887 71.246 27.2183 71.4608 27.0776C71.683 26.9368 71.7941 26.7702 71.7941 26.5776C71.7941 26.2295 71.5275 25.9739 70.9942 25.811L70.0609 25.5777C69.0017 25.311 68.4721 24.7999 68.4721 24.0444C68.4721 23.5481 68.6721 23.1518 69.072 22.8556C69.4794 22.5519 69.9979 22.4 70.6275 22.4C71.109 22.4 71.5423 22.5148 71.9275 22.7445C72.32 22.9741 72.5941 23.2815 72.7496 23.6666L71.8386 24.0444C71.7349 23.8148 71.5645 23.637 71.3275 23.5111C71.0979 23.3778 70.8386 23.3111 70.5497 23.3111C70.2831 23.3111 70.0424 23.3778 69.8276 23.5111C69.6202 23.6444 69.5165 23.8074 69.5165 24C69.5165 24.311 69.809 24.5333 70.3942 24.6666L71.2164 24.8777C72.2978 25.1443 72.8385 25.6888 72.8385 26.5109ZM74.4871 26.3554C74.4871 26.622 74.5982 26.8443 74.8204 27.022C75.05 27.1998 75.3167 27.2887 75.6204 27.2887C76.05 27.2887 76.4314 27.1294 76.7647 26.8109C77.1055 26.4924 77.2758 26.1184 77.2758 25.6888C76.9573 25.4369 76.5129 25.311 75.9426 25.311C75.5278 25.311 75.1796 25.411 74.8982 25.611C74.6241 25.811 74.4871 26.0591 74.4871 26.3554ZM75.8092 22.4C76.5648 22.4 77.161 22.6037 77.598 23.0111C78.0351 23.4111 78.2536 23.9629 78.2536 24.6666V28.022H77.2758V27.2665H77.2314C76.8092 27.8886 76.2463 28.1997 75.5426 28.1997C74.9426 28.1997 74.4389 28.022 74.0316 27.6664C73.6316 27.3109 73.4316 26.8665 73.4316 26.3332C73.4316 25.7702 73.6427 25.3221 74.0649 24.9888C74.4945 24.6555 75.0648 24.4888 75.7759 24.4888C76.3833 24.4888 76.8833 24.5999 77.2758 24.8221V24.5888C77.2758 24.2333 77.1351 23.9333 76.8536 23.6889C76.5722 23.437 76.2426 23.3111 75.8648 23.3111C75.2945 23.3111 74.8426 23.5518 74.5093 24.0333L73.6094 23.4666C74.1056 22.7556 74.8389 22.4 75.8092 22.4ZM81.7567 27.2665C82.2604 27.2665 82.6715 27.085 82.99 26.722C83.3233 26.3591 83.49 25.885 83.49 25.2999C83.49 24.7295 83.3233 24.2592 82.99 23.8888C82.6641 23.5185 82.253 23.3333 81.7567 23.3333C81.2679 23.3333 80.8568 23.5185 80.5235 23.8888C80.1901 24.2592 80.0235 24.7295 80.0235 25.2999C80.0235 25.8776 80.1901 26.348 80.5235 26.7109C80.8568 27.0813 81.2679 27.2665 81.7567 27.2665ZM81.7234 30.5996C81.4197 30.5996 81.1345 30.5589 80.8679 30.4774C80.6012 30.4033 80.3568 30.2959 80.1346 30.1552C79.9198 30.0145 79.7346 29.8478 79.5791 29.6552C79.4235 29.4626 79.305 29.2478 79.2235 29.0108L80.1901 28.6108C80.3012 28.9293 80.4938 29.1849 80.7679 29.3775C81.0419 29.57 81.3604 29.6663 81.7234 29.6663C82.2789 29.6663 82.7122 29.4997 83.0233 29.1664C83.3344 28.833 83.49 28.3738 83.49 27.7887V27.2665H83.4455C83.2529 27.5553 82.99 27.7849 82.6567 27.9553C82.3308 28.1183 81.9752 28.1997 81.5901 28.1997C80.879 28.1997 80.2679 27.922 79.7568 27.3664C79.2531 26.7961 79.0013 26.1073 79.0013 25.2999C79.0013 24.4925 79.2531 23.8074 79.7568 23.2444C80.2679 22.6815 80.879 22.4 81.5901 22.4C81.9752 22.4 82.3308 22.4852 82.6567 22.6556C82.99 22.8185 83.2529 23.0444 83.4455 23.3333H83.49V22.5778H84.4677V27.7887C84.4677 28.6627 84.2196 29.3478 83.7233 29.8441C83.2196 30.3478 82.553 30.5996 81.7234 30.5996ZM88.0643 28.1997C87.2643 28.1997 86.6051 27.9257 86.0866 27.3776C85.5681 26.8294 85.3088 26.1369 85.3088 25.2999C85.3088 24.4703 85.5607 23.7814 86.0644 23.2333C86.568 22.6778 87.2124 22.4 87.9976 22.4C88.805 22.4 89.4457 22.663 89.9197 23.1889C90.4012 23.7074 90.6419 24.437 90.6419 25.3777L90.6308 25.4888H86.3532C86.368 26.0221 86.5458 26.4517 86.8865 26.7776C87.2273 27.1035 87.6347 27.2665 88.1087 27.2665C88.7605 27.2665 89.2716 26.9405 89.642 26.2887L90.553 26.7331C90.3086 27.1924 89.9679 27.5516 89.5309 27.8109C89.1012 28.0701 88.6124 28.1997 88.0643 28.1997ZM86.431 24.6444H89.5531C89.5234 24.2666 89.3679 23.9555 89.0864 23.7111C88.8124 23.4592 88.442 23.3333 87.9754 23.3333C87.5902 23.3333 87.2569 23.4518 86.9754 23.6889C86.7014 23.9259 86.5199 24.2444 86.431 24.6444Z" fill="#161616" style="fill:#161616;fill:color(display-p3 0.0845 0.0845 0.0845);fill-opacity:1;"/>
<path d="M26.3952 52.2614C28.2032 52.2614 29.2112 53.2854 29.2112 55.1094C29.2112 56.9254 28.2192 57.9414 26.4432 57.9414H24.5232V52.2614H26.3952ZM25.5312 57.0534H26.3952C27.5952 57.0534 28.1792 56.4134 28.1792 55.1094C28.1792 53.7814 27.5952 53.1494 26.3952 53.1494H25.5312V57.0534ZM33.4289 52.2614C34.6049 52.2614 35.4289 52.8934 35.4289 53.9734C35.4289 54.6694 34.9889 55.1654 34.4289 55.3174C35.0129 55.3974 35.2769 55.6854 35.3329 56.2934L35.4769 57.9414H34.4609L34.3409 56.4374C34.3009 55.9414 34.0049 55.7814 33.2769 55.7814H32.0849V57.9414H31.0769V52.2614H33.4289ZM32.0849 54.8934H33.3249C34.0049 54.8934 34.3889 54.5814 34.3889 54.0214C34.3889 53.4614 34.0049 53.1494 33.3249 53.1494H32.0849V54.8934ZM37.0571 57.9414L39.1051 52.2614H40.3051L42.3531 57.9414H41.3131L40.8411 56.5654H38.5691L38.0971 57.9414H37.0571ZM38.8731 55.6934H40.5371L39.7051 53.2614L38.8731 55.6934ZM44.1532 52.2614H47.9292V53.1494H45.1612V54.7254H47.7852V55.5974H45.1612V57.9414H44.1532V52.2614ZM53.9103 52.2614V53.1494H52.1903V57.9414H51.1823V53.1494H49.4543V52.2614H53.9103ZM55.7451 52.2614H59.5371V53.1494H56.7531V54.6534H59.4411V55.5254H56.7531V57.0534H59.6011V57.9414H55.7451V52.2614ZM63.4989 52.2614C65.3069 52.2614 66.3149 53.2854 66.3149 55.1094C66.3149 56.9254 65.3229 57.9414 63.5469 57.9414H61.6269V52.2614H63.4989ZM62.6349 57.0534H63.4989C64.6989 57.0534 65.2829 56.4134 65.2829 55.1094C65.2829 53.7814 64.6989 53.1494 63.4989 53.1494H62.6349V57.0534ZM71.1485 57.9414V52.2614H73.1725C74.6365 52.2614 75.3645 52.7654 75.3645 53.8374C75.3645 54.5014 74.9565 54.9174 74.2685 54.9974C75.1165 55.0854 75.6045 55.5654 75.6045 56.3334C75.6045 57.3734 74.8605 57.9414 73.4925 57.9414H71.1485ZM72.1565 57.0694H73.5085C74.1725 57.0694 74.5725 56.7974 74.5725 56.2694C74.5725 55.7414 74.1725 55.4534 73.5085 55.4534H72.1565V57.0694ZM72.1565 54.6454H73.2285C73.9245 54.6454 74.3325 54.3894 74.3325 53.8934C74.3325 53.3734 73.9485 53.1254 73.2285 53.1254H72.1565V54.6454ZM76.9646 52.2614H78.0766L79.4366 54.6934L80.7966 52.2614H81.9006L79.9406 55.6854V57.9414H78.9326V55.6854L76.9646 52.2614ZM86.1034 57.9414L88.1514 52.2614H89.3514L91.3994 57.9414H90.3594L89.8874 56.5654H87.6154L87.1434 57.9414H86.1034ZM87.9194 55.6934H89.5834L88.7514 53.2614L87.9194 55.6934ZM93.1994 52.2614H94.2074V57.9414H93.1994V52.2614ZM96.4639 56.8774H97.5839V57.9414H96.4639V56.8774ZM96.4639 55.2614V54.1974H97.5839V55.2614H96.4639Z" fill="#252525" style="fill:#252525;fill:color(display-p3 0.1465 0.1465 0.1465);fill-opacity:1;"/>
<path d="M26.3952 52.2614C28.2032 52.2614 29.2112 53.2854 29.2112 55.1094C29.2112 56.9254 28.2192 57.9414 26.4432 57.9414H24.5232V52.2614H26.3952ZM25.5312 57.0534H26.3952C27.5952 57.0534 28.1792 56.4134 28.1792 55.1094C28.1792 53.7814 27.5952 53.1494 26.3952 53.1494H25.5312V57.0534ZM33.4289 52.2614C34.6049 52.2614 35.4289 52.8934 35.4289 53.9734C35.4289 54.6694 34.9889 55.1654 34.4289 55.3174C35.0129 55.3974 35.2769 55.6854 35.3329 56.2934L35.4769 57.9414H34.4609L34.3409 56.4374C34.3009 55.9414 34.0049 55.7814 33.2769 55.7814H32.0849V57.9414H31.0769V52.2614H33.4289ZM32.0849 54.8934H33.3249C34.0049 54.8934 34.3889 54.5814 34.3889 54.0214C34.3889 53.4614 34.0049 53.1494 33.3249 53.1494H32.0849V54.8934ZM37.0571 57.9414L39.1051 52.2614H40.3051L42.3531 57.9414H41.3131L40.8411 56.5654H38.5691L38.0971 57.9414H37.0571ZM38.8731 55.6934H40.5371L39.7051 53.2614L38.8731 55.6934ZM44.1532 52.2614H47.9292V53.1494H45.1612V54.7254H47.7852V55.5974H45.1612V57.9414H44.1532V52.2614ZM53.9103 52.2614V53.1494H52.1903V57.9414H51.1823V53.1494H49.4543V52.2614H53.9103ZM55.7451 52.2614H59.5371V53.1494H56.7531V54.6534H59.4411V55.5254H56.7531V57.0534H59.6011V57.9414H55.7451V52.2614ZM63.4989 52.2614C65.3069 52.2614 66.3149 53.2854 66.3149 55.1094C66.3149 56.9254 65.3229 57.9414 63.5469 57.9414H61.6269V52.2614H63.4989ZM62.6349 57.0534H63.4989C64.6989 57.0534 65.2829 56.4134 65.2829 55.1094C65.2829 53.7814 64.6989 53.1494 63.4989 53.1494H62.6349V57.0534ZM71.1485 57.9414V52.2614H73.1725C74.6365 52.2614 75.3645 52.7654 75.3645 53.8374C75.3645 54.5014 74.9565 54.9174 74.2685 54.9974C75.1165 55.0854 75.6045 55.5654 75.6045 56.3334C75.6045 57.3734 74.8605 57.9414 73.4925 57.9414H71.1485ZM72.1565 57.0694H73.5085C74.1725 57.0694 74.5725 56.7974 74.5725 56.2694C74.5725 55.7414 74.1725 55.4534 73.5085 55.4534H72.1565V57.0694ZM72.1565 54.6454H73.2285C73.9245 54.6454 74.3325 54.3894 74.3325 53.8934C74.3325 53.3734 73.9485 53.1254 73.2285 53.1254H72.1565V54.6454ZM76.9646 52.2614H78.0766L79.4366 54.6934L80.7966 52.2614H81.9006L79.9406 55.6854V57.9414H78.9326V55.6854L76.9646 52.2614ZM86.1034 57.9414L88.1514 52.2614H89.3514L91.3994 57.9414H90.3594L89.8874 56.5654H87.6154L87.1434 57.9414H86.1034ZM87.9194 55.6934H89.5834L88.7514 53.2614L87.9194 55.6934ZM93.1994 52.2614H94.2074V57.9414H93.1994V52.2614ZM96.4639 56.8774H97.5839V57.9414H96.4639V56.8774ZM96.4639 55.2614V54.1974H97.5839V55.2614H96.4639Z" fill="url(#paint0_linear_381_2041)" fill-opacity="0.67" style=""/>
<path d="M26.3952 52.2614C28.2032 52.2614 29.2112 53.2854 29.2112 55.1094C29.2112 56.9254 28.2192 57.9414 26.4432 57.9414H24.5232V52.2614H26.3952ZM25.5312 57.0534H26.3952C27.5952 57.0534 28.1792 56.4134 28.1792 55.1094C28.1792 53.7814 27.5952 53.1494 26.3952 53.1494H25.5312V57.0534ZM33.4289 52.2614C34.6049 52.2614 35.4289 52.8934 35.4289 53.9734C35.4289 54.6694 34.9889 55.1654 34.4289 55.3174C35.0129 55.3974 35.2769 55.6854 35.3329 56.2934L35.4769 57.9414H34.4609L34.3409 56.4374C34.3009 55.9414 34.0049 55.7814 33.2769 55.7814H32.0849V57.9414H31.0769V52.2614H33.4289ZM32.0849 54.8934H33.3249C34.0049 54.8934 34.3889 54.5814 34.3889 54.0214C34.3889 53.4614 34.0049 53.1494 33.3249 53.1494H32.0849V54.8934ZM37.0571 57.9414L39.1051 52.2614H40.3051L42.3531 57.9414H41.3131L40.8411 56.5654H38.5691L38.0971 57.9414H37.0571ZM38.8731 55.6934H40.5371L39.7051 53.2614L38.8731 55.6934ZM44.1532 52.2614H47.9292V53.1494H45.1612V54.7254H47.7852V55.5974H45.1612V57.9414H44.1532V52.2614ZM53.9103 52.2614V53.1494H52.1903V57.9414H51.1823V53.1494H49.4543V52.2614H53.9103ZM55.7451 52.2614H59.5371V53.1494H56.7531V54.6534H59.4411V55.5254H56.7531V57.0534H59.6011V57.9414H55.7451V52.2614ZM63.4989 52.2614C65.3069 52.2614 66.3149 53.2854 66.3149 55.1094C66.3149 56.9254 65.3229 57.9414 63.5469 57.9414H61.6269V52.2614H63.4989ZM62.6349 57.0534H63.4989C64.6989 57.0534 65.2829 56.4134 65.2829 55.1094C65.2829 53.7814 64.6989 53.1494 63.4989 53.1494H62.6349V57.0534ZM71.1485 57.9414V52.2614H73.1725C74.6365 52.2614 75.3645 52.7654 75.3645 53.8374C75.3645 54.5014 74.9565 54.9174 74.2685 54.9974C75.1165 55.0854 75.6045 55.5654 75.6045 56.3334C75.6045 57.3734 74.8605 57.9414 73.4925 57.9414H71.1485ZM72.1565 57.0694H73.5085C74.1725 57.0694 74.5725 56.7974 74.5725 56.2694C74.5725 55.7414 74.1725 55.4534 73.5085 55.4534H72.1565V57.0694ZM72.1565 54.6454H73.2285C73.9245 54.6454 74.3325 54.3894 74.3325 53.8934C74.3325 53.3734 73.9485 53.1254 73.2285 53.1254H72.1565V54.6454ZM76.9646 52.2614H78.0766L79.4366 54.6934L80.7966 52.2614H81.9006L79.9406 55.6854V57.9414H78.9326V55.6854L76.9646 52.2614ZM86.1034 57.9414L88.1514 52.2614H89.3514L91.3994 57.9414H90.3594L89.8874 56.5654H87.6154L87.1434 57.9414H86.1034ZM87.9194 55.6934H89.5834L88.7514 53.2614L87.9194 55.6934ZM93.1994 52.2614H94.2074V57.9414H93.1994V52.2614ZM96.4639 56.8774H97.5839V57.9414H96.4639V56.8774ZM96.4639 55.2614V54.1974H97.5839V55.2614H96.4639Z" fill="url(#paint1_linear_381_2041)" style=""/>
<path d="M26.1404 70.5867H27.8025V87.9414H26.1404V70.5867ZM33.5927 72.8844L32.3461 76.4042H31.3439L32.2239 72.8844H31.3684V70.5867H33.5927V72.8844ZM47.2164 70.5867V87.9414H45.7987L45.7253 85.6437C44.9432 87.257 43.4277 88.2347 41.4478 88.2347C37.8302 88.2347 35.9969 85.2282 35.9969 81.464C35.9969 77.7241 37.8302 74.7176 41.4478 74.7176C43.3788 74.7176 44.8943 75.6465 45.6031 77.1619V70.5867H47.2164ZM37.6835 81.464C37.6835 84.3483 38.979 86.6948 41.7411 86.6948C44.3565 86.6948 45.7498 84.226 45.7498 81.464C45.7498 78.653 44.3565 76.2087 41.7411 76.2087C38.979 76.2087 37.6835 78.5308 37.6835 81.464ZM57.5748 70.5867H59.188V85.546C59.188 86.1815 59.5302 86.4993 60.1902 86.4993H61.1924V87.9414H60.0435C58.5036 87.9414 57.5748 87.037 57.5748 85.6193V70.5867ZM68.9067 88.2347C65.2891 88.2347 63.1136 85.4238 63.1136 81.464C63.1136 77.5042 65.2891 74.6932 68.9067 74.6932C72.5243 74.6932 74.6753 77.5042 74.6753 81.464C74.6753 85.4238 72.5243 88.2347 68.9067 88.2347ZM64.8002 81.464C64.8002 84.7149 66.3401 86.6948 68.9067 86.6948C71.4488 86.6948 72.9887 84.7149 72.9887 81.464C72.9887 78.213 71.4488 76.2331 68.9067 76.2331C66.3401 76.2331 64.8002 78.213 64.8002 81.464ZM87.3355 74.9865L82.5691 87.9414H80.5648L75.7983 74.9865H77.5094L81.5669 86.2548L85.6245 74.9865H87.3355ZM88.4401 81.464C88.4401 77.5042 90.6155 74.6932 94.2331 74.6932C97.3618 74.6932 99.6595 76.9908 99.8062 81.2684L99.8306 81.9528H90.1511C90.2977 84.9104 91.7888 86.6948 94.2331 86.6948C95.7975 86.6948 97.1907 85.7415 97.8263 84.2016L99.5617 84.3238C98.804 86.7437 96.6774 88.2347 94.2331 88.2347C90.6155 88.2347 88.4401 85.4238 88.4401 81.464ZM90.2 80.4862H98.0462C97.7529 77.553 96.1886 76.2331 94.2331 76.2331C91.9354 76.2331 90.4688 77.8219 90.2 80.4862ZM110.623 72.0533H112.236V74.9865H115.585V76.4531H112.236V84.7638C112.236 85.9126 112.798 86.4993 113.849 86.4993H115.56V87.9414H113.849C111.796 87.9414 110.623 86.7926 110.623 84.7638V76.4531H108.594V74.9865H110.623V72.0533ZM123.045 88.2347C119.427 88.2347 117.252 85.4238 117.252 81.464C117.252 77.5042 119.427 74.6932 123.045 74.6932C126.662 74.6932 128.813 77.5042 128.813 81.464C128.813 85.4238 126.662 88.2347 123.045 88.2347ZM118.938 81.464C118.938 84.7149 120.478 86.6948 123.045 86.6948C125.587 86.6948 127.127 84.7149 127.127 81.464C127.127 78.213 125.587 76.2331 123.045 76.2331C120.478 76.2331 118.938 78.213 118.938 81.464ZM138.208 74.9865H139.674L139.748 77.3819C140.285 75.7198 141.752 74.6932 143.634 74.6932C145.443 74.6932 146.787 75.7931 147.3 77.6753C147.863 75.7931 149.329 74.6932 151.358 74.6932C153.851 74.6932 155.391 76.5753 155.391 79.6307V87.9414H153.778V80.2173C153.778 77.6508 152.751 76.1598 151.04 76.1598C148.938 76.1598 147.594 77.773 147.594 80.2662V87.9414H145.981V80.1929C145.981 77.6753 144.978 76.1598 143.292 76.1598C141.214 76.1598 139.821 77.773 139.821 80.1929V87.9414H138.208V74.9865ZM158.118 81.464C158.118 77.5042 160.293 74.6932 163.911 74.6932C167.039 74.6932 169.337 76.9908 169.484 81.2684L169.508 81.9528H159.829C159.975 84.9104 161.466 86.6948 163.911 86.6948C165.475 86.6948 166.868 85.7415 167.504 84.2016L169.239 84.3238C168.481 86.7437 166.355 88.2347 163.911 88.2347C160.293 88.2347 158.118 85.4238 158.118 81.464ZM159.877 80.4862H167.724C167.43 77.553 165.866 76.2331 163.911 76.2331C161.613 76.2331 160.146 77.8219 159.877 80.4862ZM171.843 81.464C171.843 77.5042 174.018 74.6932 177.636 74.6932C180.765 74.6932 183.062 76.9908 183.209 81.2684L183.234 81.9528H173.554C173.701 84.9104 175.192 86.6948 177.636 86.6948C179.2 86.6948 180.594 85.7415 181.229 84.2016L182.965 84.3238C182.207 86.7437 180.08 88.2347 177.636 88.2347C174.018 88.2347 171.843 85.4238 171.843 81.464ZM173.603 80.4862H181.449C181.156 77.553 179.591 76.2331 177.636 76.2331C175.338 76.2331 173.872 77.8219 173.603 80.4862ZM187.223 72.0533H188.836V74.9865H192.185V76.4531H188.836V84.7638C188.836 85.9126 189.398 86.4993 190.449 86.4993H192.16V87.9414H190.449C188.396 87.9414 187.223 86.7926 187.223 84.7638V76.4531H185.194V74.9865H187.223V72.0533ZM200.612 78.7996C201.101 76.2575 203.032 74.6932 205.769 74.6932C209.069 74.6932 210.829 76.5998 210.829 80.1196V85.4482C210.829 86.1815 211.098 86.4748 211.734 86.4748H212.222V87.9414H211.489C210.218 87.9414 209.191 87.4525 209.24 85.6682C208.58 87.1348 206.992 88.2103 204.914 88.2347C202.323 88.2103 200.392 86.8415 200.392 84.6171C200.392 82.0506 202.47 81.3173 205.134 80.804L209.216 80.0218C209.191 77.4308 208.092 76.2331 205.769 76.2331C203.912 76.2331 202.714 77.2108 202.323 78.9463L200.612 78.7996ZM202.078 84.6171C202.078 85.8882 203.154 86.817 205.183 86.7681C207.505 86.7437 209.289 85.0571 209.265 82.1239V81.464L205.916 82.075C203.912 82.4172 202.078 82.6861 202.078 84.6171ZM215.437 72.0533H217.051V74.9865H220.399V76.4531H217.051V84.7638C217.051 85.9126 217.613 86.4993 218.664 86.4993H220.375V87.9414H218.664C216.611 87.9414 215.437 86.7926 215.437 84.7638V76.4531H213.409V74.9865H215.437V72.0533ZM36.0155 100.587V102.2H28.1448L27.3137 108.213C28.1692 107.089 29.8313 106.404 31.4201 106.404C34.7933 106.404 37.1643 108.897 37.1643 112.368C37.1643 115.864 34.6711 118.332 31.2246 118.332C27.8759 118.332 25.3582 116.353 25.0893 113.566L26.8248 113.444C27.1181 115.473 28.9514 116.695 31.2979 116.695C33.7422 116.695 35.4288 114.91 35.4288 112.368C35.4288 109.728 33.6934 107.993 31.0535 107.993C29.3425 107.993 27.827 108.824 27.1915 110.217H25.3582L26.6782 100.587H36.0155ZM40.4825 121.608V104.986H41.9002L41.9735 107.333C42.7312 105.671 44.2467 104.693 46.1777 104.693C49.8687 104.693 51.7019 107.7 51.7019 111.464C51.7019 115.204 49.8687 118.21 46.1777 118.21C44.3201 118.21 42.8046 117.257 42.0957 115.717V121.608H40.4825ZM41.9246 111.464C41.9246 114.202 43.3179 116.646 45.9333 116.646C48.6709 116.646 49.9664 114.324 49.9664 111.464C49.9664 108.58 48.6709 106.233 45.9333 106.233C43.3179 106.233 41.9246 108.702 41.9246 111.464ZM54.9001 104.986H56.3667L56.4401 107.382C56.9778 105.72 58.4444 104.693 60.3265 104.693C62.1353 104.693 63.4797 105.793 63.993 107.675C64.5552 105.793 66.0218 104.693 68.0506 104.693C70.5438 104.693 72.0837 106.575 72.0837 109.631V117.941H70.4705V110.217C70.4705 107.651 69.4439 106.16 67.7328 106.16C65.6307 106.16 64.2863 107.773 64.2863 110.266V117.941H62.6731V110.193C62.6731 107.675 61.6709 106.16 59.9843 106.16C57.9067 106.16 56.5134 107.773 56.5134 110.193V117.941H54.9001V104.986ZM82.2555 104.986H83.7221L83.7955 107.382C84.4065 105.524 86.0442 104.693 87.9264 104.693C90.8351 104.693 92.2528 106.869 92.2528 109.606V117.941H90.6396V110.193C90.6396 107.675 89.7596 106.16 87.5842 106.16C85.2865 106.16 83.8688 107.675 83.8688 110.193V117.941H82.2555V104.986ZM94.9805 111.464C94.9805 107.504 97.156 104.693 100.774 104.693C103.902 104.693 106.2 106.991 106.347 111.268L106.371 111.953H96.6916C96.8382 114.91 98.3293 116.695 100.774 116.695C102.338 116.695 103.731 115.742 104.367 114.202L106.102 114.324C105.344 116.744 103.218 118.235 100.774 118.235C97.156 118.235 94.9805 115.424 94.9805 111.464ZM96.7404 110.486H104.587C104.293 107.553 102.729 106.233 100.774 106.233C98.4759 106.233 97.0093 107.822 96.7404 110.486ZM116.875 104.986H118.855L114.333 111.366L119.05 117.941H117.095L113.282 112.564L109.468 117.941H107.489L112.255 111.342L107.709 104.986H109.688L113.282 110.144L116.875 104.986ZM123.465 102.053H125.078V104.986H128.427V106.453H125.078V114.764C125.078 115.913 125.641 116.499 126.692 116.499H128.403V117.941H126.692C124.638 117.941 123.465 116.793 123.465 114.764V106.453H121.436V104.986H123.465V102.053ZM146.167 104.986L149.443 116.157L152.865 104.986H154.576L150.469 117.941H148.44L145.312 107.455L142.158 117.941H140.154L136.023 104.986H137.759L141.156 116.157L144.456 104.986H146.167ZM155.683 111.464C155.683 107.504 157.858 104.693 161.476 104.693C164.605 104.693 166.902 106.991 167.049 111.268L167.073 111.953H157.394C157.54 114.91 159.032 116.695 161.476 116.695C163.04 116.695 164.433 115.742 165.069 114.202L166.804 114.324C166.047 116.744 163.92 118.235 161.476 118.235C157.858 118.235 155.683 115.424 155.683 111.464ZM157.443 110.486H165.289C164.996 107.553 163.431 106.233 161.476 106.233C159.178 106.233 157.712 107.822 157.443 110.486ZM169.408 111.464C169.408 107.504 171.584 104.693 175.201 104.693C178.33 104.693 180.628 106.991 180.774 111.268L180.799 111.953H171.119C171.266 114.91 172.757 116.695 175.201 116.695C176.766 116.695 178.159 115.742 178.794 114.202L180.53 114.324C179.772 116.744 177.646 118.235 175.201 118.235C171.584 118.235 169.408 115.424 169.408 111.464ZM171.168 110.486H179.014C178.721 107.553 177.157 106.233 175.201 106.233C172.904 106.233 171.437 107.822 171.168 110.486ZM183.991 100.587H185.604V112.368L192.546 104.986H194.77L189.442 110.511L195.088 117.941H193.108L188.342 111.611L185.604 114.446V117.941H183.991V100.587ZM197.945 100.587H199.607V106.38C199.607 108.629 199.412 110.682 199.314 112.931H198.239C198.141 110.682 197.945 108.629 197.945 106.38V100.587ZM197.603 117.941V115.644H199.827V117.941H197.603Z" fill="#4F4F4F" style="fill:#4F4F4F;fill:color(display-p3 0.3098 0.3098 0.3098);fill-opacity:1;"/>
<rect x="19.3711" y="142.862" width="62" height="28" rx="14" fill="#0E57CB" style="fill:#0E57CB;fill:color(display-p3 0.0549 0.3412 0.7961);fill-opacity:1;"/>
<path d="M43.5315 158.627C43.5315 159.36 43.2625 159.949 42.7244 160.394C42.1786 160.83 41.5157 161.049 40.7359 161.049C40.0419 161.049 39.4297 160.846 38.8995 160.44C38.3692 160.035 38.0027 159.481 37.7999 158.779L38.8293 158.358C38.8995 158.608 38.9969 158.834 39.1217 159.037C39.2465 159.24 39.3907 159.415 39.5545 159.563C39.7261 159.704 39.9132 159.817 40.116 159.902C40.3187 159.98 40.5332 160.019 40.7593 160.019C41.2506 160.019 41.6522 159.895 41.9641 159.645C42.276 159.388 42.432 159.049 42.432 158.627C42.432 158.276 42.3033 157.976 42.046 157.727C41.8043 157.485 41.352 157.251 40.6891 157.025C40.0185 156.783 39.6013 156.619 39.4375 156.534C38.5485 156.081 38.104 155.415 38.104 154.533C38.104 153.917 38.3497 153.391 38.841 152.954C39.34 152.518 39.9522 152.299 40.6774 152.299C41.3169 152.299 41.8705 152.463 42.3384 152.791C42.8063 153.11 43.1182 153.512 43.2742 153.995L42.2682 154.416C42.1747 154.104 41.9875 153.847 41.7068 153.644C41.4338 153.434 41.0985 153.329 40.7008 153.329C40.2797 153.329 39.9249 153.446 39.6364 153.679C39.3478 153.898 39.2036 154.182 39.2036 154.533C39.2036 154.822 39.3167 155.071 39.5428 155.282C39.7923 155.493 40.3343 155.742 41.1687 156.031C42.0187 156.319 42.6231 156.674 42.9818 157.095C43.3483 157.508 43.5315 158.019 43.5315 158.627ZM47.1756 161.049C46.3334 161.049 45.6394 160.76 45.0935 160.183C44.5477 159.606 44.2747 158.877 44.2747 157.996C44.2747 157.122 44.5399 156.397 45.0701 155.82C45.6004 155.235 46.2788 154.943 47.1054 154.943C47.9554 154.943 48.63 155.22 49.1291 155.773C49.6359 156.319 49.8894 157.087 49.8894 158.078L49.8777 158.195H45.3743C45.3899 158.756 45.577 159.208 45.9357 159.551C46.2944 159.895 46.7233 160.066 47.2224 160.066C47.9087 160.066 48.4467 159.723 48.8366 159.037L49.7958 159.505C49.5385 159.988 49.1798 160.366 48.7197 160.639C48.2674 160.912 47.7527 161.049 47.1756 161.049ZM45.4561 157.306H48.7431C48.7119 156.908 48.5481 156.58 48.2518 156.323C47.9632 156.058 47.5733 155.925 47.0821 155.925C46.6766 155.925 46.3256 156.05 46.0293 156.3C45.7408 156.549 45.5497 156.885 45.4561 157.306ZM50.8361 155.13H51.8654V155.925H51.9122C52.076 155.645 52.3255 155.411 52.6608 155.224C53.004 155.036 53.3588 154.943 53.7253 154.943C54.4271 154.943 54.9652 155.146 55.3395 155.551C55.7216 155.949 55.9127 156.518 55.9127 157.259V160.862H54.8365V157.329C54.8131 156.393 54.3413 155.925 53.4212 155.925C52.9923 155.925 52.6336 156.101 52.345 156.452C52.0565 156.795 51.9122 157.208 51.9122 157.692V160.862H50.8361V155.13ZM59.7118 160.066C60.2421 160.066 60.6749 159.875 61.0102 159.493C61.3611 159.111 61.5366 158.612 61.5366 157.996C61.5366 157.395 61.3611 156.9 61.0102 156.51C60.6671 156.12 60.2343 155.925 59.7118 155.925C59.1972 155.925 58.7644 156.12 58.4135 156.51C58.0625 156.9 57.8871 157.395 57.8871 157.996C57.8871 158.604 58.0625 159.099 58.4135 159.481C58.7644 159.871 59.1972 160.066 59.7118 160.066ZM59.5364 161.049C58.7878 161.049 58.1444 160.752 57.6063 160.16C57.0761 159.559 56.8109 158.838 56.8109 157.996C56.8109 157.154 57.0761 156.432 57.6063 155.832C58.1444 155.239 58.7878 154.943 59.5364 154.943C59.9575 154.943 60.3396 155.032 60.6827 155.212C61.0336 155.391 61.3027 155.629 61.4898 155.925H61.5366L61.4898 155.13V152.486H62.566V160.862H61.5366V160.066H61.4898C61.3027 160.362 61.0336 160.6 60.6827 160.78C60.3396 160.959 59.9575 161.049 59.5364 161.049Z" fill="white" style="fill:white;fill-opacity:1;"/>
<g clip-path="url(#clip1_381_2041)">
<path fill-rule="evenodd" clip-rule="evenodd" d="M68.7359 181.382C69.8409 181.382 70.8017 181.152 71.6163 180.692C72.4331 180.231 73.0639 179.557 73.5077 178.668C73.9526 177.778 74.1751 176.69 74.1751 175.4V173.676C74.1751 172.875 74.0498 172.26 73.7991 171.828C73.5485 171.397 73.1871 171.18 72.7182 171.18V172.323C72.7182 172.482 72.6649 172.609 72.5605 172.704C72.455 172.799 72.337 172.846 72.2033 172.846C72.0633 172.846 71.9411 172.799 71.8367 172.704C71.7312 172.609 71.679 172.482 71.679 172.323V170.904C71.679 170.619 71.6059 170.397 71.4607 170.241C71.3135 170.086 71.1077 170.009 70.8404 170.009C70.6315 170.009 70.4247 170.053 70.2221 170.142V171.952C70.2221 172.117 70.1688 172.247 70.0644 172.343C69.9589 172.438 69.8409 172.485 69.7072 172.485C69.5672 172.485 69.445 172.438 69.3406 172.343C69.2351 172.247 69.1829 172.117 69.1829 171.952V169.856C69.1829 169.577 69.1088 169.356 68.9594 169.194C68.8101 169.032 68.6085 168.951 68.3547 168.951C68.1385 168.951 67.9286 168.999 67.726 169.094V171.59C67.726 171.736 67.6769 171.86 67.5777 171.962C67.4795 172.063 67.3542 172.114 67.2017 172.114C67.0555 172.114 66.9333 172.063 66.8351 171.962C66.7369 171.86 66.6868 171.736 66.6868 171.59V164.712C66.6868 164.477 66.6221 164.288 66.4915 164.145C66.362 164.002 66.1855 163.931 65.963 163.931C65.7406 163.931 65.562 164.002 65.4252 164.145C65.2884 164.288 65.2205 164.477 65.2205 164.712V174.4C65.2205 174.604 65.1599 174.77 65.0398 174.901C64.9187 175.03 64.7662 175.095 64.5824 175.095C64.4163 175.095 64.269 175.054 64.1395 174.972C64.009 174.889 63.8993 174.737 63.8106 174.514L62.5343 171.599C62.3756 171.218 62.1364 171.028 61.8199 171.028C61.6163 171.028 61.4513 171.093 61.3239 171.223C61.1964 171.353 61.1338 171.51 61.1338 171.694C61.1338 171.847 61.162 171.999 61.2194 172.152L62.9249 176.953C63.4826 178.509 64.2586 179.635 65.2487 180.334C66.2398 181.033 67.4022 181.382 68.7359 181.382ZM68.6983 182.487C67.0711 182.487 65.6884 182.051 64.5489 181.183C63.4085 180.313 62.5374 179.02 61.9338 177.305L60.2283 172.494C60.1771 172.343 60.1385 172.184 60.1092 172.018C60.081 171.853 60.0664 171.704 60.0664 171.571C60.0664 171.075 60.2314 170.692 60.5625 170.418C60.8915 170.145 61.28 170.009 61.7239 170.009C62.0487 170.009 62.34 170.103 62.6011 170.29C62.8612 170.476 63.0701 170.758 63.2299 171.132L63.9818 172.99C64.0006 173.034 64.0299 173.056 64.0675 173.056C64.1186 173.056 64.1437 173.028 64.1437 172.972V164.778C64.1437 164.201 64.315 163.742 64.6586 163.402C65.0012 163.062 65.4356 162.892 65.963 162.892C66.4842 162.892 66.9145 163.062 67.2539 163.402C67.5933 163.742 67.7636 164.201 67.7636 164.778V168.027C68.0111 167.957 68.2523 167.922 68.4884 167.922C68.8947 167.922 69.2403 168.028 69.5265 168.241C69.8116 168.455 70.0122 168.745 70.127 169.114C70.4184 169.012 70.7046 168.961 70.9845 168.961C71.3772 168.961 71.7093 169.06 71.9787 169.261C72.2492 169.46 72.4351 169.732 72.5364 170.075C73.3991 170.082 74.0686 170.387 74.5417 170.989C75.0148 171.593 75.2519 172.441 75.2519 173.532V175.524C75.2519 176.997 74.9751 178.253 74.4226 179.291C73.8701 180.33 73.1015 181.121 72.1176 181.668C71.1328 182.214 69.9934 182.487 68.6983 182.487Z" fill="black" style="fill:black;fill-opacity:1;"/>
<path fill-rule="evenodd" clip-rule="evenodd" d="M68.7349 181.382C69.8399 181.382 70.8007 181.152 71.6154 180.692C72.4321 180.231 73.0629 179.558 73.5068 178.668C73.9517 177.778 74.1741 176.69 74.1741 175.4V173.677C74.1741 172.876 74.0488 172.26 73.7982 171.828C73.5475 171.397 73.1861 171.181 72.7172 171.181V172.323C72.7172 172.482 72.6639 172.609 72.5595 172.704C72.454 172.799 72.336 172.846 72.2023 172.846C72.0624 172.846 71.9402 172.799 71.8357 172.704C71.7303 172.609 71.678 172.482 71.678 172.323V170.904C71.678 170.619 71.6049 170.397 71.4598 170.242C71.3125 170.086 71.1068 170.009 70.8394 170.009C70.6305 170.009 70.4237 170.054 70.2211 170.142V171.952C70.2211 172.117 70.1678 172.247 70.0634 172.343C69.9579 172.438 69.8399 172.485 69.7062 172.485C69.5663 172.485 69.4441 172.438 69.3396 172.343C69.2342 172.247 69.1819 172.117 69.1819 171.952V169.856C69.1819 169.577 69.1078 169.356 68.9584 169.194C68.8091 169.032 68.6075 168.951 68.3537 168.951C68.1375 168.951 67.9276 168.999 67.725 169.094V171.59C67.725 171.736 67.6759 171.86 67.5767 171.962C67.4785 172.063 67.3532 172.114 67.2007 172.114C67.0545 172.114 66.9323 172.063 66.8341 171.962C66.736 171.86 66.6858 171.736 66.6858 171.59V164.713C66.6858 164.478 66.6211 164.289 66.4905 164.145C66.361 164.002 66.1845 163.931 65.9621 163.931C65.7396 163.931 65.561 164.002 65.4242 164.145C65.2874 164.289 65.2195 164.478 65.2195 164.713V174.4C65.2195 174.604 65.1589 174.77 65.0388 174.901C64.9177 175.03 64.7652 175.095 64.5814 175.095C64.4153 175.095 64.2681 175.054 64.1386 174.972C64.008 174.889 63.8984 174.737 63.8096 174.514L62.5333 171.599C62.3746 171.218 62.1354 171.028 61.819 171.028C61.6153 171.028 61.4503 171.093 61.3229 171.223C61.1955 171.353 61.1328 171.511 61.1328 171.694C61.1328 171.847 61.161 171.999 61.2185 172.152L62.9239 176.953C63.4817 178.509 64.2576 179.635 65.2477 180.335C66.2388 181.033 67.4013 181.382 68.7349 181.382Z" fill="white" style="fill:white;fill-opacity:1;"/>
</g>
</g>
<path d="M32.1328 3.57764H327.023C340.83 3.57764 352.022 14.7702 352.022 28.5767V176.467C352.022 190.274 340.83 201.466 327.023 201.466H7.13379V28.5767C7.13379 14.7702 18.3264 3.57764 32.1328 3.57764Z" stroke="url(#paint2_linear_381_2041)" style="" stroke-width="1.11106"/>
</g>
<defs>
<filter id="filter0_d_381_2041" x="0.000677586" y="-9.77516e-05" width="359.155" height="212.155" filterUnits="userSpaceOnUse" color-interpolation-filters="sRGB">
<feFlood flood-opacity="0" result="BackgroundImageFix"/>
<feColorMatrix in="SourceAlpha" type="matrix" values="0 0 0 0 0 0 0 0 0 0 0 0 0 0 0 0 0 0 127 0" result="hardAlpha"/>
<feOffset dy="3.55538"/>
<feGaussianBlur stdDeviation="3.28872"/>
<feComposite in2="hardAlpha" operator="out"/>
<feColorMatrix type="matrix" values="0 0 0 0 0.195425 0 0 0 0 0.195425 0 0 0 0 0.195425 0 0 0 0.04 0"/>
<feBlend mode="normal" in2="BackgroundImageFix" result="effect1_dropShadow_381_2041"/>
<feBlend mode="normal" in="SourceGraphic" in2="effect1_dropShadow_381_2041" result="shape"/>
</filter>
<linearGradient id="paint0_linear_381_2041" x1="131.084" y1="51.9414" x2="131.084" y2="57.9414" gradientUnits="userSpaceOnUse">
<stop stop-color="#E6E6E6" style="stop-color:#E6E6E6;stop-color:color(display-p3 0.9021 0.9021 0.9021);stop-opacity:1;"/>
<stop offset="0.591346" stop-color="white" style="stop-color:white;stop-opacity:1;"/>
<stop offset="1" stop-color="#BEBEBE" style="stop-color:#BEBEBE;stop-color:color(display-p3 0.7452 0.7452 0.7452);stop-opacity:1;"/>
</linearGradient>
<linearGradient id="paint1_linear_381_2041" x1="13.6185" y1="58.2747" x2="14.5978" y2="75.8075" gradientUnits="userSpaceOnUse">
<stop stop-color="#834DE9" style="stop-color:#834DE9;stop-color:color(display-p3 0.5143 0.3001 0.9121);stop-opacity:1;"/>
<stop offset="1" stop-color="#00C8FF" style="stop-color:#00C8FF;stop-color:color(display-p3 0.0000 0.7833 1.0000);stop-opacity:1;"/>
</linearGradient>
<linearGradient id="paint2_linear_381_2041" x1="179.578" y1="3.02197" x2="179.578" y2="202.022" gradientUnits="userSpaceOnUse">
<stop stop-color="#F4F4F4" style="stop-color:#F4F4F4;stop-color:color(display-p3 0.9583 0.9583 0.9583);stop-opacity:1;"/>
<stop offset="1" stop-color="#EDEDED" style="stop-color:#EDEDED;stop-color:color(display-p3 0.9305 0.9305 0.9305);stop-opacity:1;"/>
</linearGradient>
<clipPath id="clip0_381_2041">
<path d="M6.57812 28.5762C6.57812 14.463 18.0192 3.02197 32.1324 3.02197H327.024C341.137 3.02197 352.578 14.463 352.578 28.5762V176.468C352.578 190.581 341.137 202.022 327.024 202.022H6.57812V28.5762Z" fill="white" style="fill:white;fill-opacity:1;"/>
</clipPath>
<clipPath id="clip1_381_2041">
<rect width="33.4205" height="34.4649" fill="white" style="fill:white;fill-opacity:1;" transform="translate(48.5781 148.022)"/>
</clipPath>
</defs>
</svg>
