<svg width="148" height="40" viewBox="0 0 148 40" fill="none" xmlns="http://www.w3.org/2000/svg">
<g filter="url(#filter0_ddd_267_16301)">
<g filter="url(#filter1_iiiiiiin_267_16301)">
<g clip-path="url(#clip0_267_16301)">
<rect x="2.6875" y="2.6875" width="29.862" height="29.862" rx="7.6788" fill="url(#paint0_linear_267_16301)" style=""/>
<rect x="2.6875" y="2.6875" width="29.862" height="29.862" rx="7.6788" fill="url(#paint1_radial_267_16301)" fill-opacity="0.76" style=""/>
<rect x="2.6875" y="2.6875" width="29.862" height="29.862" rx="7.6788" fill="url(#paint2_radial_267_16301)" fill-opacity="0.66" style=""/>
<rect x="2.6875" y="2.6875" width="29.862" height="29.862" rx="7.6788" fill="url(#paint3_radial_267_16301)" fill-opacity="0.53" style=""/>
<rect x="2.6875" y="2.6875" width="29.862" height="29.862" rx="7.6788" fill="url(#paint4_linear_267_16301)" fill-opacity="0.14" style=""/>
<g style="mix-blend-mode:plus-lighter" filter="url(#filter2_f_267_16301)">
<rect x="4.76953" y="4.77148" width="25.6945" height="25.6945" rx="4.8348" fill="url(#paint5_radial_267_16301)" fill-opacity="0.14" style=""/>
</g>
<g style="mix-blend-mode:plus-lighter" opacity="0.05" filter="url(#filter3_f_267_16301)">
<ellipse cx="10.7616" cy="10.9269" rx="6.85539" ry="6.69152" fill="#C7F0FF" style="fill:#C7F0FF;fill:color(display-p3 0.7820 0.9429 1.0000);fill-opacity:1;"/>
</g>
<g opacity="0.12" filter="url(#filter4_f_267_16301)">
<rect x="5.64258" y="5.64258" width="23.9511" height="23.9511" rx="4.8348" fill="#9ACCF4" style="fill:#9ACCF4;fill:color(display-p3 0.6039 0.8000 0.9569);fill-opacity:1;"/>
</g>
</g>
<rect x="2.7775" y="2.7775" width="29.682" height="29.682" rx="7.5888" stroke="url(#paint6_linear_267_16301)" stroke-opacity="0.83" style="" stroke-width="0.18"/>
</g>
<g filter="url(#filter5_ddii_267_16301)">
<path d="M23.583 12.0391C26.6644 12.0391 29.1629 14.5369 29.1631 17.6182C29.1631 20.6996 26.6646 23.1982 23.583 23.1982C21.7725 23.1982 20.1639 22.3353 19.1445 20.999C18.7139 21.746 18.0291 22.3241 17.2021 22.6152C16.6889 22.7959 16.0654 22.8185 14.9395 22.8213H6.74219C6.50714 22.8213 6.38961 22.8212 6.2998 22.7754C6.22083 22.7351 6.15646 22.6708 6.11621 22.5918C6.07061 22.502 6.07031 22.3843 6.07031 22.1494V18.2285C6.07031 16.191 6.07037 15.1719 6.4668 14.3936C6.81571 13.7088 7.37284 13.1516 8.05762 12.8027C8.83611 12.4061 9.85539 12.4062 11.8936 12.4062H14.9395C16.0654 12.4091 16.6889 12.4316 17.2021 12.6123C18.0311 12.9042 18.718 13.4839 19.1484 14.2334C20.168 12.8999 21.7747 12.0391 23.583 12.0391ZM23.583 13.7285C21.4349 13.7286 19.6936 15.4701 19.6934 17.6182C19.6934 19.7664 21.4347 21.5087 23.583 21.5088C25.7314 21.5088 27.4727 19.7664 27.4727 17.6182C27.4724 15.4701 25.7312 13.7285 23.583 13.7285ZM14.5537 18.5762C13.6147 19.5152 12.0924 19.5152 11.1533 18.5762L7.9082 15.332C7.86964 15.4626 7.8296 15.6597 7.80371 15.9766C7.76108 16.4985 7.75977 17.182 7.75977 18.2285V21.1318H14.4248C16.0269 21.1318 16.395 21.1079 16.6406 21.0215C17.1977 20.8254 17.6358 20.3871 17.832 19.8301C17.9185 19.5845 17.9434 19.2164 17.9434 17.6143C17.9434 16.0126 17.9184 15.644 17.832 15.3984C17.8235 15.3743 17.8122 15.3509 17.8027 15.3271L14.5537 18.5762ZM11.8936 14.0957C10.8466 14.0957 10.1627 14.097 9.64062 14.1396C9.43924 14.1561 9.28638 14.179 9.16797 14.2021L12.3477 17.3818C12.6268 17.661 13.0802 17.661 13.3594 17.3818L16.5576 14.1816C16.3038 14.1157 15.8584 14.0957 14.4248 14.0957H11.8936Z" fill="url(#paint7_linear_267_16301)" style="" shape-rendering="crispEdges"/>
<path d="M23.583 12.0391C26.6644 12.0391 29.1629 14.5369 29.1631 17.6182C29.1631 20.6996 26.6646 23.1982 23.583 23.1982C21.7725 23.1982 20.1639 22.3353 19.1445 20.999C18.7139 21.746 18.0291 22.3241 17.2021 22.6152C16.6889 22.7959 16.0654 22.8185 14.9395 22.8213H6.74219C6.50714 22.8213 6.38961 22.8212 6.2998 22.7754C6.22083 22.7351 6.15646 22.6708 6.11621 22.5918C6.07061 22.502 6.07031 22.3843 6.07031 22.1494V18.2285C6.07031 16.191 6.07037 15.1719 6.4668 14.3936C6.81571 13.7088 7.37284 13.1516 8.05762 12.8027C8.83611 12.4061 9.85539 12.4062 11.8936 12.4062H14.9395C16.0654 12.4091 16.6889 12.4316 17.2021 12.6123C18.0311 12.9042 18.718 13.4839 19.1484 14.2334C20.168 12.8999 21.7747 12.0391 23.583 12.0391ZM23.583 13.7285C21.4349 13.7286 19.6936 15.4701 19.6934 17.6182C19.6934 19.7664 21.4347 21.5087 23.583 21.5088C25.7314 21.5088 27.4727 19.7664 27.4727 17.6182C27.4724 15.4701 25.7312 13.7285 23.583 13.7285ZM14.5537 18.5762C13.6147 19.5152 12.0924 19.5152 11.1533 18.5762L7.9082 15.332C7.86964 15.4626 7.8296 15.6597 7.80371 15.9766C7.76108 16.4985 7.75977 17.182 7.75977 18.2285V21.1318H14.4248C16.0269 21.1318 16.395 21.1079 16.6406 21.0215C17.1977 20.8254 17.6358 20.3871 17.832 19.8301C17.9185 19.5845 17.9434 19.2164 17.9434 17.6143C17.9434 16.0126 17.9184 15.644 17.832 15.3984C17.8235 15.3743 17.8122 15.3509 17.8027 15.3271L14.5537 18.5762ZM11.8936 14.0957C10.8466 14.0957 10.1627 14.097 9.64062 14.1396C9.43924 14.1561 9.28638 14.179 9.16797 14.2021L12.3477 17.3818C12.6268 17.661 13.0802 17.661 13.3594 17.3818L16.5576 14.1816C16.3038 14.1157 15.8584 14.0957 14.4248 14.0957H11.8936Z" fill="url(#paint8_linear_267_16301)" style="" shape-rendering="crispEdges"/>
<path d="M23.583 12.0391V11.9791H23.583L23.583 12.0391ZM29.1631 17.6182H29.2231V17.6182L29.1631 17.6182ZM23.583 23.1982L23.583 23.2582H23.583V23.1982ZM19.1445 20.999L19.1922 20.9626L19.1376 20.891L19.0926 20.9691L19.1445 20.999ZM17.2021 22.6152L17.2221 22.6718L17.2221 22.6718L17.2021 22.6152ZM14.9395 22.8213V22.8813L14.9396 22.8813L14.9395 22.8213ZM6.74219 22.8213V22.8813V22.8213ZM6.2998 22.7754L6.27255 22.8288L6.27257 22.8289L6.2998 22.7754ZM6.11621 22.5918L6.06271 22.619L6.06275 22.619L6.11621 22.5918ZM6.07031 18.2285H6.01031H6.07031ZM6.4668 14.3936L6.41334 14.3663L6.41333 14.3663L6.4668 14.3936ZM8.05762 12.8027L8.03038 12.7493L8.03038 12.7493L8.05762 12.8027ZM11.8936 12.4062V12.3462V12.4062ZM14.9395 12.4062L14.9396 12.3462H14.9395V12.4062ZM17.2021 12.6123L17.2221 12.5557L17.2221 12.5557L17.2021 12.6123ZM19.1484 14.2334L19.0964 14.2633L19.1413 14.3415L19.1961 14.2698L19.1484 14.2334ZM23.583 13.7285V13.6685H23.583L23.583 13.7285ZM19.6934 17.6182L19.6334 17.6182V17.6182H19.6934ZM23.583 21.5088L23.583 21.5688H23.583V21.5088ZM27.4727 17.6182H27.5327V17.6182L27.4727 17.6182ZM14.5537 18.5762L14.5961 18.6186L14.5961 18.6186L14.5537 18.5762ZM11.1533 18.5762L11.1957 18.5337L11.1957 18.5337L11.1533 18.5762ZM7.9082 15.332L7.95062 15.2896L7.87924 15.2182L7.85066 15.315L7.9082 15.332ZM7.80371 15.9766L7.74391 15.9717L7.74391 15.9717L7.80371 15.9766ZM7.75977 18.2285H7.69977H7.75977ZM7.75977 21.1318H7.69977V21.1918H7.75977V21.1318ZM14.4248 21.1318V21.1918V21.1318ZM16.6406 21.0215L16.6605 21.0781L16.6606 21.0781L16.6406 21.0215ZM17.832 19.8301L17.8886 19.85L17.8886 19.85L17.832 19.8301ZM17.9434 17.6143H18.0034H17.9434ZM17.832 15.3984L17.8886 15.3785L17.8886 15.3785L17.832 15.3984ZM17.8027 15.3271L17.8585 15.305L17.8248 15.2202L17.7603 15.2847L17.8027 15.3271ZM11.8936 14.0957V14.0357V14.0957ZM9.64062 14.1396L9.63574 14.0798L9.63574 14.0798L9.64062 14.1396ZM9.16797 14.2021L9.15643 14.1433L9.04589 14.1649L9.12554 14.2446L9.16797 14.2021ZM12.3477 17.3818L12.3052 17.4243L12.3052 17.4243L12.3477 17.3818ZM13.3594 17.3818L13.4018 17.4243L13.4018 17.4242L13.3594 17.3818ZM16.5576 14.1816L16.6001 14.2241L16.6741 14.1499L16.5727 14.1236L16.5576 14.1816ZM14.4248 14.0957V14.0357V14.0957ZM23.583 12.0391V12.0991C26.6313 12.0991 29.1029 14.5701 29.1031 17.6182L29.1631 17.6182L29.2231 17.6182C29.2229 14.5038 26.6976 11.9791 23.583 11.9791V12.0391ZM29.1631 17.6182H29.1031C29.1031 20.6665 26.6314 23.1382 23.583 23.1382V23.1982V23.2582C26.6977 23.2582 29.2231 20.7328 29.2231 17.6182H29.1631ZM23.583 23.1982L23.583 23.1382C21.792 23.1382 20.2007 22.2847 19.1922 20.9626L19.1445 20.999L19.0968 21.0354C20.127 22.3859 21.753 23.2582 23.583 23.2582L23.583 23.1982ZM19.1445 20.999L19.0926 20.9691C18.6689 21.7038 17.9955 22.2723 17.1822 22.5586L17.2021 22.6152L17.2221 22.6718C18.0628 22.3758 18.7588 21.7882 19.1965 21.029L19.1445 20.999ZM17.2021 22.6152L17.1822 22.5586C16.6804 22.7353 16.0679 22.7585 14.9393 22.7613L14.9395 22.8213L14.9396 22.8813C16.0629 22.8785 16.6973 22.8566 17.2221 22.6718L17.2021 22.6152ZM14.9395 22.8213V22.7613H6.74219V22.8213V22.8813H14.9395V22.8213ZM6.74219 22.8213V22.7613C6.62369 22.7613 6.53841 22.7612 6.47145 22.7557C6.40518 22.7503 6.3621 22.7398 6.32704 22.7219L6.2998 22.7754L6.27257 22.8289C6.32731 22.8567 6.3879 22.8692 6.46162 22.8753C6.53463 22.8813 6.62564 22.8813 6.74219 22.8813V22.8213ZM6.2998 22.7754L6.32706 22.7219C6.25936 22.6874 6.20416 22.6322 6.16967 22.5646L6.11621 22.5918L6.06275 22.619C6.10875 22.7093 6.18231 22.7828 6.27255 22.8288L6.2998 22.7754ZM6.11621 22.5918L6.16971 22.5646C6.15189 22.5295 6.14143 22.4864 6.13596 22.4201C6.13043 22.3531 6.13031 22.2678 6.13031 22.1494H6.07031H6.01031C6.01031 22.2659 6.01034 22.3569 6.01636 22.43C6.02244 22.5037 6.03493 22.5643 6.06271 22.619L6.11621 22.5918ZM6.07031 22.1494H6.13031V18.2285H6.07031H6.01031V22.1494H6.07031ZM6.07031 18.2285H6.13031C6.13031 17.2088 6.13037 16.4475 6.17969 15.8437C6.22896 15.2407 6.32707 14.8001 6.52026 14.4208L6.4668 14.3936L6.41333 14.3663C6.21009 14.7654 6.10996 15.2235 6.06009 15.834C6.01028 16.4437 6.01031 17.2107 6.01031 18.2285H6.07031ZM6.4668 14.3936L6.52026 14.4208C6.86342 13.7473 7.41137 13.1993 8.08486 12.8562L8.05762 12.8027L8.03038 12.7493C7.33431 13.1039 6.76801 13.6703 6.41334 14.3663L6.4668 14.3936ZM8.05762 12.8027L8.08485 12.8562C8.46423 12.6629 8.9049 12.5648 9.50809 12.5156C10.112 12.4663 10.8735 12.4663 11.8936 12.4663V12.4062V12.3462C10.8755 12.3462 10.1082 12.3462 9.49833 12.396C8.88772 12.4458 8.4295 12.5459 8.03038 12.7493L8.05762 12.8027ZM11.8936 12.4062V12.4663H14.9395V12.4062V12.3462H11.8936V12.4062ZM14.9395 12.4062L14.9393 12.4662C16.0679 12.4691 16.6804 12.4922 17.1822 12.6689L17.2021 12.6123L17.2221 12.5557C16.6973 12.371 16.0629 12.3491 14.9396 12.3463L14.9395 12.4062ZM17.2021 12.6123L17.1822 12.6689C17.9974 12.9559 18.673 13.5261 19.0964 14.2633L19.1484 14.2334L19.2005 14.2035C18.7629 13.4417 18.0647 12.8524 17.2221 12.5557L17.2021 12.6123ZM19.1484 14.2334L19.1961 14.2698C20.2048 12.9505 21.7942 12.0991 23.583 12.0991L23.583 12.0391L23.583 11.9791C21.7552 11.9791 20.1312 12.8492 19.1008 14.197L19.1484 14.2334ZM23.583 13.7285L23.583 13.6685C21.4017 13.6686 19.6336 15.437 19.6334 17.6182L19.6934 17.6182L19.7534 17.6182C19.7536 15.5033 21.468 13.7886 23.583 13.7885L23.583 13.7285ZM19.6934 17.6182H19.6334C19.6334 19.7995 21.4016 21.5687 23.583 21.5688L23.583 21.5088L23.583 21.4488C21.4679 21.4487 19.7534 19.7333 19.7534 17.6182H19.6934ZM23.583 21.5088V21.5688C25.7645 21.5688 27.5327 19.7996 27.5327 17.6182H27.4727H27.4127C27.4127 19.7333 25.6982 21.4488 23.583 21.4488V21.5088ZM27.4727 17.6182L27.5327 17.6182C27.5324 15.4369 25.7644 13.6685 23.583 13.6685V13.7285V13.7885C25.6981 13.7885 27.4124 15.5032 27.4127 17.6182L27.4727 17.6182ZM14.5537 18.5762L14.5113 18.5337C13.5957 19.4493 12.1114 19.4493 11.1957 18.5337L11.1533 18.5762L11.1109 18.6186C12.0734 19.581 13.6336 19.581 14.5961 18.6186L14.5537 18.5762ZM11.1533 18.5762L11.1957 18.5337L7.95062 15.2896L7.9082 15.332L7.86578 15.3745L11.1109 18.6186L11.1533 18.5762ZM7.9082 15.332L7.85066 15.315C7.81063 15.4506 7.77003 15.652 7.74391 15.9717L7.80371 15.9766L7.86351 15.9814C7.88916 15.6675 7.92865 15.4746 7.96575 15.349L7.9082 15.332ZM7.80371 15.9766L7.74391 15.9717C7.70104 16.4967 7.69977 17.183 7.69977 18.2285H7.75977H7.81977C7.81977 17.181 7.82113 16.5004 7.86351 15.9814L7.80371 15.9766ZM7.75977 18.2285H7.69977V21.1318H7.75977H7.81977V18.2285H7.75977ZM7.75977 21.1318V21.1918H14.4248V21.1318V21.0718H7.75977V21.1318ZM14.4248 21.1318V21.1918C15.2257 21.1918 15.7197 21.1859 16.0445 21.169C16.3692 21.1521 16.5295 21.1242 16.6605 21.0781L16.6406 21.0215L16.6207 20.9649C16.5061 21.0052 16.3596 21.0324 16.0383 21.0491C15.7171 21.0658 15.226 21.0718 14.4248 21.0718V21.1318ZM16.6406 21.0215L16.6606 21.0781C17.2348 20.8759 17.6864 20.4241 17.8886 19.85L17.832 19.8301L17.7754 19.8101C17.5852 20.35 17.1606 20.7748 16.6207 20.9649L16.6406 21.0215ZM17.832 19.8301L17.8886 19.85C17.9347 19.719 17.9629 19.5588 17.98 19.234C17.9972 18.9092 18.0034 18.4152 18.0034 17.6143H17.9434H17.8834C17.8834 18.4155 17.8771 18.9065 17.8602 19.2277C17.8433 19.549 17.8158 19.6955 17.7754 19.8102L17.832 19.8301ZM17.9434 17.6143H18.0034C18.0034 16.8136 17.9971 16.3195 17.98 15.9946C17.9629 15.6698 17.9347 15.5095 17.8886 15.3785L17.832 15.3984L17.7754 15.4183C17.8157 15.533 17.8432 15.6797 17.8602 16.001C17.8771 16.3222 17.8834 16.8132 17.8834 17.6143H17.9434ZM17.832 15.3984L17.8886 15.3785C17.8801 15.3543 17.8651 15.3217 17.8585 15.305L17.8027 15.3271L17.747 15.3493C17.7592 15.3801 17.7669 15.3942 17.7754 15.4184L17.832 15.3984ZM17.8027 15.3271L17.7603 15.2847L14.5113 18.5337L14.5537 18.5762L14.5961 18.6186L17.8452 15.3696L17.8027 15.3271ZM11.8936 14.0957V14.0357C10.8476 14.0357 10.1609 14.037 9.63574 14.0798L9.64062 14.1396L9.64551 14.1994C10.1646 14.157 10.8456 14.1557 11.8936 14.1557V14.0957ZM9.64062 14.1396L9.63574 14.0798C9.43228 14.0965 9.27719 14.1196 9.15643 14.1433L9.16797 14.2021L9.1795 14.261C9.29557 14.2383 9.44621 14.2157 9.64551 14.1994L9.64062 14.1396ZM9.16797 14.2021L9.12554 14.2446L12.3052 17.4243L12.3477 17.3818L12.3901 17.3394L9.2104 14.1597L9.16797 14.2021ZM12.3477 17.3818L12.3052 17.4243C12.6078 17.7269 13.0992 17.7269 13.4018 17.4243L13.3594 17.3818L13.3169 17.3394C13.0612 17.5951 12.6458 17.5951 12.3901 17.3394L12.3477 17.3818ZM13.3594 17.3818L13.4018 17.4242L16.6001 14.2241L16.5576 14.1816L16.5152 14.1392L13.3169 17.3394L13.3594 17.3818ZM16.5576 14.1816L16.5727 14.1236C16.4393 14.0889 16.2592 14.0672 15.9361 14.054C15.6124 14.0407 15.1416 14.0357 14.4248 14.0357V14.0957V14.1557C15.1416 14.1557 15.6102 14.1607 15.9312 14.1739C16.2526 14.1871 16.4221 14.2084 16.5425 14.2397L16.5576 14.1816ZM14.4248 14.0957V14.0357H11.8936V14.0957V14.1557H14.4248V14.0957Z" fill="url(#paint9_linear_267_16301)" fill-opacity="0.62" style=""/>
<path d="M23.583 12.0391V11.9791H23.583L23.583 12.0391ZM29.1631 17.6182H29.2231V17.6182L29.1631 17.6182ZM23.583 23.1982L23.583 23.2582H23.583V23.1982ZM19.1445 20.999L19.1922 20.9626L19.1376 20.891L19.0926 20.9691L19.1445 20.999ZM17.2021 22.6152L17.2221 22.6718L17.2221 22.6718L17.2021 22.6152ZM14.9395 22.8213V22.8813L14.9396 22.8813L14.9395 22.8213ZM6.74219 22.8213V22.8813V22.8213ZM6.2998 22.7754L6.27255 22.8288L6.27257 22.8289L6.2998 22.7754ZM6.11621 22.5918L6.06271 22.619L6.06275 22.619L6.11621 22.5918ZM6.07031 18.2285H6.01031H6.07031ZM6.4668 14.3936L6.41334 14.3663L6.41333 14.3663L6.4668 14.3936ZM8.05762 12.8027L8.03038 12.7493L8.03038 12.7493L8.05762 12.8027ZM11.8936 12.4062V12.3462V12.4062ZM14.9395 12.4062L14.9396 12.3462H14.9395V12.4062ZM17.2021 12.6123L17.2221 12.5557L17.2221 12.5557L17.2021 12.6123ZM19.1484 14.2334L19.0964 14.2633L19.1413 14.3415L19.1961 14.2698L19.1484 14.2334ZM23.583 13.7285V13.6685H23.583L23.583 13.7285ZM19.6934 17.6182L19.6334 17.6182V17.6182H19.6934ZM23.583 21.5088L23.583 21.5688H23.583V21.5088ZM27.4727 17.6182H27.5327V17.6182L27.4727 17.6182ZM14.5537 18.5762L14.5961 18.6186L14.5961 18.6186L14.5537 18.5762ZM11.1533 18.5762L11.1957 18.5337L11.1957 18.5337L11.1533 18.5762ZM7.9082 15.332L7.95062 15.2896L7.87924 15.2182L7.85066 15.315L7.9082 15.332ZM7.80371 15.9766L7.74391 15.9717L7.74391 15.9717L7.80371 15.9766ZM7.75977 18.2285H7.69977H7.75977ZM7.75977 21.1318H7.69977V21.1918H7.75977V21.1318ZM14.4248 21.1318V21.1918V21.1318ZM16.6406 21.0215L16.6605 21.0781L16.6606 21.0781L16.6406 21.0215ZM17.832 19.8301L17.8886 19.85L17.8886 19.85L17.832 19.8301ZM17.9434 17.6143H18.0034H17.9434ZM17.832 15.3984L17.8886 15.3785L17.8886 15.3785L17.832 15.3984ZM17.8027 15.3271L17.8585 15.305L17.8248 15.2202L17.7603 15.2847L17.8027 15.3271ZM11.8936 14.0957V14.0357V14.0957ZM9.64062 14.1396L9.63574 14.0798L9.63574 14.0798L9.64062 14.1396ZM9.16797 14.2021L9.15643 14.1433L9.04589 14.1649L9.12554 14.2446L9.16797 14.2021ZM12.3477 17.3818L12.3052 17.4243L12.3052 17.4243L12.3477 17.3818ZM13.3594 17.3818L13.4018 17.4243L13.4018 17.4242L13.3594 17.3818ZM16.5576 14.1816L16.6001 14.2241L16.6741 14.1499L16.5727 14.1236L16.5576 14.1816ZM14.4248 14.0957V14.0357V14.0957ZM23.583 12.0391V12.0991C26.6313 12.0991 29.1029 14.5701 29.1031 17.6182L29.1631 17.6182L29.2231 17.6182C29.2229 14.5038 26.6976 11.9791 23.583 11.9791V12.0391ZM29.1631 17.6182H29.1031C29.1031 20.6665 26.6314 23.1382 23.583 23.1382V23.1982V23.2582C26.6977 23.2582 29.2231 20.7328 29.2231 17.6182H29.1631ZM23.583 23.1982L23.583 23.1382C21.792 23.1382 20.2007 22.2847 19.1922 20.9626L19.1445 20.999L19.0968 21.0354C20.127 22.3859 21.753 23.2582 23.583 23.2582L23.583 23.1982ZM19.1445 20.999L19.0926 20.9691C18.6689 21.7038 17.9955 22.2723 17.1822 22.5586L17.2021 22.6152L17.2221 22.6718C18.0628 22.3758 18.7588 21.7882 19.1965 21.029L19.1445 20.999ZM17.2021 22.6152L17.1822 22.5586C16.6804 22.7353 16.0679 22.7585 14.9393 22.7613L14.9395 22.8213L14.9396 22.8813C16.0629 22.8785 16.6973 22.8566 17.2221 22.6718L17.2021 22.6152ZM14.9395 22.8213V22.7613H6.74219V22.8213V22.8813H14.9395V22.8213ZM6.74219 22.8213V22.7613C6.62369 22.7613 6.53841 22.7612 6.47145 22.7557C6.40518 22.7503 6.3621 22.7398 6.32704 22.7219L6.2998 22.7754L6.27257 22.8289C6.32731 22.8567 6.3879 22.8692 6.46162 22.8753C6.53463 22.8813 6.62564 22.8813 6.74219 22.8813V22.8213ZM6.2998 22.7754L6.32706 22.7219C6.25936 22.6874 6.20416 22.6322 6.16967 22.5646L6.11621 22.5918L6.06275 22.619C6.10875 22.7093 6.18231 22.7828 6.27255 22.8288L6.2998 22.7754ZM6.11621 22.5918L6.16971 22.5646C6.15189 22.5295 6.14143 22.4864 6.13596 22.4201C6.13043 22.3531 6.13031 22.2678 6.13031 22.1494H6.07031H6.01031C6.01031 22.2659 6.01034 22.3569 6.01636 22.43C6.02244 22.5037 6.03493 22.5643 6.06271 22.619L6.11621 22.5918ZM6.07031 22.1494H6.13031V18.2285H6.07031H6.01031V22.1494H6.07031ZM6.07031 18.2285H6.13031C6.13031 17.2088 6.13037 16.4475 6.17969 15.8437C6.22896 15.2407 6.32707 14.8001 6.52026 14.4208L6.4668 14.3936L6.41333 14.3663C6.21009 14.7654 6.10996 15.2235 6.06009 15.834C6.01028 16.4437 6.01031 17.2107 6.01031 18.2285H6.07031ZM6.4668 14.3936L6.52026 14.4208C6.86342 13.7473 7.41137 13.1993 8.08486 12.8562L8.05762 12.8027L8.03038 12.7493C7.33431 13.1039 6.76801 13.6703 6.41334 14.3663L6.4668 14.3936ZM8.05762 12.8027L8.08485 12.8562C8.46423 12.6629 8.9049 12.5648 9.50809 12.5156C10.112 12.4663 10.8735 12.4663 11.8936 12.4663V12.4062V12.3462C10.8755 12.3462 10.1082 12.3462 9.49833 12.396C8.88772 12.4458 8.4295 12.5459 8.03038 12.7493L8.05762 12.8027ZM11.8936 12.4062V12.4663H14.9395V12.4062V12.3462H11.8936V12.4062ZM14.9395 12.4062L14.9393 12.4662C16.0679 12.4691 16.6804 12.4922 17.1822 12.6689L17.2021 12.6123L17.2221 12.5557C16.6973 12.371 16.0629 12.3491 14.9396 12.3463L14.9395 12.4062ZM17.2021 12.6123L17.1822 12.6689C17.9974 12.9559 18.673 13.5261 19.0964 14.2633L19.1484 14.2334L19.2005 14.2035C18.7629 13.4417 18.0647 12.8524 17.2221 12.5557L17.2021 12.6123ZM19.1484 14.2334L19.1961 14.2698C20.2048 12.9505 21.7942 12.0991 23.583 12.0991L23.583 12.0391L23.583 11.9791C21.7552 11.9791 20.1312 12.8492 19.1008 14.197L19.1484 14.2334ZM23.583 13.7285L23.583 13.6685C21.4017 13.6686 19.6336 15.437 19.6334 17.6182L19.6934 17.6182L19.7534 17.6182C19.7536 15.5033 21.468 13.7886 23.583 13.7885L23.583 13.7285ZM19.6934 17.6182H19.6334C19.6334 19.7995 21.4016 21.5687 23.583 21.5688L23.583 21.5088L23.583 21.4488C21.4679 21.4487 19.7534 19.7333 19.7534 17.6182H19.6934ZM23.583 21.5088V21.5688C25.7645 21.5688 27.5327 19.7996 27.5327 17.6182H27.4727H27.4127C27.4127 19.7333 25.6982 21.4488 23.583 21.4488V21.5088ZM27.4727 17.6182L27.5327 17.6182C27.5324 15.4369 25.7644 13.6685 23.583 13.6685V13.7285V13.7885C25.6981 13.7885 27.4124 15.5032 27.4127 17.6182L27.4727 17.6182ZM14.5537 18.5762L14.5113 18.5337C13.5957 19.4493 12.1114 19.4493 11.1957 18.5337L11.1533 18.5762L11.1109 18.6186C12.0734 19.581 13.6336 19.581 14.5961 18.6186L14.5537 18.5762ZM11.1533 18.5762L11.1957 18.5337L7.95062 15.2896L7.9082 15.332L7.86578 15.3745L11.1109 18.6186L11.1533 18.5762ZM7.9082 15.332L7.85066 15.315C7.81063 15.4506 7.77003 15.652 7.74391 15.9717L7.80371 15.9766L7.86351 15.9814C7.88916 15.6675 7.92865 15.4746 7.96575 15.349L7.9082 15.332ZM7.80371 15.9766L7.74391 15.9717C7.70104 16.4967 7.69977 17.183 7.69977 18.2285H7.75977H7.81977C7.81977 17.181 7.82113 16.5004 7.86351 15.9814L7.80371 15.9766ZM7.75977 18.2285H7.69977V21.1318H7.75977H7.81977V18.2285H7.75977ZM7.75977 21.1318V21.1918H14.4248V21.1318V21.0718H7.75977V21.1318ZM14.4248 21.1318V21.1918C15.2257 21.1918 15.7197 21.1859 16.0445 21.169C16.3692 21.1521 16.5295 21.1242 16.6605 21.0781L16.6406 21.0215L16.6207 20.9649C16.5061 21.0052 16.3596 21.0324 16.0383 21.0491C15.7171 21.0658 15.226 21.0718 14.4248 21.0718V21.1318ZM16.6406 21.0215L16.6606 21.0781C17.2348 20.8759 17.6864 20.4241 17.8886 19.85L17.832 19.8301L17.7754 19.8101C17.5852 20.35 17.1606 20.7748 16.6207 20.9649L16.6406 21.0215ZM17.832 19.8301L17.8886 19.85C17.9347 19.719 17.9629 19.5588 17.98 19.234C17.9972 18.9092 18.0034 18.4152 18.0034 17.6143H17.9434H17.8834C17.8834 18.4155 17.8771 18.9065 17.8602 19.2277C17.8433 19.549 17.8158 19.6955 17.7754 19.8102L17.832 19.8301ZM17.9434 17.6143H18.0034C18.0034 16.8136 17.9971 16.3195 17.98 15.9946C17.9629 15.6698 17.9347 15.5095 17.8886 15.3785L17.832 15.3984L17.7754 15.4183C17.8157 15.533 17.8432 15.6797 17.8602 16.001C17.8771 16.3222 17.8834 16.8132 17.8834 17.6143H17.9434ZM17.832 15.3984L17.8886 15.3785C17.8801 15.3543 17.8651 15.3217 17.8585 15.305L17.8027 15.3271L17.747 15.3493C17.7592 15.3801 17.7669 15.3942 17.7754 15.4184L17.832 15.3984ZM17.8027 15.3271L17.7603 15.2847L14.5113 18.5337L14.5537 18.5762L14.5961 18.6186L17.8452 15.3696L17.8027 15.3271ZM11.8936 14.0957V14.0357C10.8476 14.0357 10.1609 14.037 9.63574 14.0798L9.64062 14.1396L9.64551 14.1994C10.1646 14.157 10.8456 14.1557 11.8936 14.1557V14.0957ZM9.64062 14.1396L9.63574 14.0798C9.43228 14.0965 9.27719 14.1196 9.15643 14.1433L9.16797 14.2021L9.1795 14.261C9.29557 14.2383 9.44621 14.2157 9.64551 14.1994L9.64062 14.1396ZM9.16797 14.2021L9.12554 14.2446L12.3052 17.4243L12.3477 17.3818L12.3901 17.3394L9.2104 14.1597L9.16797 14.2021ZM12.3477 17.3818L12.3052 17.4243C12.6078 17.7269 13.0992 17.7269 13.4018 17.4243L13.3594 17.3818L13.3169 17.3394C13.0612 17.5951 12.6458 17.5951 12.3901 17.3394L12.3477 17.3818ZM13.3594 17.3818L13.4018 17.4242L16.6001 14.2241L16.5576 14.1816L16.5152 14.1392L13.3169 17.3394L13.3594 17.3818ZM16.5576 14.1816L16.5727 14.1236C16.4393 14.0889 16.2592 14.0672 15.9361 14.054C15.6124 14.0407 15.1416 14.0357 14.4248 14.0357V14.0957V14.1557C15.1416 14.1557 15.6102 14.1607 15.9312 14.1739C16.2526 14.1871 16.4221 14.2084 16.5425 14.2397L16.5576 14.1816ZM14.4248 14.0957V14.0357H11.8936V14.0957V14.1557H14.4248V14.0957Z" fill="white" fill-opacity="0.2" style="fill:white;fill-opacity:0.2;"/>
</g>
</g>
<path d="M43.8996 12.4622C42.7956 12.4622 41.9316 11.6462 41.9316 10.5662C41.9316 9.46216 42.7956 8.64616 43.8996 8.64616C45.0036 8.64616 45.8676 9.46216 45.8676 10.5662C45.8676 11.6462 45.0036 12.4622 43.8996 12.4622ZM42.1956 26.1182V13.7822H45.6036V26.1182H42.1956ZM54.5378 13.6382C57.2018 13.6382 59.4818 15.0542 59.4818 19.2782V26.1182H56.0978V19.6142C56.0978 17.5262 55.3058 16.4222 53.6018 16.4222C51.8498 16.4222 50.8418 17.6702 50.8418 19.8062V26.1182H47.4578V13.7822H50.4098L50.7218 15.3182C51.5138 14.3582 52.6418 13.6382 54.5378 13.6382ZM68.238 13.6382C71.55 13.6382 73.95 16.0142 73.95 19.9262C73.95 23.7422 71.55 26.2622 68.214 26.2622C66.438 26.2622 65.214 25.4942 64.422 24.4382L64.086 26.1182H61.134V9.31816H64.518V15.3422C65.334 14.3582 66.534 13.6382 68.238 13.6382ZM67.47 23.5022C69.318 23.5022 70.518 22.0622 70.518 19.9502C70.518 17.8382 69.318 16.3982 67.47 16.3982C65.622 16.3982 64.47 17.8382 64.47 19.9262C64.47 22.0382 65.622 23.5022 67.47 23.5022ZM81.3734 26.2622C77.4374 26.2622 74.8694 23.7422 74.8694 19.9502C74.8694 16.1582 77.4374 13.6382 81.3734 13.6382C85.3094 13.6382 87.8774 16.1582 87.8774 19.9502C87.8774 23.7662 85.3094 26.2622 81.3734 26.2622ZM81.3734 23.5022C83.2694 23.5022 84.4454 22.0382 84.4454 19.9502C84.4454 17.8622 83.2694 16.3982 81.3734 16.3982C79.4774 16.3982 78.3254 17.8622 78.3254 19.9502C78.3254 22.0382 79.4774 23.5022 81.3734 23.5022ZM87.3792 26.1182L91.9632 19.8302L87.5952 13.7822H91.4592L94.0032 17.4302L96.6192 13.7822H100.267L95.9232 19.8302L100.507 26.1182H96.6432L93.8112 22.2542L91.0032 26.1182H87.3792ZM100.748 16.6382V13.7822H111.188V16.0862L105.02 23.2622H111.476V26.1182H100.46V23.8142L106.628 16.6382H100.748ZM118.349 26.2622C114.245 26.2622 111.773 23.7902 111.773 19.9742C111.773 16.1342 114.293 13.6382 118.109 13.6382C121.805 13.6382 124.301 15.9422 124.349 19.5662C124.349 19.9262 124.325 20.3342 124.253 20.7182H115.301V20.8862C115.373 22.6382 116.501 23.6942 118.205 23.6942C119.573 23.6942 120.533 23.0942 120.821 21.9422H124.157C123.773 24.3422 121.637 26.2622 118.349 26.2622ZM115.373 18.5102H120.941C120.701 16.9982 119.669 16.1582 118.133 16.1582C116.669 16.1582 115.565 17.0462 115.373 18.5102ZM132.654 13.7822H133.23V16.8542H131.886C129.87 16.8542 129.102 18.1982 129.102 20.0702V26.1182H125.718V13.7822H128.79L129.102 15.6302C129.774 14.5262 130.734 13.7822 132.654 13.7822ZM139.887 26.2622C135.951 26.2622 133.383 23.7422 133.383 19.9502C133.383 16.1582 135.951 13.6382 139.887 13.6382C143.823 13.6382 146.391 16.1582 146.391 19.9502C146.391 23.7662 143.823 26.2622 139.887 26.2622ZM139.887 23.5022C141.783 23.5022 142.959 22.0382 142.959 19.9502C142.959 17.8622 141.783 16.3982 139.887 16.3982C137.991 16.3982 136.839 17.8622 136.839 19.9502C136.839 22.0382 137.991 23.5022 139.887 23.5022Z" fill="#242424" style="fill:#242424;fill:color(display-p3 0.1431 0.1431 0.1431);fill-opacity:1;"/>
<defs>
<filter id="filter0_ddd_267_16301" x="-7.98702e-05" y="-7.98702e-05" width="39.5736" height="39.5746" filterUnits="userSpaceOnUse" color-interpolation-filters="sRGB">
<feFlood flood-opacity="0" result="BackgroundImageFix"/>
<feColorMatrix in="SourceAlpha" type="matrix" values="0 0 0 0 0 0 0 0 0 0 0 0 0 0 0 0 0 0 127 0" result="hardAlpha"/>
<feOffset dx="1.5642" dy="2.133"/>
<feGaussianBlur stdDeviation="1.46466"/>
<feComposite in2="hardAlpha" operator="out"/>
<feColorMatrix type="matrix" values="0 0 0 0 0.836956 0 0 0 0 0.848337 0 0 0 0 0.856614 0 0 0 0.92 0"/>
<feBlend mode="normal" in2="BackgroundImageFix" result="effect1_dropShadow_267_16301"/>
<feColorMatrix in="SourceAlpha" type="matrix" values="0 0 0 0 0 0 0 0 0 0 0 0 0 0 0 0 0 0 127 0" result="hardAlpha"/>
<feOffset dx="0.8532" dy="0.8532"/>
<feGaussianBlur stdDeviation="1.77039"/>
<feComposite in2="hardAlpha" operator="out"/>
<feColorMatrix type="matrix" values="0 0 0 0 0.833252 0 0 0 0 0.949976 0 0 0 0 1 0 0 0 1 0"/>
<feBlend mode="normal" in2="effect1_dropShadow_267_16301" result="effect2_dropShadow_267_16301"/>
<feColorMatrix in="SourceAlpha" type="matrix" values="0 0 0 0 0 0 0 0 0 0 0 0 0 0 0 0 0 0 127 0" result="hardAlpha"/>
<feOffset dx="3.4128" dy="3.4128"/>
<feGaussianBlur stdDeviation="1.80594"/>
<feComposite in2="hardAlpha" operator="out"/>
<feColorMatrix type="matrix" values="0 0 0 0 0 0 0 0 0 0 0 0 0 0 0 0 0 0 0.06 0"/>
<feBlend mode="normal" in2="effect2_dropShadow_267_16301" result="effect3_dropShadow_267_16301"/>
<feBlend mode="normal" in="SourceGraphic" in2="effect3_dropShadow_267_16301" result="shape"/>
</filter>
<filter id="filter1_iiiiiiin_267_16301" x="0.1279" y="-0.35558" width="33.4163" height="34.334" filterUnits="userSpaceOnUse" color-interpolation-filters="sRGB">
<feFlood flood-opacity="0" result="BackgroundImageFix"/>
<feBlend mode="normal" in="SourceGraphic" in2="BackgroundImageFix" result="shape"/>
<feColorMatrix in="SourceAlpha" type="matrix" values="0 0 0 0 0 0 0 0 0 0 0 0 0 0 0 0 0 0 127 0" result="hardAlpha"/>
<feMorphology radius="0.4266" operator="erode" in="SourceAlpha" result="effect1_innerShadow_267_16301"/>
<feOffset dx="0.12" dy="1.56"/>
<feGaussianBlur stdDeviation="0.501"/>
<feComposite in2="hardAlpha" operator="arithmetic" k2="-1" k3="1"/>
<feColorMatrix type="matrix" values="0 0 0 0 0.0770733 0 0 0 0 0.315248 0 0 0 0 1 0 0 0 1 0"/>
<feBlend mode="normal" in2="shape" result="effect1_innerShadow_267_16301"/>
<feColorMatrix in="SourceAlpha" type="matrix" values="0 0 0 0 0 0 0 0 0 0 0 0 0 0 0 0 0 0 127 0" result="hardAlpha"/>
<feMorphology radius="0.4266" operator="erode" in="SourceAlpha" result="effect2_innerShadow_267_16301"/>
<feOffset dx="-2.5596" dy="-3.4128"/>
<feGaussianBlur stdDeviation="1.30824"/>
<feComposite in2="hardAlpha" operator="arithmetic" k2="-1" k3="1"/>
<feColorMatrix type="matrix" values="0 0 0 0 0.443472 0 0 0 0 0.821261 0 0 0 0 1 0 0 0 0.53 0"/>
<feBlend mode="normal" in2="effect1_innerShadow_267_16301" result="effect2_innerShadow_267_16301"/>
<feColorMatrix in="SourceAlpha" type="matrix" values="0 0 0 0 0 0 0 0 0 0 0 0 0 0 0 0 0 0 127 0" result="hardAlpha"/>
<feMorphology radius="0.4266" operator="erode" in="SourceAlpha" result="effect3_innerShadow_267_16301"/>
<feOffset dx="0.9954" dy="1.1376"/>
<feGaussianBlur stdDeviation="1.338"/>
<feComposite in2="hardAlpha" operator="arithmetic" k2="-1" k3="1"/>
<feColorMatrix type="matrix" values="0 0 0 0 0.227451 0 0 0 0 0.403922 0 0 0 0 0.792157 0 0 0 1 0"/>
<feBlend mode="normal" in2="effect2_innerShadow_267_16301" result="effect3_innerShadow_267_16301"/>
<feColorMatrix in="SourceAlpha" type="matrix" values="0 0 0 0 0 0 0 0 0 0 0 0 0 0 0 0 0 0 127 0" result="hardAlpha"/>
<feMorphology radius="0.8532" operator="erode" in="SourceAlpha" result="effect4_innerShadow_267_16301"/>
<feOffset dx="0.5688" dy="1.422"/>
<feGaussianBlur stdDeviation="0.77499"/>
<feComposite in2="hardAlpha" operator="arithmetic" k2="-1" k3="1"/>
<feColorMatrix type="matrix" values="0 0 0 0 0.809503 0 0 0 0 0.876925 0 0 0 0 0.962947 0 0 0 0.58 0"/>
<feBlend mode="normal" in2="effect3_innerShadow_267_16301" result="effect4_innerShadow_267_16301"/>
<feColorMatrix in="SourceAlpha" type="matrix" values="0 0 0 0 0 0 0 0 0 0 0 0 0 0 0 0 0 0 127 0" result="hardAlpha"/>
<feMorphology radius="0.18" operator="dilate" in="SourceAlpha" result="effect5_innerShadow_267_16301"/>
<feOffset dx="0.6" dy="0.54"/>
<feGaussianBlur stdDeviation="0.342"/>
<feComposite in2="hardAlpha" operator="arithmetic" k2="-1" k3="1"/>
<feColorMatrix type="matrix" values="0 0 0 0 0.227451 0 0 0 0 0.403922 0 0 0 0 0.792157 0 0 0 1 0"/>
<feBlend mode="normal" in2="effect4_innerShadow_267_16301" result="effect5_innerShadow_267_16301"/>
<feColorMatrix in="SourceAlpha" type="matrix" values="0 0 0 0 0 0 0 0 0 0 0 0 0 0 0 0 0 0 127 0" result="hardAlpha"/>
<feMorphology radius="0.06" operator="dilate" in="SourceAlpha" result="effect6_innerShadow_267_16301"/>
<feOffset dx="-0.66" dy="-0.24"/>
<feGaussianBlur stdDeviation="0.732"/>
<feComposite in2="hardAlpha" operator="arithmetic" k2="-1" k3="1"/>
<feColorMatrix type="matrix" values="0 0 0 0 0.227451 0 0 0 0 0.403922 0 0 0 0 0.792157 0 0 0 0.69 0"/>
<feBlend mode="normal" in2="effect5_innerShadow_267_16301" result="effect6_innerShadow_267_16301"/>
<feColorMatrix in="SourceAlpha" type="matrix" values="0 0 0 0 0 0 0 0 0 0 0 0 0 0 0 0 0 0 127 0" result="hardAlpha"/>
<feMorphology radius="0.12" operator="erode" in="SourceAlpha" result="effect7_innerShadow_267_16301"/>
<feOffset dx="0.18" dy="0.96"/>
<feGaussianBlur stdDeviation="0.9954"/>
<feComposite in2="hardAlpha" operator="arithmetic" k2="-1" k3="1"/>
<feColorMatrix type="matrix" values="0 0 0 0 0 0 0 0 0 0.303448 0 0 0 0 1 0 0 0 0.35 0"/>
<feBlend mode="normal" in2="effect6_innerShadow_267_16301" result="effect7_innerShadow_267_16301"/>
<feTurbulence type="fractalNoise" baseFrequency="14.064698219299316 14.064698219299316" stitchTiles="stitch" numOctaves="3" result="noise" seed="583" />
<feComponentTransfer in="noise" result="coloredNoise1">
<feFuncR type="linear" slope="2" intercept="-0.5" />
<feFuncG type="linear" slope="2" intercept="-0.5" />
<feFuncB type="linear" slope="2" intercept="-0.5" />
<feFuncA type="discrete" tableValues="1 1 1 1 1 1 1 1 1 1 1 1 1 1 1 1 1 1 1 1 1 1 1 1 1 1 1 1 1 1 1 1 1 1 1 1 1 1 1 1 1 1 1 1 1 1 1 1 1 1 1 0 0 0 0 0 0 0 0 0 0 0 0 0 0 0 0 0 0 0 0 0 0 0 0 0 0 0 0 0 0 0 0 0 0 0 0 0 0 0 0 0 0 0 0 0 0 0 0 0 "/>
</feComponentTransfer>
<feComposite operator="in" in2="effect7_innerShadow_267_16301" in="coloredNoise1" result="noise1Clipped" />
<feComponentTransfer in="noise1Clipped" result="color1">
<feFuncA type="table" tableValues="0 0.04" />
</feComponentTransfer>
<feMerge result="effect8_noise_267_16301">
<feMergeNode in="effect7_innerShadow_267_16301" />
<feMergeNode in="color1" />
</feMerge>
</filter>
<filter id="filter2_f_267_16301" x="2.36635" y="2.3683" width="30.5017" height="30.5007" filterUnits="userSpaceOnUse" color-interpolation-filters="sRGB">
<feFlood flood-opacity="0" result="BackgroundImageFix"/>
<feBlend mode="normal" in="SourceGraphic" in2="BackgroundImageFix" result="shape"/>
<feGaussianBlur stdDeviation="1.20159" result="effect1_foregroundBlur_267_16301"/>
</filter>
<filter id="filter3_f_267_16301" x="0.90583" y="1.23493" width="19.7118" height="19.3837" filterUnits="userSpaceOnUse" color-interpolation-filters="sRGB">
<feFlood flood-opacity="0" result="BackgroundImageFix"/>
<feBlend mode="normal" in="SourceGraphic" in2="BackgroundImageFix" result="shape"/>
<feGaussianBlur stdDeviation="1.50021" result="effect1_foregroundBlur_267_16301"/>
</filter>
<filter id="filter4_f_267_16301" x="4.08258" y="4.08258" width="27.0712" height="27.0712" filterUnits="userSpaceOnUse" color-interpolation-filters="sRGB">
<feFlood flood-opacity="0" result="BackgroundImageFix"/>
<feBlend mode="normal" in="SourceGraphic" in2="BackgroundImageFix" result="shape"/>
<feGaussianBlur stdDeviation="0.78" result="effect1_foregroundBlur_267_16301"/>
</filter>
<filter id="filter5_ddii_267_16301" x="5.10977" y="11.1395" width="26.0929" height="14.1583" filterUnits="userSpaceOnUse" color-interpolation-filters="sRGB">
<feFlood flood-opacity="0" result="BackgroundImageFix"/>
<feColorMatrix in="SourceAlpha" type="matrix" values="0 0 0 0 0 0 0 0 0 0 0 0 0 0 0 0 0 0 127 0" result="hardAlpha"/>
<feOffset dx="0.54" dy="0.6"/>
<feGaussianBlur stdDeviation="0.72"/>
<feComposite in2="hardAlpha" operator="out"/>
<feColorMatrix type="matrix" values="0 0 0 0 0.078478 0 0 0 0 0.212474 0 0 0 0 0.544114 0 0 0 0.39 0"/>
<feBlend mode="normal" in2="BackgroundImageFix" result="effect1_dropShadow_267_16301"/>
<feColorMatrix in="SourceAlpha" type="matrix" values="0 0 0 0 0 0 0 0 0 0 0 0 0 0 0 0 0 0 127 0" result="hardAlpha"/>
<feOffset dx="0.12" dy="0.12"/>
<feGaussianBlur stdDeviation="0.354"/>
<feComposite in2="hardAlpha" operator="out"/>
<feColorMatrix type="matrix" values="0 0 0 0 0 0 0 0 0 0.181926 0 0 0 0 0.632193 0 0 0 0.25 0"/>
<feBlend mode="normal" in2="effect1_dropShadow_267_16301" result="effect2_dropShadow_267_16301"/>
<feBlend mode="normal" in="SourceGraphic" in2="effect2_dropShadow_267_16301" result="shape"/>
<feColorMatrix in="SourceAlpha" type="matrix" values="0 0 0 0 0 0 0 0 0 0 0 0 0 0 0 0 0 0 127 0" result="hardAlpha"/>
<feOffset dx="-0.12" dy="-0.12"/>
<feGaussianBlur stdDeviation="0.12"/>
<feComposite in2="hardAlpha" operator="arithmetic" k2="-1" k3="1"/>
<feColorMatrix type="matrix" values="0 0 0 0 0 0 0 0 0 0 0 0 0 0 0 0 0 0 0.13 0"/>
<feBlend mode="normal" in2="shape" result="effect3_innerShadow_267_16301"/>
<feColorMatrix in="SourceAlpha" type="matrix" values="0 0 0 0 0 0 0 0 0 0 0 0 0 0 0 0 0 0 127 0" result="hardAlpha"/>
<feOffset dx="0.12" dy="0.12"/>
<feGaussianBlur stdDeviation="0.12"/>
<feComposite in2="hardAlpha" operator="arithmetic" k2="-1" k3="1"/>
<feColorMatrix type="matrix" values="0 0 0 0 1 0 0 0 0 1 0 0 0 0 1 0 0 0 0.71 0"/>
<feBlend mode="normal" in2="effect3_innerShadow_267_16301" result="effect4_innerShadow_267_16301"/>
</filter>
<linearGradient id="paint0_linear_267_16301" x1="17.6185" y1="2.6875" x2="17.6185" y2="32.5495" gradientUnits="userSpaceOnUse">
<stop stop-color="#1F95EE" style="stop-color:#1F95EE;stop-color:color(display-p3 0.1205 0.5853 0.9340);stop-opacity:1;"/>
<stop offset="1" stop-color="#0145B9" style="stop-color:#0145B9;stop-color:color(display-p3 0.0051 0.2688 0.7267);stop-opacity:1;"/>
</linearGradient>
<radialGradient id="paint1_radial_267_16301" cx="0" cy="0" r="1" gradientUnits="userSpaceOnUse" gradientTransform="translate(28.3196 27.6359) rotate(-132.5) scale(21.1885)">
<stop stop-color="#66BDF1" style="stop-color:#66BDF1;stop-color:color(display-p3 0.4000 0.7412 0.9451);stop-opacity:1;"/>
<stop offset="1" stop-color="#8E9CC0" stop-opacity="0" style="stop-color:none;stop-opacity:0;"/>
</radialGradient>
<radialGradient id="paint2_radial_267_16301" cx="0" cy="0" r="1" gradientUnits="userSpaceOnUse" gradientTransform="translate(28.8432 28.4367) rotate(-126.769) scale(15.4717)">
<stop stop-color="#94D7FF" style="stop-color:#94D7FF;stop-color:color(display-p3 0.5817 0.8435 1.0000);stop-opacity:1;"/>
<stop offset="1" stop-color="#6981C2" stop-opacity="0" style="stop-color:none;stop-opacity:0;"/>
</radialGradient>
<radialGradient id="paint3_radial_267_16301" cx="0" cy="0" r="1" gradientUnits="userSpaceOnUse" gradientTransform="translate(6.09863 5.35175) rotate(51.4252) scale(21.5147)">
<stop stop-color="#E3EBF7" style="stop-color:#E3EBF7;stop-color:color(display-p3 0.8895 0.9213 0.9695);stop-opacity:1;"/>
<stop offset="1" stop-color="#9EA6BB" stop-opacity="0" style="stop-color:none;stop-opacity:0;"/>
</radialGradient>
<linearGradient id="paint4_linear_267_16301" x1="7.51607" y1="6.41041" x2="12.8806" y2="12.7435" gradientUnits="userSpaceOnUse">
<stop stop-color="white" style="stop-color:white;stop-opacity:1;"/>
<stop offset="1" stop-color="white" stop-opacity="0" style="stop-color:none;stop-opacity:0;"/>
</linearGradient>
<radialGradient id="paint5_radial_267_16301" cx="0" cy="0" r="1" gradientUnits="userSpaceOnUse" gradientTransform="translate(16.6307 14.5652) rotate(46.0658) scale(17.4641)">
<stop stop-color="white" stop-opacity="0" style="stop-color:none;stop-opacity:0;"/>
<stop offset="1" stop-color="white" style="stop-color:white;stop-opacity:1;"/>
</radialGradient>
<linearGradient id="paint6_linear_267_16301" x1="7.75935" y1="6.15633" x2="23.2298" y2="32.5495" gradientUnits="userSpaceOnUse">
<stop stop-color="white" style="stop-color:white;stop-opacity:1;"/>
<stop offset="0.680531" stop-color="white" stop-opacity="0" style="stop-color:none;stop-opacity:0;"/>
<stop offset="1" stop-color="white" style="stop-color:white;stop-opacity:1;"/>
</linearGradient>
<linearGradient id="paint7_linear_267_16301" x1="18.9655" y1="16.0939" x2="19.5706" y2="25.3715" gradientUnits="userSpaceOnUse">
<stop stop-color="white" style="stop-color:white;stop-opacity:1;"/>
<stop offset="1" stop-color="#C3CFE9" style="stop-color:#C3CFE9;stop-color:color(display-p3 0.7647 0.8118 0.9137);stop-opacity:1;"/>
</linearGradient>
<linearGradient id="paint8_linear_267_16301" x1="15.6573" y1="14.1209" x2="16.5211" y2="19.4697" gradientUnits="userSpaceOnUse">
<stop stop-color="#F4FBFD" style="stop-color:#F4FBFD;stop-color:color(display-p3 0.9569 0.9843 0.9922);stop-opacity:1;"/>
<stop offset="1" stop-color="#C1D1EB" style="stop-color:#C1D1EB;stop-color:color(display-p3 0.7569 0.8196 0.9216);stop-opacity:1;"/>
</linearGradient>
<linearGradient id="paint9_linear_267_16301" x1="17.6167" y1="12.0391" x2="17.6167" y2="23.1982" gradientUnits="userSpaceOnUse">
<stop stop-color="white" style="stop-color:white;stop-opacity:1;"/>
<stop offset="1" stop-color="#999999" stop-opacity="0" style="stop-color:none;stop-opacity:0;"/>
</linearGradient>
<clipPath id="clip0_267_16301">
<rect x="2.6875" y="2.6875" width="29.862" height="29.862" rx="7.6788" fill="white" style="fill:white;fill-opacity:1;"/>
</clipPath>
</defs>
</svg>
