<svg width="306" height="221" viewBox="0 0 306 221" fill="none" xmlns="http://www.w3.org/2000/svg">
<rect width="306" height="292.05" rx="15" fill="white" style="fill:white;fill-opacity:1;"/>
<rect x="0.465" y="0.465" width="305.07" height="291.12" rx="14.535" stroke="#D9D9D9" stroke-opacity="0.36" style="stroke:#D9D9D9;stroke:color(display-p3 0.8510 0.8510 0.8510);stroke-opacity:0.36;" stroke-width="0.93"/>
<path d="M16.8211 19.4352H18.5026L20.556 27.8275L22.6243 19.4352H24.2462L26.3294 27.8275L28.3531 19.4352H30.0643L27.2669 30H25.4218L23.4427 22.4558L21.4637 30H19.6186L16.8211 19.4352ZM30.9808 19.4352H32.5284V23.1701C32.9896 22.307 33.8824 21.935 34.8496 21.935C36.6204 21.935 37.4983 23.2445 37.4983 24.9259V30H35.9508V25.4616C35.9508 24.0778 35.5341 23.3189 34.433 23.3189C33.2575 23.3189 32.5284 24.0778 32.5284 25.4616V30H30.9808V19.4352ZM42.2167 30.1786C39.955 30.1786 38.4819 28.5715 38.4819 26.0568C38.4819 23.5421 39.955 21.935 42.2167 21.935C44.4785 21.935 45.9516 23.5421 45.9516 26.0568C45.9516 28.5715 44.4785 30.1786 42.2167 30.1786ZM40.0889 26.0568C40.0889 27.7829 40.8627 28.8245 42.2167 28.8245C43.5708 28.8245 44.3446 27.7829 44.3446 26.0568C44.3446 24.3307 43.5708 23.2891 42.2167 23.2891C40.8627 23.2891 40.0889 24.3307 40.0889 26.0568ZM49.7302 26.0568C49.7302 23.5421 51.2033 21.935 53.4651 21.935C55.3102 21.935 56.9173 23.1552 57.0065 25.9675L57.0214 26.5032H51.3521C51.4712 27.9763 52.2152 28.8394 53.4651 28.8394C54.2537 28.8394 54.9531 28.393 55.2805 27.6341L56.9024 27.7531C56.4411 29.2411 55.0573 30.1786 53.4651 30.1786C51.2033 30.1786 49.7302 28.5715 49.7302 26.0568ZM51.3819 25.3128H55.3846C55.1763 23.795 54.3579 23.2742 53.4651 23.2742C52.3045 23.2742 51.5753 24.0331 51.3819 25.3128ZM58.2002 22.1136H59.5989L59.6436 23.4082C60.0304 22.4707 60.834 21.935 61.8904 21.935C63.0213 21.935 63.8397 22.5302 64.182 23.5718C64.5391 22.5005 65.3575 21.935 66.5479 21.935C68.1549 21.935 69.1072 23.0064 69.1072 24.9259V30H67.5597V25.3872C67.5597 24.0034 67.0538 23.2445 66.161 23.2445C65.0301 23.2445 64.3903 24.0182 64.3903 25.3872V30H62.9172V25.3872C62.9172 24.0331 62.4112 23.2445 61.5184 23.2445C60.4024 23.2445 59.7477 24.0331 59.7477 25.3872V30H58.2002V22.1136ZM70.4125 24.4646C70.725 22.8874 71.9749 21.935 73.7605 21.935C75.9032 21.935 77.0638 23.1254 77.0638 25.2682V28.2442C77.0638 28.6162 77.2275 28.7501 77.54 28.7501H77.8674V30H77.3466C76.6323 30.0149 75.6949 29.8661 75.6354 28.7947C75.2931 29.5387 74.4152 30.1786 73.1206 30.1786C71.5434 30.1786 70.2786 29.3453 70.2786 27.9317C70.2786 26.3395 71.4541 25.8931 73.2546 25.5509L75.5163 25.1045C75.5014 23.8397 74.9211 23.2296 73.7605 23.2296C72.8379 23.2296 72.2278 23.6909 72.0046 24.5688L70.4125 24.4646ZM71.8856 27.9019C71.8856 28.4822 72.3766 28.9584 73.4182 28.9584C74.6235 28.9584 75.5461 28.1102 75.5461 26.3842V26.3098L73.8498 26.6074C72.7486 26.8008 71.8856 26.8901 71.8856 27.9019ZM78.8503 22.1136H80.3978V30H78.8503V22.1136ZM78.8354 20.9381V19.4352H80.4424V20.9381H78.8354ZM82.2674 19.4352H83.8149V28.1995C83.8149 28.5566 83.9786 28.7203 84.3209 28.7203H84.9756V30H83.9935C82.9519 30 82.2674 29.3304 82.2674 28.2739V19.4352ZM90.5094 24.5837C90.3458 23.7504 89.5422 23.2445 88.7238 23.2445C87.9203 23.2445 87.2656 23.6611 87.2805 24.3605C87.2805 25.0747 88.2179 25.3723 89.0214 25.5211C90.9558 25.8782 92.2355 26.399 92.2355 27.9466C92.2355 29.4941 90.6582 30.1786 89.0363 30.1786C87.0424 30.1786 85.599 29.1518 85.48 27.515L87.0722 27.4109C87.221 28.3037 87.9203 28.8542 89.0214 28.8542C89.7208 28.8542 90.6285 28.6162 90.6285 27.887C90.6136 27.024 89.6166 26.9198 88.7536 26.7264C87.1168 26.3693 85.6734 25.9378 85.6734 24.42C85.6734 22.8874 86.9085 21.935 88.8578 21.935C90.5392 21.935 91.8486 22.932 92.1016 24.4944L90.5094 24.5837ZM95.6741 22.1136H97.2514L99.4982 28.3632L101.671 22.1136H103.233L100.079 30.9226C99.7512 31.8302 99.156 32.232 98.1888 32.232H97.1174V30.9672H97.9805C98.3822 30.9672 98.6203 30.8184 98.7542 30.4464L99.0221 29.7768H98.531L95.6741 22.1136ZM106.974 30.1786C104.712 30.1786 103.239 28.5715 103.239 26.0568C103.239 23.5421 104.712 21.935 106.974 21.935C109.236 21.935 110.709 23.5421 110.709 26.0568C110.709 28.5715 109.236 30.1786 106.974 30.1786ZM104.846 26.0568C104.846 27.7829 105.62 28.8245 106.974 28.8245C108.328 28.8245 109.102 27.7829 109.102 26.0568C109.102 24.3307 108.328 23.2891 106.974 23.2891C105.62 23.2891 104.846 24.3307 104.846 26.0568ZM118.328 30H116.87L116.855 28.7054C116.438 29.7322 115.546 30.1786 114.519 30.1786C112.778 30.1786 111.885 28.8989 111.885 27.1877V22.1136H113.433V26.7115C113.433 28.1102 113.849 28.8691 114.921 28.8691C116.037 28.8691 116.781 28.1102 116.781 26.7115V22.1136H118.328V30ZM123.965 20.328H125.512V22.1136H127.61V23.3933H125.512V27.7531C125.512 28.393 125.825 28.7203 126.435 28.7203H127.595V30H126.301C124.783 30 123.965 29.2114 123.965 27.7531V23.3933H122.774V22.1136H123.965V20.328ZM128.741 19.4352H130.289V23.1701C130.75 22.307 131.643 21.935 132.61 21.935C134.381 21.935 135.259 23.2445 135.259 24.9259V30H133.711V25.4616C133.711 24.0778 133.295 23.3189 132.193 23.3189C131.018 23.3189 130.289 24.0778 130.289 25.4616V30H128.741V19.4352ZM136.242 26.0568C136.242 23.5421 137.715 21.935 139.977 21.935C141.822 21.935 143.429 23.1552 143.519 25.9675L143.534 26.5032H137.864C137.983 27.9763 138.727 28.8394 139.977 28.8394C140.766 28.8394 141.465 28.393 141.793 27.6341L143.414 27.7531C142.953 29.2411 141.569 30.1786 139.977 30.1786C137.715 30.1786 136.242 28.5715 136.242 26.0568ZM137.894 25.3128H141.897C141.688 23.795 140.87 23.2742 139.977 23.2742C138.817 23.2742 138.087 24.0331 137.894 25.3128ZM147.837 22.1136H149.236L149.28 23.4082C149.667 22.4707 150.471 21.935 151.527 21.935C152.658 21.935 153.477 22.5302 153.819 23.5718C154.176 22.5005 154.994 21.935 156.185 21.935C157.792 21.935 158.744 23.0064 158.744 24.9259V30H157.197V25.3872C157.197 24.0034 156.691 23.2445 155.798 23.2445C154.667 23.2445 154.027 24.0182 154.027 25.3872V30H152.554V25.3872C152.554 24.0331 152.048 23.2445 151.155 23.2445C150.039 23.2445 149.385 24.0331 149.385 25.3872V30H147.837V22.1136ZM163.447 30.1786C161.185 30.1786 159.712 28.5715 159.712 26.0568C159.712 23.5421 161.185 21.935 163.447 21.935C165.709 21.935 167.182 23.5421 167.182 26.0568C167.182 28.5715 165.709 30.1786 163.447 30.1786ZM161.319 26.0568C161.319 27.7829 162.093 28.8245 163.447 28.8245C164.801 28.8245 165.575 27.7829 165.575 26.0568C165.575 24.3307 164.801 23.2891 163.447 23.2891C162.093 23.2891 161.319 24.3307 161.319 26.0568ZM172.952 24.5837C172.789 23.7504 171.985 23.2445 171.167 23.2445C170.363 23.2445 169.708 23.6611 169.723 24.3605C169.723 25.0747 170.661 25.3723 171.464 25.5211C173.399 25.8782 174.678 26.399 174.678 27.9466C174.678 29.4941 173.101 30.1786 171.479 30.1786C169.485 30.1786 168.042 29.1518 167.923 27.515L169.515 27.4109C169.664 28.3037 170.363 28.8542 171.464 28.8542C172.164 28.8542 173.071 28.6162 173.071 27.887C173.056 27.024 172.059 26.9198 171.196 26.7264C169.56 26.3693 168.116 25.9378 168.116 24.42C168.116 22.8874 169.351 21.935 171.301 21.935C172.982 21.935 174.291 22.932 174.544 24.4944L172.952 24.5837ZM176.325 20.328H177.872V22.1136H179.97V23.3933H177.872V27.7531C177.872 28.393 178.185 28.7203 178.795 28.7203H179.955V30H178.661C177.143 30 176.325 29.2114 176.325 27.7531V23.3933H175.134V22.1136H176.325V20.328Z" fill="#A1A1A1" style="fill:#A1A1A1;fill:color(display-p3 0.6319 0.6319 0.6319);fill-opacity:1;"/>
<path d="M17.6405 55.4309C17.8414 56.5023 18.6003 57.2388 19.8614 57.2388C20.8881 57.2388 21.58 56.8147 21.58 56.0224C21.58 55.2189 20.8881 54.7278 19.2922 54.3149C17.9753 53.9801 16.8258 53.3551 16.8258 52.0829C16.8258 50.7549 17.8972 49.9179 19.415 49.9179C21.1113 49.9179 22.2384 50.9781 22.3947 52.4289L21.4126 52.4958C21.2787 51.5026 20.5086 50.833 19.4038 50.833C18.4775 50.833 17.8079 51.3129 17.8079 52.0829C17.8079 53.0538 18.9351 53.3217 19.973 53.6118C21.4349 54.0136 22.5621 54.7278 22.5621 55.9331C22.5621 57.3839 21.2229 58.1539 19.7944 58.1539C18.0534 58.1539 16.7812 57.0826 16.6584 55.4979L17.6405 55.4309ZM23.6386 55.0626C23.6386 53.1877 24.6988 51.9713 26.3393 51.9713C27.6562 51.9713 28.8057 52.8529 28.9061 54.9399L28.9173 55.3528H24.6095C24.6988 56.5692 25.3126 57.2835 26.3393 57.2835C26.9866 57.2835 27.5669 56.904 27.8347 56.2791L28.8168 56.346C28.4709 57.462 27.4776 58.1539 26.3393 58.1539C24.6988 58.1539 23.6386 56.9375 23.6386 55.0626ZM24.6318 54.5381H27.9129C27.7455 53.2882 27.0759 52.8418 26.3393 52.8418C25.3907 52.8418 24.7769 53.4667 24.6318 54.5381ZM30.2286 52.1052H31.0656L31.099 53.1208C31.4004 52.3284 32.1034 51.9713 32.9181 51.9713C34.2685 51.9713 34.9158 52.9645 34.9158 54.2145V58.02H34.0006V54.4823C34.0006 53.3886 33.6324 52.786 32.7284 52.786C31.7686 52.786 31.1437 53.3886 31.1437 54.4823V58.02H30.2286V52.1052ZM41.2919 50.0964V58.02H40.466L40.4326 57.1495C40.0978 57.7745 39.4616 58.1539 38.5465 58.1539C36.839 58.1539 36.0467 56.7031 36.0467 55.0626C36.0467 53.4221 36.839 51.9713 38.5465 51.9713C39.417 51.9713 40.042 52.3061 40.3768 52.9087V50.0964H41.2919ZM37.0064 55.0626C37.0064 56.2121 37.4975 57.2835 38.7362 57.2835C39.9527 57.2835 40.4549 56.1898 40.4549 55.0626C40.4549 53.8908 39.9527 52.8083 38.7362 52.8083C37.4975 52.8083 37.0064 53.8797 37.0064 55.0626ZM42.6485 55.0626C42.6485 53.1877 43.7087 51.9713 45.3492 51.9713C46.6661 51.9713 47.8156 52.8529 47.916 54.9399L47.9272 55.3528H43.6194C43.7087 56.5692 44.3225 57.2835 45.3492 57.2835C45.9965 57.2835 46.5768 56.904 46.8447 56.2791L47.8268 56.346C47.4808 57.462 46.4876 58.1539 45.3492 58.1539C43.7087 58.1539 42.6485 56.9375 42.6485 55.0626ZM43.6418 54.5381H46.9228C46.7554 53.2882 46.0858 52.8418 45.3492 52.8418C44.4006 52.8418 43.7868 53.4667 43.6418 54.5381ZM49.2385 52.1052H50.042L50.0755 53.1989C50.2764 52.4512 50.7228 52.1052 51.4928 52.1052H52.062V52.9087H51.4928C50.5889 52.9087 50.1536 53.4667 50.1536 54.4935V58.02H49.2385V52.1052Z" fill="#A1A1A1" style="fill:#A1A1A1;fill:color(display-p3 0.6319 0.6319 0.6319);fill-opacity:1;"/>
<path d="M256.027 50.0964H260.993V51.0115H256.964V53.6007H260.859V54.4935H256.964V57.1049H261.082V58.02H256.027V50.0964ZM262.55 52.1052H263.387L263.421 53.1096C263.689 52.3842 264.303 51.9713 265.128 51.9713C265.977 51.9713 266.59 52.4289 266.847 53.2212C267.104 52.4177 267.729 51.9713 268.655 51.9713C269.838 51.9713 270.53 52.7971 270.53 54.2145V58.02H269.615V54.4823C269.615 53.3998 269.191 52.786 268.465 52.786C267.539 52.786 267.003 53.4109 267.003 54.4935V58.02H266.088V54.4823C266.088 53.4221 265.653 52.786 264.939 52.786C264.024 52.786 263.466 53.4333 263.466 54.4823V58.02H262.55V52.1052ZM271.924 53.8462C272.158 52.6967 273.073 51.9713 274.334 51.9713C275.863 51.9713 276.711 52.8641 276.711 54.4488V56.8259C276.711 57.0937 276.823 57.2053 277.08 57.2053H277.314V58.02H276.923C276.321 58.02 275.796 57.8191 275.807 57.0937C275.551 57.6517 274.881 58.1539 273.944 58.1539C272.772 58.1539 271.823 57.529 271.823 56.4799C271.823 55.2635 272.75 54.951 274.044 54.6943L275.796 54.3595C275.785 53.3328 275.305 52.8418 274.334 52.8418C273.575 52.8418 273.073 53.2324 272.895 53.9243L271.924 53.8462ZM272.783 56.4799C272.783 56.9598 273.196 57.3504 274.067 57.3393C275.049 57.3393 275.819 56.6473 275.819 55.2747V55.1742L274.401 55.4197C273.52 55.576 272.783 55.6429 272.783 56.4799ZM278.457 52.1052H279.372V58.02H278.457V52.1052ZM278.435 51.1789V50.1187H279.394V51.1789H278.435ZM281.179 50.0964H282.095V56.8371C282.095 57.0937 282.217 57.2053 282.474 57.2053H282.976V58.02H282.34C281.637 58.02 281.179 57.5625 281.179 56.8817V50.0964ZM287.511 53.9243C287.377 53.2435 286.707 52.8418 286.038 52.8418C285.368 52.8418 284.832 53.1877 284.832 53.7569C284.843 54.3372 285.591 54.5827 286.261 54.7278C287.611 54.9845 288.582 55.3639 288.582 56.5134C288.582 57.6517 287.41 58.1539 286.283 58.1539C284.888 58.1539 283.817 57.3839 283.727 56.1675L284.687 56.1005C284.799 56.8147 285.379 57.2835 286.283 57.2835C286.886 57.2835 287.622 57.0826 287.622 56.4688C287.622 55.7545 286.774 55.6764 286.093 55.509C285 55.2523 283.884 54.9399 283.884 53.8127C283.873 52.6855 284.788 51.9713 286.138 51.9713C287.321 51.9713 288.281 52.719 288.47 53.8573L287.511 53.9243Z" fill="#A1A1A1" style="fill:#A1A1A1;fill:color(display-p3 0.6319 0.6319 0.6319);fill-opacity:1;"/>
<rect x="16.465" y="74.505" width="273.07" height="24.23" rx="7.905" fill="#F8F8F8" style="fill:#F8F8F8;fill:color(display-p3 0.9712 0.9712 0.9712);fill-opacity:1;"/>
<rect x="16.465" y="74.505" width="273.07" height="24.23" rx="7.905" stroke="#E6E6E6" style="stroke:#E6E6E6;stroke:color(display-p3 0.9020 0.9020 0.9020);stroke-opacity:1;" stroke-width="0.93"/>
<path d="M24.3701 74.5049H256.075V98.7354H24.3701C20.0043 98.7354 16.4649 95.1959 16.4648 90.8301V82.4102C16.4648 78.0443 20.0043 74.5049 24.3701 74.5049Z" fill="#C2D6F8" style="fill:#C2D6F8;fill:color(display-p3 0.7608 0.8392 0.9725);fill-opacity:1;"/>
<path d="M24.3701 74.5049H256.075V98.7354H24.3701C20.0043 98.7354 16.4649 95.1959 16.4648 90.8301V82.4102C16.4648 78.0443 20.0043 74.5049 24.3701 74.5049Z" stroke="#ABC7F6" style="stroke:#ABC7F6;stroke:color(display-p3 0.6698 0.7795 0.9660);stroke-opacity:1;" stroke-width="0.93"/>
<path d="M25.8191 88.0021C25.9951 88.9261 26.6441 89.5311 27.7221 89.5311C28.5691 89.5311 29.1411 89.2011 29.1301 88.5521C29.1301 87.8921 28.5581 87.5071 27.2051 87.1661C25.6871 86.8031 24.5761 86.1321 24.5761 84.8781C24.5761 83.4921 25.6981 82.6341 27.3591 82.6341C29.0861 82.6341 30.2411 83.6901 30.4171 85.2081L29.0091 85.2851C28.8991 84.4051 28.2611 83.8441 27.3371 83.8441C26.5451 83.8441 25.9731 84.2511 25.9951 84.8891C26.0061 85.6701 26.9521 85.9011 27.8321 86.1321C29.4271 86.5171 30.5491 87.2541 30.5491 88.4751C30.5491 89.9491 29.2291 90.7521 27.6671 90.7521C25.8411 90.7521 24.5431 89.7071 24.4111 88.0791L25.8191 88.0021ZM32.1311 83.4701H33.4951V84.7901H35.0351V85.8571H33.4951V88.8491C33.4951 89.3111 33.7151 89.5421 34.1551 89.5421H35.0351V90.6201H33.9461C32.7581 90.6201 32.1311 90.0151 32.1311 88.8491V85.8571H31.2181V84.7901H32.1311V83.4701ZM36.1204 84.7901H37.3964L37.4294 85.9121C37.6274 85.1531 38.0674 84.7901 38.8154 84.7901H39.3654V85.8571H38.8154C37.8804 85.8571 37.4844 86.3301 37.4844 87.2761V90.6201H36.1204V84.7901ZM40.275 84.7901H41.639V90.6201H40.275V84.7901ZM40.253 83.9651V82.8101H41.672V83.9651H40.253ZM43.0439 92.2701V84.7901H44.3309L44.3639 85.6481C44.6829 85.0101 45.2879 84.6581 46.1239 84.6581C47.8069 84.6581 48.6209 86.0441 48.6209 87.7051C48.6209 89.3661 47.8069 90.7521 46.1239 90.7521C45.3429 90.7521 44.7489 90.4221 44.4079 89.8061V92.2701H43.0439ZM44.2979 87.7051C44.2979 88.7061 44.7489 89.6301 45.7499 89.6301C46.7729 89.6301 47.2019 88.7171 47.2019 87.7051C47.2019 86.6931 46.7619 85.7691 45.7499 85.7691C44.7379 85.7691 44.2979 86.7041 44.2979 87.7051ZM49.4569 87.7051C49.4569 85.8571 50.5899 84.6581 52.3169 84.6581C53.7909 84.6581 54.9899 85.6481 55.0339 87.7161V88.0791H50.8869C50.9529 89.0691 51.4699 89.6521 52.3169 89.6521C52.8559 89.6521 53.3399 89.3441 53.5599 88.8381L54.9569 88.9371C54.6049 90.0591 53.5599 90.7521 52.3169 90.7521C50.5899 90.7521 49.4569 89.5531 49.4569 87.7051ZM50.8979 87.1441H53.6259C53.5049 86.1211 52.9439 85.7471 52.3169 85.7471C51.5249 85.7471 51.0189 86.2751 50.8979 87.1441Z" fill="black" style="fill:black;fill-opacity:1;"/>
<path d="M63.5672 84.6251V85.5491L59.3652 87.4411L63.5672 89.3221V90.2461L58.5622 88.0021V86.8691L63.5672 84.6251ZM64.9073 84.7901H65.7323L65.7653 85.7911C66.0623 85.0101 66.7553 84.6581 67.5583 84.6581C68.8893 84.6581 69.5273 85.6371 69.5273 86.8691V90.6201H68.6253V87.1331C68.6253 86.0551 68.2623 85.4611 67.3713 85.4611C66.4253 85.4611 65.8093 86.0551 65.8093 87.1331V90.6201H64.9073V84.7901ZM73.304 90.7521C71.687 90.7521 70.642 89.5531 70.642 87.7051C70.642 85.8571 71.687 84.6581 73.304 84.6581C74.921 84.6581 75.966 85.8571 75.966 87.7051C75.966 89.5531 74.921 90.7521 73.304 90.7521ZM71.588 87.7051C71.588 89.0691 72.215 89.8941 73.304 89.8941C74.382 89.8941 75.02 89.0691 75.02 87.7051C75.02 86.3411 74.382 85.5161 73.304 85.5161C72.215 85.5161 71.588 86.3411 71.588 87.7051ZM77.5594 83.4701H78.4614V84.7901H80.0124V85.5931H78.4614V89.0801C78.4614 89.5751 78.7034 89.8171 79.1654 89.8171H80.0014V90.6201H79.1654C78.1314 90.6201 77.5594 90.0701 77.5594 89.0801V85.5931H76.7014V84.7901H77.5594V83.4701ZM81.2599 84.7901H82.1619V90.6201H81.2599V84.7901ZM81.2379 83.8771V82.8321H82.1839V83.8771H81.2379ZM84.4934 84.3941C84.4934 83.4371 84.9884 82.8101 86.0554 82.8101H86.9354V83.6021H86.0444C85.6594 83.6021 85.3954 83.9101 85.3954 84.3941V84.7901H86.8694V85.5931H85.3954V90.6201H84.4934V85.5931H83.7014V84.7901H84.4934V84.3941ZM88.2264 84.7901H89.1284V90.6201H88.2264V84.7901ZM88.2044 83.8771V82.8321H89.1504V83.8771H88.2044ZM94.6059 86.7371C94.4739 85.9671 93.8469 85.5161 93.1319 85.5161C92.0429 85.5161 91.4159 86.3411 91.4159 87.7051C91.4159 89.0691 92.0429 89.8941 93.1319 89.8941C93.8799 89.8941 94.5179 89.3991 94.6499 88.5631L95.6069 88.6181C95.4199 89.9381 94.3749 90.7521 93.1319 90.7521C91.5149 90.7521 90.4699 89.5531 90.4699 87.7051C90.4699 85.8571 91.5149 84.6581 93.1319 84.6581C94.3309 84.6581 95.3979 85.4281 95.5519 86.6711L94.6059 86.7371ZM96.5712 86.5061C96.8022 85.3731 97.7042 84.6581 98.9472 84.6581C100.454 84.6581 101.29 85.5381 101.29 87.1001V89.4431C101.29 89.7071 101.4 89.8171 101.653 89.8171H101.884V90.6201H101.499C100.905 90.6201 100.388 90.4221 100.399 89.7071C100.146 90.2571 99.4862 90.7521 98.5622 90.7521C97.4072 90.7521 96.4722 90.1361 96.4722 89.1021C96.4722 87.9031 97.3852 87.5951 98.6612 87.3421L100.388 87.0121C100.377 86.0001 99.9042 85.5161 98.9472 85.5161C98.1992 85.5161 97.7042 85.9011 97.5282 86.5831L96.5712 86.5061ZM97.4182 89.1021C97.4182 89.5751 97.8252 89.9601 98.6832 89.9491C99.6512 89.9491 100.41 89.2671 100.41 87.9141V87.8151L99.0132 88.0571C98.1442 88.2111 97.4182 88.2771 97.4182 89.1021ZM103.132 83.4701H104.034V84.7901H105.585V85.5931H104.034V89.0801C104.034 89.5751 104.276 89.8171 104.738 89.8171H105.574V90.6201H104.738C103.704 90.6201 103.132 90.0701 103.132 89.0801V85.5931H102.274V84.7901H103.132V83.4701ZM106.832 84.7901H107.734V90.6201H106.832V84.7901ZM106.81 83.8771V82.8321H107.756V83.8771H106.81ZM111.738 90.7521C110.121 90.7521 109.076 89.5531 109.076 87.7051C109.076 85.8571 110.121 84.6581 111.738 84.6581C113.355 84.6581 114.4 85.8571 114.4 87.7051C114.4 89.5531 113.355 90.7521 111.738 90.7521ZM110.022 87.7051C110.022 89.0691 110.649 89.8941 111.738 89.8941C112.816 89.8941 113.454 89.0691 113.454 87.7051C113.454 86.3411 112.816 85.5161 111.738 85.5161C110.649 85.5161 110.022 86.3411 110.022 87.7051ZM115.689 84.7901H116.514L116.547 85.7911C116.844 85.0101 117.537 84.6581 118.34 84.6581C119.671 84.6581 120.309 85.6371 120.309 86.8691V90.6201H119.407V87.1331C119.407 86.0551 119.044 85.4611 118.153 85.4611C117.207 85.4611 116.591 86.0551 116.591 87.1331V90.6201H115.689V84.7901ZM125.153 86.5831C125.021 85.9121 124.361 85.5161 123.701 85.5161C123.041 85.5161 122.513 85.8571 122.513 86.4181C122.524 86.9901 123.261 87.2321 123.921 87.3751C125.252 87.6281 126.209 88.0021 126.209 89.1351C126.209 90.2571 125.054 90.7521 123.943 90.7521C122.568 90.7521 121.512 89.9931 121.424 88.7941L122.37 88.7281C122.48 89.4321 123.052 89.8941 123.943 89.8941C124.537 89.8941 125.263 89.6961 125.263 89.0911C125.263 88.3871 124.427 88.3101 123.756 88.1451C122.678 87.8921 121.578 87.5841 121.578 86.4731C121.567 85.3621 122.469 84.6581 123.8 84.6581C124.966 84.6581 125.912 85.3951 126.099 86.5171L125.153 86.5831ZM133.076 85.2301H133.857L133.659 87.7601C133.637 88.0021 133.604 88.4971 133.736 88.6951C134.154 89.3661 135.309 88.7391 135.364 87.0451C135.419 85.1421 133.956 83.5911 132.02 83.5911C129.809 83.5911 128.016 85.2301 127.939 87.3201C127.829 90.2681 130.26 91.6651 133.428 90.4881L133.615 91.2361C130.018 92.6111 127.026 90.7961 127.158 87.3201C127.246 84.7901 129.402 82.8101 132.042 82.8101C134.429 82.8101 136.211 84.6471 136.145 86.9901C136.046 90.2791 133.076 90.2351 132.933 88.7281C132.68 89.2891 131.91 89.7291 131.14 89.7291C129.743 89.7291 129.105 88.6401 129.248 87.4301C129.38 86.2201 130.172 85.1311 131.569 85.1311C132.251 85.1311 132.79 85.4061 133.021 85.8461L133.076 85.2301ZM130.084 87.4301C130.007 88.2771 130.337 89.0801 131.36 89.0801C132.361 89.0801 132.856 88.2661 132.944 87.4411C133.021 86.5721 132.669 85.7581 131.668 85.7581C130.656 85.7581 130.172 86.5501 130.084 87.4301ZM140.821 86.5831C140.689 85.9121 140.029 85.5161 139.369 85.5161C138.709 85.5161 138.181 85.8571 138.181 86.4181C138.192 86.9901 138.929 87.2321 139.589 87.3751C140.92 87.6281 141.877 88.0021 141.877 89.1351C141.877 90.2571 140.722 90.7521 139.611 90.7521C138.236 90.7521 137.18 89.9931 137.092 88.7941L138.038 88.7281C138.148 89.4321 138.72 89.8941 139.611 89.8941C140.205 89.8941 140.931 89.6961 140.931 89.0911C140.931 88.3871 140.095 88.3101 139.424 88.1451C138.346 87.8921 137.246 87.5841 137.246 86.4731C137.235 85.3621 138.137 84.6581 139.468 84.6581C140.634 84.6581 141.58 85.3951 141.767 86.5171L140.821 86.5831ZM143.472 83.4701H144.374V84.7901H145.925V85.5931H144.374V89.0801C144.374 89.5751 144.616 89.8171 145.078 89.8171H145.914V90.6201H145.078C144.044 90.6201 143.472 90.0701 143.472 89.0801V85.5931H142.614V84.7901H143.472V83.4701ZM147.173 84.7901H147.965L147.998 85.8681C148.196 85.1311 148.636 84.7901 149.395 84.7901H149.956V85.5821H149.395C148.504 85.5821 148.075 86.1321 148.075 87.1441V90.6201H147.173V84.7901ZM150.973 84.7901H151.875V90.6201H150.973V84.7901ZM150.951 83.8771V82.8321H151.897V83.8771H150.951ZM153.484 92.2701V84.7901H154.298L154.331 85.6811C154.65 85.0211 155.288 84.6581 156.135 84.6581C157.873 84.6581 158.654 86.0881 158.654 87.7051C158.654 89.3221 157.873 90.7521 156.135 90.7521C155.321 90.7521 154.705 90.4111 154.386 89.7841V92.2701H153.484ZM154.287 87.7051C154.287 88.8161 154.793 89.8831 155.981 89.8831C157.191 89.8831 157.686 88.8381 157.686 87.7051C157.686 86.5721 157.191 85.5161 155.981 85.5161C154.793 85.5161 154.287 86.5941 154.287 87.7051ZM159.573 87.7051C159.573 85.8571 160.618 84.6581 162.235 84.6581C163.533 84.6581 164.666 85.5271 164.765 87.5841L164.776 87.9911H160.53C160.618 89.1901 161.223 89.8941 162.235 89.8941C162.873 89.8941 163.445 89.5201 163.709 88.9041L164.677 88.9701C164.336 90.0701 163.357 90.7521 162.235 90.7521C160.618 90.7521 159.573 89.5531 159.573 87.7051ZM160.552 87.1881H163.786C163.621 85.9561 162.961 85.5161 162.235 85.5161C161.3 85.5161 160.695 86.1321 160.552 87.1881ZM165.704 89.4431H166.87V90.6201H165.704V89.4431ZM171.932 86.7371C171.8 85.9671 171.173 85.5161 170.458 85.5161C169.369 85.5161 168.742 86.3411 168.742 87.7051C168.742 89.0691 169.369 89.8941 170.458 89.8941C171.206 89.8941 171.844 89.3991 171.976 88.5631L172.933 88.6181C172.746 89.9381 171.701 90.7521 170.458 90.7521C168.841 90.7521 167.796 89.5531 167.796 87.7051C167.796 85.8571 168.841 84.6581 170.458 84.6581C171.657 84.6581 172.724 85.4281 172.878 86.6711L171.932 86.7371ZM176.407 90.7521C174.79 90.7521 173.745 89.5531 173.745 87.7051C173.745 85.8571 174.79 84.6581 176.407 84.6581C178.024 84.6581 179.069 85.8571 179.069 87.7051C179.069 89.5531 178.024 90.7521 176.407 90.7521ZM174.691 87.7051C174.691 89.0691 175.318 89.8941 176.407 89.8941C177.485 89.8941 178.123 89.0691 178.123 87.7051C178.123 86.3411 177.485 85.5161 176.407 85.5161C175.318 85.5161 174.691 86.3411 174.691 87.7051ZM180.359 84.7901H181.184L181.217 85.7801C181.481 85.0651 182.086 84.6581 182.9 84.6581C183.736 84.6581 184.341 85.1091 184.594 85.8901C184.847 85.0981 185.463 84.6581 186.376 84.6581C187.542 84.6581 188.224 85.4721 188.224 86.8691V90.6201H187.322V87.1331C187.322 86.0661 186.904 85.4611 186.189 85.4611C185.276 85.4611 184.748 86.0771 184.748 87.1441V90.6201H183.846V87.1331C183.846 86.0881 183.417 85.4611 182.713 85.4611C181.811 85.4611 181.261 86.0991 181.261 87.1331V90.6201H180.359V84.7901ZM189.521 84.6251L194.526 86.8691V88.0021L189.521 90.2461V89.3221L193.723 87.4411L189.521 85.5491V84.6251Z" fill="black" fill-opacity="0.43" style="fill:black;fill-opacity:0.43;"/>
<path d="M270.94 84.5481C270.709 83.9101 270.148 83.5361 269.422 83.5361C268.245 83.5361 267.508 84.5591 267.365 86.4401C267.794 85.7141 268.498 85.3071 269.356 85.3071C270.896 85.3071 271.941 86.4181 271.941 88.0241C271.941 89.7181 270.808 90.7961 269.202 90.7961C268.509 90.7961 267.816 90.5431 267.244 89.9711C266.694 89.3771 266.419 88.4091 266.419 87.1771C266.419 84.8451 267.178 82.6341 269.422 82.6341C270.599 82.6341 271.556 83.2831 271.908 84.4821L270.94 84.5481ZM267.431 88.0241C267.409 89.1131 268.157 89.8941 269.224 89.8941C270.247 89.8941 270.984 89.1131 270.984 88.0241C270.984 86.9571 270.28 86.2091 269.29 86.2091C268.212 86.2091 267.442 86.9571 267.431 88.0241ZM277.623 82.8101V88.1121H278.525V89.0141H277.623V90.6201H276.699V89.0141H272.651V88.1121L276.644 82.8101H277.623ZM273.795 88.1121H276.699V84.2291L273.795 88.1121Z" fill="black" style="fill:black;fill-opacity:1;"/>
<rect x="16.465" y="107.105" width="273.07" height="24.23" rx="7.905" fill="#F8F8F8" style="fill:#F8F8F8;fill:color(display-p3 0.9712 0.9712 0.9712);fill-opacity:1;"/>
<rect x="16.465" y="107.105" width="273.07" height="24.23" rx="7.905" stroke="#E6E6E6" style="stroke:#E6E6E6;stroke:color(display-p3 0.9020 0.9020 0.9020);stroke-opacity:1;" stroke-width="0.93"/>
<path d="M24.3701 107.105H241.195V131.335H24.3701C20.0043 131.335 16.4649 127.796 16.4648 123.43V115.01C16.4648 110.644 20.0043 107.105 24.3701 107.105Z" fill="#C2D6F8" style="fill:#C2D6F8;fill:color(display-p3 0.7608 0.8392 0.9725);fill-opacity:1;"/>
<path d="M24.3701 107.105H241.195V131.335H24.3701C20.0043 131.335 16.4649 127.796 16.4648 123.43V115.01C16.4648 110.644 20.0043 107.105 24.3701 107.105Z" stroke="#ABC7F6" style="stroke:#ABC7F6;stroke:color(display-p3 0.6698 0.7795 0.9660);stroke-opacity:1;" stroke-width="0.93"/>
<path d="M25.4451 120.602C25.6211 121.526 26.2701 122.131 27.3481 122.131C28.1951 122.131 28.7671 121.801 28.7561 121.152C28.7561 120.492 28.1841 120.107 26.8311 119.766C25.3131 119.403 24.2021 118.732 24.2021 117.478C24.2021 116.092 25.3241 115.234 26.9851 115.234C28.7121 115.234 29.8671 116.29 30.0431 117.808L28.6351 117.885C28.5251 117.005 27.8871 116.444 26.9631 116.444C26.1711 116.444 25.5991 116.851 25.6211 117.489C25.6321 118.27 26.5781 118.501 27.4581 118.732C29.0531 119.117 30.1751 119.854 30.1751 121.075C30.1751 122.549 28.8551 123.352 27.2931 123.352C25.4671 123.352 24.1691 122.307 24.0371 120.679L25.4451 120.602ZM31.143 120.305C31.143 118.457 32.276 117.258 34.003 117.258C35.477 117.258 36.676 118.248 36.72 120.316V120.679H32.573C32.639 121.669 33.156 122.252 34.003 122.252C34.542 122.252 35.026 121.944 35.246 121.438L36.643 121.537C36.291 122.659 35.246 123.352 34.003 123.352C32.276 123.352 31.143 122.153 31.143 120.305ZM32.584 119.744H35.312C35.191 118.721 34.63 118.347 34.003 118.347C33.211 118.347 32.705 118.875 32.584 119.744ZM37.8303 117.39H39.0623L39.1063 118.347C39.4143 117.577 40.0743 117.258 40.8553 117.258C42.1533 117.258 42.8463 118.171 42.8463 119.469V123.22H41.4823V119.898C41.4823 118.908 41.2183 118.369 40.4593 118.369C39.6673 118.369 39.1943 118.908 39.1943 119.898V123.22H37.8303V117.39ZM44.7499 116.07H46.1139V117.39H47.6539V118.457H46.1139V121.449C46.1139 121.911 46.3339 122.142 46.7739 122.142H47.6539V123.22H46.5649C45.3769 123.22 44.7499 122.615 44.7499 121.449V118.457H43.8369V117.39H44.7499V116.07ZM48.7392 117.39H50.0152L50.0482 118.512C50.2462 117.753 50.6862 117.39 51.4342 117.39H51.9842V118.457H51.4342C50.4992 118.457 50.1032 118.93 50.1032 119.876V123.22H48.7392V117.39ZM52.5902 117.39H53.9322L55.4942 121.79L57.0122 117.39H58.3542L56.0332 123.847C55.7802 124.551 55.3182 124.87 54.5482 124.87H53.6572V123.814H54.3172C54.6362 123.814 54.8232 123.704 54.9222 123.429L55.0982 123H54.6912L52.5902 117.39Z" fill="black" style="fill:black;fill-opacity:1;"/>
<path d="M66.6414 117.225V118.149L62.4394 120.041L66.6414 121.922V122.846L61.6364 120.602V119.469L66.6414 117.225ZM67.9815 117.39H68.8065L68.8395 118.391C69.1365 117.61 69.8295 117.258 70.6325 117.258C71.9635 117.258 72.6015 118.237 72.6015 119.469V123.22H71.6995V119.733C71.6995 118.655 71.3365 118.061 70.4455 118.061C69.4995 118.061 68.8835 118.655 68.8835 119.733V123.22H67.9815V117.39ZM76.3782 123.352C74.7612 123.352 73.7162 122.153 73.7162 120.305C73.7162 118.457 74.7612 117.258 76.3782 117.258C77.9952 117.258 79.0402 118.457 79.0402 120.305C79.0402 122.153 77.9952 123.352 76.3782 123.352ZM74.6622 120.305C74.6622 121.669 75.2892 122.494 76.3782 122.494C77.4562 122.494 78.0942 121.669 78.0942 120.305C78.0942 118.941 77.4562 118.116 76.3782 118.116C75.2892 118.116 74.6622 118.941 74.6622 120.305ZM80.3299 117.39H81.1219L81.1549 118.468C81.3529 117.731 81.7929 117.39 82.5519 117.39H83.1129V118.182H82.5519C81.6609 118.182 81.2319 118.732 81.2319 119.744V123.22H80.3299V117.39ZM83.5939 120.305C83.5939 118.457 84.6389 117.258 86.2559 117.258C87.5539 117.258 88.6869 118.127 88.7859 120.184L88.7969 120.591H84.5509C84.6389 121.79 85.2439 122.494 86.2559 122.494C86.8939 122.494 87.4659 122.12 87.7299 121.504L88.6979 121.57C88.3569 122.67 87.3779 123.352 86.2559 123.352C84.6389 123.352 83.5939 122.153 83.5939 120.305ZM84.5729 119.788H87.8069C87.6419 118.556 86.9819 118.116 86.2559 118.116C85.3209 118.116 84.7159 118.732 84.5729 119.788ZM90.0894 124.87V117.39H90.9034L90.9364 118.281C91.2554 117.621 91.8934 117.258 92.7404 117.258C94.4784 117.258 95.2594 118.688 95.2594 120.305C95.2594 121.922 94.4784 123.352 92.7404 123.352C91.9264 123.352 91.3104 123.011 90.9914 122.384V124.87H90.0894ZM90.8924 120.305C90.8924 121.416 91.3984 122.483 92.5864 122.483C93.7964 122.483 94.2914 121.438 94.2914 120.305C94.2914 119.172 93.7964 118.116 92.5864 118.116C91.3984 118.116 90.8924 119.194 90.8924 120.305ZM96.6185 115.41H97.5205V122.054C97.5205 122.307 97.6415 122.417 97.8945 122.417H98.3895V123.22H97.7625C97.0695 123.22 96.6185 122.769 96.6185 122.098V115.41ZM98.6939 117.39H99.6619L101.433 122.252L103.138 117.39H104.095L101.73 123.957C101.51 124.584 101.092 124.87 100.432 124.87H99.7389V124.067H100.344C100.641 124.067 100.817 123.957 100.927 123.649L101.136 123.11H100.828L98.6939 117.39ZM110.686 117.83H111.467L111.269 120.36C111.247 120.602 111.214 121.097 111.346 121.295C111.764 121.966 112.919 121.339 112.974 119.645C113.029 117.742 111.566 116.191 109.63 116.191C107.419 116.191 105.626 117.83 105.549 119.92C105.439 122.868 107.87 124.265 111.038 123.088L111.225 123.836C107.628 125.211 104.636 123.396 104.768 119.92C104.856 117.39 107.012 115.41 109.652 115.41C112.039 115.41 113.821 117.247 113.755 119.59C113.656 122.879 110.686 122.835 110.543 121.328C110.29 121.889 109.52 122.329 108.75 122.329C107.353 122.329 106.715 121.24 106.858 120.03C106.99 118.82 107.782 117.731 109.179 117.731C109.861 117.731 110.4 118.006 110.631 118.446L110.686 117.83ZM107.694 120.03C107.617 120.877 107.947 121.68 108.97 121.68C109.971 121.68 110.466 120.866 110.554 120.041C110.631 119.172 110.279 118.358 109.278 118.358C108.266 118.358 107.782 119.15 107.694 120.03ZM115.119 117.39H115.944L115.977 118.38C116.241 117.665 116.846 117.258 117.66 117.258C118.496 117.258 119.101 117.709 119.354 118.49C119.607 117.698 120.223 117.258 121.136 117.258C122.302 117.258 122.984 118.072 122.984 119.469V123.22H122.082V119.733C122.082 118.666 121.664 118.061 120.949 118.061C120.036 118.061 119.508 118.677 119.508 119.744V123.22H118.606V119.733C118.606 118.688 118.177 118.061 117.473 118.061C116.571 118.061 116.021 118.699 116.021 119.733V123.22H115.119V117.39ZM129.268 115.41V123.22H128.454L128.421 122.362C128.091 122.978 127.464 123.352 126.562 123.352C124.879 123.352 124.098 121.922 124.098 120.305C124.098 118.688 124.879 117.258 126.562 117.258C127.42 117.258 128.036 117.588 128.366 118.182V115.41H129.268ZM125.044 120.305C125.044 121.438 125.528 122.494 126.749 122.494C127.948 122.494 128.443 121.416 128.443 120.305C128.443 119.15 127.948 118.083 126.749 118.083C125.528 118.083 125.044 119.139 125.044 120.305ZM130.605 122.043H131.771V123.22H130.605V122.043ZM135.315 122.912C133.72 122.912 132.697 121.724 132.697 120.085C132.697 118.446 133.742 117.258 135.315 117.258C136.096 117.258 136.734 117.698 136.987 118.325V117.39H137.856V122.648C137.856 124.177 136.811 125.002 135.293 125.002C134.05 125.002 133.115 124.32 132.862 123.308L133.808 123.242C134.039 123.803 134.545 124.144 135.293 124.144C136.327 124.144 136.954 123.682 136.954 122.846V121.878C136.602 122.571 135.942 122.912 135.315 122.912ZM133.643 120.085C133.643 121.229 134.27 122.054 135.315 122.054C136.316 122.054 136.954 121.218 136.965 120.085C136.987 118.952 136.349 118.116 135.315 118.116C134.27 118.116 133.643 118.941 133.643 120.085ZM139.194 120.305C139.194 118.457 140.239 117.258 141.856 117.258C143.154 117.258 144.287 118.127 144.386 120.184L144.397 120.591H140.151C140.239 121.79 140.844 122.494 141.856 122.494C142.494 122.494 143.066 122.12 143.33 121.504L144.298 121.57C143.957 122.67 142.978 123.352 141.856 123.352C140.239 123.352 139.194 122.153 139.194 120.305ZM140.173 119.788H143.407C143.242 118.556 142.582 118.116 141.856 118.116C140.921 118.116 140.316 118.732 140.173 119.788ZM145.993 116.07H146.895V117.39H148.446V118.193H146.895V121.68C146.895 122.175 147.137 122.417 147.599 122.417H148.435V123.22H147.599C146.565 123.22 145.993 122.67 145.993 121.68V118.193H145.135V117.39H145.993V116.07ZM152.79 119.183C152.658 118.512 151.998 118.116 151.338 118.116C150.678 118.116 150.15 118.457 150.15 119.018C150.161 119.59 150.898 119.832 151.558 119.975C152.889 120.228 153.846 120.602 153.846 121.735C153.846 122.857 152.691 123.352 151.58 123.352C150.205 123.352 149.149 122.593 149.061 121.394L150.007 121.328C150.117 122.032 150.689 122.494 151.58 122.494C152.174 122.494 152.9 122.296 152.9 121.691C152.9 120.987 152.064 120.91 151.393 120.745C150.315 120.492 149.215 120.184 149.215 119.073C149.204 117.962 150.106 117.258 151.437 117.258C152.603 117.258 153.549 117.995 153.736 119.117L152.79 119.183ZM154.773 120.305C154.773 118.457 155.818 117.258 157.435 117.258C158.733 117.258 159.866 118.127 159.965 120.184L159.976 120.591H155.73C155.818 121.79 156.423 122.494 157.435 122.494C158.073 122.494 158.645 122.12 158.909 121.504L159.877 121.57C159.536 122.67 158.557 123.352 157.435 123.352C155.818 123.352 154.773 122.153 154.773 120.305ZM155.752 119.788H158.986C158.821 118.556 158.161 118.116 157.435 118.116C156.5 118.116 155.895 118.732 155.752 119.788ZM161.268 117.39H162.093L162.126 118.391C162.423 117.61 163.116 117.258 163.919 117.258C165.25 117.258 165.888 118.237 165.888 119.469V123.22H164.986V119.733C164.986 118.655 164.623 118.061 163.732 118.061C162.786 118.061 162.17 118.655 162.17 119.733V123.22H161.268V117.39ZM167.897 116.07H168.799V117.39H170.35V118.193H168.799V121.68C168.799 122.175 169.041 122.417 169.503 122.417H170.339V123.22H169.503C168.469 123.22 167.897 122.67 167.897 121.68V118.193H167.039V117.39H167.897V116.07ZM171.597 117.39H172.389L172.422 118.468C172.62 117.731 173.06 117.39 173.819 117.39H174.38V118.182H173.819C172.928 118.182 172.499 118.732 172.499 119.744V123.22H171.597V117.39ZM175.027 117.39H175.995L177.766 122.252L179.471 117.39H180.428L178.063 123.957C177.843 124.584 177.425 124.87 176.765 124.87H176.072V124.067H176.677C176.974 124.067 177.15 123.957 177.26 123.649L177.469 123.11H177.161L175.027 117.39ZM181.078 122.043H182.244V123.22H181.078V122.043ZM187.307 119.337C187.175 118.567 186.548 118.116 185.833 118.116C184.744 118.116 184.117 118.941 184.117 120.305C184.117 121.669 184.744 122.494 185.833 122.494C186.581 122.494 187.219 121.999 187.351 121.163L188.308 121.218C188.121 122.538 187.076 123.352 185.833 123.352C184.216 123.352 183.171 122.153 183.171 120.305C183.171 118.457 184.216 117.258 185.833 117.258C187.032 117.258 188.099 118.028 188.253 119.271L187.307 119.337ZM191.781 123.352C190.164 123.352 189.119 122.153 189.119 120.305C189.119 118.457 190.164 117.258 191.781 117.258C193.398 117.258 194.443 118.457 194.443 120.305C194.443 122.153 193.398 123.352 191.781 123.352ZM190.065 120.305C190.065 121.669 190.692 122.494 191.781 122.494C192.859 122.494 193.497 121.669 193.497 120.305C193.497 118.941 192.859 118.116 191.781 118.116C190.692 118.116 190.065 118.941 190.065 120.305ZM195.733 117.39H196.558L196.591 118.38C196.855 117.665 197.46 117.258 198.274 117.258C199.11 117.258 199.715 117.709 199.968 118.49C200.221 117.698 200.837 117.258 201.75 117.258C202.916 117.258 203.598 118.072 203.598 119.469V123.22H202.696V119.733C202.696 118.666 202.278 118.061 201.563 118.061C200.65 118.061 200.122 118.677 200.122 119.744V123.22H199.22V119.733C199.22 118.688 198.791 118.061 198.087 118.061C197.185 118.061 196.635 118.699 196.635 119.733V123.22H195.733V117.39ZM204.895 117.225L209.9 119.469V120.602L204.895 122.846V121.922L209.097 120.041L204.895 118.149V117.225Z" fill="black" fill-opacity="0.43" style="fill:black;fill-opacity:0.43;"/>
<path d="M271.121 115.41V120.712H272.023V121.614H271.121V123.22H270.197V121.614H266.149V120.712L270.142 115.41H271.121ZM267.293 120.712H270.197V116.829L267.293 120.712ZM277.743 115.41V116.312H274.267L273.937 118.732C274.311 118.281 275.015 118.017 275.697 118.017C277.204 118.017 278.271 119.15 278.271 120.712C278.271 122.285 277.116 123.396 275.554 123.396C274.003 123.396 272.837 122.494 272.727 121.218L273.695 121.152C273.816 121.999 274.608 122.494 275.554 122.494C276.599 122.494 277.303 121.757 277.303 120.712C277.303 119.601 276.588 118.897 275.455 118.897C274.729 118.897 274.113 119.227 273.86 119.799H272.859L273.464 115.41H277.743Z" fill="black" style="fill:black;fill-opacity:1;"/>
<rect x="16.465" y="139.705" width="273.07" height="24.23" rx="7.905" fill="#F8F8F8" style="fill:#F8F8F8;fill:color(display-p3 0.9712 0.9712 0.9712);fill-opacity:1;"/>
<rect x="16.465" y="139.705" width="273.07" height="24.23" rx="7.905" stroke="#E6E6E6" style="stroke:#E6E6E6;stroke:color(display-p3 0.9020 0.9020 0.9020);stroke-opacity:1;" stroke-width="0.93"/>
<path d="M24.3701 139.705H221.595V163.936H24.3701C20.0043 163.936 16.4649 160.396 16.4648 156.03V147.61C16.4648 143.245 20.0043 139.705 24.3701 139.705Z" fill="#C2D6F8" style="fill:#C2D6F8;fill:color(display-p3 0.7608 0.8392 0.9725);fill-opacity:1;"/>
<path d="M24.3701 139.705H221.595V163.936H24.3701C20.0043 163.936 16.4649 160.396 16.4648 156.03V147.61C16.4648 143.245 20.0043 139.705 24.3701 139.705Z" stroke="#ABC7F6" style="stroke:#ABC7F6;stroke:color(display-p3 0.6698 0.7795 0.9660);stroke-opacity:1;" stroke-width="0.93"/>
<path d="M24.7117 148.01H26.0757V150.771C26.4167 150.177 27.0107 149.858 27.8247 149.858C29.4747 149.858 30.2887 151.244 30.2887 152.905C30.2887 154.566 29.4747 155.952 27.8247 155.952C26.9667 155.952 26.3617 155.6 26.0317 154.995L25.9987 155.82H24.7117V148.01ZM25.9877 152.905C25.9877 153.906 26.4167 154.83 27.4397 154.83C28.4517 154.83 28.8917 153.906 28.8917 152.905C28.8917 151.86 28.4627 150.936 27.4397 150.936C26.4167 150.936 25.9877 151.86 25.9877 152.905ZM31.1247 152.905C31.1247 151.057 32.2577 149.858 33.9847 149.858C35.4587 149.858 36.6577 150.848 36.7017 152.916V153.279H32.5547C32.6207 154.269 33.1377 154.852 33.9847 154.852C34.5237 154.852 35.0077 154.544 35.2277 154.038L36.6247 154.137C36.2727 155.259 35.2277 155.952 33.9847 155.952C32.2577 155.952 31.1247 154.753 31.1247 152.905ZM32.5657 152.344H35.2937C35.1727 151.321 34.6117 150.947 33.9847 150.947C33.1927 150.947 32.6867 151.475 32.5657 152.344ZM37.5459 152.905C37.5459 151.057 38.6789 149.858 40.4059 149.858C41.8799 149.858 43.0789 150.848 43.1229 152.916V153.279H38.9759C39.0419 154.269 39.5589 154.852 40.4059 154.852C40.9449 154.852 41.4289 154.544 41.6489 154.038L43.0459 154.137C42.6939 155.259 41.6489 155.952 40.4059 155.952C38.6789 155.952 37.5459 154.753 37.5459 152.905ZM38.9869 152.344H41.7149C41.5939 151.321 41.0329 150.947 40.4059 150.947C39.6139 150.947 39.1079 151.475 38.9869 152.344ZM44.2332 148.01H45.5972V150.76C45.9382 150.122 46.5872 149.858 47.2912 149.858C48.5782 149.858 49.2492 150.815 49.2492 152.069V155.82H47.8852V152.542C47.8852 151.563 47.6212 151.024 46.8622 151.024C46.0702 151.024 45.5972 151.563 45.5972 152.542V155.82H44.2332V148.01ZM50.5363 149.99H51.9003V155.82H50.5363V149.99ZM50.5143 149.165V148.01H51.9333V149.165H50.5143ZM53.3052 149.99H54.6692V155.82H53.3052V149.99ZM53.2832 149.165V148.01H54.7022V149.165H53.2832ZM61.4385 149.99L59.2935 155.82H57.7865L55.6415 149.99H56.9945L58.5345 154.434L60.0745 149.99H61.4385Z" fill="black" style="fill:black;fill-opacity:1;"/>
<path d="M69.725 149.825V150.749L65.523 152.641L69.725 154.522V155.446L64.72 153.202V152.069L69.725 149.825ZM71.0651 148.01H71.9671V150.782C72.2971 150.188 72.9131 149.858 73.7711 149.858C75.4541 149.858 76.2351 151.288 76.2351 152.905C76.2351 154.522 75.4541 155.952 73.7711 155.952C72.8691 155.952 72.2421 155.578 71.9121 154.962L71.8791 155.82H71.0651V148.01ZM71.8901 152.905C71.8901 154.016 72.3851 155.094 73.5841 155.094C74.8051 155.094 75.2891 154.038 75.2891 152.905C75.2891 151.739 74.8051 150.683 73.5841 150.683C72.3851 150.683 71.8901 151.75 71.8901 152.905ZM82.0408 155.82H81.1828V154.83C80.8858 155.589 80.1928 155.952 79.4228 155.952C78.1248 155.952 77.4868 154.973 77.4868 153.741V149.99H78.3888V153.466C78.3888 154.555 78.7518 155.149 79.6098 155.149C80.5338 155.149 81.1388 154.555 81.1388 153.466V149.99H82.0408V155.82ZM88.1892 150.98L84.4712 155.017H88.2772V155.82H83.4922V154.841L87.2212 150.793H83.6022V149.99H88.1892V150.98ZM94.1163 150.98L90.3983 155.017H94.2043V155.82H89.4193V154.841L93.1483 150.793H89.5293V149.99H94.1163V150.98ZM101.176 150.43H101.957L101.759 152.96C101.737 153.202 101.704 153.697 101.836 153.895C102.254 154.566 103.409 153.939 103.464 152.245C103.519 150.342 102.056 148.791 100.12 148.791C97.9094 148.791 96.1164 150.43 96.0394 152.52C95.9294 155.468 98.3604 156.865 101.528 155.688L101.715 156.436C98.1184 157.811 95.1264 155.996 95.2584 152.52C95.3464 149.99 97.5024 148.01 100.142 148.01C102.529 148.01 104.311 149.847 104.245 152.19C104.146 155.479 101.176 155.435 101.033 153.928C100.78 154.489 100.01 154.929 99.2404 154.929C97.8434 154.929 97.2054 153.84 97.3484 152.63C97.4804 151.42 98.2724 150.331 99.6694 150.331C100.351 150.331 100.89 150.606 101.121 151.046L101.176 150.43ZM98.1844 152.63C98.1074 153.477 98.4374 154.28 99.4604 154.28C100.461 154.28 100.956 153.466 101.044 152.641C101.121 151.772 100.769 150.958 99.7684 150.958C98.7564 150.958 98.2724 151.75 98.1844 152.63ZM106.193 148.67H107.095V149.99H108.646V150.793H107.095V154.28C107.095 154.775 107.337 155.017 107.799 155.017H108.635V155.82H107.799C106.765 155.82 106.193 155.27 106.193 154.28V150.793H105.335V149.99H106.193V148.67ZM113.644 149.99H114.755L112.742 152.839L114.854 155.82H113.754L112.17 153.532L110.575 155.82H109.475L111.609 152.828L109.585 149.99H110.685L112.17 152.146L113.644 149.99ZM115.789 154.643H116.955V155.82H115.789V154.643ZM118.299 148.01H119.201V150.782C119.531 150.188 120.147 149.858 121.005 149.858C122.688 149.858 123.469 151.288 123.469 152.905C123.469 154.522 122.688 155.952 121.005 155.952C120.103 155.952 119.476 155.578 119.146 154.962L119.113 155.82H118.299V148.01ZM119.124 152.905C119.124 154.016 119.619 155.094 120.818 155.094C122.039 155.094 122.523 154.038 122.523 152.905C122.523 151.739 122.039 150.683 120.818 150.683C119.619 150.683 119.124 151.75 119.124 152.905ZM124.389 152.905C124.389 151.057 125.434 149.858 127.051 149.858C128.349 149.858 129.482 150.727 129.581 152.784L129.592 153.191H125.346C125.434 154.39 126.039 155.094 127.051 155.094C127.689 155.094 128.261 154.72 128.525 154.104L129.493 154.17C129.152 155.27 128.173 155.952 127.051 155.952C125.434 155.952 124.389 154.753 124.389 152.905ZM125.368 152.388H128.602C128.437 151.156 127.777 150.716 127.051 150.716C126.116 150.716 125.511 151.332 125.368 152.388ZM130.52 152.905C130.52 151.057 131.565 149.858 133.182 149.858C134.48 149.858 135.613 150.727 135.712 152.784L135.723 153.191H131.477C131.565 154.39 132.17 155.094 133.182 155.094C133.82 155.094 134.392 154.72 134.656 154.104L135.624 154.17C135.283 155.27 134.304 155.952 133.182 155.952C131.565 155.952 130.52 154.753 130.52 152.905ZM131.499 152.388H134.733C134.568 151.156 133.908 150.716 133.182 150.716C132.247 150.716 131.642 151.332 131.499 152.388ZM137.015 148.01H137.917V150.804C138.258 150.155 138.94 149.858 139.666 149.858C140.997 149.858 141.635 150.837 141.635 152.069V155.82H140.733V152.399C140.733 151.31 140.37 150.716 139.479 150.716C138.533 150.716 137.917 151.31 137.917 152.399V155.82H137.015V148.01ZM143.114 149.99H144.016V155.82H143.114V149.99ZM143.092 149.077V148.032H144.038V149.077H143.092ZM145.625 149.99H146.527V155.82H145.625V149.99ZM145.603 149.077V148.032H146.549V149.077H145.603ZM152.984 149.99L150.85 155.82H149.728L147.594 149.99H148.562L150.289 154.874L152.016 149.99H152.984ZM153.635 154.643H154.801V155.82H153.635V154.643ZM159.863 151.937C159.731 151.167 159.104 150.716 158.389 150.716C157.3 150.716 156.673 151.541 156.673 152.905C156.673 154.269 157.3 155.094 158.389 155.094C159.137 155.094 159.775 154.599 159.907 153.763L160.864 153.818C160.677 155.138 159.632 155.952 158.389 155.952C156.772 155.952 155.727 154.753 155.727 152.905C155.727 151.057 156.772 149.858 158.389 149.858C159.588 149.858 160.655 150.628 160.809 151.871L159.863 151.937ZM164.338 155.952C162.721 155.952 161.676 154.753 161.676 152.905C161.676 151.057 162.721 149.858 164.338 149.858C165.955 149.858 167 151.057 167 152.905C167 154.753 165.955 155.952 164.338 155.952ZM162.622 152.905C162.622 154.269 163.249 155.094 164.338 155.094C165.416 155.094 166.054 154.269 166.054 152.905C166.054 151.541 165.416 150.716 164.338 150.716C163.249 150.716 162.622 151.541 162.622 152.905ZM168.289 149.99H169.114L169.147 150.98C169.411 150.265 170.016 149.858 170.83 149.858C171.666 149.858 172.271 150.309 172.524 151.09C172.777 150.298 173.393 149.858 174.306 149.858C175.472 149.858 176.154 150.672 176.154 152.069V155.82H175.252V152.333C175.252 151.266 174.834 150.661 174.119 150.661C173.206 150.661 172.678 151.277 172.678 152.344V155.82H171.776V152.333C171.776 151.288 171.347 150.661 170.643 150.661C169.741 150.661 169.191 151.299 169.191 152.333V155.82H168.289V149.99ZM177.451 149.825L182.456 152.069V153.202L177.451 155.446V154.522L181.653 152.641L177.451 150.749V149.825Z" fill="black" fill-opacity="0.43" style="fill:black;fill-opacity:0.43;"/>
<path d="M268.486 151.222C269.256 151.233 270.136 150.87 270.136 149.869C270.136 149.176 269.498 148.736 268.486 148.736C267.672 148.736 267.089 149.143 266.979 149.77L266.022 149.704C266.165 148.615 267.188 147.834 268.486 147.834C270.026 147.834 271.104 148.67 271.104 149.869C271.104 150.738 270.609 151.332 269.663 151.596C270.763 151.915 271.368 152.674 271.368 153.675C271.368 155.039 270.18 155.996 268.486 155.996C266.935 155.996 265.813 155.094 265.736 153.818L266.693 153.752C266.781 154.709 267.694 155.094 268.486 155.094C269.432 155.094 270.411 154.654 270.411 153.598C270.411 152.553 269.432 152.091 268.486 152.113L267.881 152.124V151.211L268.486 151.222ZM272.612 150.342C272.821 148.89 273.844 147.834 275.406 147.834C276.836 147.834 277.881 148.78 277.881 150.056C277.881 151.178 276.99 151.959 275.802 152.685C275.142 153.07 273.646 154.126 273.613 154.918H277.947V155.82H272.469C272.469 153.532 274.108 152.663 275.472 151.816C276.319 151.277 276.913 150.672 276.913 150.056C276.913 149.286 276.297 148.736 275.406 148.736C274.449 148.736 273.789 149.33 273.58 150.408L272.612 150.342Z" fill="black" style="fill:black;fill-opacity:1;"/>
<rect x="16.465" y="172.305" width="273.07" height="24.23" rx="7.905" fill="#F8F8F8" style="fill:#F8F8F8;fill:color(display-p3 0.9712 0.9712 0.9712);fill-opacity:1;"/>
<rect x="16.465" y="172.305" width="273.07" height="24.23" rx="7.905" stroke="#E6E6E6" style="stroke:#E6E6E6;stroke:color(display-p3 0.9020 0.9020 0.9020);stroke-opacity:1;" stroke-width="0.93"/>
<path d="M24.3701 172.305H202.135V196.535H24.3701C20.0043 196.535 16.4649 192.996 16.4648 188.63V180.21C16.4648 175.844 20.0043 172.305 24.3701 172.305Z" fill="#C2D6F8" style="fill:#C2D6F8;fill:color(display-p3 0.7608 0.8392 0.9725);fill-opacity:1;"/>
<path d="M24.3701 172.305H202.135V196.535H24.3701C20.0043 196.535 16.4649 192.996 16.4648 188.63V180.21C16.4648 175.844 20.0043 172.305 24.3701 172.305Z" stroke="#ABC7F6" style="stroke:#ABC7F6;stroke:color(display-p3 0.6698 0.7795 0.9660);stroke-opacity:1;" stroke-width="0.93"/>
<path d="M24.3591 180.61H26.2181L28.4071 186.737L30.5851 180.61H32.4551V188.42H31.0691V183.019L29.1001 188.409H27.7141L25.7451 183.019V188.42H24.3591V180.61ZM33.7587 184.361C33.9897 183.162 34.9247 182.458 36.3327 182.458C38.0047 182.458 38.8847 183.327 38.8847 184.955V186.99C38.8847 187.32 39.0167 187.408 39.2477 187.408H39.4677V188.42L39.1267 188.431C38.6537 188.431 37.7737 188.42 37.6857 187.529C37.4107 188.101 36.7617 188.552 35.7607 188.552C34.5947 188.552 33.6597 187.925 33.6597 186.891C33.6597 185.747 34.5067 185.384 35.8707 185.12L37.5097 184.79C37.4987 183.899 37.1247 183.47 36.3327 183.47C35.7057 183.47 35.2987 183.8 35.1557 184.438L33.7587 184.361ZM35.0677 186.847C35.0677 187.254 35.4087 187.573 36.1127 187.573C36.9267 187.573 37.5317 186.99 37.5317 185.802V185.747L36.4097 185.945C35.6507 186.088 35.0677 186.165 35.0677 186.847ZM40.4547 182.59H41.8187V188.42H40.4547V182.59ZM40.4327 181.765V180.61H41.8517V181.765H40.4327ZM43.451 180.61H44.815V186.935C44.815 187.21 44.958 187.342 45.222 187.342H45.684V188.42H44.881C44.023 188.42 43.451 187.881 43.451 186.99V180.61ZM48.9345 188.134C47.3505 188.134 46.3385 186.979 46.3385 185.34C46.3385 183.646 47.3725 182.458 48.9345 182.458C49.6825 182.458 50.2985 182.854 50.5845 183.481V182.59H51.9155V187.771C51.9155 189.311 50.7715 190.202 49.1325 190.202C47.8125 190.202 46.8115 189.542 46.5035 188.53L47.9005 188.442C48.0985 188.882 48.5275 189.146 49.1435 189.146C50.0235 189.146 50.5405 188.75 50.5405 187.958V187.199C50.2105 187.815 49.5615 188.134 48.9345 188.134ZM47.7465 185.329C47.7465 186.363 48.2965 187.1 49.1765 187.1C50.0345 187.1 50.5735 186.363 50.5845 185.329C50.5955 184.295 50.0565 183.569 49.1765 183.569C48.2855 183.569 47.7465 184.295 47.7465 185.329ZM58.5048 188.42H57.2398L57.2178 187.507C56.8988 188.255 56.2498 188.552 55.5018 188.552C54.2368 188.552 53.5328 187.639 53.5328 186.341V182.59H54.8968V185.901C54.8968 186.891 55.1608 187.43 55.9088 187.43C56.6678 187.43 57.1408 186.891 57.1408 185.901V182.59H58.5048V188.42ZM60.0489 182.59H61.2809L61.3249 183.547C61.6329 182.777 62.2929 182.458 63.0739 182.458C64.3719 182.458 65.0649 183.371 65.0649 184.669V188.42H63.7009V185.098C63.7009 184.108 63.4369 183.569 62.6779 183.569C61.8859 183.569 61.4129 184.108 61.4129 185.098V188.42H60.0489V182.59Z" fill="black" style="fill:black;fill-opacity:1;"/>
<path d="M73.8823 182.425V183.349L69.6803 185.241L73.8823 187.122V188.046L68.8773 185.802V184.669L73.8823 182.425ZM75.2224 182.59H76.0144L76.0474 183.668C76.2454 182.931 76.6854 182.59 77.4444 182.59H78.0054V183.382H77.4444C76.5534 183.382 76.1244 183.932 76.1244 184.944V188.42H75.2224V182.59ZM78.4864 185.505C78.4864 183.657 79.5314 182.458 81.1484 182.458C82.4464 182.458 83.5794 183.327 83.6784 185.384L83.6894 185.791H79.4434C79.5314 186.99 80.1364 187.694 81.1484 187.694C81.7864 187.694 82.3584 187.32 82.6224 186.704L83.5904 186.77C83.2494 187.87 82.2704 188.552 81.1484 188.552C79.5314 188.552 78.4864 187.353 78.4864 185.505ZM79.4654 184.988H82.6994C82.5344 183.756 81.8744 183.316 81.1484 183.316C80.2134 183.316 79.6084 183.932 79.4654 184.988ZM84.9819 190.07V182.59H85.7959L85.8289 183.481C86.1479 182.821 86.7859 182.458 87.6329 182.458C89.3709 182.458 90.1519 183.888 90.1519 185.505C90.1519 187.122 89.3709 188.552 87.6329 188.552C86.8189 188.552 86.2029 188.211 85.8839 187.584V190.07H84.9819ZM85.7849 185.505C85.7849 186.616 86.2909 187.683 87.4789 187.683C88.6889 187.683 89.1839 186.638 89.1839 185.505C89.1839 184.372 88.6889 183.316 87.4789 183.316C86.2909 183.316 85.7849 184.394 85.7849 185.505ZM93.7331 188.552C92.1161 188.552 91.0711 187.353 91.0711 185.505C91.0711 183.657 92.1161 182.458 93.7331 182.458C95.3501 182.458 96.3951 183.657 96.3951 185.505C96.3951 187.353 95.3501 188.552 93.7331 188.552ZM92.0171 185.505C92.0171 186.869 92.6441 187.694 93.7331 187.694C94.8111 187.694 95.4491 186.869 95.4491 185.505C95.4491 184.141 94.8111 183.316 93.7331 183.316C92.6441 183.316 92.0171 184.141 92.0171 185.505ZM97.6848 182.59H98.4768L98.5098 183.668C98.7078 182.931 99.1478 182.59 99.9068 182.59H100.468V183.382H99.9068C99.0158 183.382 98.5868 183.932 98.5868 184.944V188.42H97.6848V182.59ZM102.229 181.27H103.131V182.59H104.682V183.393H103.131V186.88C103.131 187.375 103.373 187.617 103.835 187.617H104.671V188.42H103.835C102.801 188.42 102.229 187.87 102.229 186.88V183.393H101.371V182.59H102.229V181.27ZM105.93 182.59H106.832V188.42H105.93V182.59ZM105.908 181.677V180.632H106.854V181.677H105.908ZM108.441 182.59H109.266L109.299 183.591C109.596 182.81 110.289 182.458 111.092 182.458C112.423 182.458 113.061 183.437 113.061 184.669V188.42H112.159V184.933C112.159 183.855 111.796 183.261 110.905 183.261C109.959 183.261 109.343 183.855 109.343 184.933V188.42H108.441V182.59ZM116.793 188.112C115.198 188.112 114.175 186.924 114.175 185.285C114.175 183.646 115.22 182.458 116.793 182.458C117.574 182.458 118.212 182.898 118.465 183.525V182.59H119.334V187.848C119.334 189.377 118.289 190.202 116.771 190.202C115.528 190.202 114.593 189.52 114.34 188.508L115.286 188.442C115.517 189.003 116.023 189.344 116.771 189.344C117.805 189.344 118.432 188.882 118.432 188.046V187.078C118.08 187.771 117.42 188.112 116.793 188.112ZM115.121 185.285C115.121 186.429 115.748 187.254 116.793 187.254C117.794 187.254 118.432 186.418 118.443 185.285C118.465 184.152 117.827 183.316 116.793 183.316C115.748 183.316 115.121 184.141 115.121 185.285ZM126.612 183.03H127.393L127.195 185.56C127.173 185.802 127.14 186.297 127.272 186.495C127.69 187.166 128.845 186.539 128.9 184.845C128.955 182.942 127.492 181.391 125.556 181.391C123.345 181.391 121.552 183.03 121.475 185.12C121.365 188.068 123.796 189.465 126.964 188.288L127.151 189.036C123.554 190.411 120.562 188.596 120.694 185.12C120.782 182.59 122.938 180.61 125.578 180.61C127.965 180.61 129.747 182.447 129.681 184.79C129.582 188.079 126.612 188.035 126.469 186.528C126.216 187.089 125.446 187.529 124.676 187.529C123.279 187.529 122.641 186.44 122.784 185.23C122.916 184.02 123.708 182.931 125.105 182.931C125.787 182.931 126.326 183.206 126.557 183.646L126.612 183.03ZM123.62 185.23C123.543 186.077 123.873 186.88 124.896 186.88C125.897 186.88 126.392 186.066 126.48 185.241C126.557 184.372 126.205 183.558 125.204 183.558C124.192 183.558 123.708 184.35 123.62 185.23ZM131.045 182.59H131.87L131.903 183.58C132.167 182.865 132.772 182.458 133.586 182.458C134.422 182.458 135.027 182.909 135.28 183.69C135.533 182.898 136.149 182.458 137.062 182.458C138.228 182.458 138.91 183.272 138.91 184.669V188.42H138.008V184.933C138.008 183.866 137.59 183.261 136.875 183.261C135.962 183.261 135.434 183.877 135.434 184.944V188.42H134.532V184.933C134.532 183.888 134.103 183.261 133.399 183.261C132.497 183.261 131.947 183.899 131.947 184.933V188.42H131.045V182.59ZM140.284 184.306C140.515 183.173 141.417 182.458 142.66 182.458C144.167 182.458 145.003 183.338 145.003 184.9V187.243C145.003 187.507 145.113 187.617 145.366 187.617H145.597V188.42H145.212C144.618 188.42 144.101 188.222 144.112 187.507C143.859 188.057 143.199 188.552 142.275 188.552C141.12 188.552 140.185 187.936 140.185 186.902C140.185 185.703 141.098 185.395 142.374 185.142L144.101 184.812C144.09 183.8 143.617 183.316 142.66 183.316C141.912 183.316 141.417 183.701 141.241 184.383L140.284 184.306ZM141.131 186.902C141.131 187.375 141.538 187.76 142.396 187.749C143.364 187.749 144.123 187.067 144.123 185.714V185.615L142.726 185.857C141.857 186.011 141.131 186.077 141.131 186.902ZM146.724 182.59H147.626V188.42H146.724V182.59ZM146.702 181.677V180.632H147.648V181.677H146.702ZM149.407 180.61H150.309V187.254C150.309 187.507 150.43 187.617 150.683 187.617H151.178V188.42H150.551C149.858 188.42 149.407 187.969 149.407 187.298V180.61ZM154.537 188.112C152.942 188.112 151.919 186.924 151.919 185.285C151.919 183.646 152.964 182.458 154.537 182.458C155.318 182.458 155.956 182.898 156.209 183.525V182.59H157.078V187.848C157.078 189.377 156.033 190.202 154.515 190.202C153.272 190.202 152.337 189.52 152.084 188.508L153.03 188.442C153.261 189.003 153.767 189.344 154.515 189.344C155.549 189.344 156.176 188.882 156.176 188.046V187.078C155.824 187.771 155.164 188.112 154.537 188.112ZM152.865 185.285C152.865 186.429 153.492 187.254 154.537 187.254C155.538 187.254 156.176 186.418 156.187 185.285C156.209 184.152 155.571 183.316 154.537 183.316C153.492 183.316 152.865 184.141 152.865 185.285ZM163.409 188.42H162.551V187.43C162.254 188.189 161.561 188.552 160.791 188.552C159.493 188.552 158.855 187.573 158.855 186.341V182.59H159.757V186.066C159.757 187.155 160.12 187.749 160.978 187.749C161.902 187.749 162.507 187.155 162.507 186.066V182.59H163.409V188.42ZM165.168 182.59H165.993L166.026 183.591C166.323 182.81 167.016 182.458 167.819 182.458C169.15 182.458 169.788 183.437 169.788 184.669V188.42H168.886V184.933C168.886 183.855 168.523 183.261 167.632 183.261C166.686 183.261 166.07 183.855 166.07 184.933V188.42H165.168V182.59ZM171.064 187.243H172.23V188.42H171.064V187.243ZM177.292 184.537C177.16 183.767 176.533 183.316 175.818 183.316C174.729 183.316 174.102 184.141 174.102 185.505C174.102 186.869 174.729 187.694 175.818 187.694C176.566 187.694 177.204 187.199 177.336 186.363L178.293 186.418C178.106 187.738 177.061 188.552 175.818 188.552C174.201 188.552 173.156 187.353 173.156 185.505C173.156 183.657 174.201 182.458 175.818 182.458C177.017 182.458 178.084 183.228 178.238 184.471L177.292 184.537ZM181.767 188.552C180.15 188.552 179.105 187.353 179.105 185.505C179.105 183.657 180.15 182.458 181.767 182.458C183.384 182.458 184.429 183.657 184.429 185.505C184.429 187.353 183.384 188.552 181.767 188.552ZM180.051 185.505C180.051 186.869 180.678 187.694 181.767 187.694C182.845 187.694 183.483 186.869 183.483 185.505C183.483 184.141 182.845 183.316 181.767 183.316C180.678 183.316 180.051 184.141 180.051 185.505ZM185.719 182.59H186.544L186.577 183.58C186.841 182.865 187.446 182.458 188.26 182.458C189.096 182.458 189.701 182.909 189.954 183.69C190.207 182.898 190.823 182.458 191.736 182.458C192.902 182.458 193.584 183.272 193.584 184.669V188.42H192.682V184.933C192.682 183.866 192.264 183.261 191.549 183.261C190.636 183.261 190.108 183.877 190.108 184.944V188.42H189.206V184.933C189.206 183.888 188.777 183.261 188.073 183.261C187.171 183.261 186.621 183.899 186.621 184.933V188.42H185.719V182.59ZM194.881 182.425L199.886 184.669V185.802L194.881 188.046V187.122L199.083 185.241L194.881 183.349V182.425Z" fill="black" fill-opacity="0.43" style="fill:black;fill-opacity:0.43;"/>
<path d="M266.589 182.942C266.798 181.49 267.821 180.434 269.383 180.434C270.813 180.434 271.858 181.38 271.858 182.656C271.858 183.778 270.967 184.559 269.779 185.285C269.119 185.67 267.623 186.726 267.59 187.518H271.924V188.42H266.446C266.446 186.132 268.085 185.263 269.449 184.416C270.296 183.877 270.89 183.272 270.89 182.656C270.89 181.886 270.274 181.336 269.383 181.336C268.426 181.336 267.766 181.93 267.557 183.008L266.589 182.942ZM277.596 180.61V185.912H278.498V186.814H277.596V188.42H276.672V186.814H272.624V185.912L276.617 180.61H277.596ZM273.768 185.912H276.672V182.029L273.768 185.912Z" fill="black" style="fill:black;fill-opacity:1;"/>
<rect x="16.465" y="204.905" width="273.07" height="24.18" rx="7.905" fill="#F8F8F8" style="fill:#F8F8F8;fill:color(display-p3 0.9712 0.9712 0.9712);fill-opacity:1;"/>
<rect x="16.465" y="204.905" width="273.07" height="24.18" rx="7.905" stroke="#E6E6E6" style="stroke:#E6E6E6;stroke:color(display-p3 0.9020 0.9020 0.9020);stroke-opacity:1;" stroke-width="0.93"/>
<path d="M24.3701 204.905H157.635V229.084H24.3701C20.0044 229.084 16.465 225.546 16.4648 221.18V212.81C16.4648 208.444 20.0043 204.905 24.3701 204.905Z" fill="#C2D6F8" style="fill:#C2D6F8;fill:color(display-p3 0.7608 0.8392 0.9725);fill-opacity:1;"/>
<path d="M24.3701 204.905H157.635V229.084H24.3701C20.0044 229.084 16.465 225.546 16.4648 221.18V212.81C16.4648 208.444 20.0043 204.905 24.3701 204.905Z" stroke="#ABC7F6" style="stroke:#ABC7F6;stroke:color(display-p3 0.6698 0.7795 0.9660);stroke-opacity:1;" stroke-width="0.93"/>
<path d="M269.008 214.31C269.857 214.31 270.225 213.931 270.225 213.072H270.961V220.995H270.024V215.103H268.383V214.31H269.008ZM277.006 214.835C276.772 214.188 276.203 213.808 275.466 213.808C274.272 213.808 273.524 214.846 273.379 216.754C273.815 216.018 274.529 215.605 275.399 215.605C276.962 215.605 278.022 216.732 278.022 218.361C278.022 220.08 276.872 221.174 275.243 221.174C274.54 221.174 273.837 220.917 273.257 220.337C272.699 219.734 272.42 218.752 272.42 217.502C272.42 215.136 273.19 212.893 275.466 212.893C276.66 212.893 277.631 213.551 277.988 214.768L277.006 214.835ZM273.446 218.361C273.424 219.466 274.183 220.259 275.265 220.259C276.303 220.259 277.051 219.466 277.051 218.361C277.051 217.279 276.337 216.52 275.332 216.52C274.239 216.52 273.457 217.279 273.446 218.361Z" fill="black" style="fill:black;fill-opacity:1;"/>
<path d="M32.073 220.82H31.182L31.083 219.643C30.72 220.457 29.796 220.996 28.74 220.996C26.507 220.996 25.121 219.214 25.121 216.926C25.121 214.627 26.507 212.834 28.795 212.834C30.522 212.834 31.677 213.868 32.04 215.397L30.599 215.474C30.379 214.627 29.752 214.055 28.784 214.055C27.233 214.055 26.551 215.342 26.551 216.926C26.551 218.499 27.244 219.775 28.784 219.775C29.928 219.775 30.577 218.983 30.687 217.916H28.773V216.794H32.073V220.82ZM33.3227 214.99H34.5987L34.6317 216.112C34.8297 215.353 35.2697 214.99 36.0177 214.99H36.5677V216.057H36.0177C35.0827 216.057 34.6867 216.53 34.6867 217.476V220.82H33.3227V214.99ZM37.2993 216.761C37.5303 215.562 38.4653 214.858 39.8733 214.858C41.5453 214.858 42.4253 215.727 42.4253 217.355V219.39C42.4253 219.72 42.5573 219.808 42.7883 219.808H43.0083V220.82L42.6673 220.831C42.1943 220.831 41.3143 220.82 41.2263 219.929C40.9513 220.501 40.3023 220.952 39.3013 220.952C38.1353 220.952 37.2003 220.325 37.2003 219.291C37.2003 218.147 38.0473 217.784 39.4113 217.52L41.0503 217.19C41.0393 216.299 40.6653 215.87 39.8733 215.87C39.2463 215.87 38.8393 216.2 38.6963 216.838L37.2993 216.761ZM38.6083 219.247C38.6083 219.654 38.9493 219.973 39.6533 219.973C40.4673 219.973 41.0723 219.39 41.0723 218.202V218.147L39.9503 218.345C39.1913 218.488 38.6083 218.565 38.6083 219.247ZM43.9953 214.99H45.2273L45.2713 215.947C45.5793 215.177 46.2393 214.858 47.0203 214.858C48.3183 214.858 49.0113 215.771 49.0113 217.069V220.82H47.6473V217.498C47.6473 216.508 47.3833 215.969 46.6243 215.969C45.8323 215.969 45.3593 216.508 45.3593 217.498V220.82H43.9953V214.99ZM52.8383 220.952C51.1113 220.952 49.9783 219.753 49.9783 217.905C49.9783 216.057 51.1113 214.858 52.8383 214.858C54.5653 214.858 55.6983 216.057 55.6983 217.905C55.6983 219.753 54.5653 220.952 52.8383 220.952ZM51.3863 217.905C51.3863 219.115 51.9143 219.83 52.8383 219.83C53.7623 219.83 54.2903 219.115 54.2903 217.905C54.2903 216.695 53.7623 215.98 52.8383 215.98C51.9143 215.98 51.3863 216.695 51.3863 217.905ZM56.9685 213.01H58.3325V219.335C58.3325 219.61 58.4755 219.742 58.7395 219.742H59.2015V220.82H58.3985C57.5405 220.82 56.9685 220.281 56.9685 219.39V213.01ZM60.0409 216.761C60.2719 215.562 61.2069 214.858 62.6149 214.858C64.2869 214.858 65.1669 215.727 65.1669 217.355V219.39C65.1669 219.72 65.2989 219.808 65.5299 219.808H65.7499V220.82L65.4089 220.831C64.9359 220.831 64.0559 220.82 63.9679 219.929C63.6929 220.501 63.0439 220.952 62.0429 220.952C60.8769 220.952 59.9419 220.325 59.9419 219.291C59.9419 218.147 60.7889 217.784 62.1529 217.52L63.7919 217.19C63.7809 216.299 63.4069 215.87 62.6149 215.87C61.9879 215.87 61.5809 216.2 61.4379 216.838L60.0409 216.761ZM61.3499 219.247C61.3499 219.654 61.6909 219.973 62.3949 219.973C63.2089 219.973 63.8139 219.39 63.8139 218.202V218.147L62.6919 218.345C61.9329 218.488 61.3499 218.565 61.3499 219.247Z" fill="black" style="fill:black;fill-opacity:1;"/>
<path d="M74.1384 214.825V215.749L69.9364 217.641L74.1384 219.522V220.446L69.1334 218.202V217.069L74.1384 214.825ZM75.4785 213.01H76.3805V215.804C76.7215 215.155 77.4035 214.858 78.1295 214.858C79.4605 214.858 80.0985 215.837 80.0985 217.069V220.82H79.1965V217.399C79.1965 216.31 78.8335 215.716 77.9425 215.716C76.9965 215.716 76.3805 216.31 76.3805 217.399V220.82H75.4785V213.01ZM81.2132 217.905C81.2132 216.057 82.2582 214.858 83.8752 214.858C85.1732 214.858 86.3062 215.727 86.4052 217.784L86.4162 218.191H82.1702C82.2582 219.39 82.8632 220.094 83.8752 220.094C84.5132 220.094 85.0852 219.72 85.3492 219.104L86.3172 219.17C85.9762 220.27 84.9972 220.952 83.8752 220.952C82.2582 220.952 81.2132 219.753 81.2132 217.905ZM82.1922 217.388H85.4262C85.2612 216.156 84.6012 215.716 83.8752 215.716C82.9402 215.716 82.3352 216.332 82.1922 217.388ZM86.7901 214.99H87.7581L89.5291 219.852L91.2341 214.99H92.1911L89.8261 221.557C89.6061 222.184 89.1881 222.47 88.5281 222.47H87.8351V221.667H88.4401C88.7371 221.667 88.9131 221.557 89.0231 221.249L89.2321 220.71H88.9241L86.7901 214.99ZM98.7818 215.43H99.5628L99.3648 217.96C99.3428 218.202 99.3098 218.697 99.4418 218.895C99.8598 219.566 101.015 218.939 101.07 217.245C101.125 215.342 99.6618 213.791 97.7258 213.791C95.5148 213.791 93.7218 215.43 93.6448 217.52C93.5348 220.468 95.9658 221.865 99.1338 220.688L99.3208 221.436C95.7238 222.811 92.7318 220.996 92.8638 217.52C92.9518 214.99 95.1078 213.01 97.7478 213.01C100.135 213.01 101.917 214.847 101.851 217.19C101.752 220.479 98.7818 220.435 98.6388 218.928C98.3858 219.489 97.6158 219.929 96.8458 219.929C95.4488 219.929 94.8108 218.84 94.9538 217.63C95.0858 216.42 95.8778 215.331 97.2748 215.331C97.9568 215.331 98.4958 215.606 98.7268 216.046L98.7818 215.43ZM95.7898 217.63C95.7128 218.477 96.0428 219.28 97.0658 219.28C98.0668 219.28 98.5618 218.466 98.6498 217.641C98.7268 216.772 98.3748 215.958 97.3738 215.958C96.3618 215.958 95.8778 216.75 95.7898 217.63ZM103.215 214.99H104.04L104.073 215.98C104.337 215.265 104.942 214.858 105.756 214.858C106.592 214.858 107.197 215.309 107.45 216.09C107.703 215.298 108.319 214.858 109.232 214.858C110.398 214.858 111.08 215.672 111.08 217.069V220.82H110.178V217.333C110.178 216.266 109.76 215.661 109.045 215.661C108.132 215.661 107.604 216.277 107.604 217.344V220.82H106.702V217.333C106.702 216.288 106.273 215.661 105.569 215.661C104.667 215.661 104.117 216.299 104.117 217.333V220.82H103.215V214.99ZM112.454 216.706C112.685 215.573 113.587 214.858 114.83 214.858C116.337 214.858 117.173 215.738 117.173 217.3V219.643C117.173 219.907 117.283 220.017 117.536 220.017H117.767V220.82H117.382C116.788 220.82 116.271 220.622 116.282 219.907C116.029 220.457 115.369 220.952 114.445 220.952C113.29 220.952 112.355 220.336 112.355 219.302C112.355 218.103 113.268 217.795 114.544 217.542L116.271 217.212C116.26 216.2 115.787 215.716 114.83 215.716C114.082 215.716 113.587 216.101 113.411 216.783L112.454 216.706ZM113.301 219.302C113.301 219.775 113.708 220.16 114.566 220.149C115.534 220.149 116.293 219.467 116.293 218.114V218.015L114.896 218.257C114.027 218.411 113.301 218.477 113.301 219.302ZM118.894 214.99H119.796V220.82H118.894V214.99ZM118.872 214.077V213.032H119.818V214.077H118.872ZM121.577 213.01H122.479V219.654C122.479 219.907 122.6 220.017 122.853 220.017H123.348V220.82H122.721C122.028 220.82 121.577 220.369 121.577 219.698V213.01ZM124.4 219.643H125.566V220.82H124.4V219.643ZM129.11 220.512C127.515 220.512 126.492 219.324 126.492 217.685C126.492 216.046 127.537 214.858 129.11 214.858C129.891 214.858 130.529 215.298 130.782 215.925V214.99H131.651V220.248C131.651 221.777 130.606 222.602 129.088 222.602C127.845 222.602 126.91 221.92 126.657 220.908L127.603 220.842C127.834 221.403 128.34 221.744 129.088 221.744C130.122 221.744 130.749 221.282 130.749 220.446V219.478C130.397 220.171 129.737 220.512 129.11 220.512ZM127.438 217.685C127.438 218.829 128.065 219.654 129.11 219.654C130.111 219.654 130.749 218.818 130.76 217.685C130.782 216.552 130.144 215.716 129.11 215.716C128.065 215.716 127.438 216.541 127.438 217.685ZM133.407 214.99H134.199L134.232 216.068C134.43 215.331 134.87 214.99 135.629 214.99H136.19V215.782H135.629C134.738 215.782 134.309 216.332 134.309 217.344V220.82H133.407V214.99ZM136.995 216.706C137.226 215.573 138.128 214.858 139.371 214.858C140.878 214.858 141.714 215.738 141.714 217.3V219.643C141.714 219.907 141.824 220.017 142.077 220.017H142.308V220.82H141.923C141.329 220.82 140.812 220.622 140.823 219.907C140.57 220.457 139.91 220.952 138.986 220.952C137.831 220.952 136.896 220.336 136.896 219.302C136.896 218.103 137.809 217.795 139.085 217.542L140.812 217.212C140.801 216.2 140.328 215.716 139.371 215.716C138.623 215.716 138.128 216.101 137.952 216.783L136.995 216.706ZM137.842 219.302C137.842 219.775 138.249 220.16 139.107 220.149C140.075 220.149 140.834 219.467 140.834 218.114V218.015L139.437 218.257C138.568 218.411 137.842 218.477 137.842 219.302ZM143.435 214.99H144.26L144.293 215.991C144.59 215.21 145.283 214.858 146.086 214.858C147.417 214.858 148.055 215.837 148.055 217.069V220.82H147.153V217.333C147.153 216.255 146.79 215.661 145.899 215.661C144.953 215.661 144.337 216.255 144.337 217.333V220.82H143.435V214.99ZM151.832 220.952C150.215 220.952 149.17 219.753 149.17 217.905C149.17 216.057 150.215 214.858 151.832 214.858C153.449 214.858 154.494 216.057 154.494 217.905C154.494 219.753 153.449 220.952 151.832 220.952ZM150.116 217.905C150.116 219.269 150.743 220.094 151.832 220.094C152.91 220.094 153.548 219.269 153.548 217.905C153.548 216.541 152.91 215.716 151.832 215.716C150.743 215.716 150.116 216.541 150.116 217.905ZM155.859 213.01H156.761V219.654C156.761 219.907 156.882 220.017 157.135 220.017H157.63V220.82H157.003C156.31 220.82 155.859 220.369 155.859 219.698V213.01ZM158.577 216.706C158.808 215.573 159.71 214.858 160.953 214.858C162.46 214.858 163.296 215.738 163.296 217.3V219.643C163.296 219.907 163.406 220.017 163.659 220.017H163.89V220.82H163.505C162.911 220.82 162.394 220.622 162.405 219.907C162.152 220.457 161.492 220.952 160.568 220.952C159.413 220.952 158.478 220.336 158.478 219.302C158.478 218.103 159.391 217.795 160.667 217.542L162.394 217.212C162.383 216.2 161.91 215.716 160.953 215.716C160.205 215.716 159.71 216.101 159.534 216.783L158.577 216.706ZM159.424 219.302C159.424 219.775 159.831 220.16 160.689 220.149C161.657 220.149 162.416 219.467 162.416 218.114V218.015L161.019 218.257C160.15 218.411 159.424 218.477 159.424 219.302ZM164.888 219.643H166.054V220.82H164.888V219.643ZM171.117 216.937C170.985 216.167 170.358 215.716 169.643 215.716C168.554 215.716 167.927 216.541 167.927 217.905C167.927 219.269 168.554 220.094 169.643 220.094C170.391 220.094 171.029 219.599 171.161 218.763L172.118 218.818C171.931 220.138 170.886 220.952 169.643 220.952C168.026 220.952 166.981 219.753 166.981 217.905C166.981 216.057 168.026 214.858 169.643 214.858C170.842 214.858 171.909 215.628 172.063 216.871L171.117 216.937ZM175.591 220.952C173.974 220.952 172.929 219.753 172.929 217.905C172.929 216.057 173.974 214.858 175.591 214.858C177.208 214.858 178.253 216.057 178.253 217.905C178.253 219.753 177.208 220.952 175.591 220.952ZM173.875 217.905C173.875 219.269 174.502 220.094 175.591 220.094C176.669 220.094 177.307 219.269 177.307 217.905C177.307 216.541 176.669 215.716 175.591 215.716C174.502 215.716 173.875 216.541 173.875 217.905ZM179.543 214.99H180.368L180.401 215.98C180.665 215.265 181.27 214.858 182.084 214.858C182.92 214.858 183.525 215.309 183.778 216.09C184.031 215.298 184.647 214.858 185.56 214.858C186.726 214.858 187.408 215.672 187.408 217.069V220.82H186.506V217.333C186.506 216.266 186.088 215.661 185.373 215.661C184.46 215.661 183.932 216.277 183.932 217.344V220.82H183.03V217.333C183.03 216.288 182.601 215.661 181.897 215.661C180.995 215.661 180.445 216.299 180.445 217.333V220.82H179.543V214.99ZM188.705 214.825L193.71 217.069V218.202L188.705 220.446V219.522L192.907 217.641L188.705 215.749V214.825Z" fill="black" fill-opacity="0.43" style="fill:black;fill-opacity:0.43;"/>
</svg>
